<svg width="24" height="24" viewBox="0 0 24 24" fill="none" xmlns="http://www.w3.org/2000/svg">
<path d="M9.25 5.75C9.80228 5.75 10.25 6.19772 10.25 6.75V17.25C10.25 17.8023 9.80228 18.25 9.25 18.25H6.75C6.19772 18.25 5.75 17.8023 5.75 17.25V6.75C5.75 6.19772 6.19772 5.75 6.75 5.75H9.25ZM17.25 5.75C17.8023 5.75 18.25 6.19772 18.25 6.75V17.25C18.25 17.8023 17.8023 18.25 17.25 18.25H14.75C14.1977 18.25 13.75 17.8023 13.75 17.25V6.75C13.75 6.19772 14.1977 5.75 14.75 5.75H17.25Z" fill="white"/>
</svg>
