<svg width="24" height="24" viewBox="0 0 24 24" fill="none" xmlns="http://www.w3.org/2000/svg">
<path d="M19 11.4998C19.5522 11.4998 19.9999 11.9476 20 12.4998V13.9998C20 16.209 18.2091 17.9998 16 17.9998H7.16406L7.95703 18.7928C8.34753 19.1833 8.34747 19.8163 7.95703 20.2068C7.56651 20.5974 6.93349 20.5974 6.54297 20.2068L4.04297 17.7068C3.85548 17.5193 3.75 17.265 3.75 16.9998C3.75004 16.7347 3.85547 16.4803 4.04297 16.2928L6.54297 13.7928C6.93347 13.4024 7.56653 13.4024 7.95703 13.7928C8.34753 14.1833 8.34747 14.8163 7.95703 15.2068L7.16406 15.9998H16C17.1046 15.9998 18 15.1044 18 13.9998V12.4998C18.0001 11.9476 18.4478 11.4998 19 11.4998ZM16.043 3.79279C16.4335 3.40237 17.0665 3.40237 17.457 3.79279L19.957 6.29279C20.1445 6.48028 20.25 6.73466 20.25 6.99982C20.25 7.265 20.1445 7.51932 19.957 7.70685L17.457 10.2068C17.0665 10.5974 16.4335 10.5974 16.043 10.2068C15.6525 9.81632 15.6525 9.18328 16.043 8.79279L16.8359 7.99982H8C6.89548 7.99982 6.00009 8.89532 6 9.99982V11.4998C6 12.0521 5.55228 12.4998 5 12.4998C4.44772 12.4998 4 12.0521 4 11.4998V9.99982C4.00009 7.79075 5.79091 5.99982 8 5.99982H16.8359L16.043 5.20685C15.6525 4.81632 15.6525 4.18328 16.043 3.79279Z" fill="#73ABFF"/>
</svg>
