<svg width="24" height="24" viewBox="0 0 24 24" fill="none" xmlns="http://www.w3.org/2000/svg">
<path d="M14.8281 2.57153C14.9928 2.04467 15.5532 1.75104 16.0801 1.91528L15.7822 2.86841C16.0673 1.95634 16.0808 1.91681 16.082 1.91528H16.083C16.0838 1.91553 16.0851 1.91673 16.0859 1.91724C16.088 1.91789 16.0911 1.9184 16.0938 1.91919C16.0994 1.92103 16.1072 1.92333 16.1152 1.92603C16.1318 1.93157 16.1538 1.93916 16.1797 1.94849C16.2319 1.96732 16.3032 1.99464 16.3896 2.03052C16.5628 2.10243 16.8011 2.21096 17.0811 2.36548C17.6405 2.67436 18.3758 3.17061 19.1084 3.92603C20.5938 5.45783 21.9999 7.99073 22 12.0002C21.9999 16.0097 20.5938 18.5417 19.1084 20.0735C18.3757 20.829 17.6406 21.3251 17.0811 21.634C16.801 21.7886 16.5629 21.8971 16.3896 21.969C16.3031 22.0049 16.232 22.0322 16.1797 22.051C16.1537 22.0604 16.1318 22.0679 16.1152 22.0735C16.1071 22.0762 16.0995 22.0785 16.0938 22.0803C16.0911 22.0812 16.088 22.0826 16.0859 22.0833L16.083 22.0842H16.082C16.0799 22.0797 16.0587 22.0148 15.7822 21.1301L16.0801 22.0852C15.5533 22.2493 14.993 21.9555 14.8281 21.429C14.6642 20.9038 14.955 20.3439 15.4785 20.177C15.4816 20.176 15.4901 20.1734 15.502 20.1692C15.526 20.1605 15.5675 20.1454 15.623 20.1223C15.735 20.0758 15.9054 19.9984 16.1143 19.8831C16.5329 19.6519 17.1014 19.2702 17.6729 18.6809C18.796 17.5225 19.9999 15.4901 20 12.0002C19.9999 8.51024 18.7961 6.477 17.6729 5.3186C17.1015 4.72945 16.5328 4.34755 16.1143 4.11646C15.9055 4.0012 15.735 3.92368 15.623 3.8772C15.5676 3.85417 15.526 3.83898 15.502 3.83032C15.4902 3.8261 15.4816 3.82353 15.4785 3.82251L15.4775 3.82153L15.4814 3.82349H15.4824V3.82251C14.9567 3.65693 14.6638 3.09787 14.8281 2.57153ZM12.0205 5.99341C12.216 5.47709 12.7942 5.21717 13.3105 5.41235L12.9678 6.31665C13.2947 5.45315 13.3103 5.41392 13.3115 5.41235L13.3125 5.41333L13.3154 5.41431C13.3173 5.41501 13.3201 5.41635 13.3223 5.41724C13.3266 5.41894 13.3322 5.42085 13.3379 5.4231C13.3501 5.428 13.366 5.43503 13.3838 5.44263C13.4195 5.45793 13.4666 5.47906 13.5225 5.5061C13.6348 5.56048 13.7862 5.64043 13.9619 5.75024C14.3131 5.96979 14.7696 6.31324 15.2227 6.81958C16.1449 7.85052 16.9999 9.50049 17 12.0002C16.9999 14.4999 16.1449 16.149 15.2227 17.1799C14.7695 17.6864 14.3132 18.0297 13.9619 18.2493C13.7861 18.3591 13.6348 18.439 13.5225 18.4934C13.4665 18.5205 13.4196 18.5416 13.3838 18.5569C13.366 18.5645 13.3501 18.5715 13.3379 18.5764C13.3322 18.5787 13.3267 18.5806 13.3223 18.5823C13.32 18.5832 13.3173 18.5845 13.3154 18.5852L13.3125 18.5862L13.3115 18.5872C13.3092 18.5826 13.2841 18.518 12.9561 17.6516L13.3105 18.5872C12.7941 18.7825 12.216 18.5225 12.0205 18.0061C11.8254 17.4902 12.0853 16.9131 12.6006 16.717C12.6103 16.7128 12.6279 16.705 12.6514 16.6936C12.7053 16.6675 12.7924 16.622 12.9014 16.554C13.1206 16.4169 13.425 16.1905 13.7324 15.8469C14.3318 15.1769 14.9999 14.0001 15 12.0002C14.9999 10.0003 14.3319 8.82267 13.7324 8.15259C13.4251 7.80916 13.1205 7.58253 12.9014 7.44556C12.7925 7.37756 12.7053 7.33203 12.6514 7.30591C12.6284 7.29476 12.6113 7.28573 12.6016 7.28149C12.0859 7.08548 11.8251 6.50948 12.0205 5.99341ZM8.79297 6.20728C9.42293 5.57731 10.5 6.0234 10.5 6.91431V17.0862C10.4997 17.9767 9.42287 18.4228 8.79297 17.7932L6.29297 15.2932C6.10547 15.1057 5.8511 15.0003 5.58594 15.0002H3C2.4478 15.0002 2.00014 14.5524 2 14.0002V10.0002C2 9.44796 2.44772 9.00024 3 9.00024H5.58594C5.85107 9.0002 6.10547 8.89474 6.29297 8.70728L8.79297 6.20728Z" fill="#619BF2"/>
</svg>
