<svg width="24" height="24" viewBox="0 0 24 24" fill="none" xmlns="http://www.w3.org/2000/svg">
<path d="M17 4.99982C19.2091 4.99982 20.9999 6.79075 21 8.99982V13.9998C21 16.209 19.2091 17.9998 17 17.9998H14.4141L15.707 19.2928C16.0975 19.6833 16.0975 20.3163 15.707 20.7068C15.3165 21.0974 14.6835 21.0974 14.293 20.7068L11.293 17.7068C10.9025 17.3163 10.9025 16.6833 11.293 16.2928L14.293 13.2928C14.6835 12.9024 15.3165 12.9024 15.707 13.2928C16.0975 13.6833 16.0975 14.3163 15.707 14.7068L14.4141 15.9998H17C18.1046 15.9998 19 15.1044 19 13.9998V8.99982C18.9999 7.89532 18.1045 6.99982 17 6.99982H7C5.89548 6.99982 5.00009 7.89532 5 8.99982V13.9998C5 15.1044 5.89543 15.9998 7 15.9998H8C8.55223 15.9998 8.99991 16.4476 9 16.9998C9 17.5521 8.55228 17.9998 8 17.9998H7C4.79086 17.9998 3 16.209 3 13.9998V8.99982C3.00009 6.79075 4.79092 4.99982 7 4.99982H17ZM12 9.74982C12.8284 9.74982 13.4999 10.4215 13.5 11.2498C13.5 12.0782 12.8284 12.7498 12 12.7498C11.1716 12.7498 10.5 12.0782 10.5 11.2498C10.5001 10.4215 11.1716 9.74982 12 9.74982Z" fill="#619BF2"/>
</svg>
