<svg width="24" height="24" viewBox="0 0 24 24" fill="none" xmlns="http://www.w3.org/2000/svg">
<path d="M16.5 4.99982C18.9852 4.99982 20.9999 7.01461 21 9.49982V14.4998C21 16.9851 18.9853 18.9998 16.5 18.9998H14.4141L15.707 20.2928C16.0975 20.6833 16.0975 21.3163 15.707 21.7068C15.3165 22.0974 14.6835 22.0974 14.293 21.7068L11.293 18.7068C10.9025 18.3163 10.9025 17.6833 11.293 17.2928L14.293 14.2928C14.6835 13.9024 15.3165 13.9024 15.707 14.2928C16.0975 14.6833 16.0975 15.3163 15.707 15.7068L14.4141 16.9998H16.5C17.8807 16.9998 19 15.8805 19 14.4998V9.49982C18.9999 8.11918 17.8807 6.99982 16.5 6.99982H7.5C6.11934 6.99982 5.00009 8.11918 5 9.49982V14.4998C5 15.8805 6.11929 16.9998 7.5 16.9998H8C8.55223 16.9998 8.99991 17.4476 9 17.9998C9 18.5521 8.55228 18.9998 8 18.9998H7.5C5.01472 18.9998 3 16.9851 3 14.4998V9.49982C3.00009 7.01461 5.01477 4.99982 7.5 4.99982H16.5Z" fill="#FFF"/>
</svg>
