<svg width="24" height="24" viewBox="0 0 24 24" fill="none" xmlns="http://www.w3.org/2000/svg">
<path d="M16.5 4.99982C18.9852 4.99982 20.9999 7.01461 21 9.49982V13.4998C21 15.9851 18.9853 17.9998 16.5 17.9998H14.4141L15.707 19.2928C16.0975 19.6833 16.0975 20.3163 15.707 20.7068C15.3165 21.0974 14.6835 21.0974 14.293 20.7068L11.293 17.7068C10.9025 17.3163 10.9025 16.6833 11.293 16.2928L14.293 13.2928C14.6835 12.9024 15.3165 12.9024 15.707 13.2928C16.0975 13.6833 16.0975 14.3163 15.707 14.7068L14.4141 15.9998H16.5C17.8807 15.9998 19 14.8805 19 13.4998V9.49982C18.9999 8.11918 17.8807 6.99982 16.5 6.99982H7.5C6.11934 6.99982 5.00009 8.11918 5 9.49982V13.4998C5 14.8805 6.11929 15.9998 7.5 15.9998H8C8.55223 15.9998 8.99991 16.4476 9 16.9998C9 17.5521 8.55228 17.9998 8 17.9998H7.5C5.01472 17.9998 3 15.9851 3 13.4998V9.49982C3.00009 7.01461 5.01477 4.99982 7.5 4.99982H16.5ZM12 9.74982C12.8284 9.74982 13.4999 10.4215 13.5 11.2498C13.5 12.0782 12.8284 12.7498 12 12.7498C11.1716 12.7498 10.5 12.0782 10.5 11.2498C10.5001 10.4215 11.1716 9.74982 12 9.74982Z" fill="#619BF2"/>
</svg>
