<svg width="24" height="24" viewBox="0 0 24 24" fill="none" xmlns="http://www.w3.org/2000/svg">
<path d="M17 2C18.1046 2 19 2.89543 19 4V20.5859C18.9999 21.4767 17.9229 21.9228 17.293 21.293L12.707 16.707C12.3165 16.3166 11.6835 16.3166 11.293 16.707L6.70703 21.293C6.07709 21.9228 5.00012 21.4767 5 20.5859V4C5 2.89543 5.89543 2 7 2H17ZM9 9.25C8.58579 9.25 8.25 9.58579 8.25 10C8.25 10.4142 8.58579 10.75 9 10.75H15C15.4142 10.75 15.75 10.4142 15.75 10C15.75 9.58579 15.4142 9.25 15 9.25H9Z" fill="#619BF2"/>
</svg>
