<svg width="24" height="24" viewBox="0 0 24 24" fill="none" xmlns="http://www.w3.org/2000/svg">
<path d="M17 2C18.1046 2 19 2.89543 19 4V20.5859C18.9999 21.4767 17.9229 21.9228 17.293 21.293L12.707 16.707C12.3165 16.3166 11.6835 16.3166 11.293 16.707L6.70703 21.293C6.07709 21.9228 5.00012 21.4767 5 20.5859V4C5 2.89543 5.89543 2 7 2H17ZM12 5.75C11.5858 5.75001 11.25 6.08579 11.25 6.5V8.75H9C8.58579 8.75001 8.25 9.08579 8.25 9.5C8.25 9.91421 8.58579 10.25 9 10.25H11.25V12.5C11.25 12.9142 11.5858 13.25 12 13.25C12.4142 13.25 12.75 12.9142 12.75 12.5V10.25H15C15.4142 10.25 15.75 9.91421 15.75 9.5C15.75 9.08579 15.4142 8.75001 15 8.75H12.75V6.5C12.75 6.08579 12.4142 5.75 12 5.75Z" fill="#619BF2"/>
</svg>
