<svg width="24" height="24" viewBox="0 0 24 24" fill="none" xmlns="http://www.w3.org/2000/svg">
<path d="M17.25 3C18.7688 3 20 4.23122 20 5.75C20 5.79987 19.9948 5.84922 19.9922 5.89844C19.9967 5.93169 20 5.96551 20 6V20.25C20 20.6642 19.6642 21 19.25 21H7.75C7.33579 21 7 20.6642 7 20.25V7.75C7 7.33579 7.33579 7 7.75 7H17.25C17.9404 7 18.5 6.44036 18.5 5.75C18.5 5.05964 17.9404 4.5 17.25 4.5H6.75C6.05964 4.5 5.5 5.05964 5.5 5.75V18.0674C5.49983 18.4815 5.16411 18.8174 4.75 18.8174C4.33589 18.8174 4.00017 18.4815 4 18.0674V5.75C4 4.23122 5.23122 3 6.75 3H17.25Z" fill="url(#paint0_linear_1_1082)"/>
<path d="M9 15V6.5C9 6.22386 9.22386 6 9.5 6H13.5C13.7761 6 14 6.22386 14 6.5V15L11.5 12L9 15Z" fill="#FF2200"/>
<defs>
<linearGradient id="paint0_linear_1_1082" x1="3.14236" y1="2" x2="23.0044" y2="19.6552" gradientUnits="userSpaceOnUse">
<stop stop-color="#7EA9E6"/>
<stop offset="1" stop-color="#3B67A6"/>
</linearGradient>
</defs>
</svg>
