<svg width="24" height="24" viewBox="0 0 24 24" fill="none" xmlns="http://www.w3.org/2000/svg">
<path d="M18.3076 1C19.7573 1.00006 20.9326 2.17529 20.9326 3.625V21.75C20.9326 22.1642 20.5968 22.4999 20.1826 22.5H6.75C6.33579 22.5 6 22.1642 6 21.75V5.5C6 5.08579 6.33579 4.75 6.75 4.75H18.3076C18.9289 4.74994 19.4326 4.24628 19.4326 3.625C19.4326 3.00372 18.9289 2.50006 18.3076 2.5H5.75C5.05964 2.5 4.5 3.05964 4.5 3.75V19.0674C4.49983 19.4815 4.16411 19.8174 3.75 19.8174C3.33589 19.8174 3.00017 19.4815 3 19.0674V3.75C3 2.23122 4.23122 1 5.75 1H18.3076Z" fill="url(#paint0_linear_13_716)"/>
<path d="M9 14V4.5C9 4.22386 9.22386 4 9.5 4H13.5C13.7761 4 14 4.22386 14 4.5V14L11.5 11L9 14Z" fill="#E71F00"/>
<defs>
<linearGradient id="paint0_linear_13_716" x1="2.03877" y1="-0.194443" x2="25.5398" y2="19.4072" gradientUnits="userSpaceOnUse">
<stop stop-color="#7EA9E6"/>
<stop offset="1" stop-color="#3B67A6"/>
</linearGradient>
</defs>
</svg>
