<svg width="24" height="24" viewBox="0 0 24 24" fill="none" xmlns="http://www.w3.org/2000/svg">
<path d="M18.8027 8.4707C18.442 9.64503 17.9046 10.6838 17.3438 11.7002C17.2616 11.849 17.1784 11.9984 17.0947 12.1484C16.1947 13.7613 15.25 15.4542 15.25 17.5C15.25 18.8163 15.455 19.7938 15.8242 20.499H5.5C5.45367 20.499 5.40696 20.4996 5.36035 20.5C4.94042 20.5032 4.51203 20.5062 4.12988 20.251C3.76977 20.0104 3.25 19.3746 3.25 17.5C3.25 15.8795 3.83018 14.9472 4.57031 13.7568C4.63159 13.6583 4.69359 13.5577 4.75684 13.4551C5.50438 12.2419 6.27567 10.8267 6.44922 8.49902H18.4727V8.49707C18.4769 8.49714 18.4811 8.49761 18.4854 8.49805L18.4951 8.49902H18.5C18.6046 8.49902 18.7054 8.48837 18.8027 8.4707ZM18.75 17C18.795 17 18.962 17.0332 19.1582 17.3643C19.3461 17.6813 19.4863 18.1694 19.4863 18.75C19.4863 19.3306 19.3461 19.8186 19.1582 20.1357C18.962 20.4668 18.795 20.499 18.75 20.499C18.7034 20.499 18.6574 20.4997 18.6123 20.5C18.2008 20.5027 17.8502 20.5047 17.5342 20.2715C17.2253 20.0435 16.75 19.4057 16.75 17.5C16.75 17.3305 16.7599 17.1641 16.7754 17H18.75ZM13.1318 11.5732C12.839 11.2804 12.3642 11.2804 12.0713 11.5732L10.4775 13.167L8.88379 11.5732C8.5909 11.2803 8.11516 11.2803 7.82227 11.5732C7.52971 11.866 7.52982 12.3409 7.82227 12.6338L9.41699 14.2275L7.82812 15.8164C7.5358 16.1093 7.53545 16.5842 7.82812 16.877C8.12099 17.1697 8.59679 17.1697 8.88965 16.877L10.4775 15.2881L12.0654 16.877C12.3583 17.1695 12.8332 17.1695 13.126 16.877C13.4188 16.5842 13.4186 16.1093 13.126 15.8164L11.5381 14.2275L13.1318 12.6338C13.4246 12.3409 13.4246 11.8661 13.1318 11.5732ZM16.5918 3.49902C16.3703 4.01434 16.25 4.61923 16.25 5.24902C16.25 5.87881 16.3703 6.48371 16.5918 6.99902H5C4.95273 6.99902 4.78138 6.96311 4.58203 6.63086C4.39171 6.31354 4.25 5.82668 4.25 5.24902C4.25 4.67137 4.39171 4.18451 4.58203 3.86719C4.78138 3.53494 4.95273 3.49902 5 3.49902H16.5918ZM18.5 3.49902C18.5473 3.49902 18.7186 3.53494 18.918 3.86719C19.1083 4.18451 19.25 4.67137 19.25 5.24902C19.25 5.82668 19.1083 6.31354 18.918 6.63086C18.7186 6.96311 18.5473 6.99902 18.5 6.99902C18.4527 6.99902 18.2814 6.96311 18.082 6.63086C17.8917 6.31354 17.75 5.82668 17.75 5.24902C17.75 4.67137 17.8917 4.18451 18.082 3.86719C18.2814 3.53494 18.4527 3.49902 18.5 3.49902Z" fill="#619BF2"/>
</svg>
