<svg width="24" height="24" viewBox="0 0 24 24" fill="none" xmlns="http://www.w3.org/2000/svg">
<path fill-rule="evenodd" clip-rule="evenodd" d="M11.002 2C10.2019 2 9.55332 2.6486 9.55332 3.44869V3.89135H8.90946C8.75388 3.89135 8.62777 4.01747 8.62777 4.17304V4.53521H5.36821C4.61257 4.53521 4 5.14778 4 5.90342V6.58753C4 6.85422 4.2162 7.07042 4.4829 7.07042H20.0563C20.323 7.07042 20.5392 6.85422 20.5392 6.58753V5.90342C20.5392 5.14778 19.9267 4.53521 19.171 4.53521H15.8712V4.17304C15.8712 4.01747 15.7451 3.89135 15.5895 3.89135H14.9457V3.44869C14.9457 2.6486 14.2971 2 13.497 2H11.002ZM10.7203 3.56942C10.7203 3.34717 10.9005 3.167 11.1227 3.167H13.3763C13.5985 3.167 13.7787 3.34717 13.7787 3.56942V4.57545H10.7203V3.56942Z" fill="#66A3FF"/>
<path fill-rule="evenodd" clip-rule="evenodd" d="M4.64386 8.19718H19.8954C20.1621 8.19718 20.3783 8.41338 20.3783 8.68008V9.60563C20.3783 9.85319 20.2049 10.0572 19.9547 10.0853C19.9504 10.0857 19.946 10.0862 19.9417 10.0867C19.9066 10.0905 19.8711 10.0944 19.8374 10.104C19.102 10.3141 19.0407 10.8612 18.9794 11.4087C18.9654 11.5336 18.9514 11.6585 18.9294 11.7794L17.582 20.6325C17.4623 21.419 16.7861 22 15.9906 22H8.50835C7.71289 22 7.03671 21.419 6.91702 20.6325L5.56958 11.7794C5.54149 11.631 5.52459 11.4834 5.50823 11.3404C5.44411 10.7804 5.38814 10.2915 4.69957 10.1028C4.66468 10.0932 4.62798 10.0898 4.5919 10.0863L4.59186 10.0863L4.587 10.0859C4.31945 10.0604 4.16097 9.85513 4.16097 9.60563V8.68008C4.16097 8.41338 4.37717 8.19718 4.64386 8.19718ZM9.30973 10.5389C9.28261 10.229 9.00935 9.99969 8.69939 10.0268C8.38943 10.0539 8.16014 10.3272 8.18725 10.6371L8.94833 19.3363C8.97545 19.6463 9.24871 19.8756 9.55867 19.8484C9.86863 19.8213 10.0979 19.5481 10.0708 19.2381L9.30973 10.5389ZM12.246 10.008C12.5571 10.008 12.8094 10.2603 12.8094 10.5714V19.3038C12.8094 19.615 12.5571 19.8672 12.246 19.8672C11.9348 19.8672 11.6826 19.615 11.6826 19.3038V10.5714C11.6826 10.2603 11.9348 10.008 12.246 10.008ZM16.3047 10.6371C16.3318 10.3272 16.1025 10.0539 15.7926 10.0268C15.4826 9.99969 15.2094 10.229 15.1822 10.5389L14.4212 19.2381C14.3941 19.5481 14.6233 19.8213 14.9333 19.8484C15.2433 19.8756 15.5165 19.6463 15.5436 19.3363L16.3047 10.6371Z" fill="#66A3FF"/>
</svg>
