<svg width="24" height="24" viewBox="0 0 24 24" fill="none" xmlns="http://www.w3.org/2000/svg">
<path d="M13.5 9H2.57617C2.98812 8.54063 3.58441 8.25001 4.25 8.25H12.9375L13.5 9ZM8 3C8.62953 3 9.22288 3.29617 9.60059 3.7998L11.8125 6.75H4.25C3.40644 6.75 2.62748 7.02793 2.00098 7.49805V5C2.00097 3.89544 2.8964 3 4.00098 3H8Z" fill="#66A3FF"/>
<path d="M12 8C13.1046 8 14 8.89543 14 10V19C14 20.1046 13.1046 21 12 21H4C2.89543 21 2 20.1046 2 19V10C2 8.89543 2.89543 8 4 8H12ZM10.9854 11.4697C10.6925 11.177 10.2177 11.1771 9.9248 11.4697L7.97754 13.417L6.03027 11.4697C5.73745 11.1771 5.26257 11.1772 4.96973 11.4697C4.6769 11.7626 4.67703 12.2374 4.96973 12.5303L6.91699 14.4775L4.97559 16.4189C4.68273 16.7118 4.68274 17.1866 4.97559 17.4795C5.26848 17.7722 5.74328 17.7723 6.03613 17.4795L7.97754 15.5381L9.91895 17.4795C10.2118 17.7722 10.6866 17.7723 10.9795 17.4795C11.2721 17.1866 11.2722 16.7118 10.9795 16.4189L9.03809 14.4775L10.9854 12.5303C11.2779 12.2374 11.278 11.7625 10.9854 11.4697Z" fill="#66A3FF"/>
<path d="M13.7305 20C13.3845 20.5973 12.7399 21 12 21H11.5V20H13.7305ZM19.5 12C20.8807 12 22 13.1193 22 14.5V18.5C22 19.8807 20.8807 21 19.5 21H18.2314C18.4905 20.7112 18.6941 20.3732 18.8262 20H19.5C20.3284 20 21 19.3284 21 18.5V14.5C21 13.6716 20.3284 13 19.5 13H19V12H19.5ZM16 9C17.1046 9 18 9.89543 18 11V19C18 19.0727 17.995 19.1442 17.9873 19.2148C17.9751 19.3288 17.9524 19.4394 17.9219 19.5469C17.876 19.7068 17.8122 19.859 17.7305 20C17.3845 20.5973 16.7399 21 16 21H14.2314C14.4905 20.7112 14.6941 20.3732 14.8262 20H16C16.5523 20 17 19.5523 17 19V11C17 10.4477 16.5523 10 16 10H15C15 9.649 14.9369 9.31306 14.8262 9H16ZM13.7305 9C13.9009 9.29437 14 9.63536 14 10H11.5V9H13.7305Z" fill="#66A3FF"/>
</svg>
