<svg width="24" height="24" viewBox="0 0 24 24" fill="none" xmlns="http://www.w3.org/2000/svg">
<path d="M22.5 19V20.75C22.5 21.7165 21.7165 22.5 20.75 22.5H19V21H20.75C20.8881 21 21 20.8881 21 20.75V19H22.5Z" fill="#73ABFF"/>
<path d="M15.25 22H13.75V21H15.25V22Z" fill="#73ABFF"/>
<path d="M17.75 22H16.25V21H17.75V22Z" fill="#73ABFF"/>
<path d="M22 17H21V15H22V17Z" fill="#73ABFF"/>
<path d="M22 13.5H21V11.5H22V13.5Z" fill="#73ABFF"/>
<path d="M22 10H21V8H22V10Z" fill="#73ABFF"/>
<path d="M20.75 2.5C21.7165 2.5 22.5 3.2835 22.5 4.25V6H21V4.25C21 4.11193 20.8881 4 20.75 4H19V2.5H20.75Z" fill="#73ABFF"/>
<path d="M10.25 4H8.75V3H10.25V4Z" fill="#73ABFF"/>
<path d="M12.75 4H11.25V3H12.75V4Z" fill="#73ABFF"/>
<path d="M15.25 4H13.75V3H15.25V4Z" fill="#73ABFF"/>
<path d="M17.75 4H16.25V3H17.75V4Z" fill="#73ABFF"/>
<path d="M1.99921 4C1.99921 2.89543 2.89464 2 3.99921 2H7.17078C7.70121 2 8.20992 2.21071 8.58499 2.58579L12.4992 6.5H3.99921L2.0107 8.48851C2.00646 8.49275 1.99921 8.48975 1.99921 8.48375V4Z" fill="#409FFF"/>
<path d="M2 8C2 6.89543 2.89543 6 4 6H13C14.1046 6 15 6.89543 15 8V20C15 21.1046 14.1046 22 13 22H4C2.89543 22 2 21.1046 2 20V8Z" fill="#364159"/>
<path d="M5.55736 11.0582C5.80144 10.8141 6.19707 10.8141 6.44115 11.0582L8.47631 13.0933L10.5124 11.0582C10.7565 10.8143 11.1522 10.8142 11.3962 11.0582C11.6402 11.3022 11.6401 11.6979 11.3962 11.942L9.36009 13.9771L11.3904 16.0074C11.6342 16.2515 11.6344 16.6472 11.3904 16.8912C11.1464 17.1352 10.7507 17.1351 10.5066 16.8912L8.47631 14.8609L6.44701 16.8912C6.20295 17.1353 5.8073 17.1352 5.56322 16.8912C5.31914 16.6471 5.31914 16.2515 5.56322 16.0074L7.59252 13.9771L5.55736 11.942C5.31328 11.6979 5.31328 11.3023 5.55736 11.0582Z" fill="white"/>
</svg>
