<svg width="24" height="24" viewBox="0 0 24 24" fill="none" xmlns="http://www.w3.org/2000/svg">
<path d="M20.9994 7.00049C20.9994 6.84311 20.9251 6.69452 20.7992 6.6001L17.4662 4.1001C17.3797 4.0353 17.2744 4.00056 17.1664 4.00049H7.99936V3.00049H17.1664C17.4907 3.00056 17.8063 3.10575 18.0658 3.30029L21.3997 5.80029C21.7774 6.08358 21.9994 6.52842 21.9994 7.00049V7.50049H20.9994V7.00049Z" fill="#73ABFF"/>
<path d="M0.999892 4.00002C0.999949 2.89549 1.89536 2.00012 2.99989 2.00012H8.17153C8.70199 2.00012 9.21071 2.21085 9.58579 2.58595L14.4996 7.50012H2.5L0.999634 9.00012L0.999892 4.00002Z" fill="#409FFF"/>
<path d="M1 9.00012C1 7.89555 1.89543 7.00012 3 7.00012H21C22.1046 7.00012 23 7.89555 23 9.00012V19.0001C23 20.1047 22.1046 21.0001 21 21.0001H3C1.89543 21.0001 1 20.1047 1 19.0001V9.00012Z" fill="#364159"/>
<path d="M14.0131 11.0581C14.2572 10.8142 14.6529 10.8142 14.8969 11.0581C15.141 11.3022 15.1408 11.6978 14.8969 11.9419L12.8608 13.9771L14.8911 16.0074C15.135 16.2514 15.1351 16.6471 14.8911 16.8912C14.647 17.1352 14.2514 17.1351 14.0073 16.8912L11.977 14.8609L9.94771 16.8912C9.70363 17.1352 9.308 17.1352 9.06392 16.8912C8.81988 16.6471 8.81986 16.2514 9.06392 16.0074L11.0932 13.9771L9.05806 11.9419C8.81404 11.6979 8.814 11.3022 9.05806 11.0581C9.30212 10.8141 9.69777 10.8141 9.94185 11.0581L11.977 13.0933L14.0131 11.0581Z" fill="white"/>
</svg>
