<svg width="24" height="24" viewBox="0 0 24 24" fill="none" xmlns="http://www.w3.org/2000/svg">
<path d="M15.5 4.5H17M16 21.5H17M12 4.5H13M21.5 9.5V11.5M21.5 14.5V16.5M19.5 21.5H20.5C21.0523 21.5 21.5 21.0523 21.5 20.5V19.5M19.5 4.5H20.5C21.0523 4.5 21.5 4.94772 21.5 5.5V6.5" stroke="#73ABFF" stroke-linecap="round"/>
<path d="M15 9H4.125C3.38368 9 2.73081 8.62036 2.35059 8.04492C2.74977 7.41705 3.45088 7 4.25 7H13L15 9ZM7.1709 2C7.70127 2.00001 8.20991 2.21093 8.58496 2.58594L11.499 5.5H4.25C3.40567 5.5 2.62582 5.77813 1.99902 6.24902V4C1.99902 2.89558 2.89463 2.00022 3.99902 2H7.1709Z" fill="#73ABFF"/>
<path d="M13 7C14.1046 7 15 7.89543 15 9V20C15 21.1046 14.1046 22 13 22H4C2.89543 22 2 21.1046 2 20V9C2 7.89543 2.89543 7 4 7H13ZM11.4844 11.4697C11.1915 11.1769 10.7167 11.177 10.4238 11.4697L8.47656 13.417L6.5293 11.4697C6.2364 11.177 5.7616 11.1769 5.46875 11.4697C5.17594 11.7626 5.17602 12.2374 5.46875 12.5303L7.41602 14.4775L5.47461 16.4189C5.18183 16.7118 5.18182 17.1866 5.47461 17.4795C5.76748 17.7722 6.24229 17.7723 6.53516 17.4795L8.47656 15.5381L10.418 17.4795C10.7109 17.7723 11.1857 17.7723 11.4785 17.4795C11.7713 17.1866 11.7713 16.7118 11.4785 16.4189L9.53711 14.4775L11.4844 12.5303C11.7771 12.2374 11.7771 11.7626 11.4844 11.4697Z" fill="#73ABFF"/>
</svg>
