<svg width="24" height="24" viewBox="0 0 24 24" fill="none" xmlns="http://www.w3.org/2000/svg">
<path d="M18 11.7676C18.6133 12.316 19 13.1121 19 14V19C19 20.6569 17.6569 22 16 22H10C9.1123 22 8.31664 21.6128 7.76758 21H14.5C16.433 21 18 19.433 18 17.5V11.7676ZM16 8.76758C16.6127 9.31685 17 10.1124 17 11V17.5C17 18.8807 15.8807 20 14.5 20H7.17383C7.15858 19.9569 7.14222 19.9141 7.12891 19.8701C6.59654 19.7088 6.12658 19.4037 5.76465 19H13.5C14.8807 19 16 17.8807 16 16.5V8.76758Z" fill="#73ABFF"/>
<path d="M14.5 8H3.57617C3.98812 7.54063 4.58441 7.25001 5.25 7.25H13.9375L14.5 8ZM9 2C9.62953 2 10.2229 2.29617 10.6006 2.7998L12.8125 5.75H5.25C4.40644 5.75 3.62748 6.02793 3.00098 6.49805V4C3.00097 2.89544 3.8964 2 5.00098 2H9Z" fill="#73ABFF"/>
<path d="M13 7C14.1046 7 15 7.89543 15 9V16C15 17.1046 14.1046 18 13 18H5C3.89543 18 3 17.1046 3 16V9C3 7.89543 3.89543 7 5 7H13ZM12.2354 9.21973C11.9425 8.92692 11.4677 8.92698 11.1748 9.21973L9.22754 11.167L7.28027 9.21973C6.98741 8.92708 6.51256 8.92704 6.21973 9.21973C5.9269 9.51255 5.92703 9.98736 6.21973 10.2803L8.16699 12.2275L6.22559 14.1689C5.93273 14.4618 5.93274 14.9366 6.22559 15.2295C6.51848 15.5222 6.99329 15.5223 7.28613 15.2295L9.22754 13.2881L11.1689 15.2295C11.4619 15.5222 11.9366 15.5223 12.2295 15.2295C12.5222 14.9366 12.5222 14.4618 12.2295 14.1689L10.2881 12.2275L12.2354 10.2803C12.5281 9.98742 12.5281 9.51259 12.2354 9.21973Z" fill="#73ABFF"/>
</svg>
