<svg width="24" height="24" viewBox="0 0 24 24" fill="none" xmlns="http://www.w3.org/2000/svg">
<path d="M17.166 4.00009C17.4902 4.00016 17.806 4.10555 18.0654 4.2999L21.3994 6.80087C21.7766 7.0839 21.9989 7.52851 21.999 8.00009H20.999C20.9989 7.84333 20.9251 7.69485 20.7998 7.60068L17.4658 5.0997C17.3795 5.0351 17.2739 5.00016 17.166 5.00009H13.1201L12.1201 4.00009H17.166ZM10.999 5.00009H7.99902V4.00009H9.99902L10.999 5.00009Z" fill="#66A3FF"/>
<path d="M17.5 11.5001H2V11.2501C2 10.0075 3.00736 9.00009 4.25 9.00009H15L17.5 11.5001ZM8.17188 3.00009C8.7022 3.00017 9.21094 3.21103 9.58594 3.58603L13.5 7.50009H4.25C3.40593 7.50009 2.6267 7.77848 2 8.24911V5.00009C2 3.89552 2.89543 3.00009 4 3.00009H8.17188Z" fill="#66A3FF"/>
<path d="M20 9.00009C21.1046 9.00009 22 9.89552 22 11.0001V19.0001C22 20.1046 21.1045 21.0001 20 21.0001H4C2.89546 21.0001 2.00005 20.1046 2 19.0001V11.0001C2 9.89552 2.89543 9.00009 4 9.00009H20ZM14.9854 11.9698C14.6925 11.677 14.2177 11.6771 13.9248 11.9698L11.9775 13.9171L10.0303 11.9698C9.73738 11.6769 9.26262 11.6769 8.96973 11.9698C8.67697 12.2627 8.67688 12.7375 8.96973 13.0304L10.917 14.9776L8.97559 16.919C8.68283 17.2119 8.68274 17.6867 8.97559 17.9796C9.26844 18.2723 9.74326 18.2723 10.0361 17.9796L11.9775 16.0382L13.9189 17.9796C14.2118 18.2722 14.6867 18.2723 14.9795 17.9796C15.2723 17.6868 15.2721 17.212 14.9795 16.919L13.0381 14.9776L14.9854 13.0304C15.278 12.7375 15.2781 12.2627 14.9854 11.9698Z" fill="#66A3FF"/>
</svg>
