<svg width="24" height="24" viewBox="0 0 24 24" fill="none" xmlns="http://www.w3.org/2000/svg">
<path d="M3.00079 4.00024C3.00066 2.89557 3.89612 2 5.00079 2H9.17172C9.70218 2 10.2109 2.21073 10.586 2.58583L13.5002 5.50023L4.5015 5.5L3.00114 7L3.00079 4.00024Z" fill="#409FFF"/>
<rect x="9.5" y="9.5" width="11" height="12" rx="1.5" fill="#364159" stroke="#74ABFF"/>
<rect x="10" y="10" width="10" height="11" rx="1" fill="#364159"/>
<rect x="7" y="8" width="10" height="11" rx="1" fill="#364159"/>
<rect x="6.5" y="7.5" width="11" height="12" rx="1.5" fill="#364159" stroke="#74ABFF"/>
<rect x="3" y="5" width="12" height="13" rx="2" fill="#74ABFF"/>
<rect x="4" y="6" width="10" height="11" rx="1" fill="#364159"/>
<path d="M6.05815 8.55818C6.30223 8.3141 6.69786 8.3141 6.94194 8.55818L8.9771 10.5933L11.0132 8.55818C11.2573 8.31426 11.653 8.31416 11.897 8.55818C12.141 8.80221 12.1409 9.19789 11.897 9.44197L9.86088 11.4771L11.8912 13.5074C12.135 13.7515 12.1352 14.1472 11.8912 14.3912C11.6471 14.6352 11.2515 14.6351 11.0074 14.3912L8.9771 12.3609L6.9478 14.3912C6.70374 14.6353 6.30809 14.6352 6.06401 14.3912C5.81993 14.1471 5.81993 13.7515 6.06401 13.5074L8.09331 11.4771L6.05815 9.44197C5.81407 9.19789 5.81407 8.80226 6.05815 8.55818Z" fill="white"/>
</svg>
