<svg width="24" height="24" viewBox="0 0 24 24" fill="none" xmlns="http://www.w3.org/2000/svg">
<path d="M20 9C21.1045 9 22 9.89547 22 11V19C22 20.1045 21.1045 21 20 21H4C2.89546 21 2.00005 20.1045 2 19V11C2.00005 9.89547 2.89546 9 4 9H20ZM14.6875 12.3789C14.3946 12.0861 13.9198 12.0861 13.627 12.3789L12.0332 13.9727L10.4395 12.3789C10.1466 12.0861 9.67179 12.0861 9.37891 12.3789C9.08617 12.6718 9.08611 13.1466 9.37891 13.4395L10.9727 15.0332L9.38477 16.6211C9.09205 16.914 9.09201 17.3888 9.38477 17.6816C9.67763 17.9742 10.1525 17.9743 10.4453 17.6816L12.0332 16.0938L13.6211 17.6816C13.914 17.9742 14.3888 17.9743 14.6816 17.6816C14.9744 17.3888 14.9742 16.914 14.6816 16.6211L13.0938 15.0332L14.6875 13.4395C14.9803 13.1466 14.9801 12.6718 14.6875 12.3789ZM8.17188 3C8.70217 3.00008 9.21094 3.21097 9.58594 3.58594L13.5 7.5H4.25C3.40595 7.5 2.62669 7.77841 2 8.24902V5C2.00005 3.89547 2.89546 3 4 3H8.17188ZM17.166 4C17.4902 4.00007 17.806 4.10548 18.0654 4.2998L21.3994 6.80078C21.7766 7.08379 21.9989 7.52845 21.999 8H20.999C20.9989 7.84327 20.9251 7.69474 20.7998 7.60059L17.4658 5.09961C17.3795 5.03503 17.2739 5.00007 17.166 5H13.1201L12.1201 4H17.166Z" fill="#619BF2"/>
</svg>
