<svg width="24" height="24" viewBox="0 0 24 24" fill="none" xmlns="http://www.w3.org/2000/svg">
<path d="M15.75 8.25C15.9175 8.25 16.0803 8.26999 16.2373 8.30469C15.8761 8.72429 15.343 8.99987 14.7256 9H9.27441C8.65677 8.99987 8.12293 8.72456 7.76172 8.30469C7.91903 8.26985 8.08221 8.25 8.25 8.25H15.75ZM14.0586 3C14.9193 3.00005 15.6838 3.55068 15.9561 4.36719L16.6221 6.36719C16.6788 6.53726 16.7099 6.70854 16.7207 6.87695C16.4111 6.79421 16.0857 6.75 15.75 6.75H8.25C7.91396 6.75 7.58821 6.79405 7.27832 6.87695C7.28912 6.70852 7.32123 6.53728 7.37793 6.36719L8.04395 4.36719C8.31624 3.55068 9.08068 3.00004 9.94141 3H14.0586Z" fill="#66A3FF"/>
<path d="M16 8C17.1046 8 18 8.89543 18 10V19C18 20.1046 17.1046 21 16 21H8C6.89543 21 6 20.1046 6 19V10C6 8.89543 6.89543 8 8 8H16ZM14.9854 11.4697C14.6925 11.177 14.2177 11.1771 13.9248 11.4697L11.9775 13.417L10.0303 11.4697C9.73745 11.1771 9.26257 11.1772 8.96973 11.4697C8.6769 11.7626 8.67703 12.2374 8.96973 12.5303L10.917 14.4775L8.97559 16.4189C8.68273 16.7118 8.68274 17.1866 8.97559 17.4795C9.26848 17.7722 9.74328 17.7723 10.0361 17.4795L11.9775 15.5381L13.9189 17.4795C14.2118 17.7722 14.6866 17.7723 14.9795 17.4795C15.2721 17.1866 15.2722 16.7118 14.9795 16.4189L13.0381 14.4775L14.9854 12.5303C15.2779 12.2374 15.278 11.7625 14.9854 11.4697Z" fill="#66A3FF"/>
<path d="M17.7305 20C17.3845 20.5973 16.7399 21 16 21H15.5V20H17.7305ZM20 10C21.1046 10 22 10.8954 22 12V19C22 20.1046 21.1046 21 20 21H18.2314C18.4905 20.7112 18.6941 20.3732 18.8262 20H20C20.5523 20 21 19.5523 21 19V12C21 11.4477 20.5523 11 20 11H19V10H20ZM18 10V11H15.5V10H18Z" fill="#66A3FF"/>
<path d="M6.26953 20C6.61546 20.5973 7.26007 21 8 21H8.5V20H6.26953ZM4 10C2.89543 10 2 10.8954 2 12V19C2 20.1046 2.89543 21 4 21H5.76855C5.50954 20.7112 5.30589 20.3732 5.17383 20H4C3.44772 20 3 19.5523 3 19V12C3 11.4477 3.44772 11 4 11H5V10H4ZM6 10V11H8.5V10H6Z" fill="#66A3FF"/>
</svg>
