<svg width="24" height="24" viewBox="0 0 24 24" fill="none" xmlns="http://www.w3.org/2000/svg">
<path d="M11.25 7C10.4515 7 9.75189 7.41696 9.35254 8.04395C9.73275 8.61947 10.3846 9 11.126 9H22.001L20.001 7H11.25ZM11 2C9.89552 2.00012 9 2.89552 9 4L9.00098 6.24902C9.62756 5.77869 10.4062 5.5 11.25 5.5H18.5L15.5859 2.58594C15.2109 2.21097 14.7022 2.00006 14.1719 2H11Z" fill="#73ABFF"/>
<path d="M11 7C9.89543 7 9 7.89543 9 9V20C9 21.1046 9.89543 22 11 22H20C21.1046 22 22 21.1046 22 20V9C22 7.89543 21.1046 7 20 7H11ZM12.4697 11.4697C12.7626 11.177 13.2374 11.1771 13.5303 11.4697L15.4775 13.417L17.4248 11.4697C17.7177 11.177 18.1925 11.1769 18.4854 11.4697C18.7782 11.7626 18.7781 12.2374 18.4854 12.5303L16.5381 14.4775L18.4795 16.4189C18.7723 16.7118 18.7722 17.1866 18.4795 17.4795C18.1866 17.7723 17.7118 17.7723 17.4189 17.4795L15.4775 15.5381L13.5361 17.4795C13.2432 17.7722 12.7684 17.7723 12.4756 17.4795C12.1828 17.1866 12.1828 16.7118 12.4756 16.4189L14.417 14.4775L12.4697 12.5303C12.1771 12.2374 12.177 11.7626 12.4697 11.4697Z" fill="#73ABFF"/>
<path d="M7.5 4.5H7M8 21.5H7M2.5 9.5V11.5M2.5 14.5V16.5M4.5 21.5H3.5C2.94771 21.5 2.5 21.0523 2.5 20.5V19.5M4.5 4.5H3.5C2.94771 4.5 2.5 4.94772 2.5 5.5V6.5" stroke="#73ABFF" stroke-linecap="round"/>
</svg>
