<svg width="24" height="24" viewBox="0 0 24 24" fill="none" xmlns="http://www.w3.org/2000/svg">
<path d="M21.499 9H10.5752C10.9871 8.54063 11.5834 8.25001 12.249 8.25H20.9365L21.499 9ZM15.999 3C16.6286 3 17.2219 3.29617 17.5996 3.7998L19.8115 6.75H12.249C11.4055 6.75 10.6265 7.02793 10 7.49805V5C10 3.89544 10.8954 3 12 3H15.999Z" fill="#66A3FF"/>
<path d="M12 8C10.8954 8 10 8.89543 10 10V19C10 20.1046 10.8954 21 12 21H20C21.1046 21 22 20.1046 22 19V10C22 8.89543 21.1046 8 20 8H12ZM13.0146 11.4697C13.3075 11.177 13.7823 11.1771 14.0752 11.4697L16.0225 13.417L17.9697 11.4697C18.2625 11.1771 18.7374 11.1772 19.0303 11.4697C19.3231 11.7626 19.323 12.2374 19.0303 12.5303L17.083 14.4775L19.0244 16.4189C19.3173 16.7118 19.3173 17.1866 19.0244 17.4795C18.7315 17.7722 18.2567 17.7723 17.9639 17.4795L16.0225 15.5381L14.0811 17.4795C13.7882 17.7722 13.3134 17.7723 13.0205 17.4795C12.7279 17.1866 12.7278 16.7118 13.0205 16.4189L14.9619 14.4775L13.0146 12.5303C12.7221 12.2374 12.722 11.7625 13.0146 11.4697Z" fill="#66A3FF"/>
<path d="M10.2695 20C10.6155 20.5973 11.2601 21 12 21H12.5V20H10.2695ZM4.5 12C3.11929 12 2 13.1193 2 14.5V18.5C2 19.8807 3.11929 21 4.5 21H5.76855C5.50954 20.7112 5.30589 20.3732 5.17383 20H4.5C3.67157 20 3 19.3284 3 18.5V14.5C3 13.6716 3.67158 13 4.5 13H5V12H4.5ZM8 9C6.89543 9 6 9.89543 6 11V19C6 19.0727 6.00505 19.1442 6.0127 19.2148C6.02488 19.3288 6.04761 19.4394 6.07812 19.5469C6.12397 19.7068 6.18785 19.859 6.26953 20C6.61546 20.5973 7.26007 21 8 21H9.76855C9.50954 20.7112 9.30589 20.3732 9.17383 20H8C7.44772 20 7 19.5523 7 19V11C7 10.4477 7.44772 10 8 10H9C9 9.649 9.06306 9.31306 9.17383 9H8ZM10.2695 9C10.0991 9.29437 10 9.63536 10 10H12.5V9H10.2695Z" fill="#66A3FF"/>
</svg>
