<svg width="24" height="24" viewBox="0 0 24 24" fill="none" xmlns="http://www.w3.org/2000/svg">
<path d="M5 10V11H4C3.44772 11 3 11.4477 3 12V19C3 19.5523 3.44772 20 4 20H5.17383C5.30589 20.3732 5.50954 20.7112 5.76855 21H4C2.89543 21 2 20.1046 2 19V12C2 10.8954 2.89543 10 4 10H5ZM16 8C17.1046 8 18 8.89543 18 10V19C18 19.4455 17.8518 19.8551 17.6055 20.1875C17.5954 20.2012 17.5856 20.2151 17.5752 20.2285C17.5555 20.2537 17.5355 20.2785 17.5146 20.3027C17.4992 20.3207 17.4829 20.338 17.4668 20.3555C17.4353 20.3895 17.4029 20.4223 17.3691 20.4541C17.3467 20.4753 17.3242 20.4964 17.3008 20.5166C17.2809 20.5336 17.2607 20.5501 17.2402 20.5664C17.202 20.5968 17.1634 20.6267 17.123 20.6543C17.1111 20.6624 17.0981 20.6689 17.0859 20.6768C17.0552 20.6968 17.0241 20.716 16.9922 20.7344C16.9687 20.7479 16.945 20.7609 16.9209 20.7734C16.8851 20.7921 16.8486 20.8096 16.8115 20.8262C16.7898 20.8358 16.7682 20.8456 16.7461 20.8545C16.7045 20.8713 16.6621 20.8864 16.6191 20.9004C16.6032 20.9056 16.5874 20.9112 16.5713 20.916C16.4583 20.9498 16.3412 20.9731 16.2207 20.9863C16.209 20.9876 16.1973 20.9882 16.1855 20.9893C16.1244 20.9949 16.0626 21 16 21H8C7.93703 21 7.87494 20.995 7.81348 20.9893C7.80174 20.9882 7.79 20.9876 7.77832 20.9863C7.65787 20.973 7.54071 20.9498 7.42773 20.916C7.41162 20.9112 7.39582 20.9056 7.37988 20.9004C7.33693 20.8863 7.29454 20.8713 7.25293 20.8545C7.23084 20.8456 7.20919 20.8358 7.1875 20.8262C7.15044 20.8096 7.11395 20.7922 7.07812 20.7734C7.05404 20.7609 7.03033 20.7479 7.00684 20.7344C6.97498 20.716 6.9438 20.6968 6.91309 20.6768C6.90096 20.6689 6.88792 20.6624 6.87598 20.6543C6.8356 20.6267 6.79697 20.5968 6.75879 20.5664C6.73829 20.5501 6.71807 20.5336 6.69824 20.5166C6.67484 20.4964 6.65233 20.4753 6.62988 20.4541C6.59617 20.4223 6.56367 20.3895 6.53223 20.3555C6.51614 20.338 6.49985 20.3207 6.48438 20.3027C6.46354 20.2785 6.4435 20.2537 6.42383 20.2285C6.41338 20.2151 6.40366 20.2012 6.39355 20.1875C6.14747 19.8552 6 19.4453 6 19V10C6 8.89543 6.89543 8 8 8H16ZM20 10C21.1046 10 22 10.8954 22 12V19C22 20.1046 21.1046 21 20 21H18.2314C18.4905 20.7112 18.6941 20.3732 18.8262 20H20C20.5523 20 21 19.5523 21 19V12C21 11.4477 20.5523 11 20 11H19V10H20ZM14.6318 11.8232C14.339 11.5304 13.8642 11.5304 13.5713 11.8232L11.9775 13.417L10.3838 11.8232C10.0909 11.5303 9.61516 11.5303 9.32227 11.8232C9.02971 12.116 9.02982 12.5909 9.32227 12.8838L10.917 14.4775L9.32812 16.0664C9.0358 16.3593 9.03545 16.8342 9.32812 17.127C9.62099 17.4197 10.0968 17.4197 10.3896 17.127L11.9775 15.5381L13.5654 17.127C13.8583 17.4195 14.3332 17.4195 14.626 17.127C14.9188 16.8342 14.9186 16.3593 14.626 16.0664L13.0381 14.4775L14.6318 12.8838C14.9246 12.5909 14.9246 12.1161 14.6318 11.8232ZM14.0586 3C14.9193 3.00005 15.6838 3.55068 15.9561 4.36719L16.708 6.62402C16.4022 6.54343 16.0812 6.5 15.75 6.5H8.25C7.91884 6.5 7.59784 6.54343 7.29199 6.62402L8.04395 4.36719C8.31624 3.55068 9.08068 3.00004 9.94141 3H14.0586Z" fill="#619BF2"/>
</svg>
