<svg width="24" height="24" viewBox="0 0 24 24" fill="none" xmlns="http://www.w3.org/2000/svg">
<path d="M12 8C12.7765 8 13.4479 8.44331 13.7793 9.08984C13.789 9.10874 13.7975 9.12823 13.8066 9.14746C13.8213 9.17851 13.8365 9.20931 13.8496 9.24121C13.8662 9.28146 13.8805 9.32275 13.8945 9.36426C13.9043 9.39331 13.9134 9.42252 13.9219 9.45215C13.9515 9.55546 13.9727 9.66203 13.9854 9.77148C13.9871 9.78707 13.9888 9.80266 13.9902 9.81836C13.9957 9.87821 14 9.9387 14 10V19C14 19.4455 13.8518 19.8551 13.6055 20.1875C13.5954 20.2012 13.5856 20.2151 13.5752 20.2285C13.5555 20.2537 13.5355 20.2785 13.5146 20.3027C13.4992 20.3207 13.4829 20.338 13.4668 20.3555C13.4353 20.3895 13.4029 20.4223 13.3691 20.4541C13.3467 20.4753 13.3242 20.4964 13.3008 20.5166C13.2809 20.5336 13.2607 20.5501 13.2402 20.5664C13.202 20.5968 13.1634 20.6267 13.123 20.6543C13.1111 20.6624 13.0981 20.6689 13.0859 20.6768C13.0552 20.6968 13.0241 20.716 12.9922 20.7344C12.9687 20.7479 12.945 20.7609 12.9209 20.7734C12.8851 20.7921 12.8486 20.8096 12.8115 20.8262C12.7898 20.8358 12.7682 20.8456 12.7461 20.8545C12.7045 20.8713 12.6621 20.8864 12.6191 20.9004C12.6032 20.9056 12.5874 20.9112 12.5713 20.916C12.4583 20.9498 12.3412 20.9731 12.2207 20.9863C12.209 20.9876 12.1973 20.9882 12.1855 20.9893C12.1244 20.9949 12.0626 21 12 21H4C2.89543 21 2 20.1046 2 19V10C2 8.89543 2.89543 8 4 8H12ZM16 9C17.1046 9 18 9.89543 18 11V19C18 19.0727 17.995 19.1442 17.9873 19.2148C17.9751 19.3288 17.9524 19.4394 17.9219 19.5469C17.876 19.7068 17.8122 19.859 17.7305 20C17.3845 20.5973 16.7399 21 16 21H14.2314C14.4905 20.7112 14.6941 20.3732 14.8262 20H16C16.5523 20 17 19.5523 17 19V11C17 10.4477 16.5523 10 16 10H15C15 9.649 14.9369 9.31306 14.8262 9H16ZM19.5 12C20.8807 12 22 13.1193 22 14.5V18.5C22 19.8807 20.8807 21 19.5 21H18.2314C18.4905 20.7112 18.6941 20.3732 18.8262 20H19.5C20.3284 20 21 19.3284 21 18.5V14.5C21 13.6716 20.3284 13 19.5 13H19V12H19.5ZM10.6318 11.8232C10.339 11.5304 9.86418 11.5304 9.57129 11.8232L7.97754 13.417L6.38379 11.8232C6.09098 11.5304 5.61616 11.5306 5.32324 11.8232C5.03035 12.1161 5.03035 12.5909 5.32324 12.8838L6.91699 14.4775L5.3291 16.0654C5.03622 16.3583 5.03624 16.8331 5.3291 17.126C5.622 17.4187 6.0968 17.4188 6.38965 17.126L7.97754 15.5381L9.56543 17.127C9.85824 17.4195 10.3332 17.4194 10.626 17.127C10.9187 16.8341 10.9187 16.3583 10.626 16.0654L9.03809 14.4775L10.6318 12.8838C10.9246 12.5909 10.9246 12.1161 10.6318 11.8232ZM8 3C8.62953 3 9.22288 3.29617 9.60059 3.7998L11.625 6.5H4.25C3.40644 6.50001 2.62747 6.77793 2.00098 7.24805V5C2.00097 3.89544 2.8964 3 4.00098 3H8Z" fill="#619BF2"/>
</svg>
