<svg width="24" height="24" viewBox="0 0 24 24" fill="none" xmlns="http://www.w3.org/2000/svg">
<path d="M1.49902 19V20.75C1.49902 21.7164 2.28261 22.4999 3.24902 22.5H4.99902V21H3.24902C3.11104 20.9999 2.99902 20.888 2.99902 20.75V19H1.49902Z" fill="#73ABFF"/>
<path d="M8.49902 22H9.99902V21H8.49902V22Z" fill="#73ABFF"/>
<path d="M5.99902 22H7.49902V21H5.99902V22Z" fill="#73ABFF"/>
<path d="M2 17H3V15H2V17Z" fill="#73ABFF"/>
<path d="M2 13.5H3V11.5H2V13.5Z" fill="#73ABFF"/>
<path d="M2 10H3V8H2V10Z" fill="#73ABFF"/>
<path d="M3.24902 2.5C2.28261 2.5001 1.49902 3.28356 1.49902 4.25V6H2.99902V4.25C2.99902 4.11199 3.11104 4.0001 3.24902 4H4.99902V2.5H3.24902Z" fill="#73ABFF"/>
<path d="M13.499 4H14.999V3H13.499V4Z" fill="#73ABFF"/>
<path d="M10.999 4H12.499V3H10.999V4Z" fill="#73ABFF"/>
<path d="M8.49902 4H9.99902V3H8.49902V4Z" fill="#73ABFF"/>
<path d="M5.99902 4H7.49902V3H5.99902V4Z" fill="#73ABFF"/>
<path d="M9 4C9 2.89543 9.89543 2 11 2H14.1716C14.702 2 15.2107 2.21071 15.5858 2.58579L19.5 6.5H11L9.01149 8.48851C9.00725 8.49275 9 8.48975 9 8.48375V4Z" fill="#409FFF"/>
<path d="M22 8C22 6.89543 21.1046 6 20 6H11C9.89543 6 9 6.89543 9 8V20C9 21.1046 9.89543 22 11 22H20C21.1046 22 22 21.1046 22 20V8Z" fill="#364159"/>
<path d="M13.4418 11.0787C13.1978 10.8346 12.8021 10.8346 12.5581 11.0787C12.3142 11.3227 12.3141 11.7184 12.5581 11.9624L14.5942 13.9966L12.5639 16.0269C12.3199 16.2709 12.32 16.6666 12.5639 16.9107C12.808 17.1548 13.2036 17.1548 13.4477 16.9107L15.478 14.8804L17.5073 16.9107C17.7514 17.1548 18.147 17.1548 18.3911 16.9107C18.6349 16.6666 18.6351 16.2709 18.3911 16.0269L16.3618 13.9966L18.3969 11.9615C18.6407 11.7174 18.6409 11.3217 18.3969 11.0777C18.1529 10.8339 17.7572 10.8339 17.5131 11.0777L15.478 13.1128L13.4418 11.0787Z" fill="white"/>
</svg>
