<svg width="24" height="24" viewBox="0 0 24 24" fill="none" xmlns="http://www.w3.org/2000/svg">
<path d="M5 12V13H4.5C3.67158 13 3 13.6716 3 14.5V18.5C3 19.3284 3.67157 20 4.5 20H5.17383C5.30589 20.3732 5.50954 20.7112 5.76855 21H4.5C3.11929 21 2 19.8807 2 18.5V14.5C2 13.1193 3.11929 12 4.5 12H5ZM9.17383 9C9.06306 9.31306 9 9.649 9 10H8C7.44772 10 7 10.4477 7 11V19C7 19.5523 7.44772 20 8 20H9.17383C9.30589 20.3732 9.50954 20.7112 9.76855 21H8C7.26007 21 6.61546 20.5973 6.26953 20C6.18785 19.859 6.12397 19.7068 6.07812 19.5469C6.04761 19.4394 6.02488 19.3288 6.0127 19.2148C6.00505 19.1442 6 19.0727 6 19V11C6 9.89543 6.89543 9 8 9H9.17383ZM20 8C21.1046 8 22 8.89543 22 10V19C22 20.1046 21.1046 21 20 21H12C11.937 21 11.8749 20.995 11.8135 20.9893C11.8017 20.9882 11.79 20.9876 11.7783 20.9863C11.6579 20.973 11.5407 20.9498 11.4277 20.916C11.4116 20.9112 11.3958 20.9056 11.3799 20.9004C11.3369 20.8863 11.2945 20.8713 11.2529 20.8545C11.2308 20.8456 11.2092 20.8358 11.1875 20.8262C11.1504 20.8096 11.114 20.7922 11.0781 20.7734C11.054 20.7609 11.0303 20.7479 11.0068 20.7344C10.975 20.716 10.9438 20.6968 10.9131 20.6768C10.901 20.6689 10.8879 20.6624 10.876 20.6543C10.8356 20.6267 10.797 20.5968 10.7588 20.5664C10.7383 20.5501 10.7181 20.5336 10.6982 20.5166C10.6748 20.4964 10.6523 20.4753 10.6299 20.4541C10.5962 20.4223 10.5637 20.3895 10.5322 20.3555C10.5161 20.338 10.4998 20.3207 10.4844 20.3027C10.4635 20.2785 10.4435 20.2537 10.4238 20.2285C10.4134 20.2151 10.4037 20.2012 10.3936 20.1875C10.1475 19.8552 10 19.4453 10 19V10C10 9.93873 10.0033 9.87818 10.0088 9.81836C10.0102 9.80267 10.0119 9.78706 10.0137 9.77148C10.0263 9.66208 10.0475 9.55541 10.0771 9.45215C10.0856 9.42254 10.0948 9.39329 10.1045 9.36426C10.1186 9.32264 10.1337 9.28156 10.1504 9.24121C10.1634 9.20944 10.1778 9.17839 10.1924 9.14746C10.2016 9.1281 10.2109 9.10886 10.2207 9.08984C10.5521 8.44331 11.2235 8 12 8H20ZM18.7324 11.8789C18.4395 11.5862 17.9647 11.5861 17.6719 11.8789L16.0781 13.4727L14.4844 11.8789C14.1915 11.586 13.7167 11.5861 13.4238 11.8789C13.1311 12.1718 13.131 12.6466 13.4238 12.9395L15.0176 14.5332L13.4297 16.1211C13.1369 16.414 13.1369 16.8898 13.4297 17.1826C13.7225 17.4751 14.1974 17.4751 14.4902 17.1826L16.0781 15.5938L17.666 17.1816C17.9589 17.4745 18.4337 17.4744 18.7266 17.1816C19.0194 16.8887 19.0194 16.414 18.7266 16.1211L17.1387 14.5332L18.7324 12.9395C19.0253 12.6466 19.0253 12.1718 18.7324 11.8789ZM15.999 3C16.6284 3 17.2219 3.29631 17.5996 3.7998L19.625 6.5H12.249C11.4055 6.50001 10.6265 6.77793 10 7.24805V5C10 3.89544 10.8954 3 12 3H15.999Z" fill="#619BF2"/>
</svg>
