<svg width="24" height="24" viewBox="0 0 24 24" fill="none" xmlns="http://www.w3.org/2000/svg">
<path d="M17.166 3.00009C17.4902 3.00016 17.806 3.10555 18.0654 3.2999L21.3994 5.80087C21.7766 6.0839 21.9989 6.52851 21.999 7.00009H20.999C20.9989 6.84333 20.9251 6.69485 20.7998 6.60068L17.4658 4.0997C17.3795 4.0351 17.2739 4.00016 17.166 4.00009H13.1201L12.1201 3.00009H17.166ZM10.999 4.00009H7.99902V3.00009H9.99902L10.999 4.00009Z" fill="#73ABFF"/>
<path d="M17.5 10.5001H2V10.2501C2 9.00745 3.00736 8.00009 4.25 8.00009H15L17.5 10.5001ZM8.17188 2.00009C8.7022 2.00017 9.21094 2.21103 9.58594 2.58603L13.5 6.50009H4.25C3.40593 6.50009 2.6267 6.77848 2 7.24911V4.00009C2 2.89552 2.89543 2.00009 4 2.00009H8.17188Z" fill="#73ABFF"/>
<path d="M20 8.00009C21.1046 8.00009 22 8.89552 22 10.0001V19.0001C22 20.1046 21.1045 21.0001 20 21.0001H4C2.89546 21.0001 2.00005 20.1046 2 19.0001V10.0001C2 8.89552 2.89543 8.00009 4 8.00009H20ZM14.9854 11.5948C14.6925 11.302 14.2177 11.3021 13.9248 11.5948L11.9775 13.5421L10.0303 11.5948C9.73738 11.3019 9.26261 11.3019 8.96973 11.5948C8.67695 11.8877 8.67688 12.3625 8.96973 12.6554L10.917 14.6026L8.97559 16.544C8.6828 16.8369 8.68274 17.3117 8.97559 17.6046C9.26845 17.8973 9.74326 17.8973 10.0361 17.6046L11.9775 15.6632L13.9189 17.6046C14.2118 17.8972 14.6867 17.8973 14.9795 17.6046C15.2723 17.3118 15.2721 16.837 14.9795 16.544L13.0381 14.6026L14.9854 12.6554C15.2781 12.3625 15.2781 11.8877 14.9854 11.5948Z" fill="#73ABFF"/>
</svg>
