<svg width="24" height="24" viewBox="0 0 24 24" fill="none" xmlns="http://www.w3.org/2000/svg">
<path d="M14.421 12.7568L7.91512 19.2627C7.31502 19.8627 6.48689 20.1786 5.63973 20.1289L4.99618 20.0898L3.29989 21.7881C3.00701 22.081 2.53126 22.0809 2.23837 21.7881C1.94548 21.4952 1.94549 21.0195 2.23837 20.7266L3.93465 19.0293L3.89754 18.3867C3.84783 17.5397 4.16291 16.7114 4.76278 16.1113L11.2686 9.60449L14.421 12.7568ZM17.4786 3.39551C18.3488 2.52558 19.7596 2.5258 20.63 3.39551C21.5004 4.26593 21.5004 5.67743 20.63 6.54785L18.004 9.1748L18.7042 9.875C19.4779 10.6487 19.4778 11.903 18.7042 12.6768C18.2452 13.1357 17.6172 13.32 17.0206 13.2344L10.7911 7.00488C10.7058 6.40858 10.891 5.78103 11.3497 5.32227C12.1233 4.54871 13.3778 4.54881 14.1515 5.32227L14.8516 6.02246L17.4786 3.39551Z" fill="#73ABFF"/>
</svg>
