<svg width="24" height="24" viewBox="0 0 24 24" fill="none" xmlns="http://www.w3.org/2000/svg">
<path d="M14.5881 12.3566L8.50994 18.4357C7.94912 18.9964 7.1747 19.2908 6.38298 19.2443L5.78338 19.2081L4.19744 20.7951C3.92377 21.0687 3.47892 21.0687 3.20525 20.7951C2.93158 20.5214 2.93158 20.0765 3.20525 19.8029L4.79021 18.2169L4.75603 17.6173C4.70946 16.8256 5.00387 16.0512 5.56463 15.4904L11.6428 9.41126L14.5881 12.3566ZM17.4455 3.6095C18.2586 2.79682 19.5766 2.79685 20.3898 3.6095C21.2031 4.42279 21.2031 5.74153 20.3898 6.55482L17.9357 9.00989L18.59 9.66419C19.3129 10.3871 19.3129 11.5585 18.59 12.2814C18.1615 12.7098 17.5758 12.8824 17.0187 12.8029L11.1965 6.9806C11.1173 6.42384 11.2897 5.8376 11.7179 5.40931C12.4407 4.68653 13.6132 4.68677 14.3361 5.40931L14.9904 6.06458L17.4455 3.6095Z" fill="#619BF2"/>
</svg>
