<svg width="24" height="24" viewBox="0 0 24 24" fill="none" xmlns="http://www.w3.org/2000/svg">
<path d="M2.49951 9.50049C2.49951 8.38958 3.10508 7.42138 4.00244 6.90283C4.00167 6.93514 4.00049 6.968 4.00049 7.00049L4.00049 9.48096C4.00041 9.4873 3.99951 9.49413 3.99951 9.50049L3.99951 16.5005C3.99977 17.3285 4.67147 18.0002 5.49951 18.0005L18.0972 18.0005C17.5783 18.8966 16.6095 19.5005 15.4995 19.5005L5.49951 19.5005C3.84304 19.5002 2.49978 18.157 2.49951 16.5005L2.49951 9.50049Z" fill="#66A3FF"/>
<path d="M20 4C21.1046 4 22 4.89543 22 6V15C22 16.1046 21.1046 17 20 17H7C5.89543 17 5 16.1046 5 15V6C5 4.89543 5.89543 4 7 4H20ZM16.8945 9.02734C16.5026 9.02737 16.1576 9.08678 15.8594 9.20605C15.5632 9.32324 15.3213 9.49148 15.1338 9.71094C14.9463 9.92826 14.8208 10.1861 14.7568 10.4844L16.0156 10.5869C16.0625 10.425 16.1588 10.2901 16.3037 10.1836C16.4486 10.0751 16.6438 10.0205 16.8887 10.0205C17.1208 10.0206 17.3001 10.0767 17.4258 10.1875C17.5533 10.2983 17.6172 10.455 17.6172 10.6572V10.6758C17.6172 10.7802 17.5779 10.8598 17.499 10.9131C17.4202 10.9663 17.2928 11.0065 17.1182 11.0342C16.9435 11.0597 16.7131 11.0874 16.4277 11.1172C16.185 11.1406 15.9529 11.1808 15.7314 11.2383C15.5121 11.2958 15.3161 11.3813 15.1436 11.4941C14.9711 11.607 14.8345 11.7562 14.7344 11.9414C14.6342 12.1268 14.584 12.3562 14.584 12.6289C14.584 12.9527 14.6544 13.2231 14.7949 13.4404C14.9377 13.6556 15.1319 13.8189 15.377 13.9297C15.6219 14.0383 15.9008 14.0928 16.2139 14.0928C16.4567 14.0928 16.6711 14.061 16.8564 13.9971C17.0418 13.931 17.2009 13.8406 17.333 13.7256C17.4651 13.6084 17.5706 13.4727 17.6494 13.3193H17.6875V14H18.9785V10.6885C18.9785 10.3968 18.9224 10.1462 18.8096 9.9375C18.6967 9.72662 18.5417 9.55413 18.3457 9.41992C18.1518 9.28574 17.9291 9.18695 17.6777 9.12305C17.4285 9.05913 17.1672 9.02734 16.8945 9.02734ZM10.1025 7.4541L7.84277 14H9.3252L9.81055 12.5078H12.1748L12.6592 14H14.1416L11.8857 7.4541H10.1025ZM17.627 12.2451C17.627 12.4177 17.5834 12.5726 17.4961 12.709C17.4087 12.8453 17.2881 12.9542 17.1348 13.0352C16.9814 13.114 16.8038 13.1533 16.6035 13.1533C16.3949 13.1533 16.2222 13.1046 16.0859 13.0088C15.952 12.9108 15.8848 12.7692 15.8848 12.584C15.8848 12.4562 15.9184 12.3498 15.9844 12.2646C16.0504 12.1774 16.1425 12.1077 16.2617 12.0566C16.381 12.0055 16.5209 11.9688 16.6807 11.9453C16.7552 11.9347 16.8382 11.9229 16.9297 11.9102C17.0213 11.8952 17.1135 11.8794 17.2051 11.8623C17.2966 11.8431 17.3788 11.8221 17.4512 11.8008C17.5256 11.7774 17.5844 11.7523 17.627 11.7246V12.2451ZM11.0195 8.9502L11.8232 11.4268H10.1631L10.9688 8.9502H11.0195Z" fill="#66A3FF"/>
</svg>
