<svg width="24" height="24" viewBox="0 0 24 24" fill="none" xmlns="http://www.w3.org/2000/svg">
<path d="M1 6.5C1 5.39543 1.89543 4.5 3 4.5H21C22.1046 4.5 23 5.39543 23 6.5V17.5C23 18.6046 22.1046 19.5 21 19.5H3C1.89543 19.5 1 18.6046 1 17.5V6.5Z" fill="#409FFF"/>
<path d="M3.43689 6C2.95524 6 2.50098 6.42903 2.50098 7.03945V16.9606C2.50098 17.571 2.95524 18 3.43689 18H20.5651C21.0467 18 21.501 17.571 21.501 16.9606V7.03945C21.501 6.42903 21.0467 6 20.5651 6H3.43689Z" fill="#364159"/>
<path d="M8.29503 8.24818C8.43433 7.85816 8.86301 7.65489 9.25304 7.79408C9.64298 7.93342 9.84631 8.3621 9.70714 8.75209L7.20714 15.7521C7.06784 16.142 6.63911 16.3453 6.24914 16.2062C5.85914 16.0669 5.6559 15.6382 5.79503 15.2482L8.29503 8.24818Z" fill="white"/>
<path d="M12.295 8.24818C12.4343 7.85816 12.863 7.65489 13.253 7.79408C13.643 7.93342 13.8463 8.3621 13.7071 8.75209L11.2071 15.7521C11.0678 16.142 10.6391 16.3453 10.2491 16.2062C9.85914 16.0669 9.65589 15.6382 9.79503 15.2482L12.295 8.24818Z" fill="white"/>
<path d="M15.0001 14.0001C15.5523 14.0002 16.0001 14.4479 16.0001 15.0001C16.0001 15.5523 15.5523 16.0001 15.0001 16.0001C14.4479 16.0001 14.0002 15.5524 14.0001 15.0001C14.0001 14.4478 14.4478 14.0001 15.0001 14.0001Z" fill="white"/>
<path d="M18.0001 14.0001C18.5523 14.0002 19.0001 14.4479 19.0001 15.0001C19.0001 15.5523 18.5523 16.0001 18.0001 16.0001C17.4479 16.0001 17.0002 15.5524 17.0001 15.0001C17.0001 14.4478 17.4478 14.0001 18.0001 14.0001Z" fill="white"/>
</svg>
