<svg width="24" height="24" viewBox="0 0 24 24" fill="none" xmlns="http://www.w3.org/2000/svg">
<path d="M2.49951 9.50049C2.49951 8.38958 3.10508 7.42138 4.00244 6.90283C4.00167 6.93514 4.00049 6.968 4.00049 7.00049L4.00049 9.48096C4.00041 9.4873 3.99951 9.49413 3.99951 9.50049L3.99951 16.5005C3.99977 17.3285 4.67147 18.0002 5.49951 18.0005L18.0972 18.0005C17.5783 18.8966 16.6095 19.5005 15.4995 19.5005L5.49951 19.5005C3.84304 19.5002 2.49978 18.157 2.49951 16.5005L2.49951 9.50049Z" fill="#73ABFF"/>
<path d="M20 4C21.1046 4 22 4.89543 22 6V15C22 16.1046 21.1046 17 20 17H7C5.89543 17 5 16.1046 5 15V6C5 4.89543 5.89543 4 7 4H20ZM10.1816 6.77246C9.7799 6.67219 9.37291 6.91663 9.27246 7.31836L7.77246 13.3184C7.67216 13.7201 7.91662 14.1271 8.31836 14.2275C8.72012 14.3278 9.12709 14.0834 9.22754 13.6816L10.7275 7.68164C10.8278 7.27989 10.5834 6.87291 10.1816 6.77246ZM13.1816 6.77246C12.7799 6.67219 12.3729 6.91663 12.2725 7.31836L10.7725 13.3184C10.6722 13.7201 10.9166 14.1271 11.3184 14.2275C11.7201 14.3278 12.1271 14.0834 12.2275 13.6816L13.7275 7.68164C13.8278 7.27989 13.5834 6.87291 13.1816 6.77246ZM15 12C14.4478 12 14 12.4478 14 13C14 13.5523 14.4477 14 15 14C15.5523 14 16 13.5523 16 13C16 12.4477 15.5523 12 15 12ZM18 12C17.4478 12 17 12.4478 17 13C17 13.5523 17.4477 14 18 14C18.5523 14 19 13.5523 19 13C19 12.4477 18.5523 12 18 12Z" fill="#73ABFF"/>
</svg>
