<svg width="24" height="24" viewBox="0 0 24 24" fill="none" xmlns="http://www.w3.org/2000/svg">
<path d="M4 7V9.48047C3.99992 9.48665 3.99907 9.49378 3.99902 9.5V16.5C3.99929 17.3279 4.67121 17.9995 5.49902 18H18.0967C17.5779 18.896 16.6098 19.4998 15.5 19.5H5.5C3.8437 19.4997 2.49955 18.1572 2.49902 16.501V9.50098C2.49902 8.39013 3.10468 7.42091 4.00195 6.90234C4.00119 6.93449 4.00001 6.96767 4 7ZM20 4C21.1046 4 22 4.89543 22 6V15C22 16.1046 21.1046 17 20 17H7C5.89543 17 5 16.1046 5 15V6C5 4.89543 5.89543 4 7 4H20ZM10.1816 6.77246C9.7799 6.67219 9.37291 6.91663 9.27246 7.31836L7.77246 13.3184C7.67217 13.7201 7.91663 14.1271 8.31836 14.2275C8.7201 14.3278 9.12709 14.0834 9.22754 13.6816L10.7275 7.68164C10.8278 7.2799 10.5834 6.87293 10.1816 6.77246ZM13.1816 6.77246C12.7799 6.67219 12.3729 6.91663 12.2725 7.31836L10.7725 13.3184C10.6722 13.7201 10.9166 14.1271 11.3184 14.2275C11.7201 14.3278 12.1271 14.0834 12.2275 13.6816L13.7275 7.68164C13.8278 7.2799 13.5834 6.87293 13.1816 6.77246ZM15 12C14.4478 12 14 12.4478 14 13C14 13.5522 14.4477 14 15 14C15.5522 14 16 13.5522 16 13C16 12.4478 15.5522 12 15 12ZM18 12C17.4478 12 17 12.4478 17 13C17 13.5522 17.4478 14 18 14C18.5522 14 19 13.5522 19 13C19 12.4478 18.5522 12 18 12Z" fill="#619BF2"/>
</svg>
