<svg width="24" height="24" viewBox="0 0 24 24" fill="none" xmlns="http://www.w3.org/2000/svg">
<path d="M12 2.75C17.1086 2.75 21.25 6.89137 21.25 12C21.25 17.1086 17.1086 21.25 12 21.25C6.89137 21.25 2.75 17.1086 2.75 12C2.75 6.89137 6.89137 2.75 12 2.75ZM12 6.75C11.5858 6.75 11.25 7.08579 11.25 7.5V11.2471L7.5 11.25C7.08592 11.2502 6.75 11.586 6.75 12C6.75022 12.4141 7.08597 12.75 7.5 12.75L11.25 12.7471V16.5C11.25 16.9142 11.5858 17.25 12 17.25C12.4142 17.25 12.75 16.9142 12.75 16.5V12.7471L16.5 12.7451C16.9141 12.7449 17.25 12.4091 17.25 11.9951C17.2498 11.581 16.914 11.2451 16.5 11.2451L12.75 11.2471V7.5C12.75 7.08579 12.4142 6.75 12 6.75Z" fill="#73ABFF"/>
</svg>
