<svg width="24" height="24" viewBox="0 0 24 24" fill="none" xmlns="http://www.w3.org/2000/svg">
<path d="M15.9375 10C15.9375 11.1391 16.8609 12.0625 18 12.0625H21V20.5C21 21.3284 20.3284 22 19.5 22H10.5C9.67157 22 9 21.3284 9 20.5V8.5C9 7.67157 9.67157 7 10.5 7H15.9375V10ZM17.0625 7.06348C17.2971 7.13434 17.513 7.26298 17.6895 7.43945L20.5605 10.3105C20.7369 10.4869 20.8647 10.703 20.9355 10.9375H18C17.4822 10.9375 17.0625 10.5178 17.0625 10V7.06348Z" fill="#73ABFF"/>
<mask id="path-2-outside-1_371_490" maskUnits="userSpaceOnUse" x="1.56918" y="1" width="16" height="16" fill="black">
<rect fill="white" x="1.56918" y="1" width="16" height="16"/>
<path d="M11.1688 3.1377C12.0314 1.95567 13.6648 1.64823 14.8983 2.43555C15.8696 3.05563 16.3556 4.21201 16.119 5.33984L15.6414 7.61328L16.0682 10.4082C16.118 10.7351 16.0613 11.0694 15.9061 11.3613L14.7997 13.4414C14.7222 13.5867 14.5545 13.6595 14.3954 13.6172L14.1024 13.5391C13.9216 13.4909 13.809 13.3104 13.8456 13.127L14.3719 10.498L12.8133 12.5928C12.7206 12.7175 12.5576 12.7676 12.411 12.7158L11.9686 12.5596C11.7915 12.4971 11.6939 12.3074 11.7459 12.127L12.453 9.6748C12.51 9.47717 12.6092 9.29408 12.744 9.13867L14.1229 7.54883L14.6512 5.03223C14.7597 4.51509 14.5369 3.9847 14.0916 3.7002C13.526 3.33912 12.7764 3.4795 12.3807 4.02148L3.92465 15.6094C3.68048 15.9438 3.21135 16.0175 2.8768 15.7734C2.54228 15.5293 2.46961 15.0602 2.71371 14.7256L11.1688 3.1377Z"/>
</mask>
<path d="M11.1688 3.1377C12.0314 1.95567 13.6648 1.64823 14.8983 2.43555C15.8696 3.05563 16.3556 4.21201 16.119 5.33984L15.6414 7.61328L16.0682 10.4082C16.118 10.7351 16.0613 11.0694 15.9061 11.3613L14.7997 13.4414C14.7222 13.5867 14.5545 13.6595 14.3954 13.6172L14.1024 13.5391C13.9216 13.4909 13.809 13.3104 13.8456 13.127L14.3719 10.498L12.8133 12.5928C12.7206 12.7175 12.5576 12.7676 12.411 12.7158L11.9686 12.5596C11.7915 12.4971 11.6939 12.3074 11.7459 12.127L12.453 9.6748C12.51 9.47717 12.6092 9.29408 12.744 9.13867L14.1229 7.54883L14.6512 5.03223C14.7597 4.51509 14.5369 3.9847 14.0916 3.7002C13.526 3.33912 12.7764 3.4795 12.3807 4.02148L3.92465 15.6094C3.68048 15.9438 3.21135 16.0175 2.8768 15.7734C2.54228 15.5293 2.46961 15.0602 2.71371 14.7256L11.1688 3.1377Z" fill="#73ABFF"/>
<path d="M11.1688 3.1377L10.361 2.5482L10.361 2.54827L11.1688 3.1377ZM14.8983 2.43555L15.4364 1.59266L15.4363 1.59262L14.8983 2.43555ZM16.119 5.33984L17.0976 5.54541L17.0977 5.54514L16.119 5.33984ZM15.6414 7.61328L14.6628 7.40772C14.6382 7.525 14.6348 7.64575 14.6529 7.76422L15.6414 7.61328ZM16.0682 10.4082L17.0568 10.2575L17.0567 10.2573L16.0682 10.4082ZM15.9061 11.3613L16.789 11.8309L16.7891 11.8308L15.9061 11.3613ZM14.7997 13.4414L15.682 13.9119L15.6825 13.911L14.7997 13.4414ZM14.3954 13.6172L14.1377 14.5834L14.1384 14.5836L14.3954 13.6172ZM14.1024 13.5391L14.36 12.5728L14.36 12.5728L14.1024 13.5391ZM13.8456 13.127L12.865 12.9306L12.8648 12.9315L13.8456 13.127ZM14.3719 10.498L15.3525 10.6944C15.4443 10.2357 15.2059 9.77458 14.7784 9.58441C14.351 9.39423 13.8489 9.52579 13.5696 9.9011L14.3719 10.498ZM12.8133 12.5928L12.011 11.9958L12.0109 11.9961L12.8133 12.5928ZM12.411 12.7158L12.0779 13.6587L12.0782 13.6588L12.411 12.7158ZM11.9686 12.5596L12.3016 11.6167L12.3014 11.6166L11.9686 12.5596ZM11.7459 12.127L12.7068 12.4041L12.7068 12.404L11.7459 12.127ZM12.453 9.6748L11.4922 9.39743L11.4921 9.39776L12.453 9.6748ZM12.744 9.13867L11.9885 8.48346L11.9885 8.48351L12.744 9.13867ZM14.1229 7.54883L14.8783 8.20404C14.9898 8.07555 15.0666 7.92075 15.1016 7.75428L14.1229 7.54883ZM14.6512 5.03223L15.6299 5.23768L15.6299 5.23758L14.6512 5.03223ZM14.0916 3.7002L14.6301 2.85755L14.6297 2.85727L14.0916 3.7002ZM12.3807 4.02148L11.5731 3.43183L11.5729 3.43201L12.3807 4.02148ZM3.92465 15.6094L4.73231 16.199L4.73244 16.1988L3.92465 15.6094ZM2.8768 15.7734L2.28725 16.5812L2.28745 16.5813L2.8768 15.7734ZM2.71371 14.7256L1.90589 14.1362L1.90587 14.1362L2.71371 14.7256ZM11.1688 3.1377L11.9766 3.72719C12.5278 2.97183 13.5718 2.77523 14.3602 3.27847L14.8983 2.43555L15.4363 1.59262C13.7578 0.521216 11.535 0.939524 10.361 2.5482L11.1688 3.1377ZM14.8983 2.43555L14.3602 3.27844C14.9809 3.67468 15.2915 4.41364 15.1403 5.13455L16.119 5.33984L17.0977 5.54514C17.4196 4.01038 16.7583 2.43658 15.4364 1.59266L14.8983 2.43555ZM16.119 5.33984L15.1403 5.13428L14.6628 7.40772L15.6414 7.61328L16.6201 7.81885L17.0976 5.54541L16.119 5.33984ZM15.6414 7.61328L14.6529 7.76422L15.0797 10.5591L16.0682 10.4082L17.0567 10.2573L16.63 7.46234L15.6414 7.61328ZM16.0682 10.4082L15.0796 10.5589C15.0971 10.6735 15.0771 10.7903 15.0231 10.8919L15.9061 11.3613L16.7891 11.8308C17.0455 11.3485 17.139 10.7966 17.0568 10.2575L16.0682 10.4082ZM15.9061 11.3613L15.0232 10.8917L13.9168 12.9718L14.7997 13.4414L15.6825 13.911L16.789 11.8309L15.9061 11.3613ZM14.7997 13.4414L13.9173 12.9709C14.0587 12.7056 14.3635 12.574 14.6524 12.6508L14.3954 13.6172L14.1384 14.5836C14.7456 14.7451 15.3856 14.4679 15.682 13.9119L14.7997 13.4414ZM14.3954 13.6172L14.653 12.651L14.36 12.5728L14.1024 13.5391L13.8447 14.5053L14.1377 14.5834L14.3954 13.6172ZM14.1024 13.5391L14.36 12.5728C14.6876 12.6602 14.8931 12.9871 14.8263 13.3224L13.8456 13.127L12.8648 12.9315C12.7249 13.6337 13.1557 14.3215 13.8447 14.5053L14.1024 13.5391ZM13.8456 13.127L14.8261 13.3233L15.3525 10.6944L14.3719 10.498L13.3914 10.3017L12.865 12.9306L13.8456 13.127ZM14.3719 10.498L13.5696 9.9011L12.011 11.9958L12.8133 12.5928L13.6156 13.1897L15.1742 11.095L14.3719 10.498ZM12.8133 12.5928L12.0109 11.9961C12.1787 11.7704 12.4754 11.6781 12.7438 11.7728L12.411 12.7158L12.0782 13.6588C12.6398 13.857 13.2624 13.6647 13.6158 13.1895L12.8133 12.5928ZM12.411 12.7158L12.744 11.7729L12.3016 11.6167L11.9686 12.5596L11.6356 13.5025L12.0779 13.6587L12.411 12.7158ZM11.9686 12.5596L12.3014 11.6166C12.6238 11.7303 12.8015 12.0758 12.7068 12.4041L11.7459 12.127L10.7851 11.8498C10.5863 12.5391 10.9592 13.2638 11.6358 13.5026L11.9686 12.5596ZM11.7459 12.127L12.7068 12.404L13.4138 9.95185L12.453 9.6748L11.4921 9.39776L10.7851 11.8499L11.7459 12.127ZM12.453 9.6748L13.4137 9.95218C13.4308 9.89304 13.4603 9.83903 13.4995 9.79383L12.744 9.13867L11.9885 8.48351C11.7582 8.74913 11.5893 9.06131 11.4922 9.39743L12.453 9.6748ZM12.744 9.13867L13.4994 9.79389L14.8783 8.20404L14.1229 7.54883L13.3675 6.89361L11.9885 8.48346L12.744 9.13867ZM14.1229 7.54883L15.1016 7.75428L15.6299 5.23768L14.6512 5.03223L13.6725 4.82677L13.1442 7.34337L14.1229 7.54883ZM14.6512 5.03223L15.6299 5.23758C15.8238 4.31349 15.4256 3.36587 14.6301 2.85755L14.0916 3.7002L13.5532 4.54284C13.6481 4.60352 13.6956 4.7167 13.6725 4.82687L14.6512 5.03223ZM14.0916 3.7002L14.6297 2.85727C13.6198 2.21265 12.2807 2.46257 11.5731 3.43183L12.3807 4.02148L13.1884 4.61114C13.2721 4.49643 13.4322 4.46559 13.5536 4.54312L14.0916 3.7002ZM12.3807 4.02148L11.5729 3.43201L3.11686 15.0199L3.92465 15.6094L4.73244 16.1988L13.1885 4.61095L12.3807 4.02148ZM3.92465 15.6094L3.11699 15.0197C3.19785 14.909 3.35389 14.8837 3.46615 14.9656L2.8768 15.7734L2.28745 16.5813C3.0688 17.1513 4.16311 16.9787 4.73231 16.199L3.92465 15.6094ZM2.8768 15.7734L3.46636 14.9657C3.5791 15.048 3.60203 15.2047 3.52155 15.315L2.71371 14.7256L1.90587 14.1362C1.33719 14.9156 1.50545 16.0105 2.28725 16.5812L2.8768 15.7734ZM2.71371 14.7256L3.52154 15.315L11.9766 3.72712L11.1688 3.1377L10.361 2.54827L1.90589 14.1362L2.71371 14.7256Z" fill="#1C1F26" mask="url(#path-2-outside-1_371_490)"/>
</svg>
