<svg width="24" height="24" viewBox="0 0 24 24" fill="none" xmlns="http://www.w3.org/2000/svg">
<path d="M8.5834 6.04877L10.0219 5.82123C11.1339 5.64558 12.1782 6.40448 12.3539 7.51654C12.5296 8.62867 11.7697 9.67289 10.6576 9.84857L9.22011 10.0761L9.76504 13.5273L8.32656 13.7548C7.21445 13.9305 6.45557 14.9747 6.63125 16.0869C6.807 17.1989 7.8512 17.9578 8.96328 17.7822L10.4008 17.5546L10.765 19.8564L6.82265 20.4794C5.68724 20.6585 4.62138 19.8833 4.44179 18.748L2.54629 6.75092C2.36689 5.6152 3.14299 4.54946 4.27871 4.37006L8.22011 3.74701L8.5834 6.04877Z" fill="#73ABFF"/>
<path d="M19.5082 3.75775C20.6561 3.81853 21.5373 4.79831 21.4769 5.94623L20.8363 18.0751C20.7757 19.2233 19.796 20.1054 18.6478 20.0449L14.6625 19.8339L14.7855 17.5078L13.3314 17.4306C12.2071 17.3712 11.3433 16.4114 11.4027 15.287C11.4622 14.1628 12.4221 13.3001 13.5463 13.3593L15.0004 13.4355L15.185 9.94525L16.6391 10.0224C17.7633 10.0818 18.723 9.21879 18.7826 8.09467C18.842 6.97031 17.9783 6.0105 16.8539 5.95111L15.3998 5.87396L15.5228 3.54779L19.5082 3.75775Z" fill="#73ABFF"/>
</svg>
