<svg width="24" height="24" viewBox="0 0 24 24" fill="none" xmlns="http://www.w3.org/2000/svg">
<path d="M12.1344 4.19602C12.8599 2.36589 14.8769 1.40722 16.7539 2.00079C18.2416 2.4715 19.2832 3.81446 19.369 5.37244L19.5289 8.28983L21.1331 11.9485C21.3339 12.4066 21.3819 12.9173 21.2706 13.405L20.6087 16.304C20.5528 16.5485 20.3358 16.722 20.0849 16.7223L19.609 16.7235C19.3319 16.7237 19.0995 16.5132 19.0723 16.2374L18.632 11.7452L17.3467 15.804C17.2711 16.0426 17.0413 16.1976 16.7918 16.1782L16.0949 16.1243C15.8173 16.1026 15.6025 15.8724 15.599 15.594L15.5568 12.3275C15.5526 11.992 15.6276 11.6601 15.7743 11.3583L17.2747 8.27208L17.1221 5.49528C17.0875 4.87184 16.6704 4.33443 16.0751 4.14607C15.3237 3.90851 14.5163 4.29225 14.2258 5.02475L7.48136 22.0416C7.25242 22.6189 6.59836 22.9021 6.02094 22.6735C5.44361 22.4446 5.16048 21.7905 5.389 21.2131L12.1344 4.19602Z" fill="#619BF2"/>
</svg>
