<svg width="24" height="24" viewBox="0 0 24 24" fill="none" xmlns="http://www.w3.org/2000/svg">
<path d="M9.36157 6.04874L10.8 5.8212C11.9121 5.64559 12.9564 6.40447 13.1321 7.51651C13.3078 8.62864 12.5479 9.67286 11.4358 9.84854L9.99731 10.0761L10.5432 13.5273L9.10474 13.7548C7.99261 13.9305 7.23374 14.9747 7.40942 16.0868C7.58516 17.1987 8.62855 17.9576 9.74048 17.7821L11.179 17.5546L11.5432 19.8564L7.60083 20.4794C6.4654 20.6586 5.39956 19.8833 5.21997 18.748L3.32446 6.75089C3.14506 5.61517 3.92117 4.54943 5.05688 4.37003L8.99829 3.74698L9.36157 6.04874ZM18.8352 3.75772C19.9832 3.81839 20.8644 4.79819 20.804 5.9462L20.1633 18.0751C20.1027 19.2233 19.1231 20.1055 17.9749 20.0448L13.9905 19.8339L14.1125 17.5077L12.6584 17.4306C11.5342 17.3711 10.6713 16.4113 10.7307 15.287C10.7901 14.1629 11.7492 13.3002 12.8733 13.3593L14.3284 13.4355L14.512 9.94522L15.9661 10.0224C17.0904 10.0818 18.0502 9.21801 18.1096 8.09366C18.1687 6.96966 17.3059 6.01068 16.1819 5.95108L14.7278 5.87393L14.8499 3.54776L18.8352 3.75772Z" fill="#73ABFF"/>
</svg>
