<svg width="24" height="24" viewBox="0 0 24 24" fill="none" xmlns="http://www.w3.org/2000/svg">
<path d="M13.1973 7.08789L11.9883 8.4834C11.8155 8.68266 11.6774 8.90828 11.5781 9.15039L11.4922 9.39746L10.7852 11.8496C10.5863 12.5389 10.9592 13.2641 11.6357 13.5029V13.502L12.0781 13.6582V13.6592C12.3595 13.7584 12.6563 13.759 12.9268 13.6758C13.0769 14.0712 13.4091 14.3887 13.8447 14.5049L14.1377 14.583L14.1387 14.584C14.7456 14.7451 15.3852 14.4676 15.6816 13.9121L15.6826 13.9111L16.7891 11.8311L16.8467 11.71C17.1759 11.9324 17.5727 12.0625 18 12.0625H21V20.5C21 21.3284 20.3284 22 19.5 22H10.5C9.67157 22 9 21.3284 9 20.5V10.3506L11.4453 7H13.2158L13.1973 7.08789ZM15.6416 7.61328L15.9375 9.55078V10C15.9375 10.2656 15.9896 10.5188 16.0811 10.752C16.0656 10.9638 16.0071 11.1716 15.9062 11.3613L14.7998 13.4414L14.7666 13.4922C14.6805 13.6029 14.5348 13.6541 14.3955 13.6172L14.1025 13.5391C13.9444 13.4969 13.8384 13.3534 13.8389 13.1953L13.8457 13.127L14.3721 10.498L12.8135 12.5928C12.7208 12.7175 12.5577 12.7674 12.4111 12.7158L11.9688 12.5596C11.7916 12.4971 11.694 12.3074 11.7461 12.127L12.4531 9.6748C12.4959 9.52654 12.5619 9.38611 12.6494 9.25977L12.7441 9.13867L14.123 7.54883L14.2383 7H15.7705L15.6416 7.61328ZM17.0625 7.06348C17.2971 7.13434 17.513 7.26298 17.6895 7.43945L20.5605 10.3105C20.7369 10.4869 20.8647 10.703 20.9355 10.9375H18C17.4822 10.9375 17.0625 10.5178 17.0625 10V7.06348ZM9 8.6543V8.5C9 7.78077 9.50607 7.17914 10.1816 7.0332L9 8.6543Z" fill="#73ABFF"/>
<path d="M11.1688 3.1377C12.0314 1.95567 13.6648 1.64823 14.8983 2.43555C15.8696 3.05563 16.3556 4.21201 16.119 5.33984L15.6414 7.61328L16.0682 10.4082C16.118 10.7351 16.0613 11.0694 15.9061 11.3613L14.7997 13.4414C14.7222 13.5867 14.5545 13.6595 14.3954 13.6172L14.1024 13.5391C13.9216 13.4909 13.809 13.3104 13.8456 13.127L14.3719 10.498L12.8133 12.5928C12.7206 12.7175 12.5576 12.7676 12.411 12.7158L11.9686 12.5596C11.7915 12.4971 11.6939 12.3074 11.7459 12.127L12.453 9.6748C12.51 9.47717 12.6092 9.29408 12.744 9.13867L14.1229 7.54883L14.6512 5.03223C14.7597 4.51509 14.5369 3.9847 14.0916 3.7002C13.526 3.33912 12.7764 3.4795 12.3807 4.02148L3.92465 15.6094C3.68048 15.9438 3.21135 16.0175 2.8768 15.7734C2.54228 15.5293 2.46961 15.0602 2.71371 14.7256L11.1688 3.1377Z" fill="#73ABFF"/>
</svg>
