<svg width="24" height="24" viewBox="0 0 24 24" fill="none" xmlns="http://www.w3.org/2000/svg">
<path d="M13.25 6C13.25 7.51878 14.4812 8.75 16 8.75H20V20C20 21.1046 19.1046 22 18 22H6C4.89543 22 4 21.1046 4 20V4C4 2.89543 4.89543 2 6 2H13.25V6ZM9 17.25C8.58579 17.25 8.25 17.5858 8.25 18C8.25 18.4142 8.58579 18.75 9 18.75H15C15.4142 18.75 15.75 18.4142 15.75 18C15.75 17.5858 15.4142 17.25 15 17.25H9ZM12 6.75C11.5858 6.75 11.25 7.08579 11.25 7.5V13.1895L10.0303 11.9697C9.73738 11.6768 9.26262 11.6768 8.96973 11.9697C8.67683 12.2626 8.67683 12.7374 8.96973 13.0303L11.4697 15.5303C11.7626 15.8232 12.2374 15.8232 12.5303 15.5303L15.0303 13.0303C15.3232 12.7374 15.3232 12.2626 15.0303 11.9697C14.7374 11.6768 14.2626 11.6768 13.9697 11.9697L12.75 13.1895V7.5C12.75 7.08579 12.4142 6.75 12 6.75ZM14.75 2.08594C15.0627 2.18045 15.3507 2.35074 15.5859 2.58594L19.4141 6.41406C19.6493 6.64926 19.8196 6.9373 19.9141 7.25H16C15.3096 7.25 14.75 6.69036 14.75 6V2.08594Z" fill="#73ABFF"/>
</svg>
