<svg width="24" height="24" viewBox="0 0 24 24" fill="none" xmlns="http://www.w3.org/2000/svg">
<path fill-rule="evenodd" clip-rule="evenodd" d="M15.5858 2.58579C15.2107 2.21071 14.702 2 14.1716 2H6C4.89543 2 4 2.89543 4 4V20C4 21.1046 4.89543 22 6 22H18C19.1046 22 20 21.1046 20 20V7.82843C20 7.29799 19.7893 6.78929 19.4142 6.41421L15.5858 2.58579Z" fill="#364159"/>
<path d="M15 17.375C15.3452 17.375 15.625 17.6548 15.625 18C15.625 18.3452 15.3452 18.625 15 18.625H9C8.65482 18.625 8.375 18.3452 8.375 18C8.375 17.6548 8.65482 17.375 9 17.375H15ZM11.375 7.5C11.375 7.15482 11.6548 6.875 12 6.875C12.3452 6.875 12.625 7.15482 12.625 7.5V13.4902L14.0576 12.0576C14.3017 11.8135 14.6983 11.8135 14.9424 12.0576C15.1865 12.3017 15.1865 12.6983 14.9424 12.9424L12.4424 15.4424C12.1983 15.6865 11.8017 15.6865 11.5576 15.4424L9.05762 12.9424C8.81354 12.6983 8.81354 12.3017 9.05762 12.0576C9.30169 11.8135 9.69831 11.8135 9.94238 12.0576L11.375 13.4902V7.5Z" fill="white"/>
<path d="M20 8H16C14.8954 8 14 7.10457 14 6V2H14.1767C14.862 2 15.5172 2.2813 15.9892 2.77813L19.3125 6.27631C19.7539 6.74094 20 7.35914 20 8Z" fill="#73ABFF"/>
</svg>
