<svg width="24" height="24" viewBox="0 0 24 24" fill="none" xmlns="http://www.w3.org/2000/svg">
<path d="M11.5516 2.90848C11.735 2.53686 12.265 2.53686 12.4484 2.90848L15.1165 8.31467C15.1893 8.46224 15.3301 8.56453 15.493 8.58819L21.459 9.45511C21.8692 9.51471 22.0329 10.0187 21.7362 10.308L17.4191 14.5161C17.3012 14.631 17.2474 14.7965 17.2753 14.9587L18.2944 20.9006C18.3644 21.3091 17.9357 21.6206 17.5689 21.4277L12.2327 18.6223C12.087 18.5457 11.913 18.5457 11.7673 18.6223L6.43111 21.4277C6.06429 21.6206 5.63558 21.3091 5.70563 20.9006L6.72476 14.9587C6.75258 14.7965 6.6988 14.631 6.58096 14.5161L2.26386 10.308C1.9671 10.0187 2.13086 9.51471 2.54097 9.45511L8.50705 8.58819C8.66991 8.56453 8.81069 8.46224 8.88352 8.31467L11.5516 2.90848Z" fill="#D9D9D9"/>
<path d="M11.5516 2.90848C11.735 2.53686 12.265 2.53686 12.4484 2.90848L15.1165 8.31467C15.1893 8.46224 15.3301 8.56453 15.493 8.58819L21.459 9.45511C21.8692 9.51471 22.0329 10.0187 21.7362 10.308L17.4191 14.5161C17.3012 14.631 17.2474 14.7965 17.2753 14.9587L18.2944 20.9006C18.3644 21.3091 17.9357 21.6206 17.5689 21.4277L12.2327 18.6223C12.087 18.5457 11.913 18.5457 11.7673 18.6223L6.43111 21.4277C6.06429 21.6206 5.63558 21.3091 5.70563 20.9006L6.72476 14.9587C6.75258 14.7965 6.6988 14.631 6.58096 14.5161L2.26386 10.308C1.9671 10.0187 2.13086 9.51471 2.54097 9.45511L8.50705 8.58819C8.66991 8.56453 8.81069 8.46224 8.88352 8.31467L11.5516 2.90848Z" fill="url(#paint0_radial_13_713)"/>
<defs>
<radialGradient id="paint0_radial_13_713" cx="0" cy="0" r="1" gradientUnits="userSpaceOnUse" gradientTransform="translate(12 14.1045) rotate(90) scale(12.6312 12.0416)">
<stop stop-color="#88B6FF"/>
<stop offset="1" stop-color="#458FFF"/>
</radialGradient>
</defs>
</svg>
