<svg width="24" height="24" viewBox="0 0 24 24" fill="none" xmlns="http://www.w3.org/2000/svg">
<path fill-rule="evenodd" clip-rule="evenodd" d="M15.5858 2.58579C15.2107 2.21071 14.702 2 14.1716 2H6C4.89543 2 4 2.89543 4 4V20C4 21.1046 4.89543 22 6 22H18C19.1046 22 20 21.1046 20 20V7.82843C20 7.29799 19.7893 6.78929 19.4142 6.41421L15.5858 2.58579Z" fill="#364159"/>

<path d="M20 8H16C14.8954 8 14 7.10457 14 6V2H14.1767C14.862 2 15.5172 2.2813 15.9892 2.77813L19.3125 6.27631C19.7539 6.74094 20 7.35914 20 8Z" fill="#73ABFF"/>
</svg>
