<svg width="24" height="24" viewBox="0 0 24 24" fill="none" xmlns="http://www.w3.org/2000/svg">
<path d="M13.25 6C13.25 7.51878 14.4812 8.75 16 8.75H20V20C20 21.1046 19.1046 22 18 22H6C4.89543 22 4 21.1046 4 20V4C4 2.89543 4.89543 2 6 2H13.25V6ZM12 8.75C11.5858 8.75 11.25 9.08579 11.25 9.5V12.248L8.49902 12.25C8.08502 12.2505 7.74971 12.5869 7.75 13.001C7.75053 13.415 8.08691 13.7503 8.50098 13.75L11.25 13.748V16.5C11.25 16.9142 11.5858 17.25 12 17.25C12.4142 17.25 12.75 16.9142 12.75 16.5V13.7461L15.501 13.7451C15.915 13.7446 16.2503 13.4082 16.25 12.9941C16.2495 12.5801 15.9131 12.2448 15.499 12.2451L12.75 12.2461V9.5C12.75 9.08579 12.4142 8.75 12 8.75ZM14.75 2.08594C15.0627 2.18045 15.3507 2.35074 15.5859 2.58594L19.4141 6.41406C19.6493 6.64926 19.8196 6.9373 19.9141 7.25H16C15.3096 7.25 14.75 6.69036 14.75 6V2.08594Z" fill="#619BF2"/>
</svg>
