<svg width="24" height="24" viewBox="0 0 24 24" fill="none" xmlns="http://www.w3.org/2000/svg">
<rect x="14" y="16.1213" width="3" height="9" rx="1" transform="rotate(-45 14 16.1213)" fill="#CC9D66"/>
<path d="M19 11.0002C19 15.4185 15.4183 19.0002 11 19.0002C6.58172 19.0002 3 15.4185 3 11.0002C3 6.58194 6.58172 3.00021 11 3.00021C15.4183 3.00021 19 6.58194 19 11.0002Z" fill="url(#paint0_linear_1_911)"/>
<path d="M17 11.0002C17 14.3139 14.3137 17.0002 11 17.0002C7.68629 17.0002 5 14.3139 5 11.0002C5 7.68651 7.68629 5.00021 11 5.00021C14.3137 5.00021 17 7.68651 17 11.0002Z" fill="#CDE0FF"/>
<defs>
<linearGradient id="paint0_linear_1_911" x1="3" y1="3.00021" x2="19" y2="19.0002" gradientUnits="userSpaceOnUse">
<stop stop-color="#86A3BF"/>
<stop offset="1" stop-color="#C3D4E6"/>
</linearGradient>
</defs>
</svg>
