<svg width="24" height="24" viewBox="0 0 24 24" fill="none" xmlns="http://www.w3.org/2000/svg">
<path d="M14.7071 16.8284C14.3166 16.4379 14.3166 15.8047 14.7071 15.4142L15.4142 14.7071C15.8047 14.3166 16.4379 14.3166 16.8284 14.7071L21.7782 19.6569C22.1687 20.0474 22.1687 20.6805 21.7782 21.0711L21.0711 21.7782C20.6805 22.1687 20.0474 22.1687 19.6569 21.7782L14.7071 16.8284Z" fill="#4666A6"/>
<path d="M19 11.0002C19 15.4185 15.4183 19.0002 11 19.0002C6.58172 19.0002 3 15.4185 3 11.0002C3 6.58194 6.58172 3.00021 11 3.00021C15.4183 3.00021 19 6.58194 19 11.0002Z" fill="url(#paint0_linear_10_181)"/>
<path d="M17 11.0002C17 14.3139 14.3137 17.0002 11 17.0002C7.68629 17.0002 5 14.3139 5 11.0002C5 7.68651 7.68629 5.00021 11 5.00021C14.3137 5.00021 17 7.68651 17 11.0002Z" fill="#CDE0FF"/>
<defs>
<linearGradient id="paint0_linear_10_181" x1="3" y1="3.00021" x2="19" y2="19.0002" gradientUnits="userSpaceOnUse">
<stop stop-color="#88B6FF"/>
<stop offset="1" stop-color="#458FFF"/>
</linearGradient>
</defs>
</svg>
