<svg width="24" height="24" viewBox="0 0 24 24" fill="none" xmlns="http://www.w3.org/2000/svg">
<path d="M20 7.89648C21.1045 7.89648 22 8.79195 22 9.89648V17C22 18.1046 21.1046 19 20 19H4C2.89543 19 2 18.1046 2 17V10.75H8.52832C8.95508 10.7499 9.3761 10.6508 9.75781 10.46L14.8838 7.89648H20ZM12.249 10.75C11.8349 10.7505 11.4996 11.0869 11.5 11.501L11.502 13.4951H9.5C9.08579 13.4951 8.75 13.8309 8.75 14.2451C8.75007 14.6593 9.08583 14.9951 9.5 14.9951H11.5029L11.5049 17.001C11.5054 17.4151 11.8417 17.7504 12.2559 17.75C12.67 17.7495 13.0053 17.4132 13.0049 16.999L13.0029 14.9951H15C15.4142 14.9951 15.7499 14.6593 15.75 14.2451C15.75 13.8309 15.4142 13.4951 15 13.4951H13.002L13 11.499C12.9995 11.0849 12.6631 10.7496 12.249 10.75ZM9.13184 5C9.62682 5 10.1042 5.18402 10.4717 5.51562L12.5469 7.3877L9.08691 9.11816C8.91349 9.20487 8.72221 9.24993 8.52832 9.25H2V7C2 5.89543 2.89543 5 4 5H9.13184Z" fill="#66A3FF"/>
</svg>
