<svg width="24" height="24" viewBox="0 0 24 24" fill="none" xmlns="http://www.w3.org/2000/svg">
<path d="M9.96803 4.75H4.75C3.64543 4.75 2.75 5.64543 2.75 6.75V17.25C2.75 18.3546 3.64543 19.25 4.75 19.25H19.25C20.3546 19.25 21.25 18.3546 21.25 17.25V9.75C21.25 8.64543 20.3546 7.75 19.25 7.75H14.782C14.2792 7.75 13.7949 7.56063 13.4254 7.21961L11.3246 5.28039C10.9551 4.93937 10.4708 4.75 9.96803 4.75Z" fill="url(#paint0_linear_458_925)" stroke="url(#paint1_linear_458_925)" stroke-width="1.5"/>
<path d="M11.9434 8C12.6434 8 13.2109 8.56751 13.2109 9.26758C13.2109 9.47949 13.1586 9.67882 13.0664 9.85408C13.0097 9.96188 13.0803 10.1123 13.2021 10.1123H14.7607C15.3829 10.1124 15.8876 10.6171 15.8877 11.2393V12.7971C15.8877 12.9189 16.0381 12.9896 16.1459 12.933C16.3212 12.8411 16.5207 12.7891 16.7324 12.7891C17.4325 12.7891 18 13.3566 18 14.0566C17.9998 14.7566 17.4324 15.3242 16.7324 15.3242C16.5204 15.3242 16.3211 15.2715 16.1458 15.179C16.0381 15.1221 15.8877 15.1927 15.8877 15.3145V16.873C15.8877 17.4953 15.383 17.9999 14.7607 18H13.3055C13.2009 18 13.1316 17.8889 13.1608 17.7885C13.1934 17.6768 13.2109 17.5588 13.2109 17.4365C13.2109 16.7365 12.6434 16.1689 11.9434 16.1689C11.2435 16.1691 10.6758 16.7366 10.6758 17.4365C10.6758 17.5588 10.6937 17.6769 10.7265 17.7886C10.756 17.8889 10.6867 18 10.5821 18H9.12695C8.50466 18 8 17.4953 8 16.873V15.3138C8 15.192 8.1505 15.1214 8.25821 15.1784C8.43339 15.2712 8.63264 15.3242 8.84473 15.3242C9.5447 15.3242 10.1121 14.7566 10.1123 14.0566C10.1123 13.3566 9.54481 12.7891 8.84473 12.7891C8.63288 12.7891 8.43355 12.8414 8.2583 12.9336C8.15048 12.9902 8 12.9196 8 12.7978V11.2393C8.0001 10.617 8.50472 10.1123 9.12695 10.1123H10.6848C10.8065 10.1123 10.8771 9.96193 10.8204 9.85415C10.7282 9.67884 10.6758 9.47943 10.6758 9.26758C10.6758 8.56761 11.2434 8.00016 11.9434 8Z" fill="url(#paint2_linear_458_925)"/>
<defs>
<linearGradient id="paint0_linear_458_925" x1="21.25" y1="4.75" x2="11.7195" y2="23.7493" gradientUnits="userSpaceOnUse">
<stop stop-color="#424A59"/>
<stop offset="1" stop-color="#262D3B"/>
</linearGradient>
<linearGradient id="paint1_linear_458_925" x1="12" y1="4.75" x2="12" y2="19.25" gradientUnits="userSpaceOnUse">
<stop stop-color="#8C93AB"/>
<stop offset="1" stop-color="#4F5C78"/>
</linearGradient>
<linearGradient id="paint2_linear_458_925" x1="7.43662" y1="6.16901" x2="16.4507" y2="18" gradientUnits="userSpaceOnUse">
<stop stop-color="#D8FFAC"/>
<stop offset="1" stop-color="#76CC13"/>
</linearGradient>
</defs>
</svg>
