<svg width="24" height="24" viewBox="0 0 24 24" fill="none" xmlns="http://www.w3.org/2000/svg">
<path d="M2 8.00009C2 6.89552 2.89543 6.00009 4 6.00009H21C22.1046 6.00009 23 6.89552 23 8.00009V13.0001C23 14.1047 22.1046 15.0001 21 15.0001H4C2.89543 15.0001 2 14.1047 2 13.0001V8.00009Z" fill="#2A364C"/>
<path d="M1 6.00009C1 4.89552 1.89543 4.00009 3 4.00009H9.17157C9.70201 4.00009 10.2107 4.21081 10.5858 4.58588L12.5858 6.58588C13.8457 7.84581 12.9534 10.0001 11.1716 10.0001H11C9.89543 10.0001 9 10.8955 9 12.0001C9 13.1047 8.10457 14.0001 7 14.0001H3C1.89543 14.0001 1 13.1047 1 12.0001V6.00009Z" fill="#458FFF"/>
<g filter="url(#filter0_f_10_139)">
<path d="M3.5858 7.48373H10.7384C10.8407 7.48373 10.9419 7.50978 11.0364 7.56039C11.1308 7.611 11.2166 7.68518 11.2889 7.7787C11.3612 7.87221 11.4186 7.98324 11.4577 8.10542C11.4968 8.22761 11.517 8.35857 11.517 8.49082V9.0573C11.517 9.3244 11.4349 9.58055 11.2889 9.76942C11.1429 9.95828 10.9449 10.0644 10.7384 10.0644H3.5858C3.37933 10.0644 3.18131 9.95828 3.03531 9.76942C2.88931 9.58055 2.80728 9.3244 2.80728 9.0573V8.49082C2.80728 8.35857 2.82742 8.22761 2.86654 8.10542C2.90567 7.98324 2.96301 7.87221 3.0353 7.7787C3.1076 7.68518 3.19342 7.611 3.28787 7.56039C3.38233 7.50978 3.48356 7.48373 3.5858 7.48373Z" fill="black"/>
</g>
<path d="M1 9.00009C1 7.89552 1.89543 7.00009 3 7.00009H21C22.1046 7.00009 23 7.89552 23 9.00009V18.0001C23 19.1047 22.1046 20.0001 21 20.0001H3C1.89543 20.0001 1 19.1047 1 18.0001V9.00009Z" fill="#455473"/>
<defs>
<filter id="filter0_f_10_139" x="1.43631" y="6.11277" width="11.4516" height="5.32259" filterUnits="userSpaceOnUse" color-interpolation-filters="sRGB">
<feFlood flood-opacity="0" result="BackgroundImageFix"/>
<feBlend mode="normal" in="SourceGraphic" in2="BackgroundImageFix" result="shape"/>
<feGaussianBlur stdDeviation="0.685484" result="effect1_foregroundBlur_10_139"/>
</filter>
</defs>
</svg>
