<svg width="24" height="24" viewBox="0 0 24 24" fill="none" xmlns="http://www.w3.org/2000/svg">
<path d="M18 13C20.7614 13 23 15.2386 23 18C23 20.7614 20.7614 23 18 23C15.2386 23 13 20.7614 13 18C13 15.2386 15.2386 13 18 13ZM18.0049 15.0049C17.5908 15.0049 17.2549 15.3408 17.2549 15.7549V17.25H15.75C15.3358 17.25 15.0001 17.5858 15 18C15.0001 18.4142 15.3358 18.75 15.75 18.75H17.2549V20.2549C17.2549 20.6691 17.5907 21.0048 18.0049 21.0049C18.4191 21.0049 18.7549 20.6691 18.7549 20.2549V18.75H20.25C20.6642 18.75 20.9999 18.4142 21 18C20.9999 17.5858 20.6642 17.25 20.25 17.25H18.7549V15.7549C18.7548 15.3407 18.4191 15.0049 18.0049 15.0049ZM20 7.89648C21.1045 7.89648 22 8.79195 22 9.89648V12.8779C20.8969 12.0153 19.5089 11.5 18 11.5C14.4101 11.5 11.5 14.4101 11.5 18C11.5 18.3401 11.5268 18.674 11.5771 19H4C2.89543 19 2 18.1046 2 17V10.75H8.52832C8.95508 10.7499 9.3761 10.6508 9.75781 10.46L14.8838 7.89648H20ZM9.13184 5C9.62682 5 10.1042 5.18402 10.4717 5.51562L12.5469 7.3877L9.08691 9.11816C8.91349 9.20487 8.72221 9.24993 8.52832 9.25H2V7C2 5.89543 2.89543 5 4 5H9.13184Z" fill="#619BF2"/>
</svg>
