<svg width="24" height="24" viewBox="0 0 24 24" fill="none" xmlns="http://www.w3.org/2000/svg">
<path d="M9.96803 4.75H4.75C3.64543 4.75 2.75 5.64543 2.75 6.75V17.25C2.75 18.3546 3.64543 19.25 4.75 19.25H19.25C20.3546 19.25 21.25 18.3546 21.25 17.25V9.75C21.25 8.64543 20.3546 7.75 19.25 7.75H14.782C14.2792 7.75 13.7949 7.56063 13.4254 7.21961L11.3246 5.28039C10.9551 4.93937 10.4708 4.75 9.96803 4.75Z" fill="url(#paint0_linear_458_800)" stroke="url(#paint1_linear_458_800)" stroke-width="1.5"/>
<rect x="10.8422" y="14.1082" width="2.29784" height="6.20881" rx="0.656524" transform="rotate(-45 10.8422 14.1082)" fill="#1F6C95" stroke="black" stroke-width="0.473694"/>
<path d="M10.0535 8.62983C10.2648 8.41858 10.5349 8.27244 10.8311 8.23347C11.9078 8.09198 12.8354 8.19417 13.8266 8.58288C14.1079 8.69322 14.0635 9.06476 13.7672 9.12425C13.0236 9.27357 12.2614 9.43964 11.8869 9.8141L10.7261 10.9749L11.6542 11.903C11.9106 12.1593 11.9112 12.5753 11.6549 12.8317L11.1909 13.2958C10.9345 13.5522 10.5178 13.5522 10.2614 13.2958L9.44933 12.4837L8.96872 12.9643C9.1169 13.2159 9.08527 13.5437 8.86928 13.7598L8.05652 14.5726C7.80016 14.8287 7.38478 14.8288 7.12845 14.5726L6.19968 13.6438C5.94353 13.3875 5.94355 12.9721 6.19968 12.7157L7.01244 11.903C7.1824 11.7331 7.42164 11.6784 7.63875 11.7338C7.52603 11.4404 7.58803 11.0955 7.8245 10.8589L10.0535 8.62983Z" fill="#309FDD"/>
<path d="M10.8311 8.23347L10.8002 7.99864L10.8002 7.99864L10.8311 8.23347ZM13.8266 8.58288L13.9131 8.36238L13.9131 8.36238L13.8266 8.58288ZM13.7672 9.12425L13.8139 9.35647L13.8139 9.35647L13.7672 9.12425ZM10.7261 10.9749L10.5587 10.8074L10.3912 10.9749L10.5587 11.1424L10.7261 10.9749ZM11.6549 12.8317L11.8224 12.9992L11.8224 12.9992L11.6549 12.8317ZM9.44933 12.4837L9.61681 12.3162L9.44933 12.1488L9.28185 12.3162L9.44933 12.4837ZM8.96872 12.9643L8.80124 12.7968L8.67158 12.9265L8.76463 13.0845L8.96872 12.9643ZM8.86928 13.7598L9.03676 13.9273L9.03681 13.9272L8.86928 13.7598ZM8.05652 14.5726L8.22393 14.7401L8.224 14.74L8.05652 14.5726ZM7.12845 14.5726L6.96097 14.74L6.96101 14.7401L7.12845 14.5726ZM6.19968 13.6438L6.03214 13.8112L6.0322 13.8113L6.19968 13.6438ZM6.19968 12.7157L6.0322 12.5482L6.03213 12.5483L6.19968 12.7157ZM7.01244 11.903L6.84501 11.7354L6.84496 11.7355L7.01244 11.903ZM7.63875 11.7338L7.58021 11.9633L8.02418 12.0765L7.85984 11.6488L7.63875 11.7338ZM7.8245 10.8589L7.65703 10.6914L7.65698 10.6914L7.8245 10.8589ZM10.0535 8.62983L10.221 8.79731C10.4002 8.61815 10.6238 8.49963 10.862 8.46829L10.8311 8.23347L10.8002 7.99864C10.446 8.04526 10.1294 8.21902 9.88607 8.46236L10.0535 8.62983ZM10.8311 8.23347L10.8619 8.46829C11.9012 8.33173 12.7883 8.4301 13.7402 8.80338L13.8266 8.58288L13.9131 8.36238C12.8825 7.95824 11.9143 7.85223 10.8002 7.99864L10.8311 8.23347ZM13.8266 8.58288L13.7401 8.80337C13.7649 8.81307 13.7724 8.82385 13.7746 8.8275C13.7775 8.83228 13.779 8.83836 13.7782 8.84587C13.7773 8.8535 13.7739 8.86195 13.767 8.8695C13.7608 8.87618 13.7478 8.88659 13.7206 8.89204L13.7672 9.12425L13.8139 9.35647C14.062 9.30663 14.2242 9.1165 14.2489 8.8994C14.2739 8.67925 14.1542 8.45695 13.9131 8.36238L13.8266 8.58288ZM13.7672 9.12425L13.7206 8.89204C13.35 8.96645 12.9607 9.04764 12.6156 9.15943C12.2744 9.26995 11.9469 9.4192 11.7194 9.64662L11.8869 9.8141L12.0544 9.98157C12.2014 9.83454 12.4422 9.71353 12.7616 9.61007C13.0771 9.50788 13.4408 9.43137 13.8139 9.35647L13.7672 9.12425ZM11.8869 9.8141L11.7194 9.64662L10.5587 10.8074L10.7261 10.9749L10.8936 11.1424L12.0544 9.98157L11.8869 9.8141ZM10.7261 10.9749L10.5587 11.1424L11.4867 12.0704L11.6542 11.903L11.8217 11.7355L10.8936 10.8074L10.7261 10.9749ZM11.6542 11.903L11.4867 12.0704C11.6509 12.2346 11.651 12.5007 11.4874 12.6643L11.6549 12.8317L11.8224 12.9992C12.1715 12.65 12.1702 12.084 11.8217 11.7355L11.6542 11.903ZM11.6549 12.8317L11.4874 12.6643L11.0234 13.1283L11.1909 13.2958L11.3583 13.4632L11.8224 12.9992L11.6549 12.8317ZM11.1909 13.2958L11.0234 13.1283C10.8595 13.2922 10.5928 13.2922 10.4289 13.1283L10.2614 13.2958L10.0939 13.4632C10.4428 13.8121 11.0094 13.8121 11.3583 13.4632L11.1909 13.2958ZM10.2614 13.2958L10.4289 13.1283L9.61681 12.3162L9.44933 12.4837L9.28185 12.6512L10.0939 13.4632L10.2614 13.2958ZM9.44933 12.4837L9.28185 12.3162L8.80124 12.7968L8.96872 12.9643L9.13619 13.1318L9.61681 12.6512L9.44933 12.4837ZM8.96872 12.9643L8.76463 13.0845C8.86014 13.2467 8.83856 13.4555 8.70175 13.5924L8.86928 13.7598L9.03681 13.9272C9.33197 13.6319 9.37367 13.1852 9.1728 12.8441L8.96872 12.9643ZM8.86928 13.7598L8.70181 13.5923L7.88905 14.4051L8.05652 14.5726L8.224 14.74L9.03676 13.9273L8.86928 13.7598ZM8.05652 14.5726L7.88912 14.405C7.72521 14.5688 7.45969 14.5688 7.29588 14.405L7.12845 14.5726L6.96101 14.7401C7.30986 15.0887 7.87511 15.0886 8.22393 14.7401L8.05652 14.5726ZM7.12845 14.5726L7.29592 14.4051L6.36715 13.4763L6.19968 13.6438L6.0322 13.8113L6.96097 14.74L7.12845 14.5726ZM6.19968 13.6438L6.36722 13.4764C6.20349 13.3125 6.20349 13.047 6.36723 12.8831L6.19968 12.7157L6.03213 12.5483C5.68362 12.8971 5.68357 13.4624 6.03214 13.8112L6.19968 13.6438ZM6.19968 12.7157L6.36715 12.8832L7.17991 12.0704L7.01244 11.903L6.84496 11.7355L6.0322 12.5482L6.19968 12.7157ZM7.01244 11.903L7.17986 12.0705C7.28702 11.9634 7.43889 11.9272 7.58021 11.9633L7.63875 11.7338L7.69729 11.5043C7.4044 11.4296 7.07778 11.5028 6.84501 11.7354L7.01244 11.903ZM7.63875 11.7338L7.85984 11.6488C7.77948 11.4397 7.824 11.1944 7.99202 11.0263L7.8245 10.8589L7.65698 10.6914C7.35205 10.9965 7.27258 11.4412 7.41766 11.8187L7.63875 11.7338ZM7.8245 10.8589L7.99198 11.0264L10.221 8.79731L10.0535 8.62983L9.88607 8.46236L7.65703 10.6914L7.8245 10.8589Z" fill="black"/>
<defs>
<linearGradient id="paint0_linear_458_800" x1="21.25" y1="4.75" x2="11.7195" y2="23.7493" gradientUnits="userSpaceOnUse">
<stop offset="0.2" stop-color="#8CCDE7"/>
<stop offset="0.9" stop-color="#3580A9"/>
</linearGradient>
<linearGradient id="paint1_linear_458_800" x1="12" y1="4.75" x2="12" y2="19.25" gradientUnits="userSpaceOnUse">
<stop stop-color="#1AB9FF"/>
<stop offset="1" stop-color="#136080"/>
</linearGradient>
</defs>
</svg>
