<svg width="24" height="24" viewBox="0 0 24 24" fill="none" xmlns="http://www.w3.org/2000/svg">
<path d="M9.96803 4.75H4.75C3.64543 4.75 2.75 5.64543 2.75 6.75V17.25C2.75 18.3546 3.64543 19.25 4.75 19.25H19.25C20.3546 19.25 21.25 18.3546 21.25 17.25V9.75C21.25 8.64543 20.3546 7.75 19.25 7.75H14.782C14.2792 7.75 13.7949 7.56063 13.4254 7.21961L11.3246 5.28039C10.9551 4.93937 10.4708 4.75 9.96803 4.75Z" fill="url(#paint0_linear_458_817)" stroke="url(#paint1_linear_458_817)" stroke-width="1.5"/>
<path d="M10.5657 16.9743C11.4578 17.581 12.5021 17.7924 13.4576 17.4626C14.5505 17.0842 15.2735 16.078 15.4891 14.8477C14.7703 15.3804 13.8402 15.8962 12.7896 16.3126C12.0095 16.6234 11.2527 16.8432 10.5657 16.9743Z" fill="url(#paint2_linear_458_817)"/>
<path d="M13.2039 9.74032C12.3562 9.23086 11.3922 9.06808 10.5065 9.3746C9.46216 9.73609 8.75821 10.6684 8.50665 11.8226C9.2254 11.2899 10.1555 10.774 11.2083 10.3555C11.9038 10.0786 12.5803 9.8735 13.2039 9.74032Z" fill="url(#paint3_linear_458_817)"/>
<path d="M16.4658 10.2688C16.248 9.54373 14.9226 9.37038 13.206 9.74033C12.5824 9.8735 11.9059 10.0786 11.2104 10.3555C10.1598 10.7741 9.22754 11.2899 8.50879 11.8226C7.44758 12.609 6.85356 13.4313 7.03113 14.0211C7.17699 14.5073 7.84923 14.7462 8.79206 14.7124C9.73066 14.6807 10.9398 14.3784 12.1681 13.7886C10.6904 14.1162 9.57 14.0676 9.59748 13.6406C9.63765 13.0149 11.1407 11.8247 13.3857 10.9876C13.7113 10.8671 14.0157 10.7614 14.3011 10.6726C15.2629 10.3703 15.9965 10.2413 16.4742 10.2878C16.4679 10.2815 16.4679 10.2752 16.4658 10.2688Z" fill="#FF6633"/>
<path d="M16.9689 12.647C16.8167 12.1418 16.1022 11.905 15.1044 11.96C14.1806 12.0107 13.0179 12.3109 11.8341 12.8796C13.3118 12.5519 14.4322 12.6005 14.4047 13.0275C14.3645 13.6533 12.8615 14.8434 10.6165 15.6806C10.2381 15.8222 9.88716 15.9406 9.56161 16.0399C8.66952 16.3126 7.98248 16.4247 7.53009 16.3803C7.5322 16.3866 7.5322 16.393 7.53432 16.3993C7.7436 17.0927 8.95913 17.2808 10.5657 16.9743C11.2528 16.8433 12.0096 16.6234 12.7896 16.3126C13.8403 15.8941 14.7704 15.3783 15.4892 14.8477C16.5525 14.0592 17.1465 13.2368 16.9689 12.647Z" fill="#1FBEC9"/>
<path d="M9.59539 13.6406C9.63555 13.0149 11.1386 11.8247 13.3836 10.9876C13.7092 10.8671 14.0136 10.7614 14.299 10.6726C13.9734 10.2942 13.6014 9.9792 13.206 9.74033C12.5824 9.87351 11.906 10.0786 11.2105 10.3555C10.1598 10.7741 9.22756 11.2899 8.50881 11.8226C8.32701 12.6576 8.38409 13.6089 8.72655 14.5454C8.74769 14.6024 8.76883 14.6574 8.79208 14.7124C9.73068 14.6807 10.9399 14.3784 12.1681 13.7886C10.6883 14.1162 9.56791 14.0697 9.59539 13.6406Z" fill="url(#paint4_linear_458_817)"/>
<path d="M15.2376 12.2919C15.1953 12.1798 15.1509 12.0699 15.1023 11.96C14.1785 12.0107 13.0158 12.3109 11.832 12.8796C13.3096 12.5519 14.43 12.6005 14.4025 13.0275C14.3624 13.6533 12.8593 14.8434 10.6143 15.6806C10.2359 15.8222 9.885 15.9406 9.55945 16.0399C9.85752 16.412 10.1979 16.727 10.5636 16.9764C11.2506 16.8454 12.0074 16.6255 12.7875 16.3148C13.8381 15.8962 14.7683 15.3804 15.487 14.8498C15.6286 14.0528 15.5568 13.1671 15.2376 12.2919Z" fill="url(#paint5_linear_458_817)"/>
<defs>
<linearGradient id="paint0_linear_458_817" x1="21.25" y1="4.75" x2="11.7195" y2="23.7493" gradientUnits="userSpaceOnUse">
<stop stop-color="#424A59"/>
<stop offset="1" stop-color="#262D3B"/>
</linearGradient>
<linearGradient id="paint1_linear_458_817" x1="12" y1="4.75" x2="12" y2="19.25" gradientUnits="userSpaceOnUse">
<stop stop-color="#8C93AB"/>
<stop offset="1" stop-color="#4F5C78"/>
</linearGradient>
<linearGradient id="paint2_linear_458_817" x1="13.0854" y1="15.9864" x2="13.9455" y2="17.1056" gradientUnits="userSpaceOnUse">
<stop stop-color="#15768C"/>
<stop offset="0.1694" stop-color="#188B9D"/>
<stop offset="0.3807" stop-color="#1A9EAC"/>
<stop offset="0.5982" stop-color="#1CA9B5"/>
<stop offset="0.8297" stop-color="#1CADB8"/>
</linearGradient>
<linearGradient id="paint3_linear_458_817" x1="8.67838" y1="11.204" x2="12.0464" y2="9.43976" gradientUnits="userSpaceOnUse">
<stop offset="0.0661076" stop-color="#FF6633"/>
<stop offset="0.2371" stop-color="#FF7133"/>
<stop offset="0.6373" stop-color="#FF8733"/>
<stop offset="0.8966" stop-color="#FF8F33"/>
</linearGradient>
<linearGradient id="paint4_linear_458_817" x1="8.62282" y1="13.5099" x2="13.5626" y2="11.1683" gradientUnits="userSpaceOnUse">
<stop stop-color="#ED5F2F"/>
<stop offset="1" stop-color="#FF6633"/>
</linearGradient>
<linearGradient id="paint5_linear_458_817" x1="9.66758" y1="15.584" x2="14.3829" y2="13.7877" gradientUnits="userSpaceOnUse">
<stop stop-color="#1BACB5"/>
<stop offset="0.9115" stop-color="#1FBEC9"/>
</linearGradient>
</defs>
</svg>
