<svg width="24" height="24" viewBox="0 0 24 24" fill="none" xmlns="http://www.w3.org/2000/svg">
<path d="M20 7.89648C21.1045 7.89648 22 8.79195 22 9.89648V17C22 18.1046 21.1046 19 20 19H4C2.89543 19 2 18.1046 2 17V10.75H8.52832C8.95508 10.7499 9.3761 10.6508 9.75781 10.46L14.8838 7.89648H20ZM12 10.75C11.8012 10.75 11.6104 10.8292 11.4697 10.9697L8.46973 13.9697C8.17708 14.2626 8.17708 14.7374 8.46973 15.0303C8.76257 15.3229 9.23743 15.3229 9.53027 15.0303L11.25 13.3105V17.498C11.25 17.9123 11.5858 18.248 12 18.248C12.4142 18.248 12.75 17.9123 12.75 17.498V13.3105L14.4697 15.0303C14.7626 15.3229 15.2374 15.3229 15.5303 15.0303C15.8229 14.7374 15.8229 14.2626 15.5303 13.9697L12.5303 10.9697C12.3896 10.8292 12.1988 10.75 12 10.75ZM9.13184 5C9.62682 5 10.1042 5.18402 10.4717 5.51562L12.5469 7.3877L9.08691 9.11816C8.91349 9.20487 8.72221 9.24993 8.52832 9.25H2V7C2 5.89543 2.89543 5 4 5H9.13184Z" fill="#619BF2"/>
</svg>
