<svg width="24" height="24" viewBox="0 0 24 24" fill="none" xmlns="http://www.w3.org/2000/svg">
<path d="M2 8.00011C2 6.89554 2.89543 6.00011 4 6.00011H21C22.1046 6.00011 23 6.89554 23 8.00011V13.0001C23 14.1047 22.1046 15.0001 21 15.0001H4C2.89543 15.0001 2 14.1047 2 13.0001V8.00011Z" fill="#2A364C"/>
<path d="M1 6.00011C1 4.89554 1.89543 4.00011 3 4.00011H9.17157C9.70201 4.00011 10.2107 4.21082 10.5858 4.58589L12.5858 6.58589C13.8457 7.84582 12.9534 10.0001 11.1716 10.0001H11C9.89543 10.0001 9 10.8955 9 12.0001C9 13.1047 8.10457 14.0001 7 14.0001H3C1.89543 14.0001 1 13.1047 1 12.0001V6.00011Z" fill="#458FFF"/>
<g filter="url(#filter0_f_13_654)">
<path d="M3.5858 7.48375H10.7384C10.8407 7.48375 10.9419 7.5098 11.0364 7.56041C11.1308 7.61102 11.2166 7.6852 11.2889 7.77871C11.3612 7.87223 11.4186 7.98325 11.4577 8.10544C11.4968 8.22762 11.517 8.35858 11.517 8.49083V9.05732C11.517 9.32441 11.4349 9.58057 11.2889 9.76943C11.1429 9.95829 10.9449 10.0644 10.7384 10.0644H3.5858C3.37933 10.0644 3.18131 9.95829 3.03531 9.76943C2.88931 9.58057 2.80728 9.32441 2.80728 9.05732V8.49083C2.80728 8.35858 2.82742 8.22762 2.86654 8.10544C2.90567 7.98325 2.96301 7.87223 3.0353 7.77871C3.1076 7.6852 3.19342 7.61102 3.28787 7.56041C3.38233 7.5098 3.48356 7.48375 3.5858 7.48375Z" fill="black"/>
</g>
<path d="M1 9.00011C1 7.89554 1.89543 7.00011 3 7.00011H21C22.1046 7.00011 23 7.89554 23 9.00011V18.0001C23 19.1047 22.1046 20.0001 21 20.0001H3C1.89543 20.0001 1 19.1047 1 18.0001V9.00011Z" fill="#455473"/>
<path d="M6.21191 16.7373L6.12402 17H4.87598L4.78809 16.7373L2.54199 10H4.12402L5.5 14.127L6.87598 10H8.45801L6.21191 16.7373Z" fill="white"/>
<path d="M18.6729 13.3398L21.6533 17H19.7188L17.6777 14.4932L17 15.2783V17H15.5V10H17V12.9834L17.1279 12.8359L19.5771 10H21.5586L18.6729 13.3398Z" fill="white"/>
<path fill-rule="evenodd" clip-rule="evenodd" d="M12 10C13.3807 10 14.5 11.1193 14.5 12.5C14.5 13.8807 13.3807 15 12 15H11V17H9.5V10H12ZM11 13.5H12C12.5523 13.5 13 13.0523 13 12.5C13 11.9477 12.5523 11.5 12 11.5H11V13.5Z" fill="white"/>
<defs>
<filter id="filter0_f_13_654" x="1.43631" y="6.11278" width="11.4516" height="5.32258" filterUnits="userSpaceOnUse" color-interpolation-filters="sRGB">
<feFlood flood-opacity="0" result="BackgroundImageFix"/>
<feBlend mode="normal" in="SourceGraphic" in2="BackgroundImageFix" result="shape"/>
<feGaussianBlur stdDeviation="0.685484" result="effect1_foregroundBlur_13_654"/>
</filter>
</defs>
</svg>
