<svg width="24" height="24" viewBox="0 0 24 24" fill="none" xmlns="http://www.w3.org/2000/svg">
<path d="M12 3C16.9706 3 21 7.02944 21 12C21 16.9706 16.9706 21 12 21C7.02944 21 3 16.9706 3 12C3 7.02944 7.02944 3 12 3ZM16.2441 7.75391C15.9513 7.46102 15.4765 7.46105 15.1836 7.75391L12.0049 10.9326L8.82617 7.75391C8.53327 7.46115 8.05847 7.46106 7.76562 7.75391C7.47297 8.04677 7.47293 8.52161 7.76562 8.81445L10.9443 11.9932L7.75879 15.1787C7.46605 15.4716 7.46595 15.9464 7.75879 16.2393C8.05164 16.532 8.52645 16.532 8.81934 16.2393L12.0049 13.0537L15.1904 16.2393C15.4833 16.532 15.9581 16.5319 16.251 16.2393C16.5439 15.9464 16.5438 15.4716 16.251 15.1787L13.0654 11.9932L16.2441 8.81445C16.537 8.52158 16.537 8.04679 16.2441 7.75391Z" fill="#619BF2"/>
</svg>
