<svg width="24" height="24" viewBox="0 0 24 24" fill="none" xmlns="http://www.w3.org/2000/svg">
<path d="M12.5 5C16.366 5 19.5 8.13401 19.5 12C19.5 15.866 16.366 19 12.5 19C9.34014 19 6.67006 16.9061 5.7998 14.0303L7.17285 12.5059C8.00384 11.5825 7.92911 10.1596 7.00586 9.32812L6.82715 9.18262C6.64307 9.0479 6.44353 8.94563 6.23633 8.87402C7.38469 6.57747 9.75767 5 12.5 5Z" fill="#E6EEFF"/>
<path d="M5.71289 10.2832C5.81668 10.3139 5.91618 10.3652 6.00195 10.4424C6.3097 10.7195 6.33466 11.1941 6.05762 11.502L5.50195 12.1182C5.5013 12.0788 5.5 12.0395 5.5 12C5.5 11.4076 5.57436 10.8326 5.71289 10.2832Z" fill="#E6EEFF"/>
<path d="M12.5 5C16.366 5 19.5 8.13401 19.5 12C19.5 15.866 16.366 19 12.5 19C9.34014 19 6.67006 16.9061 5.7998 14.0303L7.03906 12.6533C7.36216 15.3829 9.68352 17.5 12.5 17.5C15.5376 17.5 18 15.0376 18 12C18 8.96243 15.5376 6.5 12.5 6.5C10.2248 6.5 8.2723 7.88159 7.43555 9.85156C7.32243 9.66106 7.17913 9.48418 7.00586 9.32812L6.82715 9.18262C6.64307 9.0479 6.44353 8.94563 6.23633 8.87402C7.38469 6.57747 9.75767 5 12.5 5Z" fill="url(#paint0_linear_13_750)"/>
<path d="M5.71289 10.2832C5.81668 10.3139 5.91618 10.3652 6.00195 10.4424C6.3097 10.7195 6.33466 11.1941 6.05762 11.502L5.50195 12.1182C5.5013 12.0788 5.5 12.0395 5.5 12C5.5 11.4076 5.57436 10.8326 5.71289 10.2832Z" fill="url(#paint1_linear_13_750)"/>
<path d="M11.75 8C11.75 7.58579 12.0858 7.25 12.5 7.25C12.9142 7.25 13.25 7.58579 13.25 8V11.5986L15.916 13.376C16.2607 13.6057 16.3538 14.0714 16.124 14.416C15.8943 14.7607 15.4286 14.8538 15.084 14.624L12.084 12.624C11.8753 12.4849 11.75 12.2508 11.75 12V8Z" fill="#0062FF"/>
<path d="M10.1659 2.2766C12.3498 1.75237 14.6466 1.97887 16.6864 2.91918C18.7262 3.85956 20.3903 5.45888 21.41 7.46019C22.4297 9.46153 22.7457 11.7484 22.3075 13.9514C21.8692 16.1542 20.7019 18.1461 18.994 19.6047C17.2861 21.0632 15.1366 21.9042 12.8924 21.9924C10.648 22.0806 8.43906 21.4103 6.62191 20.0901C6.28717 19.8467 6.21297 19.3782 6.45589 19.0432C6.69936 18.7081 7.16864 18.6337 7.50374 18.8772C9.04828 19.9993 10.9262 20.5683 12.8338 20.4934C14.7414 20.4184 16.5687 19.7038 18.0203 18.4641C19.4721 17.2242 20.4642 15.5309 20.8368 13.6584C21.2092 11.7859 20.9398 9.84196 20.0731 8.14086C19.2063 6.43997 17.7921 5.08074 16.0584 4.28148C14.3246 3.48217 12.3719 3.28891 10.5155 3.73461C8.65922 4.1803 7.00698 5.23845 5.82503 6.73753C4.7409 8.11284 4.11143 9.7866 4.01448 11.5276L4.94222 10.4983C5.21932 10.1904 5.69392 10.1655 6.00179 10.4426C6.3096 10.7197 6.33453 11.1943 6.05745 11.5022L3.24984 14.6213L0.442218 11.5022C0.165201 11.1944 0.190241 10.7197 0.497882 10.4426C0.805747 10.1655 1.28035 10.1904 1.55745 10.4983L2.5096 11.5559C2.60235 9.4676 3.34767 7.45625 4.64632 5.80882C6.03687 4.04497 7.98186 2.80098 10.1659 2.2766Z" fill="#5699FF"/>
<defs>
<linearGradient id="paint0_linear_13_750" x1="5.5" y1="5" x2="19.5" y2="19" gradientUnits="userSpaceOnUse">
<stop stop-color="#88B6FF"/>
<stop offset="1" stop-color="#458FFF"/>
</linearGradient>
<linearGradient id="paint1_linear_13_750" x1="5.5" y1="5" x2="19.5" y2="19" gradientUnits="userSpaceOnUse">
<stop stop-color="#88B6FF"/>
<stop offset="1" stop-color="#458FFF"/>
</linearGradient>
</defs>
</svg>
