<svg width="24" height="24" viewBox="0 0 24 24" fill="none" xmlns="http://www.w3.org/2000/svg">
<circle cx="12" cy="12" r="10" fill="#409FFF"/>
<circle cx="12" cy="12" r="8.5" fill="#364159"/>
<path d="M12.6911 12.6911C12.2741 12.8025 11.8107 12.6946 11.4835 12.3674C11.4072 12.2911 11.3428 12.2074 11.2903 12.1185L11.2626 12.1465L10.3923 13.0167C10.4557 13.0981 10.5248 13.1765 10.5996 13.2513C10.9216 13.5733 11.3096 13.7891 11.72 13.8987C12.3595 14.0695 13.0536 13.9825 13.6375 13.6376C13.8151 13.5327 13.9826 13.4039 14.1352 13.2513L16.3449 11.0416C17.3212 10.0653 17.3212 8.48239 16.3449 7.50608C15.3686 6.52977 13.7857 6.52977 12.8093 7.50608L11.0418 9.27363C11.573 9.19821 12.1198 9.25957 12.6255 9.45771L13.6932 8.38996C14.1814 7.90181 14.9728 7.90181 15.461 8.38996C15.9492 8.87812 15.9492 9.66958 15.461 10.1577L13.2513 12.3674C13.0903 12.5284 12.8963 12.6363 12.6911 12.6911Z" fill="white"/>
<path d="M12.5884 11.7045L12.5606 11.7325C12.5081 11.6436 12.4437 11.5599 12.3674 11.4836C12.0402 11.1564 11.5769 11.0485 11.1598 11.1599C11.1491 11.1627 11.1383 11.1658 11.1276 11.1689C10.9344 11.2261 10.7522 11.331 10.5996 11.4836L8.38993 13.6933C7.90178 14.1814 7.90178 14.9729 8.38993 15.461C8.87809 15.9492 9.66954 15.9492 10.1577 15.461L11.2254 14.3933C11.7311 14.5914 12.278 14.6528 12.8091 14.5774L11.0416 16.3449C10.0653 17.3212 8.48236 17.3212 7.50605 16.3449C6.52974 15.3686 6.52974 13.7857 7.50605 12.8094L9.71576 10.5997C9.86836 10.4471 10.0358 10.3183 10.2134 10.2134C10.2488 10.1925 10.2847 10.1725 10.3209 10.1535C10.8814 9.85893 11.5302 9.79187 12.1309 9.95228C12.5413 10.0619 12.9293 10.2777 13.2513 10.5997C13.3261 10.6745 13.3952 10.7529 13.4586 10.8343L12.5884 11.7045Z" fill="white"/>
</svg>
