<svg width="24" height="24" viewBox="0 0 24 24" fill="none" xmlns="http://www.w3.org/2000/svg">
<circle cx="12" cy="12" r="10" fill="#409FFF"/>
<circle cx="12" cy="12" r="8.5" fill="#364159"/>
<path d="M12 6.75C12.4142 6.75 12.75 7.08579 12.75 7.5V11.2471L16.5 11.2451C16.914 11.2451 17.2498 11.581 17.25 11.9951C17.25 12.4091 16.9141 12.7449 16.5 12.7451L12.75 12.7471V16.5C12.75 16.9142 12.4142 17.25 12 17.25C11.5858 17.25 11.25 16.9142 11.25 16.5V12.7471L7.5 12.75C7.08597 12.75 6.75022 12.4141 6.75 12C6.75 11.586 7.08592 11.2502 7.5 11.25L11.25 11.2471V7.5C11.25 7.08579 11.5858 6.75 12 6.75Z" fill="white"/>
</svg>
