<svg width="24" height="24" viewBox="0 0 24 24" fill="none" xmlns="http://www.w3.org/2000/svg">
<circle cx="12" cy="12" r="5.57258" fill="url(#paint0_linear_10_154)" stroke="url(#paint1_linear_10_154)" stroke-width="6.85484"/>
<path d="M11 12C11 11.4477 11.4477 11 12 11C12.5523 11 13 11.4477 13 12V17C13 17.5523 12.5523 18 12 18C11.4477 18 11 17.5523 11 17V12Z" fill="#1C1F26"/>
<path d="M13.5 7C13.5 7.82843 12.8284 8.5 12 8.5C11.1716 8.5 10.5 7.82843 10.5 7C10.5 6.17157 11.1716 5.5 12 5.5C12.8284 5.5 13.5 6.17157 13.5 7Z" fill="#1C1F26"/>
<defs>
<linearGradient id="paint0_linear_10_154" x1="3" y1="3" x2="21" y2="21" gradientUnits="userSpaceOnUse">
<stop stop-color="#88B6FF"/>
<stop offset="1" stop-color="#458FFF"/>
</linearGradient>
<linearGradient id="paint1_linear_10_154" x1="3" y1="3.34615" x2="20.2944" y2="21.3323" gradientUnits="userSpaceOnUse">
<stop stop-color="#88B6FF"/>
<stop offset="1" stop-color="#458FFF"/>
</linearGradient>
</defs>
</svg>
