<svg width="24" height="24" viewBox="0 0 24 24" fill="none" xmlns="http://www.w3.org/2000/svg">
<path d="M12 3C16.9706 3 21 7.02944 21 12C21 16.9706 16.9706 21 12 21C7.02944 21 3 16.9706 3 12C3 7.02944 7.02944 3 12 3ZM12 10.125C11.5168 10.125 11.125 10.5168 11.125 11V17C11.125 17.4832 11.5168 17.875 12 17.875C12.4832 17.875 12.875 17.4832 12.875 17V11C12.875 10.5168 12.4832 10.125 12 10.125ZM12 5.875C11.3787 5.875 10.875 6.37868 10.875 7C10.875 7.62132 11.3787 8.125 12 8.125C12.6213 8.125 13.125 7.62132 13.125 7C13.125 6.37868 12.6213 5.875 12 5.875Z" fill="#66A3FF"/>
</svg>
