<svg width="24" height="24" viewBox="0 0 24 24" fill="none" xmlns="http://www.w3.org/2000/svg">
<path d="M12.5 16.25C12.9142 16.25 13.25 16.5858 13.25 17C13.25 17.4142 12.9142 17.75 12.5 17.75H6.26367C5.84946 17.75 5.51367 17.4142 5.51367 17C5.51367 16.5858 5.84946 16.25 6.26367 16.25H12.5Z" fill="#73ABFF"/>
<path d="M13.5 13.25C13.9142 13.25 14.25 13.5858 14.25 14C14.25 14.4142 13.9142 14.75 13.5 14.75H7.26367C6.84946 14.75 6.51367 14.4142 6.51367 14C6.51367 13.5858 6.84946 13.25 7.26367 13.25H13.5Z" fill="#73ABFF"/>
<path d="M14.7363 10.25C15.1505 10.25 15.4863 10.5858 15.4863 11C15.4863 11.4142 15.1505 11.75 14.7363 11.75H8.5C8.08579 11.75 7.75 11.4142 7.75 11C7.75 10.5858 8.08579 10.25 8.5 10.25H14.7363Z" fill="#73ABFF"/>
<path fill-rule="evenodd" clip-rule="evenodd" d="M18.4727 2C18.4817 1.99986 18.4909 1.99902 18.5 1.99902C19.2812 1.99902 19.8606 2.52313 20.2041 3.0957C20.5565 3.68316 20.75 4.44628 20.75 5.24902C20.75 5.3332 20.7464 5.41686 20.7422 5.5H20.75C20.7504 8.44987 19.6692 10.5908 18.6572 12.4248C18.0346 13.5531 17.4725 14.5227 17.1221 15.5H18.75C19.5333 15.5 20.1095 16.0262 20.4492 16.5996C20.7974 17.1873 20.9863 17.9499 20.9863 18.75C20.9863 19.5501 20.7974 20.3127 20.4492 20.9004C20.1095 21.4738 19.5333 22 18.75 22C18.6535 22 18.4817 22.0074 18.2646 21.999H5.5C5.19995 21.9991 4.18113 22.0886 3.29688 21.498C2.3481 20.8643 1.75 19.6256 1.75 17.5C1.75 15.2541 2.6887 13.9513 3.47949 12.668C4.14176 11.5932 4.77821 10.4329 4.94238 8.49609C4.19035 8.47105 3.63093 7.96074 3.2959 7.40234C2.94354 6.81489 2.75 6.05177 2.75 5.24902C2.75 4.44628 2.94354 3.68316 3.2959 3.0957C3.63944 2.52313 4.21884 1.99902 5 1.99902L18.4727 2ZM18.8027 8.4707C18.7054 8.48837 18.6046 8.49902 18.5 8.49902C18.4908 8.49902 18.4818 8.49721 18.4727 8.49707V8.49902H6.44922C6.27567 10.8267 5.50438 12.2419 4.75684 13.4551C3.92973 14.7974 3.25 15.7452 3.25 17.5C3.25 19.3746 3.76977 20.0104 4.12988 20.251C4.55451 20.5345 5.03622 20.499 5.5 20.499H15.8242C15.455 19.7938 15.25 18.8163 15.25 17.5C15.25 15.2638 16.3785 13.4495 17.3438 11.7002C17.9046 10.6838 18.442 9.64503 18.8027 8.4707ZM16.7754 17C16.7599 17.1641 16.75 17.3305 16.75 17.5C16.75 19.4057 17.2253 20.0435 17.5342 20.2715C17.8848 20.5303 18.2782 20.499 18.75 20.499C18.795 20.499 18.962 20.4668 19.1582 20.1357C19.3461 19.8186 19.4863 19.3306 19.4863 18.75C19.4863 18.1694 19.3461 17.6814 19.1582 17.3643C18.962 17.0332 18.795 17 18.75 17H16.7754ZM5 3.49902C4.95273 3.49902 4.78138 3.53494 4.58203 3.86719C4.39171 4.18451 4.25 4.67137 4.25 5.24902C4.25 5.82668 4.39171 6.31354 4.58203 6.63086C4.78138 6.96311 4.95273 6.99902 5 6.99902H16.5918C16.3703 6.48371 16.25 5.87881 16.25 5.24902C16.25 4.61923 16.3703 4.01434 16.5918 3.49902H5ZM18.5 3.49902C18.4527 3.49902 18.2814 3.53494 18.082 3.86719C17.8917 4.18451 17.75 4.67137 17.75 5.24902C17.75 5.82668 17.8917 6.31354 18.082 6.63086C18.2814 6.96311 18.4527 6.99902 18.5 6.99902C18.5473 6.99902 18.7186 6.96311 18.918 6.63086C19.1083 6.31354 19.25 5.82668 19.25 5.24902C19.25 4.67137 19.1083 4.18451 18.918 3.86719C18.7186 3.53494 18.5473 3.49902 18.5 3.49902Z" fill="#73ABFF"/>
</svg>
