<svg width="24" height="24" viewBox="0 0 24 24" fill="none" xmlns="http://www.w3.org/2000/svg">
<path d="M16.5254 16.501C16.5099 16.6651 16.5 16.8314 16.5 17.001C16.5 18.9067 16.9753 19.5445 17.2842 19.7725C17.6002 20.0057 17.9509 20.0033 18.3624 20.0006C18.4075 20.0003 18.4534 20 18.5 20C18.545 20 18.712 19.9678 18.9082 19.6367C19.0961 19.3196 19.2363 18.8316 19.2363 18.251C19.2363 17.6704 19.0961 17.1823 18.9082 16.8652C18.712 16.5342 18.545 16.501 18.5 16.501H16.5254Z" fill="url(#paint0_linear_162_30)"/>
<path d="M16.5254 16.501C16.5099 16.6651 16.5 16.8314 16.5 17.001C16.5 18.9067 16.9753 19.5445 17.2842 19.7725C17.6002 20.0057 17.9509 20.0033 18.3624 20.0006C18.4075 20.0003 18.4534 20 18.5 20C18.545 20 18.712 19.9678 18.9082 19.6367C19.0961 19.3196 19.2363 18.8316 19.2363 18.251C19.2363 17.6704 19.0961 17.1823 18.9082 16.8652C18.712 16.5342 18.545 16.501 18.5 16.501H16.5254Z" fill="url(#paint1_linear_162_30)"/>
<path d="M4.75 3C4.70273 3 4.53138 3.03592 4.33203 3.36816C4.14171 3.68549 4 4.17235 4 4.75C4 5.32765 4.14171 5.81451 4.33203 6.13184C4.53138 6.46408 4.70273 6.5 4.75 6.5H16.3418C16.1203 5.98468 16 5.37979 16 4.75C16 4.12021 16.1203 3.51532 16.3418 3H4.75Z" fill="url(#paint2_linear_162_30)"/>
<path d="M4.75 3C4.70273 3 4.53138 3.03592 4.33203 3.36816C4.14171 3.68549 4 4.17235 4 4.75C4 5.32765 4.14171 5.81451 4.33203 6.13184C4.53138 6.46408 4.70273 6.5 4.75 6.5H16.3418C16.1203 5.98468 16 5.37979 16 4.75C16 4.12021 16.1203 3.51532 16.3418 3H4.75Z" fill="url(#paint3_linear_162_30)"/>
<path d="M18.25 3C18.2027 3 18.0314 3.03592 17.832 3.36816C17.6417 3.68549 17.5 4.17235 17.5 4.75C17.5 5.32765 17.6417 5.81451 17.832 6.13184C18.0314 6.46408 18.2027 6.5 18.25 6.5C18.2973 6.5 18.4686 6.46408 18.668 6.13184C18.8583 5.81451 19 5.32765 19 4.75C19 4.17235 18.8583 3.68549 18.668 3.36816C18.4686 3.03592 18.2973 3 18.25 3Z" fill="url(#paint4_linear_162_30)"/>
<path d="M18.25 3C18.2027 3 18.0314 3.03592 17.832 3.36816C17.6417 3.68549 17.5 4.17235 17.5 4.75C17.5 5.32765 17.6417 5.81451 17.832 6.13184C18.0314 6.46408 18.2027 6.5 18.25 6.5C18.2973 6.5 18.4686 6.46408 18.668 6.13184C18.8583 5.81451 19 5.32765 19 4.75C19 4.17235 18.8583 3.68549 18.668 3.36816C18.4686 3.03592 18.2973 3 18.25 3Z" fill="url(#paint5_linear_162_30)"/>
<path fill-rule="evenodd" clip-rule="evenodd" d="M18.5527 7.97168C18.4554 7.98934 18.3546 8 18.25 8L18.2449 7.99983L18.2357 7.99902C18.2314 7.99857 18.227 7.99812 18.2227 7.99805V8H6.19922C6.02567 10.3277 5.25438 11.7429 4.50684 12.9561C4.44357 13.0587 4.38116 13.1591 4.31985 13.2577C4.26873 13.3399 4.21838 13.4209 4.16892 13.501C3.5024 14.5801 3 15.4924 3 17.001C3 18.8756 3.51977 19.5114 3.87988 19.752C4.26209 20.0072 4.69055 20.0039 5.11055 20.0007C5.15716 20.0004 5.20367 20 5.25 20H15.5742C15.205 19.2948 15 18.3173 15 17.001C15 15.7179 15.3715 14.5737 15.8706 13.501C16.1672 12.8633 16.509 12.2509 16.8445 11.6495C16.9282 11.4995 17.0116 11.3501 17.0938 11.2012C17.6546 10.1848 18.192 9.146 18.5527 7.97168ZM13 16.501C13 16.0868 12.6642 15.751 12.25 15.751H6.01367C5.59946 15.751 5.26367 16.0868 5.26367 16.501C5.26367 16.9152 5.59946 17.251 6.01367 17.251H12.25C12.6642 17.251 13 16.9152 13 16.501ZM14 13.501C14 13.0868 13.6642 12.751 13.25 12.751H7.01367C6.59946 12.751 6.26367 13.0868 6.26367 13.501C6.26367 13.9152 6.59946 14.251 7.01367 14.251H13.25C13.6642 14.251 14 13.9152 14 13.501ZM15.2363 10.501C15.2363 10.0868 14.9005 9.75098 14.4863 9.75098H8.25C7.83579 9.75098 7.5 10.0868 7.5 10.501C7.5 10.9152 7.83579 11.251 8.25 11.251H14.4863C14.9005 11.251 15.2363 10.9152 15.2363 10.501Z" fill="url(#paint6_linear_162_30)"/>
<path fill-rule="evenodd" clip-rule="evenodd" d="M18.5527 7.97168C18.4554 7.98934 18.3546 8 18.25 8L18.2449 7.99983L18.2357 7.99902C18.2314 7.99857 18.227 7.99812 18.2227 7.99805V8H6.19922C6.02567 10.3277 5.25438 11.7429 4.50684 12.9561C4.44357 13.0587 4.38116 13.1591 4.31985 13.2577C4.26873 13.3399 4.21838 13.4209 4.16892 13.501C3.5024 14.5801 3 15.4924 3 17.001C3 18.8756 3.51977 19.5114 3.87988 19.752C4.26209 20.0072 4.69055 20.0039 5.11055 20.0007C5.15716 20.0004 5.20367 20 5.25 20H15.5742C15.205 19.2948 15 18.3173 15 17.001C15 15.7179 15.3715 14.5737 15.8706 13.501C16.1672 12.8633 16.509 12.2509 16.8445 11.6495C16.9282 11.4995 17.0116 11.3501 17.0938 11.2012C17.6546 10.1848 18.192 9.146 18.5527 7.97168ZM13 16.501C13 16.0868 12.6642 15.751 12.25 15.751H6.01367C5.59946 15.751 5.26367 16.0868 5.26367 16.501C5.26367 16.9152 5.59946 17.251 6.01367 17.251H12.25C12.6642 17.251 13 16.9152 13 16.501ZM14 13.501C14 13.0868 13.6642 12.751 13.25 12.751H7.01367C6.59946 12.751 6.26367 13.0868 6.26367 13.501C6.26367 13.9152 6.59946 14.251 7.01367 14.251H13.25C13.6642 14.251 14 13.9152 14 13.501ZM15.2363 10.501C15.2363 10.0868 14.9005 9.75098 14.4863 9.75098H8.25C7.83579 9.75098 7.5 10.0868 7.5 10.501C7.5 10.9152 7.83579 11.251 8.25 11.251H14.4863C14.9005 11.251 15.2363 10.9152 15.2363 10.501Z" fill="url(#paint7_linear_162_30)"/>
<defs>
<linearGradient id="paint0_linear_162_30" x1="11.1182" y1="3" x2="11.1182" y2="20.0014" gradientUnits="userSpaceOnUse">
<stop stop-color="#FFAC40"/>
<stop offset="1" stop-color="#DD8100"/>
</linearGradient>
<linearGradient id="paint1_linear_162_30" x1="11.1182" y1="3" x2="11.1182" y2="20.0014" gradientUnits="userSpaceOnUse">
<stop stop-color="#A1BCE6"/>
<stop offset="1" stop-color="#5C6E99"/>
</linearGradient>
<linearGradient id="paint2_linear_162_30" x1="11.1182" y1="3" x2="11.1182" y2="20.0014" gradientUnits="userSpaceOnUse">
<stop stop-color="#FFAC40"/>
<stop offset="1" stop-color="#DD8100"/>
</linearGradient>
<linearGradient id="paint3_linear_162_30" x1="11.1182" y1="3" x2="11.1182" y2="20.0014" gradientUnits="userSpaceOnUse">
<stop stop-color="#A1BCE6"/>
<stop offset="1" stop-color="#5C6E99"/>
</linearGradient>
<linearGradient id="paint4_linear_162_30" x1="11.1182" y1="3" x2="11.1182" y2="20.0014" gradientUnits="userSpaceOnUse">
<stop stop-color="#FFAC40"/>
<stop offset="1" stop-color="#DD8100"/>
</linearGradient>
<linearGradient id="paint5_linear_162_30" x1="11.1182" y1="3" x2="11.1182" y2="20.0014" gradientUnits="userSpaceOnUse">
<stop stop-color="#A1BCE6"/>
<stop offset="1" stop-color="#5C6E99"/>
</linearGradient>
<linearGradient id="paint6_linear_162_30" x1="11.1182" y1="3" x2="11.1182" y2="20.0014" gradientUnits="userSpaceOnUse">
<stop stop-color="#FFAC40"/>
<stop offset="1" stop-color="#DD8100"/>
</linearGradient>
<linearGradient id="paint7_linear_162_30" x1="11.1182" y1="3" x2="11.1182" y2="20.0014" gradientUnits="userSpaceOnUse">
<stop stop-color="#A1BCE6"/>
<stop offset="1" stop-color="#5C6E99"/>
</linearGradient>
</defs>
</svg>
