<svg xmlns="http://www.w3.org/2000/svg" viewBox="0 0 160 160">
  <circle cx="75.25" cy="72.75" r="64.58" fill="#edf3fc"/>
  <path fill="#458fff" d="M143.69 21.16c0 .69-.04 1.37-.12 2.04 0 0-4.59 27.94-7.58 45.96-.5 3.03-1.46 9.4-1.66 10.01v.02a7.06 7.06 0 0 1-9.48 4.27 6.8 6.8 0 0 1-4.18-6.39v-.08c0-.38.21-3.16.22-4.18a48 48 0 0 0-.25-4.82 44.37 44.37 0 0 0-1.58-8.09 45.74 45.74 0 0 0-38.68-32.5 47.27 47.27 0 0 0-5.07-.29c-.84 0-4.1.21-4.19.19a7 7 0 0 1-1.68-13.74c.46-.14 6.66-1.18 9.68-1.72 18.25-3.24 44.55-7.88 44.55-7.88a17.3 17.3 0 0 1 11.74 2.35 17.35 17.35 0 0 1 8.29 14.83Z"/>
  <path fill="#32384d" d="M132.81 87.2a58.24 58.24 0 0 1-4.31 11.73c-.68 1.27-2.45 4.5-3.65 6.42a59.88 59.88 0 0 1-10.27 11.84s6.76 18.06 7.05 19.22a16.54 16.54 0 0 1-4.76 16.16 16.6 16.6 0 0 1-11.4 4.5 16.58 16.58 0 0 1-13.92-7.56c-.37-.55-10.13-17.74-10.13-17.74-2.89.31-5.84.39-8.84.26-29.95-1.32-54.48-25.23-56.5-55.13a59.17 59.17 0 0 1 20.11-48.78 55.6 55.6 0 0 1 8.23-6.05 58.1 58.1 0 0 1 16.79-6.97 11.42 11.42 0 0 0 2.33 13.52c-4.7 1.15-12.04 3.47-18.94 10.35-9.78 9.76-16.33 23.06-14.72 38.42 2.35 22.4 20.95 40.03 43.46 40.95l.43.01a45.5 45.5 0 0 0 39.4-20.18c1.43-2.08 4.97-8.87 6.06-13.09l.08-.33a11.41 11.41 0 0 0 13.53 2.45Z"/>
  <path fill="#32384d" d="M95.73 68.92c3.48 1.94 5.95 5.11 7.4 9.5a19.9 19.9 0 0 1 .33 11.94 23.2 23.2 0 0 1-6.4 10.5 28.7 28.7 0 0 1-11.44 6.71A28.05 28.05 0 0 1 72 108.65a24.21 24.21 0 0 1-11.36-5.05c-2.46-2-4.34-4.73-5.5-6.92a7.84 7.84 0 0 1-.79-1.99 7.48 7.48 0 0 1 4.93-8.87 7.28 7.28 0 0 1 7.31 1.74l.11.12c.46.47 1.38 1.88 1.46 2.02a12.4 12.4 0 0 0 5.41 4.72c2.33 1.08 4.96 1.16 7.91.21s5.04-2.47 6.5-4.66a7.96 7.96 0 0 0 .91-7.22c-.6-1.84-1.77-2.96-3.51-3.34-1.74-.38-10.38-.46-10.94-.46-.45 0-8.67.03-11.77-.26A25 25 0 0 1 52.6 75.3c-3.4-1.94-5.76-5.08-7.08-9.41a19.18 19.18 0 0 1-.02-11.59 22.83 22.83 0 0 1 6.41-10.04c3.08-2.9 6.79-5.03 11.11-6.41s8.91-1.83 13.17-1.14a24 24 0 0 1 11.11 4.67 22.44 22.44 0 0 1 5.51 6.58 8.62 8.62 0 0 1 .82 1.92 7.16 7.16 0 0 1-4.77 8.65c-2.63.84-5.4.11-7.28-1.67l-.11-.12a18.1 18.1 0 0 1-1.46-1.96c-1.28-2-3.06-3.51-5.34-4.54-2.28-1.02-4.85-1.08-7.74-.16s-4.94 2.4-6.39 4.52a7.71 7.71 0 0 0-.98 7.02c.57 1.8 1.71 2.9 3.42 3.27 1.71.37 10.28.44 10.84.43.45 0 8.64-.05 11.74.23 3.31.3 6.7 1.42 10.17 3.36Z"/>
  <path fill="#32384d" d="M137.85 33.08c.21.71.26 1.89-.03 2.48a2.3 2.3 0 0 1-1.44 1.23l-14.56 4.05c-4.59.83-6.59-2.59-5.54-5.66s9.05-15.2 9.55-15.77c.5-.57 1.03-1.54.78-2.4a3.84 3.84 0 0 0-2.08-2.54 4.63 4.63 0 0 0-3.33-.2 4.15 4.15 0 0 0-2.64 1.98 5.84 5.84 0 0 0-.72 3.12c0 .07.02.84-.02 1.14l-.01.07a3.06 3.06 0 0 1-2.11 2.47c-1.56.45-3.22-.55-3.79-2.25l-.07-.21a11.23 11.23 0 0 1 .16-4.72 10.72 10.72 0 0 1 7.53-7.41c1.84-.53 3.65-.6 5.43-.22 1.79.38 3.36 1.17 4.71 2.38a9.77 9.77 0 0 1 2.86 4.59c.62 2.04.64 4.09-.05 5.7-.7 1.61-8.63 12.3-8.45 12.91l10.66-2.94c.79-.23 1.62 0 2.24.55a4 4 0 0 1 .93 1.62Z"/>
</svg>
