<svg width="24" height="24" viewBox="0 0 24 24" fill="none" xmlns="http://www.w3.org/2000/svg">
<g clip-path="url(#clip0_320_1208)">
<path d="M4 5C4 3.34315 5.34315 2 7 2H13.2574C14.053 2 14.8161 2.31607 15.3787 2.87868L19.1213 6.62132C19.6839 7.18393 20 7.94699 20 8.74264V19C20 20.6569 18.6569 22 17 22H7C5.34315 22 4 20.6569 4 19V5Z" fill="url(#paint0_linear_320_1208)"/>
<path d="M9.93849 8.4385C9.43283 9.85435 9.33169 12.1804 9.33169 12.1804L8.1181 12.6861C8.1181 12.6861 8.18104 9.17801 9.12943 7.32605C10.0778 5.4741 11.2532 5.40453 11.9611 5.50565C10.9498 6.41584 10.4442 7.02264 9.93849 8.4385Z" fill="url(#paint1_linear_320_1208)"/>
<ellipse cx="9.53398" cy="15.7201" rx="3.03398" ry="3.64077" fill="url(#paint2_linear_320_1208)"/>
<ellipse cx="10.1407" cy="15.8212" rx="2.22492" ry="3.13511" fill="#2A5A76" stroke="#2C7BA4" stroke-width="1.21359"/>
<ellipse cx="13.9618" cy="15.0956" rx="3.44013" ry="4.2695" transform="rotate(15 13.9618 15.0956)" fill="#17465F"/>
<ellipse cx="14.3556" cy="15.0866" rx="3.15212" ry="4.24885" transform="rotate(15 14.3556 15.0866)" fill="url(#paint3_radial_320_1208)"/>
<path d="M11.5566 5.20227C12.5679 5.80906 13.1747 6.56817 13.377 7.37723C13.5701 8.14959 13.8826 10.6634 13.5792 12.535L14.9951 11.877C15.0327 10.348 14.9951 9.14766 14.5906 7.37723C14.4315 6.68109 14.1473 6.16486 13.8611 5.79469C13.3829 5.17633 12.5579 5.05922 11.784 5.16977L11.5566 5.20227Z" fill="url(#paint4_linear_320_1208)"/>
<path d="M11.3594 5.20203C12.1747 5.17313 12.7324 5.6778 13.1025 6.37292C13.4706 7.06429 13.6772 7.98166 13.792 8.88074C13.9072 9.78367 13.9329 10.6877 13.9297 11.3641C13.9281 11.7025 13.9185 11.9852 13.9102 12.1835C13.906 12.2824 13.9025 12.3614 13.8994 12.4149C13.8979 12.441 13.8964 12.4615 13.8955 12.4755C13.8951 12.4823 13.8948 12.4884 13.8945 12.4921V12.4969L13.4902 12.4696V12.4686C13.4904 12.4678 13.4911 12.4662 13.4912 12.4647C13.4914 12.4615 13.4918 12.4564 13.4922 12.4501C13.493 12.437 13.4937 12.417 13.4951 12.3915C13.4981 12.3399 13.5027 12.2636 13.5068 12.1669C13.515 11.9729 13.5228 11.6949 13.5244 11.3622C13.5275 10.6956 13.5029 9.81065 13.3906 8.93152C13.2779 8.04836 13.0796 7.18875 12.7461 6.56238C12.4147 5.9401 11.973 5.58495 11.373 5.60632C10.7516 5.62865 10.2404 5.99274 9.81738 6.5946C9.39311 7.19856 9.07487 8.02001 8.84375 8.89441C8.51102 10.1534 8.36755 11.4897 8.33105 12.3759C8.18769 12.4502 8.05082 12.5387 7.91992 12.6376C7.93657 11.7309 8.07756 10.2119 8.45312 8.79089C8.68973 7.89579 9.02268 7.02218 9.48633 6.36218C9.95119 5.70067 10.5655 5.23038 11.3594 5.20203Z" fill="#6B6664"/>
<path d="M17.5019 15.5627C17.4355 15.5512 17.369 15.5396 17.3026 15.5281C17.2308 15.8228 17.1351 16.1082 17.0148 16.3819C16.5645 17.4463 15.5588 18.4719 14.5555 18.2528C13.3039 17.9395 12.9367 16.152 13.1872 14.8132C13.1872 14.8132 13.1872 14.8132 13.1872 14.8132C13.4029 13.4684 14.3515 11.9094 15.6354 12.0365C16.6537 12.1686 17.2546 13.4733 17.3196 14.6272C17.3406 14.9254 17.3344 15.2264 17.3026 15.5281C17.369 15.5396 17.4355 15.5512 17.5019 15.5627C17.5756 15.2564 17.6219 14.943 17.6372 14.6242C17.6918 13.4179 17.2998 11.7762 15.7479 11.3888C13.7235 11.149 12.6608 13.1431 12.3901 14.6747C12.3901 14.6747 12.3901 14.6747 12.3901 14.6747C12.1284 16.2079 12.4563 18.4436 14.443 18.9005C16.0347 19.0592 16.9573 17.6458 17.3127 16.4918C17.4059 16.1866 17.4679 15.8759 17.5019 15.5627ZM17.3026 15.5281L17.5019 15.5627L17.3026 15.5281Z" fill="#F6921E"/>
<path d="M12.0566 4.89087C12.7845 4.84461 13.5685 5.00688 14.0596 5.64185C14.3661 6.03827 14.6672 6.58749 14.835 7.32153C15.1341 8.63076 15.233 9.63604 15.251 10.6848C15.3408 10.699 15.4304 10.7176 15.5195 10.7415C16.2804 10.9453 16.8797 11.4703 17.2773 12.1682C17.7832 12.9063 17.9223 13.8672 17.8877 14.635V14.636C17.8719 14.9645 17.8235 15.2873 17.749 15.6018C17.7223 15.8435 17.6802 16.0847 17.6201 16.3235L17.5527 16.5657C17.2708 17.4808 16.6248 18.6153 15.5225 19.0159C15.1152 19.2709 14.6759 19.4412 14.2236 19.4993L14.2227 19.4983C13.7538 19.5936 13.2691 19.589 12.792 19.4612C12.4807 19.3777 12.1933 19.2458 11.9307 19.0774C11.4855 19.4861 10.9271 19.7716 10.2852 19.8088L10.1406 19.8127C9.75797 19.8127 9.40276 19.7217 9.08008 19.5706C7.4501 19.3039 6.25005 17.6519 6.25 15.72L6.25684 15.4651C6.3233 14.2489 6.86349 13.1769 7.67383 12.5159L7.68262 12.262V12.259C7.72646 11.3289 7.87669 9.99163 8.21094 8.72681H8.21191C8.45187 7.81918 8.79435 6.91354 9.28223 6.21899C9.7728 5.5209 10.4502 4.98456 11.3506 4.95239C11.4034 4.95052 11.4543 4.95498 11.5029 4.95728L11.5215 4.95435L11.749 4.92212L12.0566 4.89087ZM11.8506 5.94946C11.4628 6.31371 11.1655 6.63408 10.9131 7.00122C10.6372 7.40269 10.4072 7.86915 10.1738 8.52271C9.80275 9.56182 9.65585 11.1262 9.60547 11.8313C9.68753 11.8334 9.76897 11.8378 9.84961 11.8469C9.94412 11.8356 10.0412 11.8294 10.1406 11.8293L10.3418 11.8372C10.7236 11.8681 11.0761 11.9876 11.3926 12.1672C11.9099 11.5287 12.559 11.0516 13.2666 10.8079C13.2556 10.2474 13.2242 9.60249 13.1426 8.96313C13.0311 8.08992 12.8374 7.26602 12.5254 6.67993C12.3269 6.30722 12.1021 6.06901 11.8506 5.94946Z" stroke="#C3D4DD" stroke-width="0.5"/>
<path d="M4.75 4.75C4.75 3.64543 5.64543 2.75 6.75 2.75H13.4216C13.952 2.75 14.4607 2.96071 14.8358 3.33579L18.6642 7.16421C19.0393 7.53929 19.25 8.04799 19.25 8.57843V19.2459C19.25 20.3505 18.3546 21.2459 17.25 21.2459H6.75C5.64543 21.2459 4.75 20.3505 4.75 19.2459V4.75Z" stroke="url(#paint5_linear_320_1208)" stroke-width="1.5"/>
</g>
<defs>
<linearGradient id="paint0_linear_320_1208" x1="20" y1="2" x2="4" y2="22" gradientUnits="userSpaceOnUse">
<stop offset="0.2" stop-color="#D7DAB5"/>
<stop offset="0.9" stop-color="#B8BD7D"/>
</linearGradient>
<linearGradient id="paint1_linear_320_1208" x1="9.73726" y1="5.60067" x2="9.73726" y2="12.7872" gradientUnits="userSpaceOnUse">
<stop stop-color="#083349"/>
<stop offset="1" stop-color="#93B9CC"/>
</linearGradient>
<linearGradient id="paint2_linear_320_1208" x1="9.53398" y1="12.0793" x2="9.53398" y2="19.3608" gradientUnits="userSpaceOnUse">
<stop stop-color="#DDD8D5"/>
<stop offset="1" stop-color="#827F7E"/>
</linearGradient>
<radialGradient id="paint3_radial_320_1208" cx="0" cy="0" r="1" gradientUnits="userSpaceOnUse" gradientTransform="translate(13.955 13.0337) rotate(86.3632) scale(6.31444 4.68454)">
<stop offset="0.325986" stop-color="#D4D4D4"/>
<stop offset="0.839869" stop-color="#808080"/>
</radialGradient>
<linearGradient id="paint4_linear_320_1208" x1="13.2758" y1="5" x2="13.2758" y2="13.0906" gradientUnits="userSpaceOnUse">
<stop stop-color="#9EC0D2"/>
<stop offset="1" stop-color="#3C85AA"/>
</linearGradient>
<linearGradient id="paint5_linear_320_1208" x1="12" y1="2.75" x2="12" y2="21.2459" gradientUnits="userSpaceOnUse">
<stop stop-color="#C5CC5A"/>
<stop offset="1" stop-color="#9BA500"/>
</linearGradient>
<clipPath id="clip0_320_1208">
<rect width="24" height="24" fill="white"/>
</clipPath>
</defs>
</svg>
