<svg width="24" height="24" viewBox="0 0 24 24" fill="none" xmlns="http://www.w3.org/2000/svg">
<path d="M12 2.75C17.1086 2.75 21.25 6.89137 21.25 12C21.25 17.1086 17.1086 21.25 12 21.25C6.89137 21.25 2.75 17.1086 2.75 12C2.75 6.89137 6.89137 2.75 12 2.75ZM15.2803 7.96973C14.9874 7.67683 14.5126 7.67683 14.2197 7.96973C13.9268 8.26262 13.9268 8.73738 14.2197 9.03027L15.4395 10.25H11C8.92893 10.25 7.25 11.9289 7.25 14V14.5C7.25 14.9142 7.58579 15.25 8 15.25C8.41421 15.25 8.75 14.9142 8.75 14.5V14C8.75 12.7574 9.75736 11.75 11 11.75H15.4395L14.2197 12.9697C13.9268 13.2626 13.9268 13.7374 14.2197 14.0303C14.5126 14.3232 14.9874 14.3232 15.2803 14.0303L17.7803 11.5303C17.9209 11.3896 18 11.1989 18 11C18 10.8011 17.9209 10.6104 17.7803 10.4697L15.2803 7.96973Z" fill="#73ABFF"/>
</svg>
