<svg width="24" height="24" viewBox="0 0 24 24" fill="none" xmlns="http://www.w3.org/2000/svg">
<path d="M20 7.89648C21.1045 7.89648 22 8.79195 22 9.89648V17C22 18.1046 21.1046 19 20 19H4C2.89543 19 2 18.1046 2 17V10.75H8.52832C8.95508 10.7499 9.3761 10.6508 9.75781 10.46L14.8838 7.89648H20ZM15.0303 9.97168C14.7374 9.67879 14.2626 9.67879 13.9697 9.97168C13.677 10.2646 13.6769 10.7394 13.9697 11.0322L15.1895 12.252H11C8.92893 12.252 7.25 13.9309 7.25 16.002V16.5C7.25021 16.914 7.58591 17.25 8 17.25C8.41409 17.25 8.74979 16.914 8.75 16.5V16.002C8.75 14.7593 9.75736 13.752 11 13.752H15.1895L13.9697 14.9717C13.677 15.2646 13.6769 15.7394 13.9697 16.0322C14.2626 16.3249 14.7374 16.3249 15.0303 16.0322L17.5303 13.5322C17.8231 13.2394 17.823 12.7646 17.5303 12.4717L15.0303 9.97168ZM9.13184 5C9.62682 5 10.1042 5.18402 10.4717 5.51562L12.5469 7.3877L9.08691 9.11816C8.91349 9.20487 8.72221 9.24993 8.52832 9.25H2V7C2 5.89543 2.89543 5 4 5H9.13184Z" fill="#66A3FF"/>
</svg>
