<svg width="24" height="24" viewBox="0 0 24 24" fill="none" xmlns="http://www.w3.org/2000/svg">
<path d="M15.9999 1.49963C15.4478 1.49968 15.0001 1.94754 14.9999 2.49963C14.9999 3.05189 15.4477 3.49958 15.9999 3.49963H19.0858L3.11124 19.4742C2.72079 19.8647 2.72095 20.4978 3.11124 20.8883C3.50176 21.2788 4.13478 21.2788 4.5253 20.8883L7.18936 18.2242C8.21526 18.7272 9.32178 19.051 10.4618 19.1725C11.8587 19.3213 13.272 19.1675 14.6044 18.7223C15.9366 18.2771 17.1577 17.5509 18.1845 16.5924C19.2114 15.6337 20.02 14.4644 20.5556 13.1656C20.5601 13.1548 20.5651 13.1435 20.5692 13.1324C20.7205 12.7246 20.7205 12.2757 20.5692 11.8678L20.5556 11.8346C19.9095 10.2678 18.8704 8.90281 17.5487 7.86487L20.4999 4.9137V7.99963C20.4999 8.55188 20.9477 8.99958 21.4999 8.99963C22.0522 8.99963 22.4999 8.55192 22.4999 7.99963V2.49963C22.4998 2.23454 22.3944 1.98006 22.2069 1.7926C22.0194 1.6052 21.765 1.49963 21.4999 1.49963H15.9999ZM16.122 9.29163C17.2367 10.1128 18.1166 11.2188 18.6649 12.4987C18.2389 13.4939 17.6121 14.3912 16.8202 15.1305C16.003 15.8934 15.0309 16.4715 13.9706 16.8258C12.9102 17.1801 11.7854 17.3017 10.6737 17.1832C9.99802 17.1112 9.33691 16.9498 8.70596 16.7076L9.87003 15.5436C10.3762 15.8144 10.946 15.9588 11.5302 15.9537C12.4358 15.9458 13.3029 15.5833 13.9433 14.943C14.5835 14.3025 14.9471 13.4355 14.955 12.5299C14.96 11.9455 14.8162 11.3751 14.5448 10.8688L16.122 9.29163ZM12.6552 5.84143C10.5327 5.58854 8.3855 6.03802 6.5419 7.11975C4.81351 8.13397 3.44036 9.65215 2.6044 11.4664L2.44424 11.8336L2.43155 11.8668C2.28022 12.2748 2.28023 12.7235 2.43155 13.1315C2.43569 13.1426 2.44069 13.1547 2.44522 13.1656C2.78007 13.9773 3.22243 14.7405 3.76065 15.4342C4.09924 15.8704 4.72769 15.9495 5.16397 15.611C5.59967 15.2724 5.67875 14.6448 5.34073 14.2086C4.93378 13.6841 4.59712 13.1086 4.33585 12.4987C4.99057 10.9691 6.11703 9.6874 7.55362 8.84436C9.02065 7.9836 10.7299 7.62648 12.4189 7.82776C12.9671 7.8928 13.4648 7.50099 13.5302 6.95276C13.5952 6.40467 13.2032 5.90694 12.6552 5.84143ZM12.955 12.5123C12.9517 12.8934 12.7985 13.2583 12.5292 13.528C12.2596 13.7976 11.8939 13.9513 11.5126 13.9547C11.4957 13.9549 11.4786 13.9522 11.4618 13.9518L12.953 12.4606C12.9535 12.4778 12.9551 12.495 12.955 12.5123Z" fill="#66A3FF"/>
</svg>
