<svg width="24" height="24" viewBox="0 0 24 24" fill="none" xmlns="http://www.w3.org/2000/svg">
<path d="M20 7.75C21.1046 7.75 22 8.64543 22 9.75V17.25C22 18.3546 21.1046 19.25 20 19.25H3.75C2.64543 19.25 1.75 18.3546 1.75 17.25V10.5H8.52832C8.95508 10.4999 9.3761 10.4008 9.75781 10.21L14.6768 7.75H20ZM15.0303 9.97168C14.7374 9.67879 14.2626 9.67879 13.9697 9.97168C13.677 10.2646 13.6769 10.7394 13.9697 11.0322L15.1895 12.252H11C8.92893 12.252 7.25 13.9309 7.25 16.002V16.5C7.25021 16.914 7.58591 17.25 8 17.25C8.41409 17.25 8.74979 16.914 8.75 16.5V16.002C8.75 14.7593 9.75736 13.752 11 13.752H15.1895L13.9697 14.9717C13.677 15.2646 13.6769 15.7394 13.9697 16.0322C14.2626 16.3249 14.7374 16.3249 15.0303 16.0322L17.5303 13.5322C17.8231 13.2394 17.823 12.7646 17.5303 12.4717L15.0303 9.97168ZM8.96777 4.75C9.47043 4.75 9.95481 4.9394 10.3242 5.28027L12.4102 7.20605L9.08691 8.86816C8.91349 8.95487 8.72221 8.99993 8.52832 9H1.75V6.75C1.75 5.64543 2.64543 4.75 3.75 4.75H8.96777Z" fill="#73ABFF"/>
</svg>
