<svg width="24" height="24" viewBox="0 0 24 24" fill="none" xmlns="http://www.w3.org/2000/svg">
<path d="M9 13C10.1046 13 11 13.8954 11 15V19C11 20.1046 10.1046 21 9 21H5C3.89543 21 3 20.1046 3 19V15C3 13.8954 3.89543 13 5 13H9Z" fill="#455473"/>
<path d="M19 13C20.1046 13 21 13.8954 21 15V19C21 20.1046 20.1046 21 19 21H15C13.8954 21 13 20.1046 13 19V15C13 13.8954 13.8954 13 15 13H19Z" fill="#455473"/>
<path d="M9 3C10.1046 3 11 3.89543 11 5V9C11 10.1046 10.1046 11 9 11H5C3.89543 11 3 10.1046 3 9V5C3 3.89543 3.89543 3 5 3H9Z" fill="#455473"/>
<path d="M21 8.75C21 9.16421 20.6642 9.5 20.25 9.5C19.8358 9.5 19.5 9.16421 19.5 8.75V5.56055L14.2803 10.7803C13.9874 11.0732 13.5126 11.0732 13.2197 10.7803C12.9268 10.4874 12.9268 10.0126 13.2197 9.71973L18.4394 4.5H15.25C14.8358 4.5 14.5 4.16421 14.5 3.75C14.5 3.33579 14.8358 3 15.25 3H21V8.75Z" fill="#73ABFF"/>
</svg>
