<svg width="24" height="24" viewBox="0 0 24 24" fill="none" xmlns="http://www.w3.org/2000/svg">
<path d="M22 18C22 19.1046 21.1046 20 20 20H4C2.89543 20 2 19.1046 2 18V8.75H22V18ZM14.7803 10.4697C14.4874 10.1768 14.0126 10.1768 13.7197 10.4697C13.4268 10.7626 13.4268 11.2374 13.7197 11.5303L14.9395 12.75H11.5C9.42893 12.75 7.75 14.4289 7.75 16.5V17C7.75 17.4142 8.08579 17.75 8.5 17.75C8.91421 17.75 9.25 17.4142 9.25 17V16.5C9.25 15.2574 10.2574 14.25 11.5 14.25H14.9395L13.7197 15.4697C13.4268 15.7626 13.4268 16.2374 13.7197 16.5303C14.0126 16.8232 14.4874 16.8232 14.7803 16.5303L17.2803 14.0303C17.4209 13.8896 17.5 13.6989 17.5 13.5C17.5 13.3011 17.4209 13.1104 17.2803 12.9697L14.7803 10.4697ZM20 4C21.1046 4 22 4.89543 22 6V7.25H2V6C2 4.89543 2.89543 4 4 4H20ZM13.5 4.75C13.0858 4.75 12.75 5.08579 12.75 5.5C12.75 5.91421 13.0858 6.25 13.5 6.25C13.9142 6.25 14.25 5.91421 14.25 5.5C14.25 5.08579 13.9142 4.75 13.5 4.75ZM16.5 4.75C16.0858 4.75 15.75 5.08579 15.75 5.5C15.75 5.91421 16.0858 6.25 16.5 6.25C16.9142 6.25 17.25 5.91421 17.25 5.5C17.25 5.08579 16.9142 4.75 16.5 4.75ZM19.5 4.75C19.0858 4.75 18.75 5.08579 18.75 5.5C18.75 5.91421 19.0858 6.25 19.5 6.25C19.9142 6.25 20.25 5.91421 20.25 5.5C20.25 5.08579 19.9142 4.75 19.5 4.75Z" fill="#66A3FF"/>
</svg>
