<svg width="24" height="24" viewBox="0 0 24 24" fill="none" xmlns="http://www.w3.org/2000/svg">
<path d="M11 3C12.2426 3 13.25 4.00736 13.25 5.25C13.25 5.62631 13.1569 5.98035 12.993 6.29159C12.8923 6.48292 13.0176 6.75 13.2338 6.75H16C17.1046 6.75 18 7.64543 18 8.75V11.5154C18 11.7316 18.267 11.857 18.4584 11.7564C18.7697 11.5928 19.1238 11.5 19.5 11.5C20.7426 11.5 21.75 12.5074 21.75 13.75C21.75 14.9926 20.7426 16 19.5 16C19.1237 16 18.7696 15.9069 18.4584 15.743C18.2671 15.6423 18 15.7676 18 15.9838V18.75C18 19.8546 17.1046 20.75 16 20.75H13.4173C13.2317 20.75 13.1087 20.5529 13.1607 20.3747C13.2186 20.1764 13.25 19.967 13.25 19.75C13.25 18.5074 12.2426 17.5 11 17.5C9.75736 17.5 8.75 18.5074 8.75 19.75C8.75 19.967 8.78143 20.1764 8.83931 20.3747C8.89134 20.5529 8.76833 20.75 8.5827 20.75H6C4.89543 20.75 4 19.8546 4 18.75V15.9838C4 15.7676 4.26708 15.6423 4.45841 15.743C4.76965 15.9069 5.12369 16 5.5 16C6.74264 16 7.75 14.9926 7.75 13.75C7.75 12.5074 6.74264 11.5 5.5 11.5C5.12383 11.5 4.76971 11.5928 4.45842 11.7564C4.26704 11.857 4 11.7316 4 11.5154V8.75C4 7.64543 4.89543 6.75 6 6.75H8.76619C8.98242 6.75 9.10773 6.48292 9.007 6.29159C8.84315 5.98035 8.75 5.62631 8.75 5.25C8.75 4.00736 9.75736 3 11 3Z" fill="url(#paint0_linear_40_1165)"/>
<defs>
<linearGradient id="paint0_linear_40_1165" x1="3" y1="-0.250001" x2="19" y2="20.75" gradientUnits="userSpaceOnUse">
<stop stop-color="#D8FFAC"/>
<stop offset="1" stop-color="#76CC13"/>
</linearGradient>
</defs>
</svg>
