<svg width="24" height="24" viewBox="0 0 24 24" fill="none" xmlns="http://www.w3.org/2000/svg">
<path d="M12 3C16.9706 3 21 7.02944 21 12C21 12.0771 20.9961 12.1539 20.9941 12.2305C20.0979 11.7644 19.08 11.5 18 11.5C14.4101 11.5 11.5 14.4101 11.5 18C11.5 19.08 11.7644 20.0979 12.2305 20.9941C12.1539 20.9961 12.0771 21 12 21C7.02944 21 3 16.9706 3 12C3 7.02944 7.02944 3 12 3ZM12 6C11.5858 6 11.25 6.33579 11.25 6.75V11.8164L7.625 13.9102C7.26637 14.1173 7.1435 14.5759 7.35059 14.9346C7.55773 15.2931 8.01634 15.416 8.375 15.209L12.375 12.8994C12.607 12.7654 12.75 12.5179 12.75 12.25V6.75C12.75 6.33579 12.4142 6 12 6Z" fill="white"/>
<path d="M18 13C20.7614 13 23 15.2386 23 18C23 20.7614 20.7614 23 18 23C15.2386 23 13 20.7614 13 18C13 15.2386 15.2386 13 18 13ZM15.75 17.25C15.3358 17.25 15 17.5858 15 18C15 18.4142 15.3358 18.75 15.75 18.75H20.25C20.6642 18.75 21 18.4142 21 18C21 17.5858 20.6642 17.25 20.25 17.25H15.75Z" fill="white"/>
</svg>
