<svg width="24" height="24" viewBox="0 0 24 24" fill="none" xmlns="http://www.w3.org/2000/svg">
<path d="M10.2533 19.2418H5.13224C3.76232 19.2418 2.90612 17.7588 3.59108 16.5725L5.65337 13.0005M10.2533 19.2418L8.25333 17.0308M10.2533 19.2418L8.25333 21.5308" stroke="#66A3FF" stroke-width="2" stroke-linecap="round" stroke-linejoin="round"/>
<path d="M17.8517 12.1374L20.4123 16.5724C21.0972 17.7588 20.241 19.2418 18.8711 19.2418L14.7465 19.2418M17.8517 12.1374L16.9369 14.975M17.8517 12.1374L20.834 12.725" stroke="#66A3FF" stroke-width="2" stroke-linecap="round" stroke-linejoin="round"/>
<path d="M7.89135 9.09477L10.4519 4.65978C11.1369 3.47339 12.8493 3.47339 13.5342 4.65978L15.5965 8.23178M7.89135 9.09477L10.8062 8.46825M7.89135 9.09477L6.90906 6.21825" stroke="#66A3FF" stroke-width="2" stroke-linecap="round" stroke-linejoin="round"/>
</svg>
