<svg width="24" height="24" viewBox="0 0 24 24" fill="none" xmlns="http://www.w3.org/2000/svg">
<path d="M4.78769 12.5003C5.06391 12.0222 5.6757 11.858 6.1539 12.1341C6.63193 12.4103 6.79506 13.0221 6.51913 13.5003L4.45761 17.0726C4.15761 17.5923 4.53232 18.2415 5.13242 18.2415H8.00058L7.5123 17.7015C7.14188 17.292 7.17324 16.6599 7.58261 16.2894C7.99211 15.9191 8.62426 15.9504 8.99472 16.3597L10.9947 18.5706C11.3348 18.9466 11.3399 19.5179 11.0064 19.8997L9.00644 22.1888C8.64303 22.6045 8.01115 22.6468 7.59531 22.2835C7.17961 21.9201 7.13725 21.2882 7.50058 20.8724L8.05136 20.2415H5.13242C2.99278 20.2415 1.65556 17.9256 2.72519 16.0726L4.78769 12.5003ZM16.9 11.8304C17.0557 11.3481 17.5482 11.0576 18.0455 11.1556L21.0279 11.7435C21.5693 11.8504 21.9215 12.3767 21.815 12.9183C21.7081 13.4598 21.1828 13.8119 20.6412 13.7054L19.8189 13.5433L21.2789 16.0716C22.3487 17.9245 21.011 20.2411 18.8717 20.2415H14.7467C14.1944 20.2415 13.7467 19.7937 13.7467 19.2415C13.7469 18.6894 14.1945 18.2415 14.7467 18.2415H18.8717C19.4714 18.2411 19.8464 17.5911 19.5465 17.0716L18.1119 14.5882L17.8893 15.2816C17.7198 15.8071 17.156 16.0954 16.6305 15.9261C16.1048 15.7566 15.8155 15.1929 15.985 14.6673L16.9 11.8304ZM9.58554 4.15948C10.6554 2.30664 13.33 2.30679 14.4 4.15948L16.4625 7.73175C16.7385 8.21001 16.5745 8.82186 16.0963 9.09796C15.618 9.37392 15.0062 9.20995 14.7301 8.73175L12.6676 5.15948C12.3674 4.64034 11.618 4.64019 11.318 5.15948L9.88339 7.64288L10.5953 7.49054C11.1352 7.37449 11.6676 7.71829 11.7838 8.25812C11.8997 8.79794 11.556 9.32949 11.0162 9.44562L8.10117 10.0726C7.6056 10.1789 7.10872 9.89699 6.94492 9.4173L5.96249 6.54132C5.78421 6.01882 6.06313 5.45034 6.58554 5.27179C7.10808 5.09335 7.67647 5.3724 7.85507 5.89484L8.12558 6.68781L9.58554 4.15948Z" fill="#619BF2"/>
</svg>
