<svg width="24" height="24" viewBox="0 0 24 24" fill="none" xmlns="http://www.w3.org/2000/svg">
<path d="M13.2188 3C13.6778 3 14.0773 3.31256 14.1886 3.75781L14.503 5.01562C14.5805 5.32581 14.8041 5.57643 15.0909 5.71777C15.3687 5.85465 15.6362 6.0095 15.8917 6.18066C16.157 6.35841 16.485 6.42651 16.7921 6.33887L18.0431 5.98145C18.4841 5.85555 18.9543 6.04622 19.1837 6.44336L20.4034 8.55566C20.6331 8.95333 20.5629 9.45645 20.2325 9.77539L19.2999 10.6748C19.07 10.8968 18.9653 11.2154 18.9874 11.5342C18.9981 11.6881 19.004 11.8434 19.004 12C19.004 12.1561 18.9981 12.3113 18.9874 12.4648C18.9653 12.7833 19.0704 13.1014 19.2999 13.3232L20.2335 14.2246C20.5635 14.5435 20.6338 15.0469 20.4044 15.4443L19.1856 17.5557C18.9562 17.9532 18.4853 18.143 18.044 18.0166L16.795 17.6592C16.4874 17.571 16.1584 17.6392 15.8927 17.8174C15.6369 17.9889 15.3691 18.1441 15.0909 18.2812C14.8042 18.4226 14.5805 18.6732 14.503 18.9834L14.1886 20.2422C14.0774 20.6875 13.6778 21 13.2188 21H10.7804C10.3218 21 9.92217 20.688 9.81064 20.2432L9.49423 18.9785C9.41668 18.6691 9.19334 18.4196 8.90732 18.2783C8.63119 18.1419 8.36547 17.9877 8.11142 17.8174C7.84568 17.6392 7.51664 17.5711 7.20908 17.6592L5.95712 18.0176C5.51586 18.1439 5.04498 17.9532 4.81552 17.5557L3.59579 15.4434C3.36661 15.0461 3.43708 14.5435 3.76669 14.2246L4.70517 13.3164C4.93429 13.0947 5.03954 12.7771 5.01865 12.459C5.00869 12.3073 5.004 12.1542 5.004 12C5.004 11.8454 5.00868 11.6921 5.01865 11.54C5.03952 11.2218 4.93442 10.9043 4.70517 10.6826L3.76669 9.77539C3.43699 9.45655 3.36669 8.95394 3.59579 8.55664L4.81552 6.44434C5.04498 6.04681 5.51586 5.85608 5.95712 5.98242L7.20908 6.34082C7.51664 6.42888 7.84582 6.36096 8.11142 6.18262C8.36544 6.01206 8.63121 5.85735 8.90732 5.7207C9.19309 5.57922 9.4157 5.3298 9.49326 5.02051L9.80966 3.75684C9.92118 3.31197 10.3217 3 10.7804 3H13.2188ZM12.0001 8.75C10.2052 8.75 8.75009 10.2051 8.75009 12C8.75009 13.7949 10.2052 15.25 12.0001 15.25C13.795 15.25 15.2501 13.7949 15.2501 12C15.2501 10.2051 13.795 8.75005 12.0001 8.75Z" fill="#D9D9D9"/>
<path d="M13.2188 3C13.6778 3 14.0773 3.31256 14.1886 3.75781L14.503 5.01562C14.5805 5.32581 14.8041 5.57643 15.0909 5.71777C15.3687 5.85465 15.6362 6.0095 15.8917 6.18066C16.157 6.35841 16.485 6.42651 16.7921 6.33887L18.0431 5.98145C18.4841 5.85555 18.9543 6.04622 19.1837 6.44336L20.4034 8.55566C20.6331 8.95333 20.5629 9.45645 20.2325 9.77539L19.2999 10.6748C19.07 10.8968 18.9653 11.2154 18.9874 11.5342C18.9981 11.6881 19.004 11.8434 19.004 12C19.004 12.1561 18.9981 12.3113 18.9874 12.4648C18.9653 12.7833 19.0704 13.1014 19.2999 13.3232L20.2335 14.2246C20.5635 14.5435 20.6338 15.0469 20.4044 15.4443L19.1856 17.5557C18.9562 17.9532 18.4853 18.143 18.044 18.0166L16.795 17.6592C16.4874 17.571 16.1584 17.6392 15.8927 17.8174C15.6369 17.9889 15.3691 18.1441 15.0909 18.2812C14.8042 18.4226 14.5805 18.6732 14.503 18.9834L14.1886 20.2422C14.0774 20.6875 13.6778 21 13.2188 21H10.7804C10.3218 21 9.92217 20.688 9.81064 20.2432L9.49423 18.9785C9.41668 18.6691 9.19334 18.4196 8.90732 18.2783C8.63119 18.1419 8.36547 17.9877 8.11142 17.8174C7.84568 17.6392 7.51664 17.5711 7.20908 17.6592L5.95712 18.0176C5.51586 18.1439 5.04498 17.9532 4.81552 17.5557L3.59579 15.4434C3.36661 15.0461 3.43708 14.5435 3.76669 14.2246L4.70517 13.3164C4.93429 13.0947 5.03954 12.7771 5.01865 12.459C5.00869 12.3073 5.004 12.1542 5.004 12C5.004 11.8454 5.00868 11.6921 5.01865 11.54C5.03952 11.2218 4.93442 10.9043 4.70517 10.6826L3.76669 9.77539C3.43699 9.45655 3.36669 8.95394 3.59579 8.55664L4.81552 6.44434C5.04498 6.04681 5.51586 5.85608 5.95712 5.98242L7.20908 6.34082C7.51664 6.42888 7.84582 6.36096 8.11142 6.18262C8.36544 6.01206 8.63121 5.85735 8.90732 5.7207C9.19309 5.57922 9.4157 5.3298 9.49326 5.02051L9.80966 3.75684C9.92118 3.31197 10.3217 3 10.7804 3H13.2188ZM12.0001 8.75C10.2052 8.75 8.75009 10.2051 8.75009 12C8.75009 13.7949 10.2052 15.25 12.0001 15.25C13.795 15.25 15.2501 13.7949 15.2501 12C15.2501 10.2051 13.795 8.75005 12.0001 8.75Z" fill="url(#paint0_linear_1_935)"/>
<defs>
<linearGradient id="paint0_linear_1_935" x1="3.37137" y1="3.34615" x2="20.679" y2="20.6032" gradientUnits="userSpaceOnUse">
<stop stop-color="#7AA3CC"/>
<stop offset="1" stop-color="#405880"/>
</linearGradient>
</defs>
</svg>
