<svg width="24" height="24" viewBox="0 0 24 24" fill="none" xmlns="http://www.w3.org/2000/svg">
<path d="M14.0078 2C14.2938 2.00007 14.5397 2.20201 14.5957 2.48242L14.9903 4.45508C14.9962 4.48471 15 4.51568 15 4.5459C15.0002 4.73058 15.111 4.89638 15.2784 4.97461C15.6865 5.16544 16.0748 5.39131 16.4405 5.64746C16.5929 5.75425 16.7937 5.76755 16.9551 5.6748C16.9813 5.65975 17.0095 5.64737 17.0381 5.6377L18.9434 4.99316C19.2142 4.90151 19.5122 5.01329 19.6553 5.26074L21.6641 8.73926C21.8069 8.98688 21.7548 9.30147 21.5401 9.49023L20.0293 10.8184C20.0063 10.8386 19.9816 10.8568 19.9551 10.8721C19.7942 10.9646 19.705 11.1442 19.7217 11.3291C19.7417 11.5502 19.7539 11.7739 19.7539 12C19.7539 12.2258 19.7417 12.4491 19.7217 12.6699C19.7049 12.8555 19.7938 13.0366 19.9551 13.1299C19.9814 13.1451 20.0065 13.1626 20.0293 13.1826L21.5401 14.5107C21.7547 14.6995 21.8068 15.0131 21.6641 15.2607L19.6553 18.7393C19.5123 18.9868 19.2142 19.0994 18.9434 19.0078L17.0381 18.3633C17.0093 18.3536 16.9814 18.3413 16.9551 18.3262C16.7934 18.233 16.5924 18.2466 16.4395 18.3535C16.0746 18.609 15.6866 18.834 15.2793 19.0244C15.1115 19.1029 15.0002 19.2689 15 19.4541C15 19.4844 14.9962 19.5152 14.9903 19.5449L14.5957 21.5176C14.5397 21.798 14.2938 21.9999 14.0078 22H9.99124C9.70533 21.9999 9.45943 21.798 9.40335 21.5176L9.00882 19.5449C9.00284 19.515 9.00004 19.4846 9.00003 19.4541C9.00003 19.2672 8.88692 19.0999 8.7178 19.0205C8.31334 18.8308 7.9281 18.6065 7.56546 18.3525C7.41114 18.2445 7.20789 18.2306 7.04495 18.3252C7.01805 18.3408 6.98946 18.3533 6.95999 18.3633L5.05569 19.0078C4.78486 19.0994 4.4868 18.9868 4.34378 18.7393L2.33499 15.2607C2.19228 15.0132 2.24443 14.6995 2.45901 14.5107L3.96976 13.1826C3.99287 13.1623 4.01835 13.1443 4.04495 13.1289C4.20914 13.0335 4.29959 12.8493 4.28323 12.6602C4.26425 12.4427 4.25394 12.2223 4.25394 12C4.25394 11.7775 4.26423 11.5575 4.28323 11.3398C4.29974 11.151 4.20916 10.9668 4.04495 10.8721C4.01803 10.8565 3.99311 10.8379 3.96976 10.8174L2.45901 9.49023C2.24431 9.30148 2.19218 8.98688 2.33499 8.73926L4.34378 5.26074C4.48688 5.01326 4.78488 4.9015 5.05569 4.99316L6.96097 5.6377C6.98974 5.64743 7.01764 5.65967 7.04398 5.6748C7.20677 5.76856 7.40959 5.75515 7.56351 5.64746C7.9269 5.39298 8.3134 5.16853 8.71878 4.97852C8.88743 4.89936 9.00002 4.73222 9.00003 4.5459C9.00003 4.5154 9.00284 4.48499 9.00882 4.45508L9.40335 2.48242C9.45943 2.20204 9.70533 2.0001 9.99124 2H14.0078ZM12 8.5C10.067 8.5 8.50003 10.067 8.50003 12C8.50003 13.933 10.067 15.5 12 15.5C13.933 15.5 15.5 13.933 15.5 12C15.5 10.067 13.933 8.50002 12 8.5Z" fill="#D9D9D9"/>
<path d="M14.0078 2C14.2938 2.00007 14.5397 2.20201 14.5957 2.48242L14.9903 4.45508C14.9962 4.48471 15 4.51568 15 4.5459C15.0002 4.73058 15.111 4.89638 15.2784 4.97461C15.6865 5.16544 16.0748 5.39131 16.4405 5.64746C16.5929 5.75425 16.7937 5.76755 16.9551 5.6748C16.9813 5.65975 17.0095 5.64737 17.0381 5.6377L18.9434 4.99316C19.2142 4.90151 19.5122 5.01329 19.6553 5.26074L21.6641 8.73926C21.8069 8.98688 21.7548 9.30147 21.5401 9.49023L20.0293 10.8184C20.0063 10.8386 19.9816 10.8568 19.9551 10.8721C19.7942 10.9646 19.705 11.1442 19.7217 11.3291C19.7417 11.5502 19.7539 11.7739 19.7539 12C19.7539 12.2258 19.7417 12.4491 19.7217 12.6699C19.7049 12.8555 19.7938 13.0366 19.9551 13.1299C19.9814 13.1451 20.0065 13.1626 20.0293 13.1826L21.5401 14.5107C21.7547 14.6995 21.8068 15.0131 21.6641 15.2607L19.6553 18.7393C19.5123 18.9868 19.2142 19.0994 18.9434 19.0078L17.0381 18.3633C17.0093 18.3536 16.9814 18.3413 16.9551 18.3262C16.7934 18.233 16.5924 18.2466 16.4395 18.3535C16.0746 18.609 15.6866 18.834 15.2793 19.0244C15.1115 19.1029 15.0002 19.2689 15 19.4541C15 19.4844 14.9962 19.5152 14.9903 19.5449L14.5957 21.5176C14.5397 21.798 14.2938 21.9999 14.0078 22H9.99124C9.70533 21.9999 9.45943 21.798 9.40335 21.5176L9.00882 19.5449C9.00284 19.515 9.00004 19.4846 9.00003 19.4541C9.00003 19.2672 8.88692 19.0999 8.7178 19.0205C8.31334 18.8308 7.9281 18.6065 7.56546 18.3525C7.41114 18.2445 7.20789 18.2306 7.04495 18.3252C7.01805 18.3408 6.98946 18.3533 6.95999 18.3633L5.05569 19.0078C4.78486 19.0994 4.4868 18.9868 4.34378 18.7393L2.33499 15.2607C2.19228 15.0132 2.24443 14.6995 2.45901 14.5107L3.96976 13.1826C3.99287 13.1623 4.01835 13.1443 4.04495 13.1289C4.20914 13.0335 4.29959 12.8493 4.28323 12.6602C4.26425 12.4427 4.25394 12.2223 4.25394 12C4.25394 11.7775 4.26423 11.5575 4.28323 11.3398C4.29974 11.151 4.20916 10.9668 4.04495 10.8721C4.01803 10.8565 3.99311 10.8379 3.96976 10.8174L2.45901 9.49023C2.24431 9.30148 2.19218 8.98688 2.33499 8.73926L4.34378 5.26074C4.48688 5.01326 4.78488 4.9015 5.05569 4.99316L6.96097 5.6377C6.98974 5.64743 7.01764 5.65967 7.04398 5.6748C7.20677 5.76856 7.40959 5.75515 7.56351 5.64746C7.9269 5.39298 8.3134 5.16853 8.71878 4.97852C8.88743 4.89936 9.00002 4.73222 9.00003 4.5459C9.00003 4.5154 9.00284 4.48499 9.00882 4.45508L9.40335 2.48242C9.45943 2.20204 9.70533 2.0001 9.99124 2H14.0078ZM12 8.5C10.067 8.5 8.50003 10.067 8.50003 12C8.50003 13.933 10.067 15.5 12 15.5C13.933 15.5 15.5 13.933 15.5 12C15.5 10.067 13.933 8.50002 12 8.5Z" fill="url(#paint0_linear_10_208)"/>
<defs>
<linearGradient id="paint0_linear_10_208" x1="2.25545" y1="2.38462" x2="21.4845" y2="21.8713" gradientUnits="userSpaceOnUse">
<stop stop-color="#6B8CB3"/>
<stop offset="1" stop-color="#53627A"/>
</linearGradient>
</defs>
</svg>
