<svg width="24" height="24" viewBox="0 0 24 24" fill="none" xmlns="http://www.w3.org/2000/svg">
<path d="M16 4C18.2091 4 20 5.79086 20 8V16C20 18.2091 18.2091 20 16 20H8C5.79086 20 4 18.2091 4 16V8C4 5.79086 5.79086 4 8 4H16ZM16.0303 9.71973C15.7374 9.42683 15.2626 9.42683 14.9697 9.71973L12 12.6895L9.03027 9.71973C8.73738 9.42683 8.26262 9.42683 7.96973 9.71973C7.67683 10.0126 7.67683 10.4874 7.96973 10.7803L11.4697 14.2803C11.6104 14.4209 11.8011 14.5 12 14.5C12.1989 14.5 12.3896 14.4209 12.5303 14.2803L16.0303 10.7803C16.3232 10.4874 16.3232 10.0126 16.0303 9.71973Z" fill="#6CA4F9"/>
</svg>
