<svg width="24" height="24" viewBox="0 0 24 24" fill="none" xmlns="http://www.w3.org/2000/svg">
<path d="M16 4C18.2091 4 20 5.79086 20 8V16C20 18.2091 18.2091 20 16 20H8C5.79086 20 4 18.2091 4 16V8C4 5.79086 5.79086 4 8 4H16ZM12 9.5C11.8011 9.5 11.6104 9.57907 11.4697 9.71973L7.96973 13.2197C7.67683 13.5126 7.67683 13.9874 7.96973 14.2803C8.26262 14.5732 8.73738 14.5732 9.03027 14.2803L12 11.3105L14.9697 14.2803C15.2626 14.5732 15.7374 14.5732 16.0303 14.2803C16.3232 13.9874 16.3232 13.5126 16.0303 13.2197L12.5303 9.71973C12.3896 9.57907 12.1989 9.5 12 9.5Z" fill="#6CA4F9"/>
</svg>
