<svg width="24" height="24" viewBox="0 0 24 24" fill="none" xmlns="http://www.w3.org/2000/svg">
<path d="M15 5C17.2091 5 19 6.79086 19 9V15C19 17.2091 17.2091 19 15 19H9C6.79086 19 5 17.2091 5 15V9C5 6.79086 6.79086 5 9 5H15ZM12 9.5C11.8011 9.5 11.6104 9.57907 11.4697 9.71973L7.96973 13.2197C7.67683 13.5126 7.67683 13.9874 7.96973 14.2803C8.26262 14.5732 8.73738 14.5732 9.03027 14.2803L12 11.3105L14.9697 14.2803C15.2626 14.5732 15.7374 14.5732 16.0303 14.2803C16.3232 13.9874 16.3232 13.5126 16.0303 13.2197L12.5303 9.71973C12.3896 9.57907 12.1989 9.5 12 9.5Z" fill="#619BF2"/>
</svg>
