<svg width="24" height="24" viewBox="0 0 24 24" fill="none" xmlns="http://www.w3.org/2000/svg">
<path d="M3.96484 12.2531C4.37687 12.2146 4.74219 12.5179 4.78125 12.9298C4.91674 14.3766 5.48498 15.7497 6.41016 16.8702C7.33546 17.9907 8.57662 18.8073 9.97168 19.214C11.3667 19.6205 12.852 19.5993 14.2344 19.1515C15.4416 18.7603 16.5219 18.0596 17.3701 17.1241L15.8535 15.6075C15.5393 15.2926 15.7621 14.7544 16.207 14.754H20.5C20.7758 14.7541 20.9996 14.9782 21 15.254V19.547C21 19.9924 20.4615 20.2155 20.1465 19.9005L18.4316 18.1857C17.4154 19.2875 16.1301 20.1137 14.6963 20.5782C13.0279 21.1186 11.2354 21.1451 9.55176 20.6544C7.868 20.1636 6.3697 19.1777 5.25293 17.8253C4.13643 16.473 3.4516 14.8155 3.28809 13.0695C3.2501 12.6576 3.55298 12.2918 3.96484 12.2531ZM9.30371 3.4259C10.9722 2.88548 12.7645 2.85901 14.4482 3.34973C16.1321 3.84056 17.6302 4.82639 18.7471 6.17883C19.8637 7.53122 20.5484 9.18851 20.7119 10.9347C20.7502 11.3468 20.4473 11.7125 20.0352 11.7511C19.6229 11.7897 19.2576 11.4865 19.2188 11.0743C19.0832 9.62741 18.5152 8.25449 17.5898 7.13391C16.6645 6.01335 15.4235 5.19684 14.0283 4.79016C12.6332 4.38358 11.1481 4.40483 9.76562 4.85266C8.5583 5.24379 7.47814 5.9445 6.62988 6.88L8.14648 8.39661C8.46122 8.71159 8.2383 9.25006 7.79297 9.25012H3.5C3.22394 9.25012 3.00013 9.02616 3 8.75012V4.45715C3.00001 4.01172 3.53854 3.78867 3.85352 4.10364L5.56836 5.81848C6.58466 4.71657 7.86988 3.89041 9.30371 3.4259Z" fill="#3384FE"/>
</svg>
