<svg width="24" height="24" viewBox="0 0 24 24" fill="none" xmlns="http://www.w3.org/2000/svg">
<path d="M15.7998 2.25C21.0627 5.93423 21.5887 12.2504 20.0098 15.9346C18.4307 19.6186 14.7465 22.25 10.5361 22.25V22.248C10.5095 22.2484 10.4828 22.25 10.4561 22.25C6.96809 22.25 4.14082 19.4225 4.14062 15.9346C4.14062 12.4465 6.96797 9.6182 10.4561 9.61816C10.797 9.61816 11.1317 9.64622 11.458 9.69824C16.0028 9.69166 17.472 5.94178 15.7998 2.25Z" fill="url(#paint0_linear_13_438)"/>
<path d="M12 3C13.1046 3 14 3.89543 14 5C14 6.10457 13.1046 7 12 7C10.8954 7 10 6.10457 10 5C10 3.89543 10.8954 3 12 3Z" fill="url(#paint1_linear_13_438)"/>
<path d="M14.7266 11.8662C15.0764 11.4392 15.7066 11.3769 16.1338 11.7266C16.5608 12.0764 16.6231 12.7066 16.2734 13.1338L11.7725 18.6338C11.5935 18.8523 11.3299 18.985 11.0479 18.999C10.7658 19.0129 10.4906 18.9068 10.291 18.707L7.79297 16.207C7.40261 15.8165 7.40253 15.1834 7.79297 14.793C8.18353 14.4026 8.81659 14.4025 9.20703 14.793L10.9238 16.5107L14.7266 11.8662Z" fill="black"/>
<defs>
<linearGradient id="paint0_linear_13_438" x1="3.24801" y1="1.13889" x2="25.1026" y2="19.3354" gradientUnits="userSpaceOnUse">
<stop stop-color="#88B6FF"/>
<stop offset="1" stop-color="#458FFF"/>
</linearGradient>
<linearGradient id="paint1_linear_13_438" x1="3.24801" y1="1.13889" x2="25.1026" y2="19.3354" gradientUnits="userSpaceOnUse">
<stop stop-color="#88B6FF"/>
<stop offset="1" stop-color="#458FFF"/>
</linearGradient>
</defs>
</svg>
