<svg width="24" height="24" viewBox="0 0 24 24" fill="none" xmlns="http://www.w3.org/2000/svg">
<path d="M15.7998 2.24985C21 6.49981 20.4999 13.4998 19 16.9998C17.5 20.4998 14.2105 21.9998 10 21.9998V21.9979C9.98538 21.998 9.9707 21.9998 9.95605 21.9998C6.91852 21.9998 4.45605 19.5374 4.45605 16.4998C4.45614 13.4624 6.91857 10.9999 9.95605 10.9998C9.9707 10.9998 9.98538 11.0007 10 11.0008V10.9998C10.0065 11.0004 10.0131 11.0003 10.0195 11.0008C10.1935 11.0028 10.3655 11.0124 10.5352 11.0301C15.6335 11.1485 17.5213 6.05057 15.7998 2.24985ZM15.4746 12.4198C15.1541 12.1576 14.6822 12.2048 14.4199 12.5252L10.4424 17.3827L8.53027 15.4696C8.23746 15.1768 7.76263 15.1769 7.46973 15.4696C7.17692 15.7624 7.17704 16.2372 7.46973 16.5301L9.96777 19.0301C10.1176 19.18 10.3245 19.2594 10.5361 19.2489C10.7477 19.2383 10.9449 19.1384 11.0791 18.9745L15.5801 13.4745C15.8423 13.1539 15.7951 12.6821 15.4746 12.4198ZM6.2627 6.21176C6.33867 5.98384 6.66133 5.98384 6.7373 6.21176L6.9668 6.90024C7.06633 7.19884 7.301 7.43352 7.59961 7.53305L8.28809 7.76254C8.51601 7.83852 8.51601 8.16118 8.28809 8.23715L7.59961 8.46664C7.301 8.56618 7.06633 8.80085 6.9668 9.09946L6.7373 9.78891C6.66116 10.0164 6.33883 10.0164 6.2627 9.78891L6.0332 9.09946C5.93367 8.80085 5.699 8.56618 5.40039 8.46664L4.71191 8.23715C4.48399 8.16118 4.48399 7.83852 4.71191 7.76254L5.40039 7.53305C5.699 7.43352 5.93367 7.19884 6.0332 6.90024L6.2627 6.21176ZM11.292 2.12289C11.3585 1.92346 11.6415 1.92346 11.708 2.12289L12.2363 3.70981C12.3234 3.97109 12.5288 4.17643 12.79 4.26352L14.377 4.79282C14.5764 4.85929 14.5764 5.14138 14.377 5.20786L12.79 5.73618C12.5288 5.82326 12.3234 6.02863 12.2363 6.28989L11.708 7.87778C11.6414 8.07699 11.3586 8.07699 11.292 7.87778L10.7637 6.28989C10.6766 6.02863 10.4712 5.82326 10.21 5.73618L8.62305 5.20786C8.42361 5.14138 8.42361 4.85929 8.62305 4.79282L10.21 4.26352C10.4712 4.17643 10.6766 3.97109 10.7637 3.70981L11.292 2.12289Z" fill="#619BF2"/>
</svg>
