<svg width="24" height="24" viewBox="0 0 24 24" fill="none" xmlns="http://www.w3.org/2000/svg">
<path d="M15.7998 2.25C21.0001 6.50001 20.5 13.5 19 17C17.5 20.5 14.2105 22 10 22V21.998C9.98538 21.9982 9.9707 22 9.95605 22C6.91852 22 4.45605 19.5375 4.45605 16.5C4.45605 13.4625 6.91852 11 9.95605 11C9.9707 11 9.98538 11.0009 10 11.001V11C10.0065 11.0006 10.013 11.0004 10.0195 11.001C10.1935 11.0029 10.3655 11.0125 10.5352 11.0303C15.6335 11.1487 17.5213 6.05073 15.7998 2.25ZM15.4746 12.4199C15.1541 12.1577 14.6822 12.2049 14.4199 12.5254L10.4424 17.3828L8.53027 15.4697C8.23744 15.1769 7.76265 15.177 7.46973 15.4697C7.17689 15.7626 7.17695 16.2374 7.46973 16.5303L9.96777 19.0303C10.1176 19.1802 10.3245 19.2595 10.5361 19.249C10.7477 19.2385 10.9449 19.1385 11.0791 18.9746L15.5801 13.4746C15.8423 13.1541 15.7951 12.6822 15.4746 12.4199Z" fill="#66A3FF"/>
<path d="M10.7633 3.70995L11.2925 2.12257C11.359 1.92314 11.641 1.92314 11.7075 2.12257L12.2367 3.70995C12.3237 3.97123 12.5288 4.17626 12.79 4.26335L14.3774 4.79248C14.5769 4.85895 14.5769 5.14105 14.3774 5.20752L12.79 5.73665C12.5288 5.82374 12.3237 6.02877 12.2367 6.29005L11.7075 7.87743C11.641 8.07686 11.359 8.07686 11.2925 7.87743L10.7633 6.29005C10.6763 6.02877 10.4712 5.82374 10.21 5.73665L8.62257 5.20752C8.42314 5.14105 8.42314 4.85895 8.62257 4.79248L10.21 4.26335C10.4712 4.17626 10.6763 3.97123 10.7633 3.70995Z" fill="#66A3FF"/>
<path d="M6.03311 6.90066L6.26283 6.21151C6.3388 5.98359 6.6612 5.98359 6.73717 6.21151L6.96689 6.90066C7.06642 7.19926 7.30074 7.43358 7.59934 7.53311L8.28849 7.76283C8.51641 7.8388 8.51641 8.1612 8.28849 8.23717L7.59934 8.46689C7.30074 8.56642 7.06642 8.80074 6.96689 9.09934L6.73717 9.78849C6.6612 10.0164 6.3388 10.0164 6.26283 9.78849L6.03311 9.09934C5.93358 8.80074 5.69926 8.56642 5.40066 8.46689L4.71151 8.23717C4.48359 8.1612 4.48359 7.8388 4.71151 7.76283L5.40066 7.53311C5.69926 7.43358 5.93358 7.19926 6.03311 6.90066Z" fill="#66A3FF"/>
</svg>
