<svg width="24" height="24" viewBox="0 0 24 24" fill="none" xmlns="http://www.w3.org/2000/svg">
<path d="M5.71191 10.7373L5.62402 11H4.37598L4.28809 10.7373L2.04199 4H3.62402L5 8.12695L6.37598 4H7.95801L5.71191 10.7373ZM18.6729 7.33984L21.6533 11H19.7188L17.6777 8.49316L17 9.27832V11H15.5V4H17V6.9834L17.1279 6.83594L19.5771 4H21.5586L18.6729 7.33984ZM11.75 4C13.1307 4 14.25 5.11929 14.25 6.5C14.25 7.88071 13.1307 9 11.75 9H10.75V11H9.25V4H11.75ZM10.75 7.5H11.75C12.3023 7.5 12.75 7.05228 12.75 6.5C12.75 5.94772 12.3023 5.5 11.75 5.5H10.75V7.5Z" fill="#73ABFF"/>
<path d="M11 14L11.1543 14.0039C12.7394 14.0842 14 15.3949 14 17H12.5C12.5 16.1716 11.8284 15.5 11 15.5H7C6.17157 15.5 5.5 16.1716 5.5 17C5.5 17.8284 6.17157 18.5 7 18.5H9.29199C9.52692 19.0802 9.89353 19.5925 10.3555 20H7C5.34315 20 4 18.6569 4 17C4 15.3431 5.34315 14 7 14H11ZM17 14C18.6569 14 20 15.3431 20 17C20 18.6569 18.6569 20 17 20H13L12.8457 19.9961C11.2606 19.9158 10 18.6051 10 17H11.5C11.5 17.8284 12.1716 18.5 13 18.5H17C17.8284 18.5 18.5 17.8284 18.5 17C18.5 16.1716 17.8284 15.5 17 15.5H14.708C14.4731 14.9198 14.1065 14.4075 13.6445 14H17Z" fill="#73ABFF"/>
</svg>
