<svg width="24" height="24" viewBox="0 0 24 24" fill="none" xmlns="http://www.w3.org/2000/svg">
<path d="M12.2217 8.97656C12.921 10.3314 14.0817 11.4089 15.4971 12H15.25V17.5H16.75V16.1709L16.9766 15.8984L18.208 17.5H20.1006L17.96 14.7178L20.0986 12.1514C20.793 11.9145 21.4338 11.5639 22 11.1211V17C22 18.1046 21.1046 19 20 19H4C2.89543 19 2 18.1046 2 17V10.5H8.52832C8.95508 10.4999 9.3761 10.4008 9.75781 10.21L12.2217 8.97656ZM5.40918 17.5H7.01074L9.10156 12H7.49609L6.2168 15.3643L4.97363 12H3.375L5.40918 17.5ZM10 17.5H11.5V16.25H12.125C13.2985 16.25 14.2499 15.2985 14.25 14.125C14.2499 12.9515 13.2985 12 12.125 12H10V17.5ZM12.125 13.5C12.4701 13.5 12.7499 13.7799 12.75 14.125C12.7499 14.4701 12.4701 14.75 12.125 14.75H11.5V13.5H12.125ZM16.75 12.3779C17.1098 12.448 17.48 12.488 17.8584 12.4961L16.75 13.8271V12.3779ZM9.13184 5C9.62682 5 10.1042 5.18402 10.4717 5.51562L11.5176 6.45898C11.544 6.83735 11.602 7.20669 11.6904 7.56445L9.08691 8.86816C8.91349 8.95487 8.72221 8.99993 8.52832 9H2V7C2 5.89543 2.89543 5 4 5H9.13184Z" fill="#73ABFF"/>
<path d="M18 1C20.7614 1 23 3.23858 23 6C23 8.76142 20.7614 11 18 11C15.2386 11 13 8.76142 13 6C13 3.23858 15.2386 1 18 1ZM20.4355 3.88965C20.0985 3.64913 19.6303 3.72749 19.3896 4.06445L17.4043 6.84375L16.5303 5.96973C16.2374 5.67683 15.7626 5.67683 15.4697 5.96973C15.1768 6.26262 15.1768 6.73738 15.4697 7.03027L16.9697 8.53027C17.1255 8.68609 17.3419 8.76516 17.5615 8.74707C17.7812 8.72889 17.9822 8.61495 18.1104 8.43555L20.6104 4.93555C20.8509 4.59851 20.7725 4.13034 20.4355 3.88965Z" fill="#73ABFF"/>
</svg>
