<svg width="24" height="24" viewBox="0 0 24 24" fill="none" xmlns="http://www.w3.org/2000/svg">
<path d="M11.5516 3.90849C11.735 3.53687 12.265 3.53687 12.4484 3.90849L14.8226 8.71919C14.8954 8.86677 15.0362 8.96905 15.1991 8.99271L20.508 9.76415C20.9181 9.82374 21.0818 10.3277 20.7851 10.617L16.9435 14.3616C16.8257 14.4765 16.7719 14.642 16.7997 14.8042L17.7066 20.0916C17.7766 20.5001 17.3479 20.8116 16.9811 20.6187L12.2327 18.1223C12.087 18.0457 11.913 18.0457 11.7673 18.1223L7.01888 20.6187C6.65207 20.8116 6.22335 20.5001 6.29341 20.0916L7.20028 14.8042C7.2281 14.642 7.17433 14.4765 7.05648 14.3616L3.21491 10.617C2.91815 10.3277 3.08191 9.82374 3.49202 9.76415L8.80094 8.99271C8.9638 8.96905 9.10458 8.86677 9.17741 8.71919L11.5516 3.90849Z" fill="#D9D9D9"/>
<path d="M11.5516 3.90849C11.735 3.53687 12.265 3.53687 12.4484 3.90849L14.8226 8.71919C14.8954 8.86677 15.0362 8.96905 15.1991 8.99271L20.508 9.76415C20.9181 9.82374 21.0818 10.3277 20.7851 10.617L16.9435 14.3616C16.8257 14.4765 16.7719 14.642 16.7997 14.8042L17.7066 20.0916C17.7766 20.5001 17.3479 20.8116 16.9811 20.6187L12.2327 18.1223C12.087 18.0457 11.913 18.0457 11.7673 18.1223L7.01888 20.6187C6.65207 20.8116 6.22335 20.5001 6.29341 20.0916L7.20028 14.8042C7.2281 14.642 7.17433 14.4765 7.05648 14.3616L3.21491 10.617C2.91815 10.3277 3.08191 9.82374 3.49202 9.76415L8.80094 8.99271C8.9638 8.96905 9.10458 8.86677 9.17741 8.71919L11.5516 3.90849Z" fill="url(#paint0_radial_1_898)"/>
<defs>
<radialGradient id="paint0_radial_1_898" cx="0" cy="0" r="1" gradientUnits="userSpaceOnUse" gradientTransform="translate(12 14.0041) rotate(90) scale(11.4829 10.9469)">
<stop stop-color="#A6C9FF"/>
<stop offset="1" stop-color="#3384FF"/>
</radialGradient>
</defs>
</svg>
