<svg width="24" height="24" viewBox="0 0 24 24" fill="none" xmlns="http://www.w3.org/2000/svg">
<path d="M11.091 2.79547C11.703 2.58127 12.0093 2.73493 12.3459 3.01031C12.6831 3.28709 15.8037 9.92573 16.2932 10.3541C16.3428 10.3975 16.3901 10.4414 16.4358 10.4849C16.4062 10.5258 16.3728 10.5698 16.3391 10.6187C16.1609 10.8768 15.9268 11.2471 15.7014 11.6959C15.2541 12.5866 14.8226 13.8267 14.9719 15.1382C15.1191 16.4304 15.6893 17.5003 16.2121 18.2388C16.4745 18.6093 16.7292 18.901 16.9182 19.1011C17.0125 19.201 17.0908 19.2794 17.1467 19.3326C17.1745 19.359 17.1973 19.3798 17.2131 19.3941C17.2207 19.401 17.2272 19.4067 17.2317 19.4107C17.2337 19.4125 17.2361 19.4144 17.2375 19.4156L17.2395 19.4175H17.2404C17.3968 19.5534 17.6339 19.5368 17.7697 19.3804C17.905 19.2242 17.8885 18.9879 17.7326 18.8521C17.732 18.8518 17.7306 18.851 17.7297 18.8502C17.7271 18.8478 17.7225 18.8435 17.717 18.8384C17.7054 18.8278 17.6875 18.8107 17.6643 18.7886C17.6172 18.7438 17.5475 18.6758 17.4631 18.5865C17.2936 18.407 17.0628 18.1419 16.8244 17.8052C16.3454 17.1286 15.8451 16.1778 15.717 15.0533C15.5913 13.9481 15.9544 12.8619 16.3713 12.0318C16.5779 11.6204 16.7932 11.2807 16.9563 11.0445C16.9675 11.0283 16.9788 11.0128 16.9895 10.9976C17.1648 11.1284 17.3463 11.2075 17.5783 11.1802C18.0983 11.1191 18.0988 10.8436 18.3127 10.6295C18.5269 10.4153 18.5572 9.77233 18.7102 9.28278C18.8632 8.79324 19.1083 7.56975 20.6379 7.50836C22.1678 7.44716 22.5048 8.51781 21.7092 9.46637C20.9137 10.4149 20.5278 12.2381 20.4543 12.8013C20.3809 13.3643 20.4543 16.5653 20.2707 17.4527C20.0871 18.3401 19.6282 19.9007 16.9358 21.2164C14.2432 22.532 13.0799 21.9198 12.009 21.3384C11.4706 21.0457 9.98983 19.3497 8.91916 17.9732C7.84832 16.5964 4.51294 13.2616 4.29807 12.8326C4.08389 12.4042 4.11518 11.8534 4.60471 11.5474C5.09418 11.2415 5.76701 11.608 6.01193 11.8834C6.25644 12.1584 9.24852 15.273 9.34689 15.3716C9.43869 15.4634 9.62261 15.4634 9.68381 15.3716C9.7449 15.2799 9.71439 15.1577 9.68381 15.066C9.65321 14.9742 4.6353 8.54808 4.51291 8.21149C4.39062 7.87489 4.42111 7.17183 4.81857 6.86578C5.21633 6.55981 5.95036 6.62103 6.2258 6.86578C6.5011 7.1105 10.9964 12.5843 11.091 12.649C11.1828 12.7102 11.3365 12.7405 11.3977 12.6793C11.4588 12.6181 11.4888 12.5262 11.4582 12.4039C11.4276 12.2814 6.53179 5.30491 6.40939 4.87653C6.28703 4.44813 6.3489 3.68349 6.80783 3.3775C7.26673 3.07156 8.03108 3.22432 8.42892 3.59137C8.82627 3.95816 13.0099 10.4007 13.1106 10.5064C13.2023 10.5981 13.2638 10.6294 13.386 10.6295C13.5082 10.6295 13.478 10.4764 13.4475 10.3541C13.4169 10.2317 10.5734 4.48263 10.4797 4.11188C10.3879 3.74474 10.4793 3.0098 11.091 2.79547Z" fill="url(#paint0_radial_179_235)"/>
<path d="M14.5 2.47138C15.9862 3.97399 16.4845 4.94636 16.5501 7" stroke="#BFE6FF" stroke-linecap="round"/>
<path d="M6 18.8774C4.18712 17.7911 3.46294 16.973 2.8892 15" stroke="#BFE6FF" stroke-linecap="round"/>
<path d="M16 1C17.4862 2.50261 17.9844 3.47498 18.0501 5.52862" stroke="#BFE6FF" stroke-linecap="round"/>
<path d="M4.50003 20.5C2.68715 19.4137 1.96297 18.5956 1.38923 16.6226" stroke="#BFE6FF" stroke-linecap="round"/>
<defs>
<radialGradient id="paint0_radial_179_235" cx="0" cy="0" r="1" gradientUnits="userSpaceOnUse" gradientTransform="translate(13.1491 13.3168) rotate(90) scale(11.0842 9.82705)">
<stop stop-color="#00FFF6"/>
<stop offset="1" stop-color="#6759FF"/>
</radialGradient>
</defs>
</svg>
