<svg width="24" height="24" viewBox="0 0 24 24" fill="none" xmlns="http://www.w3.org/2000/svg">
<g clip-path="url(#clip0_335_434)">
<path d="M4 5C4 3.34315 5.34315 2 7 2H13.2574C14.053 2 14.8161 2.31607 15.3787 2.87868L19.1213 6.62132C19.6839 7.18393 20 7.94699 20 8.74264V19C20 20.6569 18.6569 22 17 22H7C5.34315 22 4 20.6569 4 19V5Z" fill="url(#paint0_linear_335_434)"/>
<path d="M5.25 15.75C9.7395 14.927 14.25 13.25 17.75 6.25" stroke="#6D4921"/>
<path d="M5 15.5C9.4895 14.677 14 13 17.5 6" stroke="#CE6B00"/>
<path d="M8.25 4.5C9.17318 4.5 9.97715 5.00175 10.4102 5.74609C11.1276 6.43988 11.5919 7.35697 11.9287 8.34668C12.2847 9.39288 12.5147 10.5686 12.7354 11.7188C12.9587 12.8826 13.1738 14.0235 13.5 15.0605C13.6198 15.4413 13.753 15.8025 13.9043 16.1406C14.255 15.1837 15.1716 14.5 16.25 14.5C17.6307 14.5 18.75 15.6193 18.75 17C18.75 18.3807 17.6307 19.5 16.25 19.5C15.3594 19.5 14.5796 19.0331 14.1367 18.332L14.1318 18.3379C13.375 17.5122 12.8935 16.466 12.5459 15.3613C12.1988 14.258 11.9733 13.0546 11.7529 11.9062C11.5299 10.7441 11.3122 9.63819 10.9824 8.66895C10.8747 8.35237 10.7545 8.05642 10.623 7.78125C10.2948 8.77897 9.35761 9.5 8.25 9.5C6.86929 9.5 5.75 8.38071 5.75 7C5.75 5.61929 6.86929 4.5 8.25 4.5Z" fill="#7E5A17"/>
<circle cx="8" cy="7" r="2" fill="#00D5FF" stroke="#FFB62D"/>
<path d="M9.69995 6C12.4999 8.5 11.4999 15 14.2499 18" stroke="#FFB62D"/>
<circle cx="16" cy="17" r="2" fill="#00D5FF" stroke="#FFB62D"/>
<path d="M4.75 4.75C4.75 3.64543 5.64543 2.75 6.75 2.75H13.4216C13.952 2.75 14.4607 2.96071 14.8358 3.33579L18.6642 7.16421C19.0393 7.53929 19.25 8.04799 19.25 8.57843V19.2459C19.25 20.3505 18.3546 21.2459 17.25 21.2459H6.75C5.64543 21.2459 4.75 20.3505 4.75 19.2459V4.75Z" stroke="url(#paint1_linear_335_434)" stroke-width="1.5"/>
</g>
<defs>
<linearGradient id="paint0_linear_335_434" x1="20" y1="2" x2="4" y2="22" gradientUnits="userSpaceOnUse">
<stop offset="0.2" stop-color="#5AA0C4"/>
<stop offset="0.9" stop-color="#1E6080"/>
</linearGradient>
<linearGradient id="paint1_linear_335_434" x1="19.25" y1="2.75" x2="4.39024" y2="20.9522" gradientUnits="userSpaceOnUse">
<stop stop-color="#93BFD8"/>
<stop offset="1" stop-color="#3B8FBA"/>
</linearGradient>
<clipPath id="clip0_335_434">
<rect width="24" height="24" fill="white"/>
</clipPath>
</defs>
</svg>
