<svg width="24" height="24" viewBox="0 0 24 24" fill="none" xmlns="http://www.w3.org/2000/svg">
<g clip-path="url(#clip0_209_303)">
<path d="M4 5C4 3.34315 5.34315 2 7 2H13.2574C14.053 2 14.8161 2.31607 15.3787 2.87868L19.1213 6.62132C19.6839 7.18393 20 7.94699 20 8.74264V19C20 20.6569 18.6569 22 17 22H7C5.34315 22 4 20.6569 4 19V5Z" fill="url(#paint0_linear_209_303)"/>
<path d="M12.9543 20.5H12.4543V19.416C12.1734 19.2928 11.9611 19.0443 11.8859 18.7412C9.59571 18.6166 7.62358 16.9199 7.06464 14.7451C6.40951 14.706 5.88983 14.165 5.88983 13.5C5.88983 12.835 6.40948 12.293 7.06464 12.2539C7.62391 10.0795 9.596 8.38233 11.8859 8.25781C11.9613 7.95503 12.1736 7.706 12.4543 7.58301V6.5H12.9543V20.5ZM8.36444 13.75C8.27712 14.1799 7.96895 14.5276 7.56366 14.6738C8.08568 16.6082 9.84929 18.1184 11.8898 18.2402C11.969 17.9454 12.179 17.7036 12.4543 17.583V15.916C12.1695 15.7911 11.9553 15.5373 11.883 15.2285C11.1244 15.1818 10.3552 15.0196 9.76483 14.4453C9.59442 14.2795 9.49487 14.1671 9.34491 14.0557C9.2082 13.9541 9.0263 13.8547 8.72089 13.75H8.36444ZM11.8937 12.2715C11.1964 12.3167 10.5793 12.4599 10.1135 12.9131C9.97046 13.0522 9.82818 13.2079 9.64276 13.3457C9.56955 13.4001 9.48843 13.4499 9.39764 13.5C9.48843 13.5501 9.56955 13.5999 9.64276 13.6543C9.82818 13.7921 9.97046 13.9478 10.1135 14.0869C10.5793 14.5401 11.1964 14.6816 11.8937 14.7266C11.9756 14.4379 12.1832 14.2018 12.4543 14.083V12.916C12.1828 12.797 11.9752 12.5608 11.8937 12.2715ZM7.13983 12.75C6.72576 12.7502 6.38983 13.0859 6.38983 13.5C6.38983 13.9141 6.72576 14.2498 7.13983 14.25C7.55405 14.25 7.88983 13.9142 7.88983 13.5C7.88983 13.0858 7.55405 12.75 7.13983 12.75ZM11.8898 8.75879C9.84949 8.88058 8.08494 10.3911 7.56268 12.3252C7.96856 12.4712 8.27703 12.8196 8.36444 13.25H8.72089C9.0263 13.1453 9.2082 13.0459 9.34491 12.9443C9.49487 12.8329 9.59442 12.7205 9.76483 12.5547C10.3552 11.9804 11.1244 11.8165 11.883 11.7695C11.9557 11.4614 12.1699 11.2076 12.4543 11.083V9.41602C12.1789 9.29521 11.9687 9.05394 11.8898 8.75879Z" fill="#FFAB4D"/>
<path d="M15.9377 11.875L16.1916 12.8906C16.2897 13.2827 16.5301 13.6244 16.8664 13.8486L17.5627 14.3125L17.6838 14.4102C18.064 14.7144 17.7356 15.3181 17.2736 15.1641C17.1954 15.138 17.1189 15.1062 17.0451 15.0693L16.3439 14.7188C15.8166 14.4551 15.3889 14.0274 15.1252 13.5L13.9064 14.7188L15.1613 16.6016C15.3761 16.9237 15.3342 17.3531 15.0607 17.627L13.5002 19.1875V17.9688L14.0256 17.4434C14.1839 17.2848 14.1839 17.0277 14.0256 16.8691L13.5002 16.3438V9.84375L15.9377 11.875ZM15.9689 8.625C16.6419 8.6251 17.1877 9.17071 17.1877 9.84375C17.1877 10.5168 16.6419 11.0624 15.9689 11.0625C15.2958 11.0625 14.7502 10.5168 14.7502 9.84375C14.7502 9.17065 15.2958 8.625 15.9689 8.625Z" fill="#7CBAFF"/>
<path d="M4.75 4.75C4.75 3.64543 5.64543 2.75 6.75 2.75H13.4216C13.952 2.75 14.4607 2.96071 14.8358 3.33579L18.6642 7.16421C19.0393 7.53929 19.25 8.04799 19.25 8.57843V19.2459C19.25 20.3505 18.3546 21.2459 17.25 21.2459H6.75C5.64543 21.2459 4.75 20.3505 4.75 19.2459V4.75Z" stroke="url(#paint1_linear_209_303)" stroke-width="1.5"/>
<path d="M15.3662 2.80567L19.1944 6.6338C19.5715 7.01096 19.8279 7.48646 19.9385 8.00001H16C14.8954 8.00001 14 7.10458 14 6.00001L14 2.06155C14.5136 2.17211 14.9891 2.42851 15.3662 2.80567Z" fill="#C98435"/>
</g>
<defs>
<linearGradient id="paint0_linear_209_303" x1="20" y1="2" x2="4" y2="22" gradientUnits="userSpaceOnUse">
<stop stop-color="#5A391C"/>
<stop offset="1" stop-color="#55361C"/>
</linearGradient>
<linearGradient id="paint1_linear_209_303" x1="12" y1="2.75" x2="12" y2="21.2459" gradientUnits="userSpaceOnUse">
<stop stop-color="#865F35"/>
<stop offset="1" stop-color="#7E4C16"/>
</linearGradient>
<clipPath id="clip0_209_303">
<rect width="24" height="24" fill="white"/>
</clipPath>
</defs>
</svg>
