<svg width="24" height="24" viewBox="0 0 24 24" fill="none" xmlns="http://www.w3.org/2000/svg">
<g clip-path="url(#clip0_329_552)">
<path d="M4 5C4 3.34315 5.34315 2 7 2H13.2574C14.053 2 14.8161 2.31607 15.3787 2.87868L19.1213 6.62132C19.6839 7.18393 20 7.94699 20 8.74264V19C20 20.6569 18.6569 22 17 22H7C5.34315 22 4 20.6569 4 19V5Z" fill="url(#paint0_linear_329_552)"/>
<path d="M4.75 4.75C4.75 3.64543 5.64543 2.75 6.75 2.75H13.4216C13.952 2.75 14.4607 2.96071 14.8358 3.33579L18.6642 7.16421C19.0393 7.53929 19.25 8.04799 19.25 8.57843V19.2459C19.25 20.3505 18.3546 21.2459 17.25 21.2459H6.75C5.64543 21.2459 4.75 20.3505 4.75 19.2459V4.75Z" stroke="url(#paint1_linear_329_552)" stroke-width="1.5"/>
<path fill-rule="evenodd" clip-rule="evenodd" d="M7.4117 9.50649C8.33772 9.26994 8.88757 8.31757 8.62942 7.39734L8.49648 6.92344C8.71275 6.75721 8.94714 6.61481 9.19605 6.5L9.48319 6.80468C10.1547 7.5172 11.2874 7.5178 11.9596 6.80598L12.236 6.51337C12.4895 6.63297 12.7276 6.7813 12.9466 6.95433L12.8392 7.31377C12.5588 8.25187 13.1257 9.23251 14.0785 9.45779L14.3756 9.52803C14.3939 9.68272 14.4034 9.84027 14.4034 10.0001C14.4034 10.1329 14.3969 10.2641 14.3841 10.3934L13.9921 10.4935C13.0661 10.7301 12.5163 11.6824 12.7744 12.6027L12.9073 13.0765C12.6911 13.2427 12.4567 13.3852 12.2078 13.5L11.9206 13.1953C11.2491 12.4828 10.1165 12.4822 9.44419 13.194L9.16757 13.4869C8.91415 13.3673 8.67605 13.2191 8.45715 13.0461L8.56469 12.6862C8.845 11.7481 8.27814 10.7675 7.32533 10.5422L7.0278 10.4719C7.00945 10.3173 7 10.1598 7 10.0001C7 9.86729 7.00653 9.73606 7.01928 9.60673L7.4117 9.50649ZM10.7017 9.14894C11.1718 9.14894 11.5529 9.53002 11.5529 10.0001C11.5529 10.4702 11.1718 10.8513 10.7017 10.8513C10.2316 10.8513 9.85055 10.4702 9.85055 10.0001C9.85055 9.53002 10.2316 9.14894 10.7017 9.14894Z" fill="black"/>
<path fill-rule="evenodd" clip-rule="evenodd" d="M12.4326 16.8334C12.921 16.3563 12.921 15.5708 12.4326 15.0938L12.1812 14.8481C12.2556 14.668 12.3497 14.4962 12.4627 14.3363L12.7491 14.4222C13.419 14.6232 14.1199 14.219 14.2815 13.5386L14.3479 13.2589C14.5474 13.2423 14.7477 13.249 14.945 13.2779L15.0069 13.5386C15.1685 14.219 15.8694 14.6232 16.5393 14.4222L16.7481 14.3596C16.8147 14.4487 16.8768 14.5428 16.9339 14.6417C16.9813 14.7238 17.0242 14.8073 17.0625 14.8918L16.8557 15.0938C16.3674 15.5708 16.3674 16.3563 16.8557 16.8334L17.1072 17.079C17.0328 17.2591 16.9387 17.4309 16.8257 17.5908L16.5393 17.5049C15.8694 17.304 15.1685 17.7081 15.0069 18.3885L14.9404 18.6685C14.7409 18.6851 14.5407 18.6784 14.3435 18.6496L14.2815 18.3885C14.1199 17.7081 13.419 17.304 12.7491 17.5049L12.5399 17.5676C12.4734 17.4786 12.4113 17.3845 12.3543 17.2857C12.3068 17.2036 12.264 17.1201 12.2257 17.0355L12.4326 16.8334ZM14.3401 15.4372C14.6309 15.2693 15.0027 15.3689 15.1706 15.6597C15.3385 15.9505 15.2389 16.3223 14.9481 16.4902C14.6573 16.6581 14.2855 16.5585 14.1176 16.2677C13.9497 15.9769 14.0493 15.6051 14.3401 15.4372Z" fill="black"/>
<path fill-rule="evenodd" clip-rule="evenodd" d="M7.1617 9.25649C8.08772 9.01994 8.63757 8.06757 8.37942 7.14734L8.24648 6.67344C8.46275 6.50721 8.69714 6.36481 8.94605 6.25L9.23319 6.55468C9.9047 7.2672 11.0374 7.2678 11.7096 6.55598L11.986 6.26337C12.2395 6.38297 12.4776 6.5313 12.6966 6.70433L12.5892 7.06377C12.3088 8.00187 12.8757 8.98251 13.8285 9.20779L14.1256 9.27803C14.1439 9.43272 14.1534 9.59027 14.1534 9.7501C14.1534 9.88288 14.1469 10.0141 14.1341 10.1434L13.7421 10.2435C12.8161 10.4801 12.2663 11.4324 12.5244 12.3527L12.6573 12.8265C12.4411 12.9927 12.2067 13.1352 11.9578 13.25L11.6706 12.9453C10.9991 12.2328 9.86645 12.2322 9.19419 12.944L8.91757 13.2369C8.66415 13.1173 8.42605 12.9691 8.20715 12.7961L8.31469 12.4362C8.595 11.4981 8.02814 10.5175 7.07533 10.2922L6.7778 10.2219C6.75945 10.0673 6.75 9.90983 6.75 9.7501C6.75 9.61729 6.75653 9.48606 6.76928 9.35673L7.1617 9.25649ZM10.4517 8.89894C10.9218 8.89894 11.3029 9.28002 11.3029 9.7501C11.3029 10.2202 10.9218 10.6013 10.4517 10.6013C9.98162 10.6013 9.60055 10.2202 9.60055 9.7501C9.60055 9.28002 9.98162 8.89894 10.4517 8.89894Z" fill="url(#paint2_linear_329_552)"/>
<path fill-rule="evenodd" clip-rule="evenodd" d="M12.1826 16.5834C12.671 16.1063 12.671 15.3208 12.1826 14.8438L11.9312 14.5981C12.0056 14.418 12.0997 14.2462 12.2127 14.0863L12.4991 14.1722C13.169 14.3732 13.8699 13.969 14.0315 13.2886L14.0979 13.0089C14.2974 12.9923 14.4977 12.999 14.695 13.0279L14.7569 13.2886C14.9185 13.969 15.6194 14.3732 16.2893 14.1722L16.4981 14.1096C16.5647 14.1987 16.6268 14.2928 16.6839 14.3917C16.7313 14.4738 16.7742 14.5573 16.8125 14.6418L16.6057 14.8438C16.1174 15.3208 16.1174 16.1063 16.6057 16.5834L16.8572 16.829C16.7828 17.0091 16.6887 17.1809 16.5757 17.3408L16.2893 17.2549C15.6194 17.054 14.9185 17.4581 14.7569 18.1385L14.6904 18.4185C14.4909 18.4351 14.2907 18.4284 14.0935 18.3996L14.0315 18.1385C13.8699 17.4581 13.169 17.054 12.4991 17.2549L12.2899 17.3176C12.2234 17.2286 12.1613 17.1345 12.1043 17.0357C12.0568 16.9536 12.014 16.8701 11.9757 16.7855L12.1826 16.5834ZM14.0901 15.1872C14.3809 15.0193 14.7527 15.1189 14.9206 15.4097C15.0885 15.7005 14.9889 16.0723 14.6981 16.2402C14.4073 16.4081 14.0355 16.3085 13.8676 16.0177C13.6997 15.7269 13.7993 15.3551 14.0901 15.1872Z" fill="url(#paint3_linear_329_552)"/>
</g>
<defs>
<linearGradient id="paint0_linear_329_552" x1="20" y1="2" x2="4" y2="22" gradientUnits="userSpaceOnUse">
<stop offset="0.2" stop-color="#455373"/>
<stop offset="0.9" stop-color="#202A40"/>
</linearGradient>
<linearGradient id="paint1_linear_329_552" x1="12" y1="2.75" x2="12" y2="21.2459" gradientUnits="userSpaceOnUse">
<stop stop-color="#5C6F99"/>
<stop offset="1" stop-color="#405480"/>
</linearGradient>
<linearGradient id="paint2_linear_329_552" x1="6.74983" y1="6.38462" x2="13.4502" y2="13.7542" gradientUnits="userSpaceOnUse">
<stop stop-color="#9BA7B3"/>
<stop offset="1" stop-color="#55616E"/>
</linearGradient>
<linearGradient id="paint3_linear_329_552" x1="10.9022" y1="14.9539" x2="17.679" y2="17.1197" gradientUnits="userSpaceOnUse">
<stop stop-color="#9BA7B3"/>
<stop offset="1" stop-color="#55616E"/>
</linearGradient>
<clipPath id="clip0_329_552">
<rect width="24" height="24" fill="white"/>
</clipPath>
</defs>
</svg>
