<svg width="24" height="24" viewBox="0 0 24 24" fill="none" xmlns="http://www.w3.org/2000/svg">
<g clip-path="url(#clip0_412_602)">
<path d="M4 5C4 3.34315 5.34315 2 7 2H13.2574C14.053 2 14.8161 2.31607 15.3787 2.87868L19.1213 6.62132C19.6839 7.18393 20 7.94699 20 8.74264V19C20 20.6569 18.6569 22 17 22H7C5.34315 22 4 20.6569 4 19V5Z" fill="url(#paint0_linear_412_602)"/>
<path d="M9.9552 9.17657L15.853 14.5127L10.5169 17.8828" stroke="#C1C1C1" stroke-width="0.842541"/>
<rect x="6.16614" y="5.38745" width="7" height="7" rx="3.5" fill="url(#paint1_radial_412_602)" stroke="#FF9500" stroke-width="0.9"/>
<rect x="13.1602" y="12.1008" width="5" height="5" rx="2.5" fill="url(#paint2_radial_412_602)" stroke="#FF9500" stroke-width="0.6"/>
<rect x="8.9032" y="15.9883" width="3.5" height="3.5" rx="1.75" fill="url(#paint3_radial_412_602)" stroke="#FF9500" stroke-width="0.5"/>
<path d="M4.75 4.75C4.75 3.64543 5.64543 2.75 6.75 2.75H13.4216C13.952 2.75 14.4607 2.96071 14.8358 3.33579L18.6642 7.16421C19.0393 7.53929 19.25 8.04799 19.25 8.57843V19.2459C19.25 20.3505 18.3546 21.2459 17.25 21.2459H6.75C5.64543 21.2459 4.75 20.3505 4.75 19.2459V4.75Z" stroke="url(#paint4_linear_412_602)" stroke-width="1.5"/>
</g>
<defs>
<linearGradient id="paint0_linear_412_602" x1="20" y1="2" x2="4" y2="22" gradientUnits="userSpaceOnUse">
<stop offset="0.2" stop-color="#566A73"/>
<stop offset="0.9" stop-color="#262D33"/>
</linearGradient>
<radialGradient id="paint1_radial_412_602" cx="0" cy="0" r="1" gradientUnits="userSpaceOnUse" gradientTransform="translate(9.02977 7.61472) rotate(82.4054) scale(4.81496)">
<stop stop-color="#C2DBE8"/>
<stop offset="0.228043" stop-color="#4A94BC"/>
<stop offset="0.410125" stop-color="#144864"/>
</radialGradient>
<radialGradient id="paint2_radial_412_602" cx="0" cy="0" r="1" gradientUnits="userSpaceOnUse" gradientTransform="translate(15.2056 13.6917) rotate(82.4054) scale(3.43926)">
<stop stop-color="#C2DBE8"/>
<stop offset="0.228043" stop-color="#4A94BC"/>
<stop offset="0.410125" stop-color="#144864"/>
</radialGradient>
<radialGradient id="paint3_radial_412_602" cx="0" cy="0" r="1" gradientUnits="userSpaceOnUse" gradientTransform="translate(10.335 17.1019) rotate(82.4054) scale(2.40748)">
<stop stop-color="#C2DBE8"/>
<stop offset="0.228043" stop-color="#4A94BC"/>
<stop offset="0.410125" stop-color="#144864"/>
</radialGradient>
<linearGradient id="paint4_linear_412_602" x1="12" y1="2.75" x2="12" y2="21.2459" gradientUnits="userSpaceOnUse">
<stop stop-color="#ACB5BC"/>
<stop offset="1" stop-color="#6E7B82"/>
</linearGradient>
<clipPath id="clip0_412_602">
<rect width="24" height="24" fill="white"/>
</clipPath>
</defs>
</svg>
