<svg width="24" height="24" viewBox="0 0 24 24" fill="none" xmlns="http://www.w3.org/2000/svg">
<g clip-path="url(#clip0_386_694)">
<path d="M4 5C4 3.34315 5.34315 2 7 2H13.2574C14.053 2 14.8161 2.31607 15.3787 2.87868L19.1213 6.62132C19.6839 7.18393 20 7.94699 20 8.74264V19C20 20.6569 18.6569 22 17 22H7C5.34315 22 4 20.6569 4 19V5Z" fill="#663399"/>
<path d="M7.85845 16.2595C6.70078 16.2584 5.9865 15.6065 6.00019 14.4068V11.3718C6.00019 10.7637 6.17827 10.3012 6.53442 9.98468C7.17408 9.36845 8.65816 9.33096 9.28467 9.99406C9.67074 10.3345 9.81637 11.0301 9.78177 11.6791H8.45305C8.46315 11.4241 8.44963 11.0378 8.29967 10.8924C8.10483 10.6287 7.59025 10.6597 7.45417 10.9342C7.37054 11.0831 7.32873 11.3035 7.32873 11.5951V14.2298C7.32873 14.7823 7.52068 15.0616 7.90477 15.0678C8.08429 15.0678 8.22073 15.0025 8.31355 14.8722C8.44314 14.7176 8.46333 14.3751 8.45287 14.1275H9.78159C9.87243 15.3904 9.12696 16.2752 7.85827 16.2595H7.85845ZM12.0767 16.2595C10.794 16.2772 10.2201 15.3644 10.2556 14.1275H11.5099C11.4751 14.6667 11.6604 15.1579 12.1045 15.1236C12.3026 15.1236 12.4421 15.0616 12.5226 14.9374C12.6759 14.7105 12.7045 14.0552 12.4855 13.8016C12.3325 13.5574 11.782 13.3418 11.4913 13.1965C11.0762 12.9979 10.7774 12.7622 10.5946 12.4889C10.1824 11.8826 10.2206 10.5517 10.799 10.0124C11.361 9.347 12.8287 9.31636 13.3912 9.99856C13.7382 10.3502 13.8898 11.0421 13.8604 11.6789H12.6524C12.6627 11.4172 12.638 10.9949 12.5363 10.841C12.4652 10.7107 12.3303 10.6454 12.1323 10.6454C11.7792 10.6454 11.6027 10.8565 11.6027 11.2784C11.6065 11.7265 11.7811 11.9103 12.1881 12.0976C12.7151 12.3024 13.3853 12.652 13.6282 13.0752C14.3528 14.3646 13.8557 16.3343 12.0766 16.2591L12.0767 16.2595ZM16.1278 16.2595C14.845 16.2772 14.2711 15.3644 14.3066 14.1275H15.5609C15.5261 14.6667 15.7114 15.1579 16.1555 15.1236C16.3536 15.1236 16.4931 15.0616 16.5737 14.9374C16.7269 14.7105 16.7555 14.0552 16.5366 13.8016C16.3835 13.5574 15.8331 13.3418 15.5424 13.1965C15.1273 12.9979 14.8284 12.7622 14.6457 12.4889C14.2335 11.8826 14.2717 10.5517 14.8501 10.0124C15.412 9.347 16.8797 9.31636 17.4422 9.99856C17.7892 10.3502 17.9408 11.0421 17.9114 11.6789H16.7035C16.7137 11.4172 16.689 10.9949 16.5874 10.841C16.5162 10.7107 16.3814 10.6454 16.1833 10.6454C15.8302 10.6454 15.6537 10.8565 15.6537 11.2784C15.6575 11.7265 15.8322 11.9103 16.2392 12.0976C16.7662 12.3024 17.4363 12.652 17.6793 13.0752C18.4038 14.3646 17.9067 16.3343 16.1276 16.2591L16.1278 16.2595Z" fill="white"/>
<path d="M4.75 4.75C4.75 3.64543 5.64543 2.75 6.75 2.75H13.4216C13.952 2.75 14.4607 2.96071 14.8358 3.33579L18.6642 7.16421C19.0393 7.53929 19.25 8.04799 19.25 8.57843V19.2459C19.25 20.3505 18.3546 21.2459 17.25 21.2459H6.75C5.64543 21.2459 4.75 20.3505 4.75 19.2459V4.75Z" stroke="url(#paint0_linear_386_694)" stroke-width="1.5"/>
</g>
<defs>
<linearGradient id="paint0_linear_386_694" x1="12" y1="2.75" x2="12" y2="21.2459" gradientUnits="userSpaceOnUse">
<stop stop-color="#A666E6"/>
<stop offset="1" stop-color="#861CF1"/>
</linearGradient>
<clipPath id="clip0_386_694">
<rect width="24" height="24" fill="white"/>
</clipPath>
</defs>
</svg>
