<svg width="24" height="24" viewBox="0 0 24 24" fill="none" xmlns="http://www.w3.org/2000/svg">
<g clip-path="url(#clip0_301_951)">
<path d="M4 5C4 3.34315 5.34315 2 7 2H13.2574C14.053 2 14.8161 2.31607 15.3787 2.87868L19.1213 6.62132C19.6839 7.18393 20 7.94699 20 8.74264V19C20 20.6569 18.6569 22 17 22H7C5.34315 22 4 20.6569 4 19V5Z" fill="url(#paint0_linear_301_951)"/>
<path d="M4.75 4.75C4.75 3.64543 5.64543 2.75 6.75 2.75H13.4216C13.952 2.75 14.4607 2.96071 14.8358 3.33579L18.6642 7.16421C19.0393 7.53929 19.25 8.04799 19.25 8.57843V19.2459C19.25 20.3505 18.3546 21.2459 17.25 21.2459H6.75C5.64543 21.2459 4.75 20.3505 4.75 19.2459V4.75Z" stroke="url(#paint1_linear_301_951)" stroke-width="1.5"/>
<rect x="6.5" y="7.5" width="11" height="11" rx="2.2" fill="url(#paint2_linear_301_951)"/>
<path d="M14.118 11.1875H15.3455L15.1854 12.1875H13.9578L13.6981 13.8125H14.9246L14.7654 14.8125H13.5379L13.2684 16.5H12.2547L12.5252 14.8125H10.9129L10.6434 16.5H9.6297L9.90021 14.8125H8.67267L8.83282 13.8125H10.0594L10.3201 12.1875H9.09357L9.25275 11.1875H10.4793L10.7498 9.5H11.7635L11.493 11.1875H13.1043L13.3748 9.5H14.3875L14.118 11.1875ZM11.0731 13.8125H12.6844L12.9451 12.1875H11.3338L11.0731 13.8125Z" fill="white"/>
</g>
<defs>
<linearGradient id="paint0_linear_301_951" x1="20" y1="2" x2="4" y2="22" gradientUnits="userSpaceOnUse">
<stop offset="0.2" stop-color="#F2FBFF"/>
<stop offset="0.9" stop-color="#CFDBE6"/>
</linearGradient>
<linearGradient id="paint1_linear_301_951" x1="12" y1="2.75" x2="12" y2="21.2459" gradientUnits="userSpaceOnUse">
<stop stop-color="#C3CFD9"/>
<stop offset="1" stop-color="#879099"/>
</linearGradient>
<linearGradient id="paint2_linear_301_951" x1="6.5" y1="7.5" x2="19.4071" y2="12.5834" gradientUnits="userSpaceOnUse">
<stop stop-color="#80B2FF"/>
<stop offset="1" stop-color="#005BE6"/>
</linearGradient>
<clipPath id="clip0_301_951">
<rect width="24" height="24" fill="white"/>
</clipPath>
</defs>
</svg>
