<svg width="24" height="24" viewBox="0 0 24 24" fill="none" xmlns="http://www.w3.org/2000/svg">
<g clip-path="url(#clip0_246_905)">
<path d="M4 5C4 3.34315 5.34315 2 7 2H13.2574C14.053 2 14.8161 2.31607 15.3787 2.87868L19.1213 6.62132C19.6839 7.18393 20 7.94699 20 8.74264V19C20 20.6569 18.6569 22 17 22H7C5.34315 22 4 20.6569 4 19V5Z" fill="url(#paint0_linear_246_905)"/>
<path d="M4.75 4.75C4.75 3.64543 5.64543 2.75 6.75 2.75H13.4216C13.952 2.75 14.4607 2.96071 14.8358 3.33579L18.6642 7.16421C19.0393 7.53929 19.25 8.04799 19.25 8.57843V19.2459C19.25 20.3505 18.3546 21.2459 17.25 21.2459H6.75C5.64543 21.2459 4.75 20.3505 4.75 19.2459V4.75Z" stroke="url(#paint1_linear_246_905)" stroke-width="1.5"/>
<path d="M7.50195 13.8682C7.7721 14.0597 8.14746 14.2224 8.58789 14.3545C9.47197 14.6196 10.6785 14.7802 12 14.7803C13.3218 14.7802 14.529 14.6197 15.4131 14.3545C15.8534 14.2224 16.2289 14.0597 16.499 13.8682L16.5 13.8672V16.1504L16.4941 16.2197C16.3732 16.9329 14.4073 17.5 12 17.5C9.59266 17.5 7.6268 16.9329 7.50586 16.2197L7.5 16.1504V13.8662L7.50195 13.8682ZM7.50195 10.5723C7.77209 10.7638 8.14755 10.9265 8.58789 11.0586C9.47196 11.3237 10.6785 11.4843 12 11.4844C13.3218 11.4843 14.529 11.3238 15.4131 11.0586C15.8535 10.9265 16.2289 10.7638 16.499 10.5723L16.5 10.5713V13.1123H16.4756C16.4756 13.1868 16.4232 13.3079 16.209 13.46C16.001 13.6074 15.6837 13.7507 15.2695 13.875C14.4437 14.1227 13.2873 14.2802 12 14.2803C10.713 14.2802 9.5572 14.1226 8.73145 13.875C8.31703 13.7507 7.99905 13.6075 7.79102 13.46C7.57674 13.3079 7.52539 13.1868 7.52539 13.1123H7.5V10.5703L7.50195 10.5723ZM12 8.5C14.4477 8.5 16.4374 9.0864 16.4971 9.81641H16.4756C16.4755 9.89091 16.4232 10.0121 16.209 10.1641C16.001 10.3115 15.6838 10.4548 15.2695 10.5791C14.4437 10.8268 13.2873 10.9843 12 10.9844C10.713 10.9843 9.55719 10.8267 8.73145 10.5791C8.31714 10.4548 7.99906 10.3115 7.79102 10.1641C7.57689 10.0121 7.52547 9.8909 7.52539 9.81641H7.50293C7.56258 9.0864 9.5523 8.5 12 8.5Z" fill="#D8EBFF"/>
</g>
<defs>
<linearGradient id="paint0_linear_246_905" x1="20" y1="2" x2="4" y2="22" gradientUnits="userSpaceOnUse">
<stop offset="0.2" stop-color="#455373"/>
<stop offset="0.9" stop-color="#202A40"/>
</linearGradient>
<linearGradient id="paint1_linear_246_905" x1="12" y1="2.75" x2="12" y2="21.2459" gradientUnits="userSpaceOnUse">
<stop stop-color="#5C6F99"/>
<stop offset="1" stop-color="#405480"/>
</linearGradient>
<clipPath id="clip0_246_905">
<rect width="24" height="24" fill="white"/>
</clipPath>
</defs>
</svg>
