<svg width="24" height="24" viewBox="0 0 24 24" fill="none" xmlns="http://www.w3.org/2000/svg">
<path d="M8.93548 5.69354H12H15.0645H18.129L18.8985 8.13005L19.6679 10.5666L20.7776 14.0806L22 17.9516H17H12H7H2L3.22241 14.0806L4.33212 10.5666L5.10154 8.13005L5.87097 5.69354H8.93548Z" fill="#56656D"/>
<path d="M12 5.69354H8.93548M12 5.69354H15.0645M12 5.69354V14.0806M8.93548 5.69354H5.87097L5.10154 8.13005M8.93548 5.69354L8.16606 10.5666M15.0645 5.69354H18.129L18.8985 8.13005M15.0645 5.69354L16.3888 14.0806M12 17.9516H17M12 17.9516H7M12 17.9516V14.0806M17 17.9516H22L20.7776 14.0806M17 17.9516L16.3888 14.0806M7 17.9516H2L3.22241 14.0806M7 17.9516L7.61121 14.0806M3.22241 14.0806L4.33212 10.5666M3.22241 14.0806H7.61121M20.7776 14.0806L19.6679 10.5666M20.7776 14.0806H16.3888M4.33212 10.5666L5.10154 8.13005M4.33212 10.5666H8.16606M19.6679 10.5666L18.8985 8.13005M19.6679 10.5666H15.8339H12H8.16606M5.10154 8.13005H8.55077H12H15.4492H18.8985M7.61121 14.0806L8.16606 10.5666M7.61121 14.0806H12M16.3888 14.0806H12" stroke="#899398" stroke-width="1.29032" stroke-linecap="round" stroke-linejoin="round"/>
<path d="M12 10.5666H8.16606M12 10.5666H15.8339M12 10.5666V14.0807M12 10.5666C12 9.80245 12 8.24536 12 8.13007M12 8.13007H8.55077L8.16606 10.5666M12 8.13007H15.4492L15.8339 10.5666M8.16606 10.5666L7.61121 14.0807H12M15.8339 10.5666L16.3888 14.0807H12" stroke="#CEB47B" stroke-width="1.29032" stroke-linecap="round" stroke-linejoin="round"/>
</svg>
