<svg width="24" height="24" viewBox="0 0 24 24" fill="none" xmlns="http://www.w3.org/2000/svg">
<g clip-path="url(#clip0_327_389)">
<path d="M4 5C4 3.34315 5.34315 2 7 2H13.2574C14.053 2 14.8161 2.31607 15.3787 2.87868L19.1213 6.62132C19.6839 7.18393 20 7.94699 20 8.74264V19C20 20.6569 18.6569 22 17 22H7C5.34315 22 4 20.6569 4 19V5Z" fill="url(#paint0_linear_327_389)"/>
<path d="M7.14286 9.71429C6.7619 8.95238 6 8 6 8C6 8 8.47619 8.7619 9.61905 9.71429C10.7619 10.6667 10.9524 12.7619 10.9524 12.7619C10.9524 12.7619 8.47619 12.5714 7.90476 11.8095C7.33333 11.0476 7.52381 10.4762 7.14286 9.71429Z" fill="#826646" stroke="#B99E7F" stroke-width="0.5" stroke-linejoin="round"/>
<path d="M16.4762 10.0952C17.0476 9.5238 17.619 9.26984 18 9.14285C18 9.14285 14.7619 8.38095 13.2381 9.14285C11.7143 9.90476 11.5238 12 11.5238 12C11.5238 12 13.619 12.1905 14.7619 11.8095C15.9048 11.4286 15.9048 10.6667 16.4762 10.0952Z" fill="#826646" stroke="#B99E7F" stroke-width="0.5" stroke-linejoin="round"/>
<path d="M15.7143 9.5238C14.7828 9.65431 13.4256 10.3967 12.4762 11.2381M7.90472 9.5238C8.68554 10.2729 9.04763 10.8571 9.61906 11.619" stroke="#604C35" stroke-width="0.25" stroke-linecap="round"/>
<path d="M12.2857 14.6667C11.7853 14.3331 11.4797 13.5613 11.113 12.8629M10.9524 12.5714C11.0076 12.6661 11.0609 12.7638 11.113 12.8629M11.113 12.8629C11.2447 12.5685 11.1998 12.3765 11.5238 12" stroke="#B99E7F" stroke-width="0.5" stroke-linecap="round"/>
<path d="M11.7143 14.2857C13.673 14.2857 15.2737 15.4495 16.0866 16.1814C16.3277 16.3984 16.1696 16.7619 15.8453 16.7619H8.1616C7.87334 16.7619 7.70418 16.4632 7.88178 16.2362C8.45044 15.5092 9.70589 14.2857 11.7143 14.2857Z" fill="url(#paint1_linear_327_389)" stroke="#88ACC0" stroke-width="0.5" stroke-linejoin="round"/>
<path d="M4.75 4.75C4.75 3.64543 5.64543 2.75 6.75 2.75H13.4216C13.952 2.75 14.4607 2.96071 14.8358 3.33579L18.6642 7.16421C19.0393 7.53929 19.25 8.04799 19.25 8.57843V19.2459C19.25 20.3505 18.3546 21.2459 17.25 21.2459H6.75C5.64543 21.2459 4.75 20.3505 4.75 19.2459V4.75Z" stroke="url(#paint2_linear_327_389)" stroke-width="1.5"/>
</g>
<defs>
<linearGradient id="paint0_linear_327_389" x1="20" y1="2" x2="4" y2="22" gradientUnits="userSpaceOnUse">
<stop offset="0.2" stop-color="#4B7084"/>
<stop offset="0.9" stop-color="#192931"/>
</linearGradient>
<linearGradient id="paint1_linear_327_389" x1="12.0952" y1="14.4762" x2="12.0952" y2="16.9524" gradientUnits="userSpaceOnUse">
<stop stop-color="#5585A0"/>
<stop offset="1" stop-color="#234B61"/>
</linearGradient>
<linearGradient id="paint2_linear_327_389" x1="12" y1="2.9375" x2="12" y2="21.0625" gradientUnits="userSpaceOnUse">
<stop stop-color="#6093B0"/>
<stop offset="1" stop-color="#265E7D"/>
</linearGradient>
<clipPath id="clip0_327_389">
<rect width="24" height="24" fill="white"/>
</clipPath>
</defs>
</svg>
