<svg width="24" height="24" viewBox="0 0 24 24" fill="none" xmlns="http://www.w3.org/2000/svg">
<path d="M15.4167 5.6288C18.8712 4.47728 21.75 6.20455 21.75 6.20455C17.1439 10.8106 15.4396 10.8476 12.0711 11.2428L12.8258 14.8409H10.8106L10.2348 11.9621C10.2348 11.9621 7.35606 11.9621 5.62879 9.6591C3.90152 7.35607 2.75 5.05304 2.75 5.05304C2.75 5.05304 6.20455 5.05304 7.93182 6.20455C9.65909 7.35607 10.8106 9.08334 10.8106 9.08334C10.8106 9.08334 11.9621 6.78031 15.4167 5.6288Z" fill="#5D564F" stroke="#867F76" stroke-width="1.15152" stroke-linecap="round" stroke-linejoin="round"/>
<path d="M17.7197 7.35608C15.9924 7.35608 14.8409 7.93184 13.1136 9.08335" stroke="#867F76" stroke-width="0.575758" stroke-linecap="round" stroke-linejoin="round"/>
<path d="M6.20457 7.35608C7.35609 9.08335 8.5076 9.65911 9.65912 10.2349" stroke="#867F76" stroke-width="0.575758" stroke-linecap="round" stroke-linejoin="round"/>
<path d="M12.5378 14.2651C19.4469 14.2651 20.0227 19.447 20.0227 19.447H4.47723C4.47723 19.447 5.62875 14.2651 12.5378 14.2651Z" fill="#6B7479"/>
<path d="M12.5378 15.9924C19.4469 15.9924 20.0227 19.4469 20.0227 19.4469H4.47723C4.47723 19.4469 5.62875 15.9924 12.5378 15.9924Z" fill="#3D4549"/>
</svg>
