<svg width="24" height="24" viewBox="0 0 24 24" fill="none" xmlns="http://www.w3.org/2000/svg">
<g clip-path="url(#clip0_273_411)">
<path d="M4 5C4 3.34315 5.34315 2 7 2H13.2574C14.053 2 14.8161 2.31607 15.3787 2.87868L19.1213 6.62132C19.6839 7.18393 20 7.94699 20 8.74264V19C20 20.6569 18.6569 22 17 22H7C5.34315 22 4 20.6569 4 19V5Z" fill="url(#paint0_linear_273_411)"/>
<path d="M4.75 4.75C4.75 3.64543 5.64543 2.75 6.75 2.75H13.4216C13.952 2.75 14.4607 2.96071 14.8358 3.33579L18.6642 7.16421C19.0393 7.53929 19.25 8.04799 19.25 8.57843V19.2459C19.25 20.3505 18.3546 21.2459 17.25 21.2459H6.75C5.64543 21.2459 4.75 20.3505 4.75 19.2459V4.75Z" stroke="url(#paint1_linear_273_411)" stroke-width="1.5"/>
<path fill-rule="evenodd" clip-rule="evenodd" d="M7.8061 12.311C9.0569 11.9914 9.7996 10.705 9.45091 9.46207L9.27134 8.82195C9.56346 8.59742 9.88007 8.40507 10.2163 8.25L10.6041 8.66154C11.5111 9.62396 13.0411 9.62477 13.9491 8.6633L14.3224 8.26805C14.6648 8.42961 14.9865 8.62996 15.2822 8.86368L15.1371 9.34918C14.7585 10.6163 15.5242 11.9409 16.8112 12.2452L17.2124 12.34C17.2372 12.549 17.25 12.7618 17.25 12.9777C17.25 13.157 17.2412 13.3343 17.224 13.5089L16.6945 13.6442C15.4437 13.9637 14.701 15.2501 15.0497 16.493L15.2292 17.133C14.9371 17.3576 14.6205 17.55 14.2843 17.7051L13.8965 17.2936C12.9894 16.3311 11.4595 16.3303 10.5514 17.2918L10.1778 17.6874C9.8355 17.5259 9.51389 17.3257 9.21821 17.092L9.36347 16.6059C9.7421 15.3388 8.97643 14.0142 7.68943 13.7099L7.28755 13.6149C7.26276 13.4061 7.25 13.1934 7.25 12.9777C7.25 12.7983 7.25882 12.621 7.27605 12.4464L7.8061 12.311ZM12.25 11.828C12.885 11.828 13.3997 12.3427 13.3997 12.9777C13.3997 13.6126 12.885 14.1274 12.25 14.1274C11.6151 14.1274 11.1003 13.6126 11.1003 12.9777C11.1003 12.3427 11.6151 11.828 12.25 11.828Z" fill="black"/>
<path fill-rule="evenodd" clip-rule="evenodd" d="M7.5561 12.061C8.8069 11.7414 9.5496 10.455 9.20091 9.21207L9.02134 8.57195C9.31346 8.34742 9.63007 8.15507 9.96627 8L10.3541 8.41154C11.2611 9.37396 12.7911 9.37477 13.6991 8.4133L14.0724 8.01805C14.4148 8.17961 14.7365 8.37996 15.0322 8.61368L14.8871 9.09918C14.5085 10.3663 15.2742 11.6909 16.5612 11.9952L16.9624 12.09C16.9872 12.299 17 12.5118 17 12.7277C17 12.907 16.9912 13.0843 16.974 13.2589L16.4445 13.3942C15.1937 13.7137 14.451 15.0001 14.7997 16.243L14.9792 16.883C14.6871 17.1076 14.3705 17.3 14.0343 17.4551L13.6465 17.0436C12.7394 16.0811 11.2095 16.0803 10.3014 17.0418L9.9278 17.4374C9.5855 17.2759 9.26389 17.0757 8.96821 16.842L9.11347 16.3559C9.4921 15.0888 8.72643 13.7642 7.43943 13.4599L7.03755 13.3649C7.01276 13.1561 7 12.9434 7 12.7277C7 12.5483 7.00882 12.371 7.02605 12.1964L7.5561 12.061ZM12 11.578C12.635 11.578 13.1497 12.0927 13.1497 12.7277C13.1497 13.3626 12.635 13.8774 12 13.8774C11.3651 13.8774 10.8503 13.3626 10.8503 12.7277C10.8503 12.0927 11.3651 11.578 12 11.578Z" fill="url(#paint2_linear_273_411)"/>
</g>
<defs>
<linearGradient id="paint0_linear_273_411" x1="20" y1="2" x2="4" y2="22" gradientUnits="userSpaceOnUse">
<stop offset="0.2" stop-color="#F2FBFF"/>
<stop offset="0.9" stop-color="#CFDBE6"/>
</linearGradient>
<linearGradient id="paint1_linear_273_411" x1="12" y1="2.75" x2="12" y2="21.2459" gradientUnits="userSpaceOnUse">
<stop stop-color="#C3CFD9"/>
<stop offset="1" stop-color="#879099"/>
</linearGradient>
<linearGradient id="paint2_linear_273_411" x1="6.99977" y1="8.18183" x2="16.0502" y2="18.1362" gradientUnits="userSpaceOnUse">
<stop stop-color="#9BA7B3"/>
<stop offset="1" stop-color="#55616E"/>
</linearGradient>
<clipPath id="clip0_273_411">
<rect width="24" height="24" fill="white"/>
</clipPath>
</defs>
</svg>
