<svg width="24" height="24" viewBox="0 0 24 24" fill="none" xmlns="http://www.w3.org/2000/svg">
<g clip-path="url(#clip0_208_253)">
<path d="M4 5C4 3.34315 5.34315 2 7 2H13.2574C14.053 2 14.8161 2.31607 15.3787 2.87868L19.1213 6.62132C19.6839 7.18393 20 7.94699 20 8.74264V19C20 20.6569 18.6569 22 17 22H7C5.34315 22 4 20.6569 4 19V5Z" fill="url(#paint0_linear_208_253)"/>
<path d="M11.0787 13.5063C11.0787 13.7297 11.0388 13.9393 10.959 14.1353C10.8793 14.3289 10.7608 14.493 10.6036 14.6274C10.4372 14.771 10.2367 14.8826 10.002 14.9624C9.76729 15.0399 9.47676 15.0786 9.13041 15.0786C8.89571 15.0786 8.67468 15.0695 8.46732 15.0513C8.25997 15.0353 8.07768 15.0114 7.92045 14.9795V13.9473H8.0435C8.15287 13.9883 8.2668 14.027 8.38529 14.0635C8.50378 14.0977 8.65531 14.1147 8.83988 14.1147C9.07914 14.1147 9.26257 14.0828 9.39018 14.019C9.52006 13.9552 9.61234 13.8664 9.66703 13.7524C9.71944 13.6408 9.74906 13.5189 9.7559 13.3867C9.76273 13.2523 9.76615 13.0814 9.76615 12.874V10.8472H8.60063V9.91064H11.0787V13.5063ZM15.9702 13.4004C15.9702 13.9017 15.7571 14.3096 15.331 14.624C14.9072 14.9362 14.3307 15.0923 13.6015 15.0923C13.18 15.0923 12.812 15.0558 12.4975 14.9829C12.1853 14.9077 11.8925 14.8132 11.6191 14.6992V13.479H11.7627C12.0338 13.6955 12.3369 13.8618 12.6718 13.978C13.0091 14.0942 13.3326 14.1523 13.6425 14.1523C13.7223 14.1523 13.8271 14.1455 13.957 14.1318C14.0869 14.1182 14.1928 14.0954 14.2749 14.0635C14.3751 14.0225 14.4572 13.9712 14.521 13.9097C14.587 13.8481 14.6201 13.757 14.6201 13.6362C14.6201 13.5246 14.5722 13.4289 14.4765 13.3491C14.3831 13.2671 14.2452 13.2044 14.0629 13.1611C13.8715 13.1156 13.6687 13.0734 13.4546 13.0347C13.2426 12.9937 13.0433 12.9424 12.8564 12.8809C12.428 12.7419 12.1193 12.5539 11.9301 12.3169C11.7433 12.0776 11.6499 11.7814 11.6499 11.4282C11.6499 10.9543 11.8618 10.568 12.2856 10.2695C12.7117 9.96875 13.2586 9.81836 13.9262 9.81836C14.2612 9.81836 14.5916 9.8514 14.9174 9.91748C15.2456 9.98128 15.5293 10.0622 15.7685 10.1602V11.3325H15.6284C15.4233 11.1685 15.1715 11.0317 14.873 10.9224C14.5768 10.8107 14.2737 10.7549 13.9638 10.7549C13.8545 10.7549 13.7451 10.7629 13.6357 10.7788C13.5286 10.7925 13.4249 10.8198 13.3247 10.8608C13.2358 10.895 13.1595 10.9474 13.0957 11.0181C13.0319 11.0864 13 11.165 13 11.2539C13 11.3883 13.0512 11.492 13.1538 11.5649C13.2563 11.6356 13.45 11.7005 13.7348 11.7598C13.9217 11.7985 14.1005 11.8361 14.2714 11.8726C14.4446 11.909 14.6303 11.9591 14.8286 12.0229C15.2182 12.1506 15.5053 12.3249 15.6899 12.5459C15.8768 12.7646 15.9702 13.0495 15.9702 13.4004Z" fill="black"/>
<path d="M4.75 4.75C4.75 3.64543 5.64543 2.75 6.75 2.75H13.4216C13.952 2.75 14.4607 2.96071 14.8358 3.33579L18.6642 7.16421C19.0393 7.53929 19.25 8.04799 19.25 8.57843V19.2459C19.25 20.3505 18.3546 21.2459 17.25 21.2459H6.75C5.64543 21.2459 4.75 20.3505 4.75 19.2459V4.75Z" stroke="url(#paint1_linear_208_253)" stroke-width="1.5"/>
</g>
<defs>
<linearGradient id="paint0_linear_208_253" x1="20" y1="2" x2="4" y2="22" gradientUnits="userSpaceOnUse">
<stop offset="0.2" stop-color="#FFF298"/>
<stop offset="0.9" stop-color="#FFDE00"/>
</linearGradient>
<linearGradient id="paint1_linear_208_253" x1="19.25" y1="2.75" x2="4.39024" y2="20.9522" gradientUnits="userSpaceOnUse">
<stop offset="0.2" stop-color="#E7D242"/>
<stop offset="0.9" stop-color="#B09F2F"/>
</linearGradient>
<clipPath id="clip0_208_253">
<rect width="24" height="24" fill="white"/>
</clipPath>
</defs>
</svg>
