<svg width="24" height="24" viewBox="0 0 24 24" fill="none" xmlns="http://www.w3.org/2000/svg">
<g clip-path="url(#clip0_302_1016)">
<path d="M4 5C4 3.34315 5.34315 2 7 2H13.2574C14.053 2 14.8161 2.31607 15.3787 2.87868L19.1213 6.62132C19.6839 7.18393 20 7.94699 20 8.74264V19C20 20.6569 18.6569 22 17 22H7C5.34315 22 4 20.6569 4 19V5Z" fill="url(#paint0_linear_302_1016)"/>
<path d="M4.75 4.75C4.75 3.64543 5.64543 2.75 6.75 2.75H13.4216C13.952 2.75 14.4607 2.96071 14.8358 3.33579L18.6642 7.16421C19.0393 7.53929 19.25 8.04799 19.25 8.57843V19.2459C19.25 20.3505 18.3546 21.2459 17.25 21.2459H6.75C5.64543 21.2459 4.75 20.3505 4.75 19.2459V4.75Z" stroke="url(#paint1_linear_302_1016)" stroke-width="1.5"/>
<rect x="6.5" y="7.5" width="11" height="11" rx="2.2" fill="url(#paint2_linear_302_1016)"/>
<path d="M10.5156 9.5C10.8082 9.50024 11.0458 9.73756 11.0458 10.0303C11.0458 10.323 10.8082 10.5603 10.5156 10.5605H9.87885C9.70314 10.5606 9.5605 10.7032 9.56049 10.8789V11.9395C9.56046 12.3476 9.405 12.7184 9.15228 13C9.405 13.2816 9.56046 13.6524 9.56049 14.0605V15.1211C9.5605 15.2968 9.70314 15.4394 9.87885 15.4395H10.5156C10.8082 15.4397 11.0458 15.677 11.0458 15.9697C11.0458 16.2624 10.8082 16.4998 10.5156 16.5H9.87885C9.11739 16.5 8.49995 15.8826 8.49994 15.1211V14.0605C8.4999 13.8042 8.31795 13.5903 8.07611 13.541L7.86322 13.5195C7.83026 13.5128 7.79892 13.5018 7.76849 13.4893C7.75766 13.4848 7.7477 13.4788 7.73724 13.4736C7.71961 13.465 7.70195 13.4568 7.68549 13.4463C7.67324 13.4385 7.66186 13.4297 7.65033 13.4209C7.63517 13.4094 7.62021 13.3978 7.60638 13.3848C7.59783 13.3767 7.58998 13.368 7.58197 13.3594C7.5681 13.3444 7.55499 13.329 7.54291 13.3125C7.53542 13.3023 7.52818 13.292 7.52142 13.2812C7.50987 13.2629 7.50042 13.2434 7.49115 13.2236C7.48701 13.2148 7.48211 13.2064 7.47845 13.1973C7.47019 13.1767 7.46362 13.1555 7.45795 13.1338C7.45483 13.1218 7.45145 13.1099 7.44916 13.0977C7.44325 13.066 7.43939 13.0334 7.43939 13C7.43939 12.9835 7.44279 12.9673 7.44427 12.9512C7.44582 12.9344 7.44609 12.9177 7.44916 12.9014C7.45147 12.8891 7.45481 12.8772 7.45795 12.8652C7.46365 12.8435 7.47016 12.8223 7.47845 12.8018C7.48212 12.7927 7.487 12.7842 7.49115 12.7754C7.50044 12.7556 7.50985 12.7361 7.52142 12.7178C7.52819 12.7071 7.53541 12.6967 7.54291 12.6865C7.555 12.6701 7.5681 12.6546 7.58197 12.6396C7.58998 12.631 7.59783 12.6223 7.60638 12.6143C7.6202 12.6012 7.63517 12.5896 7.65033 12.5781C7.66185 12.5694 7.67325 12.5605 7.68549 12.5527C7.70194 12.5423 7.71963 12.534 7.73724 12.5254C7.74769 12.5203 7.75767 12.5142 7.76849 12.5098C7.79882 12.4973 7.83038 12.4872 7.86322 12.4805L8.07611 12.459C8.31795 12.4097 8.4999 12.1958 8.49994 11.9395V10.8789C8.49995 10.1174 9.11739 9.50002 9.87885 9.5H10.5156ZM14.122 9.5C14.8831 9.50047 15.5009 10.1177 15.5009 10.8789V11.9395C15.501 12.1958 15.6829 12.4097 15.9247 12.459L16.1376 12.4805C16.1693 12.487 16.2001 12.4969 16.2294 12.5088C16.2415 12.5137 16.253 12.5206 16.2646 12.5264C16.2822 12.5351 16.2999 12.5441 16.3163 12.5547C16.3257 12.5607 16.3348 12.5676 16.3437 12.5742C16.3606 12.5867 16.3772 12.5999 16.3925 12.6143C16.4025 12.6237 16.4126 12.6334 16.4218 12.6436C16.4328 12.6556 16.4432 12.6686 16.4531 12.6816C16.4622 12.6937 16.4714 12.7059 16.4794 12.7188C16.4907 12.7367 16.4996 12.7561 16.5087 12.7754C16.5129 12.7842 16.5178 12.7927 16.5214 12.8018C16.5297 12.8223 16.5362 12.8436 16.5419 12.8652C16.5451 12.8772 16.5484 12.8891 16.5507 12.9014C16.5538 12.9177 16.555 12.9344 16.5566 12.9512C16.5581 12.9673 16.5615 12.9835 16.5615 13C16.5615 13.0334 16.5566 13.066 16.5507 13.0977C16.5484 13.1099 16.545 13.1219 16.5419 13.1338C16.5363 13.1555 16.5297 13.1767 16.5214 13.1973C16.5178 13.2063 16.5129 13.2149 16.5087 13.2236C16.4997 13.243 16.4907 13.2623 16.4794 13.2803C16.4714 13.2931 16.4622 13.3053 16.4531 13.3174C16.4432 13.3305 16.4328 13.3434 16.4218 13.3555C16.4126 13.3656 16.4025 13.3753 16.3925 13.3848C16.3772 13.3992 16.3606 13.4123 16.3437 13.4248C16.3347 13.4314 16.3257 13.4383 16.3163 13.4443C16.2999 13.4549 16.2822 13.4639 16.2646 13.4727C16.253 13.4784 16.2415 13.4853 16.2294 13.4902C16.2 13.5022 16.1694 13.513 16.1376 13.5195L15.9247 13.541C15.6829 13.5903 15.501 13.8042 15.5009 14.0605V15.1211C15.5009 15.8823 14.8831 16.4995 14.122 16.5H13.4853C13.1926 16.4998 12.955 16.2624 12.955 15.9697C12.955 15.677 13.1926 15.4397 13.4853 15.4395H14.122C14.2973 15.439 14.4404 15.2965 14.4404 15.1211V14.0605C14.4404 13.6525 14.595 13.2816 14.8476 13C14.595 12.7184 14.4404 12.3475 14.4404 11.9395V10.8789C14.4404 10.7035 14.2973 10.561 14.122 10.5605H13.4853C13.1926 10.5603 12.955 10.323 12.955 10.0303C12.955 9.73756 13.1926 9.50024 13.4853 9.5H14.122Z" fill="black"/>
</g>
<defs>
<linearGradient id="paint0_linear_302_1016" x1="20" y1="2" x2="4" y2="22" gradientUnits="userSpaceOnUse">
<stop offset="0.2" stop-color="#F2FBFF"/>
<stop offset="0.9" stop-color="#CFDBE6"/>
</linearGradient>
<linearGradient id="paint1_linear_302_1016" x1="12" y1="2.75" x2="12" y2="21.2459" gradientUnits="userSpaceOnUse">
<stop stop-color="#C3CFD9"/>
<stop offset="1" stop-color="#879099"/>
</linearGradient>
<linearGradient id="paint2_linear_302_1016" x1="17.5" y1="7.5" x2="9.30931" y2="20.298" gradientUnits="userSpaceOnUse">
<stop offset="0.2" stop-color="#FFE135"/>
<stop offset="0.9" stop-color="#E1C300"/>
</linearGradient>
<clipPath id="clip0_302_1016">
<rect width="24" height="24" fill="white"/>
</clipPath>
</defs>
</svg>
