<svg width="24" height="24" viewBox="0 0 24 24" fill="none" xmlns="http://www.w3.org/2000/svg">
<g clip-path="url(#clip0_389_737)">
<path d="M4 5C4 3.34315 5.34315 2 7 2H13.2574C14.053 2 14.8161 2.31607 15.3787 2.87868L19.1213 6.62132C19.6839 7.18393 20 7.94699 20 8.74264V19C20 20.6569 18.6569 22 17 22H7C5.34315 22 4 20.6569 4 19V5Z" fill="url(#paint0_linear_389_737)"/>
<path d="M4.75 4.75C4.75 3.64543 5.64543 2.75 6.75 2.75H13.4216C13.952 2.75 14.4607 2.96071 14.8358 3.33579L18.6642 7.16421C19.0393 7.53929 19.25 8.04799 19.25 8.57843V19.2459C19.25 20.3505 18.3546 21.2459 17.25 21.2459H6.75C5.64543 21.2459 4.75 20.3505 4.75 19.2459V4.75Z" stroke="url(#paint1_linear_389_737)" stroke-width="1.5"/>
<path d="M10.372 9.11884C10.7169 9.119 10.9968 9.39892 10.997 9.74384C10.997 10.0889 10.717 10.3687 10.372 10.3688H9.65326C9.49665 10.369 9.36927 10.4964 9.36908 10.653V11.8366C9.36908 12.2813 9.20518 12.6868 8.93646 12.9997C9.20531 13.3125 9.36901 13.718 9.36908 14.1628V15.3464C9.36908 15.5031 9.49654 15.6303 9.65326 15.6306H10.372C10.7169 15.6307 10.9969 15.9106 10.997 16.2556C10.997 16.6006 10.717 16.8804 10.372 16.8806H9.65326C8.80618 16.8803 8.11908 16.1935 8.11908 15.3464V14.1628C8.11892 13.8659 7.87791 13.6247 7.58099 13.6247C7.49474 13.6246 7.41256 13.6075 7.33783 13.5759C7.26321 13.5443 7.19605 13.4985 7.13959 13.4421C7.02642 13.329 6.956 13.1723 6.95599 12.9997C6.95618 12.6548 7.23611 12.3749 7.58099 12.3747C7.87801 12.3747 8.11908 12.1336 8.11908 11.8366V10.653C8.11927 9.80605 8.8063 9.11905 9.65326 9.11884H10.372ZM14.3466 9.11884C15.1936 9.11905 15.8806 9.80605 15.8808 10.653V11.8366C15.8808 12.1336 16.1219 12.3747 16.4189 12.3747C16.7638 12.3749 17.0437 12.6548 17.0439 12.9997C17.0439 13.1721 16.9742 13.329 16.8613 13.4421C16.8047 13.4986 16.7368 13.5442 16.662 13.5759C16.5874 13.6074 16.505 13.6246 16.4189 13.6247C16.122 13.6247 15.881 13.8659 15.8808 14.1628V15.3464C15.8808 16.1935 15.1937 16.8803 14.3466 16.8806H13.6279C13.2829 16.8804 13.0029 16.6006 13.0029 16.2556C13.003 15.9106 13.2829 15.6307 13.6279 15.6306H14.3466C14.5033 15.6303 14.6308 15.5031 14.6308 15.3464V14.1628C14.6309 13.7184 14.7939 13.3124 15.0624 12.9997C14.7941 12.6869 14.6308 12.281 14.6308 11.8366V10.653C14.6306 10.4964 14.5032 10.3691 14.3466 10.3688H13.6279C13.2829 10.3686 13.0029 10.0889 13.0029 9.74384C13.0031 9.39893 13.283 9.11902 13.6279 9.11884H14.3466Z" fill="black"/>
</g>
<defs>
<linearGradient id="paint0_linear_389_737" x1="20" y1="2" x2="4" y2="22" gradientUnits="userSpaceOnUse">
<stop offset="0.2" stop-color="#FFF298"/>
<stop offset="0.9" stop-color="#FFDE00"/>
</linearGradient>
<linearGradient id="paint1_linear_389_737" x1="12" y1="2" x2="11.6049" y2="21.9922" gradientUnits="userSpaceOnUse">
<stop offset="0.2" stop-color="#E7D242"/>
<stop offset="0.9" stop-color="#B09F2F"/>
</linearGradient>
<clipPath id="clip0_389_737">
<rect width="24" height="24" fill="white"/>
</clipPath>
</defs>
</svg>
