<svg width="24" height="24" viewBox="0 0 24 24" fill="none" xmlns="http://www.w3.org/2000/svg">
<g clip-path="url(#clip0_412_565)">
<path d="M4 5C4 3.34315 5.34315 2 7 2H13.2574C14.053 2 14.8161 2.31607 15.3787 2.87868L19.1213 6.62132C19.6839 7.18393 20 7.94699 20 8.74264V19C20 20.6569 18.6569 22 17 22H7C5.34315 22 4 20.6569 4 19V5Z" fill="url(#paint0_linear_412_565)"/>
<path d="M4.75 4.75C4.75 3.64543 5.64543 2.75 6.75 2.75H13.4216C13.952 2.75 14.4607 2.96071 14.8358 3.33579L18.6642 7.16421C19.0393 7.53929 19.25 8.04799 19.25 8.57843V19.2459C19.25 20.3505 18.3546 21.2459 17.25 21.2459H6.75C5.64543 21.2459 4.75 20.3505 4.75 19.2459V4.75Z" stroke="url(#paint1_linear_412_565)" stroke-width="1.5"/>
<path d="M6.94257 12.3135H7.00409L8.56757 10.3145H11.1115L12.1691 13.7773H12.2082L13.2658 10.3145H14.5441L12.9494 15.042H11.4279L9.85663 10.3848L8.23749 12.4248L9.94257 15.042H8.57635L7.3996 13.1836L6.94257 13.7607V15.042H5.79999V10.3145H6.94257V12.3135ZM16.3928 10.25C16.7511 10.25 17.0628 10.3097 17.3273 10.4297C17.592 10.5497 17.7969 10.7182 17.9416 10.9336C18.0876 11.1474 18.1603 11.3958 18.1603 11.6787C18.1603 11.8588 18.1243 12.0379 18.0519 12.2148C17.9796 12.3917 17.8498 12.5871 17.6623 12.8008C17.4761 13.0146 17.2114 13.2709 16.8683 13.5693L16.3029 14.0908V14.1211H18.218V15.042H14.7189V14.2207L16.4435 12.7109C16.5728 12.594 16.6828 12.4866 16.7736 12.3896C16.8642 12.2914 16.933 12.193 16.9807 12.0947C17.0284 11.9947 17.0529 11.8855 17.0529 11.7686C17.0529 11.638 17.0238 11.5268 16.967 11.4346C16.91 11.3407 16.8317 11.2676 16.7316 11.2168C16.6317 11.1661 16.517 11.1406 16.3879 11.1406C16.2572 11.1406 16.1426 11.1679 16.0441 11.2217C15.9456 11.274 15.8681 11.3502 15.8127 11.4502C15.7588 11.5502 15.7326 11.6723 15.7326 11.8154H14.6496C14.6496 11.4938 14.7217 11.2153 14.8664 10.9814C15.011 10.7476 15.2143 10.5676 15.4758 10.4414C15.7389 10.3137 16.045 10.25 16.3928 10.25Z" fill="black"/>
</g>
<defs>
<linearGradient id="paint0_linear_412_565" x1="20" y1="2" x2="4" y2="22" gradientUnits="userSpaceOnUse">
<stop offset="0.2" stop-color="#AAD4FF"/>
<stop offset="0.9" stop-color="#62A0D6"/>
</linearGradient>
<linearGradient id="paint1_linear_412_565" x1="12" y1="2.75" x2="12" y2="21.2459" gradientUnits="userSpaceOnUse">
<stop stop-color="#58B1FF"/>
<stop offset="1" stop-color="#2292F4"/>
</linearGradient>
<clipPath id="clip0_412_565">
<rect width="24" height="24" fill="white"/>
</clipPath>
</defs>
</svg>
