<svg width="24" height="24" viewBox="0 0 24 24" fill="none" xmlns="http://www.w3.org/2000/svg">
<g clip-path="url(#clip0_212_341)">
<path d="M4 5C4 3.34315 5.34315 2 7 2H13.2574C14.053 2 14.8161 2.31607 15.3787 2.87868L19.1213 6.62132C19.6839 7.18393 20 7.94699 20 8.74264V19C20 20.6569 18.6569 22 17 22H7C5.34315 22 4 20.6569 4 19V5Z" fill="url(#paint0_linear_212_341)"/>
<path d="M4.75 4.75C4.75 3.64543 5.64543 2.75 6.75 2.75H13.4216C13.952 2.75 14.4607 2.96071 14.8358 3.33579L18.6642 7.16421C19.0393 7.53929 19.25 8.04799 19.25 8.57843V19.2459C19.25 20.3505 18.3546 21.2459 17.25 21.2459H6.75C5.64543 21.2459 4.75 20.3505 4.75 19.2459V4.75Z" stroke="url(#paint1_linear_212_341)" stroke-width="1.5"/>
<path d="M15.3662 2.80567L19.1944 6.6338C19.5715 7.01096 19.8279 7.48646 19.9385 8.00001H16C14.8954 8.00001 14 7.10458 14 6.00001L14 2.06155C14.5136 2.17211 14.9891 2.42851 15.3662 2.80567Z" fill="white"/>
<rect x="4" y="9" width="16" height="8" rx="1" fill="#66A3FF"/>
<path d="M6.20838 15.25V10.8864H7.26307V12.7315H7.3206L8.76307 10.8864H10.0053L8.45838 12.8338L10.033 15.25H8.77159L7.68494 13.5348L7.26307 14.0675V15.25H6.20838ZM11.112 10.8864L12.0879 14.0824H12.1241L13.1 10.8864H14.2804L12.8081 15.25H11.4039L9.93164 10.8864H11.112ZM16.1015 15.3097C15.7691 15.3097 15.4743 15.2528 15.2172 15.1392C14.9615 15.0241 14.7598 14.8658 14.6121 14.6641C14.4644 14.4624 14.3891 14.2301 14.3863 13.9673H15.4473C15.4516 14.0625 15.4821 14.147 15.539 14.2209C15.5958 14.2933 15.6732 14.3501 15.7712 14.3913C15.8692 14.4325 15.9807 14.4531 16.1057 14.4531C16.2307 14.4531 16.3408 14.4311 16.436 14.3871C16.5326 14.3416 16.6078 14.2798 16.6618 14.2017C16.7158 14.1222 16.7421 14.0312 16.7407 13.929C16.7421 13.8267 16.713 13.7358 16.6533 13.6562C16.5936 13.5767 16.5091 13.5149 16.3998 13.4709C16.2918 13.4268 16.164 13.4048 16.0162 13.4048H15.5922V12.6548H16.0162C16.1455 12.6548 16.2591 12.6335 16.3571 12.5909C16.4566 12.5483 16.534 12.4886 16.5894 12.4119C16.6448 12.3338 16.6718 12.2443 16.6703 12.1435C16.6718 12.0455 16.6483 11.9595 16.6 11.8857C16.5532 11.8104 16.4871 11.7521 16.4019 11.7109C16.3181 11.6697 16.2208 11.6491 16.11 11.6491C15.9935 11.6491 15.8877 11.6697 15.7925 11.7109C15.6988 11.7521 15.6242 11.8104 15.5688 11.8857C15.5134 11.9609 15.4843 12.0483 15.4814 12.1477H14.4736C14.4765 11.8878 14.5489 11.6591 14.6909 11.4616C14.833 11.2628 15.0262 11.1072 15.2705 10.995C15.5162 10.8828 15.7961 10.8267 16.11 10.8267C16.4225 10.8267 16.6973 10.8814 16.9346 10.9908C17.1718 11.1001 17.3564 11.2493 17.4885 11.4382C17.6206 11.6257 17.6867 11.8381 17.6867 12.0753C17.6881 12.321 17.6078 12.5234 17.4459 12.6825C17.2854 12.8416 17.0787 12.9396 16.8259 12.9766V13.0107C17.164 13.0504 17.4189 13.1598 17.5908 13.3388C17.7641 13.5178 17.85 13.7415 17.8486 14.0099C17.8486 14.2628 17.774 14.4872 17.6249 14.6832C17.4772 14.8778 17.2712 15.0312 17.007 15.1435C16.7442 15.2543 16.4424 15.3097 16.1015 15.3097Z" fill="black"/>
</g>
<defs>
<linearGradient id="paint0_linear_212_341" x1="20" y1="2" x2="4" y2="22" gradientUnits="userSpaceOnUse">
<stop stop-color="#E1E1E1"/>
<stop offset="1" stop-color="#A1A9B0"/>
</linearGradient>
<linearGradient id="paint1_linear_212_341" x1="12" y1="2.75" x2="12" y2="21.2459" gradientUnits="userSpaceOnUse">
<stop stop-color="#EEEEEE"/>
<stop offset="1" stop-color="#E5E5E5"/>
</linearGradient>
<clipPath id="clip0_212_341">
<rect width="24" height="24" fill="white"/>
</clipPath>
</defs>
</svg>
