<svg width="24" height="24" viewBox="0 0 24 24" fill="none" xmlns="http://www.w3.org/2000/svg">
<g clip-path="url(#clip0_412_573)">
<path d="M4 5C4 3.34315 5.34315 2 7 2H13.2574C14.053 2 14.8161 2.31607 15.3787 2.87868L19.1213 6.62132C19.6839 7.18393 20 7.94699 20 8.74264V19C20 20.6569 18.6569 22 17 22H7C5.34315 22 4 20.6569 4 19V5Z" fill="url(#paint0_linear_412_573)"/>
<path d="M4.75 4.75C4.75 3.64543 5.64543 2.75 6.75 2.75H13.4216C13.952 2.75 14.4607 2.96071 14.8358 3.33579L18.6642 7.16421C19.0393 7.53929 19.25 8.04799 19.25 8.57843V19.2459C19.25 20.3505 18.3546 21.2459 17.25 21.2459H6.75C5.64543 21.2459 4.75 20.3505 4.75 19.2459V4.75Z" stroke="url(#paint1_linear_412_573)" stroke-width="1.5"/>
<path d="M16.4766 10.25C16.8151 10.25 17.1132 10.3093 17.3701 10.4277C17.6271 10.5462 17.8276 10.7075 17.9707 10.9121C18.1138 11.1152 18.1845 11.3456 18.1846 11.6025C18.1861 11.8688 18.0993 12.0884 17.9238 12.2607C17.7501 12.4328 17.5265 12.5391 17.2529 12.5791V12.6162C17.6189 12.6593 17.8949 12.7779 18.0811 12.9717C18.2687 13.1655 18.3618 13.4076 18.3604 13.6982C18.3604 13.9721 18.2796 14.2154 18.1182 14.4277C17.9581 14.6386 17.7345 14.8052 17.4482 14.9268C17.1637 15.0467 16.8369 15.1064 16.4678 15.1064C16.1077 15.1064 15.7883 15.045 15.5098 14.9219C15.2328 14.7973 15.0145 14.6257 14.8545 14.4072C14.6945 14.1887 14.6125 13.937 14.6094 13.6523H15.7588C15.7634 13.7554 15.7969 13.8468 15.8584 13.9268C15.92 14.0052 16.0042 14.0667 16.1104 14.1113C16.2165 14.1559 16.3373 14.1787 16.4727 14.1787C16.6079 14.1787 16.7271 14.1551 16.8301 14.1074C16.9347 14.0582 17.0167 13.9909 17.0752 13.9062C17.1335 13.8203 17.1616 13.7218 17.1602 13.6113C17.1617 13.5005 17.1301 13.4016 17.0654 13.3154C17.0008 13.2293 16.9095 13.162 16.791 13.1143C16.6741 13.0666 16.535 13.043 16.375 13.043H15.916V12.2305H16.375C16.515 12.2305 16.6389 12.2073 16.7451 12.1611C16.8525 12.115 16.9362 12.0506 16.9961 11.9678C17.0561 11.8832 17.0855 11.7859 17.084 11.6768C17.0855 11.5706 17.0601 11.4774 17.0078 11.3975C16.957 11.3159 16.8853 11.2526 16.793 11.208C16.7022 11.1634 16.5965 11.1406 16.4766 11.1406C16.3505 11.1407 16.2358 11.1634 16.1328 11.208C16.0313 11.2526 15.9506 11.3159 15.8906 11.3975C15.8307 11.479 15.799 11.574 15.7959 11.6816H14.7041C14.7072 11.4 14.7856 11.1514 14.9395 10.9375C15.0933 10.7222 15.3029 10.5541 15.5674 10.4326C15.8335 10.3111 16.1366 10.25 16.4766 10.25ZM6.89258 12.3135H6.95508L8.51758 10.3145H11.0625L12.1201 13.7773H12.1592L13.2158 10.3145H14.4951L12.8994 15.042H11.3789L9.80762 10.3838L8.1875 12.4248L9.89355 15.042H8.52734L7.34961 13.1836L6.89258 13.7607V15.042H5.75V10.3145H6.89258V12.3135Z" fill="black"/>
</g>
<defs>
<linearGradient id="paint0_linear_412_573" x1="20" y1="2" x2="4" y2="22" gradientUnits="userSpaceOnUse">
<stop offset="0.2" stop-color="#AAD4FF"/>
<stop offset="0.9" stop-color="#62A0D6"/>
</linearGradient>
<linearGradient id="paint1_linear_412_573" x1="12" y1="2.75" x2="12" y2="21.2459" gradientUnits="userSpaceOnUse">
<stop stop-color="#58B1FF"/>
<stop offset="1" stop-color="#2292F4"/>
</linearGradient>
<clipPath id="clip0_412_573">
<rect width="24" height="24" fill="white"/>
</clipPath>
</defs>
</svg>
