<svg width="24" height="24" viewBox="0 0 24 24" fill="none" xmlns="http://www.w3.org/2000/svg">
<g clip-path="url(#clip0_218_467)">
<path d="M4 5C4 3.34315 5.34315 2 7 2H13.2574C14.053 2 14.8161 2.31607 15.3787 2.87868L19.1213 6.62132C19.6839 7.18393 20 7.94699 20 8.74264V19C20 20.6569 18.6569 22 17 22H7C5.34315 22 4 20.6569 4 19V5Z" fill="url(#paint0_linear_218_467)"/>
<rect x="11.0127" y="13.4095" width="2.42544" height="7.91034" rx="0.692983" transform="rotate(-45 11.0127 13.4095)" fill="#1F6C95" stroke="black" stroke-width="0.5"/>
<path d="M10.1804 7.62657C10.4034 7.40368 10.6882 7.24923 11.0008 7.2081C12.1373 7.05876 13.1164 7.1672 14.1627 7.57754C14.4595 7.69395 14.4129 8.0862 14.1006 8.1493C13.3158 8.30688 12.5107 8.48136 12.1153 8.87643L10.8903 10.1014L11.8702 11.0813C12.1408 11.3519 12.1408 11.7912 11.8702 12.0619L11.3799 12.5521C11.1092 12.8225 10.6706 12.822 10.4 12.5515L9.54308 11.6945L9.03553 12.202C9.1918 12.4676 9.15836 12.8137 8.93057 13.0417L8.07293 13.8994C7.8023 14.17 7.363 14.17 7.09237 13.8994L6.1125 12.9195C5.84188 12.6489 5.84188 12.2096 6.1125 11.939L6.97015 11.0813C7.14962 10.9021 7.40251 10.8446 7.63168 10.9032C7.51264 10.5934 7.57803 10.229 7.82779 9.97922L10.1804 7.62657Z" fill="#309FDD"/>
<path d="M10.1804 7.62657L10.0037 7.44976L10.0037 7.44979L10.1804 7.62657ZM11.0008 7.2081L10.9682 6.96024L10.9682 6.96024L11.0008 7.2081ZM14.1627 7.57754L14.254 7.3448L14.254 7.3448L14.1627 7.57754ZM14.1006 8.1493L14.1498 8.39441L14.1501 8.39435L14.1006 8.1493ZM12.1153 8.87643L11.9386 8.6996L11.9385 8.69966L12.1153 8.87643ZM10.8903 10.1014L10.7135 9.92466L10.5368 10.1014L10.7135 10.2782L10.8903 10.1014ZM11.3799 12.5521L11.5566 12.729L11.5567 12.7289L11.3799 12.5521ZM9.54308 11.6945L9.71985 11.5177L9.54308 11.3409L9.3663 11.5177L9.54308 11.6945ZM9.03553 12.202L8.85876 12.0253L8.72193 12.1621L8.82008 12.3289L9.03553 12.202ZM8.93057 13.0417L9.10735 13.2185L9.10746 13.2184L8.93057 13.0417ZM6.97015 11.0813L6.79348 10.9044L6.79337 10.9045L6.97015 11.0813ZM7.63168 10.9032L7.56978 11.1454L8.03865 11.2652L7.86504 10.8135L7.63168 10.9032ZM10.1804 7.62657L10.3572 7.80337C10.5464 7.6142 10.7822 7.48901 11.0334 7.45597L11.0008 7.2081L10.9682 6.96024C10.5942 7.00944 10.2604 7.19315 10.0037 7.44976L10.1804 7.62657ZM11.0008 7.2081L11.0334 7.45597C12.1303 7.31183 13.0666 7.4162 14.0715 7.81028L14.1627 7.57754L14.254 7.3448C13.1662 6.91821 12.1443 6.80568 10.9682 6.96024L11.0008 7.2081ZM14.1627 7.57754L14.0715 7.81028C14.0975 7.82049 14.1055 7.83186 14.1078 7.83576C14.1109 7.84086 14.1126 7.84736 14.1117 7.85538C14.1107 7.86352 14.1071 7.8725 14.0998 7.88049C14.0933 7.88754 14.0796 7.89849 14.0511 7.90425L14.1006 8.1493L14.1501 8.39435C14.412 8.34144 14.5827 8.14047 14.6085 7.91145C14.6347 7.67923 14.5085 7.44461 14.254 7.3448L14.1627 7.57754ZM14.1006 8.1493L14.0514 7.90419C13.6604 7.9827 13.2494 8.06818 12.885 8.18592C12.5248 8.30232 12.1788 8.45959 11.9386 8.6996L12.1153 8.87643L12.292 9.05327C12.4472 8.89821 12.7014 8.7707 13.0388 8.6617C13.372 8.55403 13.756 8.47348 14.1498 8.39441L14.1006 8.1493ZM12.1153 8.87643L11.9385 8.69966L10.7135 9.92466L10.8903 10.1014L11.0671 10.2782L12.2921 9.05321L12.1153 8.87643ZM10.8903 10.1014L10.7135 10.2782L11.6934 11.2581L11.8702 11.0813L12.047 10.9045L11.0671 9.92466L10.8903 10.1014ZM11.8702 11.0813L11.6934 11.2581C11.8664 11.4311 11.8664 11.7121 11.6934 11.8851L11.8702 12.0619L12.047 12.2386C12.4152 11.8704 12.4152 11.2728 12.047 10.9045L11.8702 11.0813ZM11.8702 12.0619L11.6934 11.8851L11.2031 12.3754L11.3799 12.5521L11.5567 12.7289L12.047 12.2386L11.8702 12.0619ZM11.3799 12.5521L11.2032 12.3753C11.0304 12.5479 10.7499 12.5478 10.5768 12.3747L10.4 12.5515L10.2233 12.7282C10.5912 13.0962 11.1881 13.0971 11.5566 12.729L11.3799 12.5521ZM10.4 12.5515L10.5768 12.3747L9.71985 11.5177L9.54308 11.6945L9.3663 11.8713L10.2233 12.7282L10.4 12.5515ZM9.54308 11.6945L9.3663 11.5177L8.85876 12.0253L9.03553 12.202L9.21231 12.3788L9.71985 11.8713L9.54308 11.6945ZM9.03553 12.202L8.82008 12.3289C8.92079 12.5 8.89798 12.7206 8.75368 12.8651L8.93057 13.0417L9.10746 13.2184C9.41873 12.9067 9.46282 12.4351 9.25099 12.0752L9.03553 12.202ZM8.93057 13.0417L8.7538 12.865L7.89615 13.7226L8.07293 13.8994L8.24971 14.0762L9.10735 13.2185L8.93057 13.0417ZM8.07293 13.8994L7.89615 13.7226C7.72316 13.8956 7.44214 13.8956 7.26915 13.7226L7.09237 13.8994L6.91559 14.0762C7.28385 14.4444 7.88145 14.4444 8.24971 14.0762L8.07293 13.8994ZM7.09237 13.8994L7.26915 13.7226L6.28928 12.7427L6.1125 12.9195L5.93573 13.0963L6.91559 14.0762L7.09237 13.8994ZM6.1125 12.9195L6.28928 12.7427C6.11628 12.5697 6.11628 12.2887 6.28928 12.1157L6.1125 11.939L5.93573 11.7622C5.56747 12.1304 5.56747 12.728 5.93573 13.0963L6.1125 12.9195ZM6.1125 11.939L6.28928 12.1157L7.14692 11.2581L6.97015 11.0813L6.79337 10.9045L5.93573 11.7622L6.1125 11.939ZM6.97015 11.0813L7.14681 11.2582C7.25982 11.1453 7.42041 11.1072 7.56978 11.1454L7.63168 10.9032L7.69358 10.6609C7.3846 10.582 7.03942 10.6588 6.79348 10.9044L6.97015 11.0813ZM7.63168 10.9032L7.86504 10.8135C7.78014 10.5926 7.82716 10.3334 8.00457 10.156L7.82779 9.97922L7.65101 9.80244C7.3289 10.1245 7.24514 10.5943 7.39832 10.9928L7.63168 10.9032ZM7.82779 9.97922L8.00457 10.156L10.3572 7.80334L10.1804 7.62657L10.0037 7.44979L7.65101 9.80244L7.82779 9.97922Z" fill="black"/>
<path d="M4.75 4.75C4.75 3.64543 5.64543 2.75 6.75 2.75H13.4216C13.952 2.75 14.4607 2.96071 14.8358 3.33579L18.6642 7.16421C19.0393 7.53929 19.25 8.04799 19.25 8.57843V19.2459C19.25 20.3505 18.3546 21.2459 17.25 21.2459H6.75C5.64543 21.2459 4.75 20.3505 4.75 19.2459V4.75Z" stroke="url(#paint1_linear_218_467)" stroke-width="1.5"/>
<path d="M15.3662 2.80567L19.1944 6.6338C19.5715 7.01096 19.8279 7.48646 19.9385 8.00001H16C14.8954 8.00001 14 7.10458 14 6.00001L14 2.06155C14.5136 2.17211 14.9891 2.42851 15.3662 2.80567Z" fill="white"/>
</g>
<defs>
<linearGradient id="paint0_linear_218_467" x1="20" y1="2" x2="4" y2="22" gradientUnits="userSpaceOnUse">
<stop stop-color="#8CCDE7"/>
<stop offset="1" stop-color="#3580A9"/>
</linearGradient>
<linearGradient id="paint1_linear_218_467" x1="12" y1="2.75" x2="12" y2="21.2459" gradientUnits="userSpaceOnUse">
<stop stop-color="#D1EAF5"/>
<stop offset="1" stop-color="#6ABEE1"/>
</linearGradient>
<clipPath id="clip0_218_467">
<rect width="24" height="24" fill="white"/>
</clipPath>
</defs>
</svg>
