<svg width="24" height="24" viewBox="0 0 24 24" fill="none" xmlns="http://www.w3.org/2000/svg">
<g clip-path="url(#clip0_289_478)">
<path d="M4 5C4 3.34315 5.34315 2 7 2H13.2574C14.053 2 14.8161 2.31607 15.3787 2.87868L19.1213 6.62132C19.6839 7.18393 20 7.94699 20 8.74264V19C20 20.6569 18.6569 22 17 22H7C5.34315 22 4 20.6569 4 19V5Z" fill="url(#paint0_linear_289_478)"/>
<rect x="11.0127" y="12.9695" width="2.42544" height="7.91034" rx="0.692983" transform="rotate(-45 11.0127 12.9695)" fill="#1F6C95" stroke="black" stroke-width="0.5"/>
<path d="M10.1804 7.18657C10.4034 6.96367 10.6882 6.80922 11.0008 6.7681C12.1373 6.61875 13.1164 6.7272 14.1627 7.13754C14.4595 7.25395 14.4129 7.6462 14.1006 7.7093C13.3158 7.86687 12.5107 8.04136 12.1153 8.43643L10.8903 9.66144L11.8702 10.6413C12.1408 10.9119 12.1408 11.3512 11.8702 11.6219L11.3799 12.1121C11.1092 12.3825 10.6706 12.382 10.4 12.1115L9.54308 11.2545L9.03553 11.762C9.1918 12.0275 9.15836 12.3737 8.93057 12.6017L8.07293 13.4594C7.8023 13.73 7.363 13.73 7.09237 13.4594L6.1125 12.4795C5.84188 12.2089 5.84188 11.7696 6.1125 11.4989L6.97015 10.6413C7.14962 10.4621 7.40251 10.4046 7.63168 10.4631C7.51264 10.1534 7.57803 9.78897 7.82779 9.53921L10.1804 7.18657Z" fill="#309FDD"/>
<path d="M10.1804 7.18657L10.0037 7.00976L10.0037 7.00979L10.1804 7.18657ZM11.0008 6.7681L10.9682 6.52023L10.9682 6.52024L11.0008 6.7681ZM14.1627 7.13754L14.254 6.9048L14.254 6.90479L14.1627 7.13754ZM14.1006 7.7093L14.1498 7.95441L14.1501 7.95435L14.1006 7.7093ZM12.1153 8.43643L11.9386 8.25959L11.9385 8.25966L12.1153 8.43643ZM10.8903 9.66144L10.7135 9.48466L10.5368 9.66144L10.7135 9.83822L10.8903 9.66144ZM11.3799 12.1121L11.5566 12.289L11.5567 12.2889L11.3799 12.1121ZM9.54308 11.2545L9.71985 11.0777L9.54308 10.9009L9.3663 11.0777L9.54308 11.2545ZM9.03553 11.762L8.85876 11.5853L8.72193 11.7221L8.82008 11.8889L9.03553 11.762ZM8.93057 12.6017L9.10735 12.7785L9.10746 12.7784L8.93057 12.6017ZM6.97015 10.6413L6.79348 10.4644L6.79337 10.4645L6.97015 10.6413ZM7.63168 10.4631L7.56978 10.7054L8.03865 10.8252L7.86504 10.3735L7.63168 10.4631ZM10.1804 7.18657L10.3572 7.36337C10.5464 7.1742 10.7822 7.04901 11.0334 7.01597L11.0008 6.7681L10.9682 6.52024C10.5942 6.56944 10.2604 6.75315 10.0037 7.00976L10.1804 7.18657ZM11.0008 6.7681L11.0334 7.01597C12.1303 6.87183 13.0666 6.9762 14.0715 7.37028L14.1627 7.13754L14.254 6.90479C13.1662 6.47821 12.1443 6.36568 10.9682 6.52023L11.0008 6.7681ZM14.1627 7.13754L14.0715 7.37028C14.0975 7.38049 14.1055 7.39186 14.1078 7.39575C14.1109 7.40085 14.1126 7.40736 14.1117 7.41537C14.1107 7.42352 14.1071 7.4325 14.0998 7.44048C14.0933 7.44754 14.0796 7.45849 14.0511 7.46425L14.1006 7.7093L14.1501 7.95435C14.412 7.90144 14.5827 7.70047 14.6085 7.47145C14.6347 7.23923 14.5085 7.00461 14.254 6.9048L14.1627 7.13754ZM14.1006 7.7093L14.0514 7.46419C13.6604 7.54269 13.2494 7.62818 12.885 7.74591C12.5248 7.86232 12.1788 8.01958 11.9386 8.25959L12.1153 8.43643L12.292 8.61327C12.4472 8.45821 12.7014 8.3307 13.0388 8.22169C13.372 8.11402 13.756 8.03348 14.1498 7.95441L14.1006 7.7093ZM12.1153 8.43643L11.9385 8.25966L10.7135 9.48466L10.8903 9.66144L11.0671 9.83822L12.2921 8.61321L12.1153 8.43643ZM10.8903 9.66144L10.7135 9.83822L11.6934 10.8181L11.8702 10.6413L12.047 10.4645L11.0671 9.48466L10.8903 9.66144ZM11.8702 10.6413L11.6934 10.8181C11.8664 10.9911 11.8664 11.2721 11.6934 11.4451L11.8702 11.6219L12.047 11.7986C12.4152 11.4304 12.4152 10.8328 12.047 10.4645L11.8702 10.6413ZM11.8702 11.6219L11.6934 11.4451L11.2031 11.9354L11.3799 12.1121L11.5567 12.2889L12.047 11.7986L11.8702 11.6219ZM11.3799 12.1121L11.2032 11.9353C11.0304 12.1079 10.7499 12.1078 10.5768 11.9347L10.4 12.1115L10.2233 12.2882C10.5912 12.6562 11.1881 12.6571 11.5566 12.289L11.3799 12.1121ZM10.4 12.1115L10.5768 11.9347L9.71985 11.0777L9.54308 11.2545L9.3663 11.4313L10.2233 12.2882L10.4 12.1115ZM9.54308 11.2545L9.3663 11.0777L8.85876 11.5853L9.03553 11.762L9.21231 11.9388L9.71985 11.4313L9.54308 11.2545ZM9.03553 11.762L8.82008 11.8889C8.92079 12.06 8.89798 12.2806 8.75368 12.4251L8.93057 12.6017L9.10746 12.7784C9.41873 12.4667 9.46282 11.9951 9.25099 11.6352L9.03553 11.762ZM8.93057 12.6017L8.7538 12.425L7.89615 13.2826L8.07293 13.4594L8.24971 13.6362L9.10735 12.7785L8.93057 12.6017ZM8.07293 13.4594L7.89615 13.2826C7.72316 13.4556 7.44214 13.4556 7.26915 13.2826L7.09237 13.4594L6.91559 13.6362C7.28385 14.0044 7.88145 14.0044 8.24971 13.6362L8.07293 13.4594ZM7.09237 13.4594L7.26915 13.2826L6.28928 12.3027L6.1125 12.4795L5.93573 12.6563L6.91559 13.6362L7.09237 13.4594ZM6.1125 12.4795L6.28928 12.3027C6.11628 12.1297 6.11628 11.8487 6.28928 11.6757L6.1125 11.4989L5.93573 11.3222C5.56747 11.6904 5.56747 12.288 5.93573 12.6563L6.1125 12.4795ZM6.1125 11.4989L6.28928 11.6757L7.14692 10.8181L6.97015 10.6413L6.79337 10.4645L5.93573 11.3222L6.1125 11.4989ZM6.97015 10.6413L7.14681 10.8182C7.25982 10.7053 7.42041 10.6672 7.56978 10.7054L7.63168 10.4631L7.69358 10.2209C7.3846 10.142 7.03942 10.2188 6.79348 10.4644L6.97015 10.6413ZM7.63168 10.4631L7.86504 10.3735C7.78014 10.1526 7.82716 9.8934 8.00457 9.71599L7.82779 9.53921L7.65101 9.36244C7.3289 9.68455 7.24514 10.1543 7.39832 10.5528L7.63168 10.4631ZM7.82779 9.53921L8.00457 9.71599L10.3572 7.36334L10.1804 7.18657L10.0037 7.00979L7.65101 9.36244L7.82779 9.53921Z" fill="black"/>
<path d="M4.75 4.75C4.75 3.64543 5.64543 2.75 6.75 2.75H13.4216C13.952 2.75 14.4607 2.96071 14.8358 3.33579L18.6642 7.16421C19.0393 7.53929 19.25 8.04799 19.25 8.57843V19.2459C19.25 20.3505 18.3546 21.2459 17.25 21.2459H6.75C5.64543 21.2459 4.75 20.3505 4.75 19.2459V4.75Z" stroke="url(#paint1_linear_289_478)" stroke-width="1.5"/>
</g>
<defs>
<linearGradient id="paint0_linear_289_478" x1="20" y1="2" x2="4" y2="22" gradientUnits="userSpaceOnUse">
<stop offset="0.2" stop-color="#8CCDE7"/>
<stop offset="0.9" stop-color="#3580A9"/>
</linearGradient>
<linearGradient id="paint1_linear_289_478" x1="12" y1="2.75" x2="12" y2="21.2459" gradientUnits="userSpaceOnUse">
<stop stop-color="#1AB9FF"/>
<stop offset="1" stop-color="#136080"/>
</linearGradient>
<clipPath id="clip0_289_478">
<rect width="24" height="24" fill="white"/>
</clipPath>
</defs>
</svg>
