<svg width="24" height="24" viewBox="0 0 24 24" fill="none" xmlns="http://www.w3.org/2000/svg">
<g clip-path="url(#clip0_218_453)">
<path d="M4 5C4 3.34315 5.34315 2 7 2H13.2574C14.053 2 14.8161 2.31607 15.3787 2.87868L19.1213 6.62132C19.6839 7.18393 20 7.94699 20 8.74264V19C20 20.6569 18.6569 22 17 22H7C5.34315 22 4 20.6569 4 19V5Z" fill="url(#paint0_linear_218_453)"/>
<path d="M6.5 12.1741V8.83228L9.23418 7.54114L11.9684 6.25L14.7025 7.54114L17.4367 8.83228V12.1741V15.5158L14.7025 16.8829L11.9684 18.25L9.23418 16.8829L6.5 15.5158V12.1741Z" fill="#FFDC98"/>
<path d="M6.5 8.83228V12.1741M6.5 8.83228L9.23418 10.1994M6.5 8.83228L9.23418 7.54114M11.9684 18.25V14.9082M11.9684 18.25L14.7025 16.8829M11.9684 18.25L9.23418 16.8829M17.4367 8.83228V12.1741M17.4367 8.83228L14.7025 10.1994M17.4367 8.83228L14.7025 7.54114M11.9684 11.5665V14.9082M11.9684 11.5665L14.7025 10.1994M11.9684 11.5665L9.23418 10.1994M6.5 12.1741V15.5158L9.23418 16.8829M6.5 12.1741L11.9684 14.9082M11.9684 14.9082L17.4367 12.1741M17.4367 12.1741V15.5158L14.7025 16.8829M14.7025 10.1994V16.8829M14.7025 10.1994L9.23418 7.54114M9.23418 10.1994V16.8829M9.23418 10.1994L14.7025 7.54114M14.7025 7.54114L11.9684 6.25L9.23418 7.54114" stroke="#FF7900" stroke-width="0.5"/>
<path d="M4.75 4.75C4.75 3.64543 5.64543 2.75 6.75 2.75H13.4216C13.952 2.75 14.4607 2.96071 14.8358 3.33579L18.6642 7.16421C19.0393 7.53929 19.25 8.04799 19.25 8.57843V19.2459C19.25 20.3505 18.3546 21.2459 17.25 21.2459H6.75C5.64543 21.2459 4.75 20.3505 4.75 19.2459V4.75Z" stroke="url(#paint1_linear_218_453)" stroke-width="1.5"/>
<path d="M15.3662 2.80567L19.1944 6.6338C19.5715 7.01096 19.8279 7.48646 19.9385 8.00001H16C14.8954 8.00001 14 7.10458 14 6.00001L14 2.06155C14.5136 2.17211 14.9891 2.42851 15.3662 2.80567Z" fill="#6891A4"/>
</g>
<defs>
<linearGradient id="paint0_linear_218_453" x1="20" y1="2" x2="4" y2="22" gradientUnits="userSpaceOnUse">
<stop stop-color="#496676"/>
<stop offset="1" stop-color="#2A3840"/>
</linearGradient>
<linearGradient id="paint1_linear_218_453" x1="12" y1="2.75" x2="12" y2="21.2459" gradientUnits="userSpaceOnUse">
<stop stop-color="#608699"/>
<stop offset="1" stop-color="#3D5462"/>
</linearGradient>
<clipPath id="clip0_218_453">
<rect width="24" height="24" fill="white"/>
</clipPath>
</defs>
</svg>
