<svg width="24" height="24" viewBox="0 0 24 24" fill="none" xmlns="http://www.w3.org/2000/svg">
<g clip-path="url(#clip0_218_453)">
<path d="M4 5C4 3.34315 5.34315 2 7 2H13.2574C14.053 2 14.8161 2.31607 15.3787 2.87868L19.1213 6.62132C19.6839 7.18393 20 7.94699 20 8.74264V19C20 20.6569 18.6569 22 17 22H7C5.34315 22 4 20.6569 4 19V5Z" fill="url(#paint0_linear_218_453)"/>
<path d="M6.5 12.5241V9.18228L9.23418 7.89115L11.9684 6.60001L14.7025 7.89115L17.4367 9.18228V12.5241V15.8658L14.7025 17.2329L11.9684 18.6L9.23418 17.2329L6.5 15.8658V12.5241Z" fill="#FFDC98"/>
<path d="M6.5 9.18228V12.5241M6.5 9.18228L9.23418 10.5494M6.5 9.18228L9.23418 7.89115M11.9684 18.6V15.2582M11.9684 18.6L14.7025 17.2329M11.9684 18.6L9.23418 17.2329M17.4367 9.18228V12.5241M17.4367 9.18228L14.7025 10.5494M17.4367 9.18228L14.7025 7.89115M11.9684 11.9165V15.2582M11.9684 11.9165L14.7025 10.5494M11.9684 11.9165L9.23418 10.5494M6.5 12.5241V15.8658L9.23418 17.2329M6.5 12.5241L11.9684 15.2582M11.9684 15.2582L17.4367 12.5241M17.4367 12.5241V15.8658L14.7025 17.2329M14.7025 10.5494V17.2329M14.7025 10.5494L9.23418 7.89115M9.23418 10.5494V17.2329M9.23418 10.5494L14.7025 7.89115M14.7025 7.89115L11.9684 6.60001L9.23418 7.89115" stroke="#FF7900" stroke-width="0.5"/>
<path d="M4.75 4.75C4.75 3.64543 5.64543 2.75 6.75 2.75H13.4216C13.952 2.75 14.4607 2.96071 14.8358 3.33579L18.6642 7.16421C19.0393 7.53929 19.25 8.04799 19.25 8.57843V19.2459C19.25 20.3505 18.3546 21.2459 17.25 21.2459H6.75C5.64543 21.2459 4.75 20.3505 4.75 19.2459V4.75Z" stroke="url(#paint1_linear_218_453)" stroke-width="1.5"/>
</g>
<defs>
<linearGradient id="paint0_linear_218_453" x1="20" y1="2" x2="4" y2="22" gradientUnits="userSpaceOnUse">
<stop offset="0.2" stop-color="#496676"/>
<stop offset="0.9" stop-color="#2A3840"/>
</linearGradient>
<linearGradient id="paint1_linear_218_453" x1="12" y1="2.75" x2="12" y2="21.2459" gradientUnits="userSpaceOnUse">
<stop stop-color="#608699"/>
<stop offset="1" stop-color="#3D5462"/>
</linearGradient>
<clipPath id="clip0_218_453">
<rect width="24" height="24" fill="white"/>
</clipPath>
</defs>
</svg>
