<svg width="24" height="24" viewBox="0 0 24 24" fill="none" xmlns="http://www.w3.org/2000/svg">
<g clip-path="url(#clip0_291_334)">
<path d="M4 5C4 3.34315 5.34315 2 7 2H13.2574C14.053 2 14.8161 2.31607 15.3787 2.87868L19.1213 6.62132C19.6839 7.18393 20 7.94699 20 8.74264V19C20 20.6569 18.6569 22 17 22H7C5.34315 22 4 20.6569 4 19V5Z" fill="url(#paint0_linear_291_334)"/>
<path fill-rule="evenodd" clip-rule="evenodd" d="M7.30592 6.95801C8.41362 7.76468 9.3694 8.46097 12.1087 8.5625C14.2706 8.64257 15.3834 8.35109 16.3508 7.88086C16.5679 7.76813 16.7811 7.64736 17.0003 7.51953C17.0003 7.51953 16.9989 7.52456 16.9983 7.5332C17.0647 7.49521 17.1331 7.4592 17.2005 7.41992C17.1971 7.47112 16.8876 12.2037 16.6809 13.1338C16.5054 13.9238 15.2908 17.0117 13.2268 17.9512C12.7922 18.184 12.318 18.3242 11.8049 18.3242C8.99992 18.324 7.33793 14.4801 7.13014 13.2334C6.92257 11.987 7.02551 7.00695 7.02565 7L7.10573 7.05762C7.14433 7.08573 7.18363 7.1128 7.22194 7.14062C7.2245 6.99293 7.22571 6.90691 7.22585 6.90039L7.30592 6.95801Z" stroke="white" stroke-opacity="0.5"/>
<path fill-rule="evenodd" clip-rule="evenodd" d="M7.30567 6.958C8.41349 7.76476 9.36936 8.46086 12.1091 8.56233C14.9143 8.66623 15.9533 8.14675 17.2 7.41947C17.2 7.41947 16.8883 12.1987 16.6805 13.1338C16.4727 14.0688 14.8104 18.2247 12.0052 18.2247C9.20001 18.2247 7.53768 14.3805 7.32988 13.1338C7.12209 11.887 7.22599 6.89999 7.22599 6.89999L7.30567 6.958ZM14.187 10.9519C15.1221 10.848 15.8494 12.3026 15.8494 12.3026C15.8494 12.3026 15.0182 11.887 14.2909 11.9909C13.5636 12.0948 12.9403 12.8221 12.9403 12.8221C12.9403 12.8221 13.252 11.0558 14.187 10.9519ZM8.05716 11.887C8.05716 11.887 8.78443 10.6403 9.71949 10.7441C10.6546 10.848 10.9662 12.6143 10.9662 12.6143C10.9662 12.6143 10.1351 11.887 9.6156 11.7831C9.09612 11.6792 8.05716 11.887 8.05716 11.887ZM11.9013 16.6662C9.6156 16.5623 8.68053 13.7571 8.68053 13.7571C8.68053 13.7571 10.5507 14.6922 11.9013 14.6922C13.252 14.6922 14.9143 14.1727 14.9143 14.1727C14.9143 14.1727 14.187 16.7701 11.9013 16.6662Z" fill="#18BDFF"/>
<path fill-rule="evenodd" clip-rule="evenodd" d="M7.10565 7.058C8.21348 7.86477 9.16935 8.56087 11.9091 8.66234C14.7143 8.76623 15.7532 8.24675 17 7.51948C17 7.51948 16.6883 12.2987 16.4805 13.2338C16.2727 14.1688 14.6104 18.3247 11.8052 18.3247C9 18.3247 7.33766 14.4805 7.12987 13.2338C6.92208 11.987 7.02597 7 7.02597 7L7.10565 7.058ZM13.987 11.0519C14.9221 10.9481 15.6494 12.4026 15.6494 12.4026C15.6494 12.4026 14.8182 11.987 14.0909 12.0909C13.3636 12.1948 12.7403 12.9221 12.7403 12.9221C12.7403 12.9221 13.0519 11.1558 13.987 11.0519ZM7.85714 11.987C7.85714 11.987 8.58442 10.7403 9.51948 10.8442C10.4545 10.9481 10.7662 12.7143 10.7662 12.7143C10.7662 12.7143 9.93507 11.987 9.41558 11.8831C8.8961 11.7792 7.85714 11.987 7.85714 11.987ZM11.7013 16.7662C9.41558 16.6623 8.48052 13.8571 8.48052 13.8571C8.48052 13.8571 10.3506 14.7922 11.7013 14.7922C13.0519 14.7922 14.7143 14.2727 14.7143 14.2727C14.7143 14.2727 13.987 16.8701 11.7013 16.7662Z" fill="#189BDC"/>
<path d="M4.75 4.75C4.75 3.64543 5.64543 2.75 6.75 2.75H13.4216C13.952 2.75 14.4607 2.96071 14.8358 3.33579L18.6642 7.16421C19.0393 7.53929 19.25 8.04799 19.25 8.57843V19.2459C19.25 20.3505 18.3546 21.2459 17.25 21.2459H6.75C5.64543 21.2459 4.75 20.3505 4.75 19.2459V4.75Z" stroke="url(#paint1_linear_291_334)" stroke-width="1.5"/>
</g>
<defs>
<linearGradient id="paint0_linear_291_334" x1="20" y1="2" x2="4" y2="22" gradientUnits="userSpaceOnUse">
<stop offset="0.2" stop-color="#ECD6A0"/>
<stop offset="0.9" stop-color="#DFB95B"/>
</linearGradient>
<linearGradient id="paint1_linear_291_334" x1="12" y1="2.75" x2="12" y2="21.2459" gradientUnits="userSpaceOnUse">
<stop stop-color="#D9B55B"/>
<stop offset="1" stop-color="#C89B2A"/>
</linearGradient>
<clipPath id="clip0_291_334">
<rect width="24" height="24" fill="white"/>
</clipPath>
</defs>
</svg>
