<svg width="24" height="24" viewBox="0 0 24 24" fill="none" xmlns="http://www.w3.org/2000/svg">
<g clip-path="url(#clip0_230_236)">
<path d="M4 5C4 3.34315 5.34315 2 7 2H13.2574C14.053 2 14.8161 2.31607 15.3787 2.87868L19.1213 6.62132C19.6839 7.18393 20 7.94699 20 8.74264V19C20 20.6569 18.6569 22 17 22H7C5.34315 22 4 20.6569 4 19V5Z" fill="url(#paint0_linear_230_236)"/>
<path fill-rule="evenodd" clip-rule="evenodd" d="M6.61622 6.63002C7.83483 7.51747 8.88628 8.28318 11.9 8.39479C14.9857 8.50908 16.1286 7.93765 17.5 7.13765C17.5 7.13765 17.1571 12.3948 16.9286 13.4234C16.7 14.4519 14.8714 19.0234 11.7857 19.0234C8.7 19.0234 6.87143 14.7948 6.64286 13.4234C6.41429 12.0519 6.52857 6.56622 6.52857 6.56622L6.61622 6.63002ZM14.1857 11.0234C15.2143 10.9091 16.0143 12.5091 16.0143 12.5091C16.0143 12.5091 15.1 12.0519 14.3 12.1662C13.5 12.2805 12.8143 13.0805 12.8143 13.0805C12.8143 13.0805 13.1571 11.1377 14.1857 11.0234ZM7.44286 12.0519C7.44286 12.0519 8.24286 10.6805 9.27143 10.7948C10.3 10.9091 10.6429 12.8519 10.6429 12.8519C10.6429 12.8519 9.72857 12.0519 9.15714 11.9377C8.58571 11.8234 7.44286 12.0519 7.44286 12.0519ZM11.6714 17.3091C9.15714 17.1948 8.12857 14.1091 8.12857 14.1091C8.12857 14.1091 10.1857 15.1377 11.6714 15.1377C13.1571 15.1377 14.9857 14.5662 14.9857 14.5662C14.9857 14.5662 14.1857 17.4234 11.6714 17.3091Z" fill="#189BDC"/>
<path d="M4.75 4.75C4.75 3.64543 5.64543 2.75 6.75 2.75H13.4216C13.952 2.75 14.4607 2.96071 14.8358 3.33579L18.6642 7.16421C19.0393 7.53929 19.25 8.04799 19.25 8.57843V19.2459C19.25 20.3505 18.3546 21.2459 17.25 21.2459H6.75C5.64543 21.2459 4.75 20.3505 4.75 19.2459V4.75Z" stroke="url(#paint1_linear_230_236)" stroke-width="1.5"/>
<path d="M15.3662 2.80567L19.1944 6.6338C19.5715 7.01096 19.8279 7.48646 19.9385 8.00001H16C14.8954 8.00001 14 7.10458 14 6.00001L14 2.06155C14.5136 2.17211 14.9891 2.42851 15.3662 2.80567Z" fill="#F9F3E3"/>
</g>
<defs>
<linearGradient id="paint0_linear_230_236" x1="20" y1="2" x2="4" y2="22" gradientUnits="userSpaceOnUse">
<stop stop-color="#ECD6A0"/>
<stop offset="1" stop-color="#DFB95B"/>
</linearGradient>
<linearGradient id="paint1_linear_230_236" x1="12" y1="2.75" x2="12" y2="21.2459" gradientUnits="userSpaceOnUse">
<stop stop-color="#F6EBD0"/>
<stop offset="1" stop-color="#E7CB84"/>
</linearGradient>
<clipPath id="clip0_230_236">
<rect width="24" height="24" fill="white"/>
</clipPath>
</defs>
</svg>
