<svg width="24" height="24" viewBox="0 0 24 24" fill="none" xmlns="http://www.w3.org/2000/svg">
<g clip-path="url(#clip0_429_612)">
<path d="M4 5C4 3.34315 5.34315 2 7 2H13.2574C14.053 2 14.8161 2.31607 15.3787 2.87868L19.1213 6.62132C19.6839 7.18393 20 7.94699 20 8.74264V19C20 20.6569 18.6569 22 17 22H7C5.34315 22 4 20.6569 4 19V5Z" fill="url(#paint0_linear_429_612)"/>
<path d="M4.75 4.75C4.75 3.64543 5.64543 2.75 6.75 2.75H13.4216C13.952 2.75 14.4607 2.96071 14.8358 3.33579L18.6642 7.16421C19.0393 7.53929 19.25 8.04799 19.25 8.57843V19.2459C19.25 20.3505 18.3546 21.2459 17.25 21.2459H6.75C5.64543 21.2459 4.75 20.3505 4.75 19.2459V4.75Z" stroke="url(#paint1_linear_429_612)" stroke-width="1.5"/>
<path d="M16.0059 6.9261L6.44892 13.8086C6.25212 13.9758 6.3734 14.2975 6.63158 14.2932L12.0027 13.8598L16.0059 6.9261Z" fill="#FF9698"/>
<path d="M14.313 18.728C14.4383 18.9538 14.7776 18.898 14.824 18.6439L16.0059 6.9261L12.0027 13.8598L14.313 18.728Z" fill="#D6292C"/>
<path d="M16.1063 6.7529L16.139 6.7763C16.1426 6.77951 16.1451 6.78392 16.1484 6.78736C16.1496 6.78862 16.1505 6.7902 16.1517 6.7915C16.159 6.79946 16.1648 6.80821 16.1707 6.81714C16.1807 6.83223 16.188 6.8481 16.1936 6.86533C16.195 6.86976 16.1974 6.87379 16.1985 6.87831C16.204 6.90021 16.2068 6.9228 16.2045 6.94605L15.0229 18.6645L15.0207 18.6801C14.9454 19.0912 14.4262 19.2013 14.1832 18.8923L14.1315 18.814L14.1328 18.8136L11.8808 14.0696L6.64813 14.4923L6.63492 14.4937L6.63456 14.4924C6.18898 14.4996 5.97952 13.9449 6.31899 13.6562L6.33223 13.6469L15.8891 6.76392L15.9405 6.73726C15.9429 6.73643 15.9456 6.73669 15.9481 6.73596C15.954 6.73414 15.9601 6.73306 15.9662 6.7318C15.983 6.72838 15.9997 6.72734 16.0168 6.72827C16.0274 6.72885 16.0379 6.7296 16.0485 6.73192C16.0502 6.7323 16.052 6.73225 16.0537 6.73267C16.0715 6.73709 16.0896 6.74326 16.1063 6.7529Z" stroke="black" stroke-width="0.4" stroke-linecap="round" stroke-linejoin="round"/>
</g>
<defs>
<linearGradient id="paint0_linear_429_612" x1="20" y1="2" x2="4" y2="22" gradientUnits="userSpaceOnUse">
<stop offset="0.2" stop-color="#4B7084"/>
<stop offset="0.9" stop-color="#192931"/>
</linearGradient>
<linearGradient id="paint1_linear_429_612" x1="12" y1="2.9375" x2="12" y2="21.0625" gradientUnits="userSpaceOnUse">
<stop stop-color="#6093B0"/>
<stop offset="1" stop-color="#265E7D"/>
</linearGradient>
<clipPath id="clip0_429_612">
<rect width="24" height="24" fill="white"/>
</clipPath>
</defs>
</svg>
