<svg width="24" height="24" viewBox="0 0 24 24" fill="none" xmlns="http://www.w3.org/2000/svg">
<g clip-path="url(#clip0_360_496)">
<path d="M4 5C4 3.34315 5.34315 2 7 2H13.2574C14.053 2 14.8161 2.31607 15.3787 2.87868L19.1213 6.62132C19.6839 7.18393 20 7.94699 20 8.74264V19C20 20.6569 18.6569 22 17 22H7C5.34315 22 4 20.6569 4 19V5Z" fill="url(#paint0_linear_360_496)"/>
<path d="M12.9543 19.5H12.4543V18.416C12.1735 18.2928 11.9611 18.0443 11.886 17.7412C9.59577 17.6166 7.62364 15.9199 7.0647 13.7451C6.40957 13.706 5.88989 13.165 5.88989 12.5C5.88989 11.835 6.40954 11.293 7.0647 11.2539C7.62397 9.07954 9.59606 7.38233 11.886 7.25781C11.9614 6.95503 12.1736 6.706 12.4543 6.58301V5.5H12.9543V19.5ZM8.3645 12.75C8.27718 13.1799 7.96901 13.5276 7.56372 13.6738C8.08574 15.6082 9.84936 17.1184 11.8899 17.2402C11.969 16.9454 12.179 16.7036 12.4543 16.583V14.916C12.1696 14.7911 11.9553 14.5373 11.8831 14.2285C11.1244 14.1818 10.3552 14.0196 9.76489 13.4453C9.59448 13.2795 9.49493 13.1671 9.34497 13.0557C9.20826 12.9541 9.02636 12.8547 8.72095 12.75H8.3645ZM11.8938 11.2715C11.1964 11.3167 10.5794 11.4599 10.1135 11.9131C9.97052 12.0522 9.82824 12.2079 9.64282 12.3457C9.56961 12.4001 9.48849 12.4499 9.39771 12.5C9.48849 12.5501 9.56961 12.5999 9.64282 12.6543C9.82824 12.7921 9.97052 12.9478 10.1135 13.0869C10.5794 13.5401 11.1965 13.6816 11.8938 13.7266C11.9757 13.4379 12.1833 13.2018 12.4543 13.083V11.916C12.1829 11.797 11.9753 11.5608 11.8938 11.2715ZM7.13989 11.75C6.72582 11.7502 6.38989 12.0859 6.38989 12.5C6.38989 12.9141 6.72582 13.2498 7.13989 13.25C7.55411 13.25 7.88989 12.9142 7.88989 12.5C7.88989 12.0858 7.55411 11.75 7.13989 11.75ZM11.8899 7.75879C9.84955 7.88058 8.08501 9.39111 7.56274 11.3252C7.96862 11.4712 8.27709 11.8196 8.3645 12.25H8.72095C9.02636 12.1453 9.20826 12.0459 9.34497 11.9443C9.49493 11.8329 9.59448 11.7205 9.76489 11.5547C10.3552 10.9804 11.1244 10.8165 11.8831 10.7695C11.9558 10.4614 12.17 10.2076 12.4543 10.083V8.41602C12.1789 8.29521 11.9688 8.05394 11.8899 7.75879Z" fill="#FFAB4D"/>
<path d="M15.9377 10.875L16.1917 11.8906C16.2897 12.2827 16.5301 12.6244 16.8665 12.8486L17.5627 13.3125L17.6838 13.4102C18.0641 13.7144 17.7357 14.3181 17.2737 14.1641C17.1955 14.138 17.1189 14.1062 17.0452 14.0693L16.344 13.7188C15.8166 13.4551 15.3889 13.0274 15.1252 12.5L13.9065 13.7188L15.1614 15.6016C15.3761 15.9237 15.3343 16.3531 15.0608 16.627L13.5002 18.1875V16.9688L14.0256 16.4434C14.184 16.2848 14.184 16.0277 14.0256 15.8691L13.5002 15.3438V8.84375L15.9377 10.875ZM15.969 7.625C16.642 7.6251 17.1877 8.17071 17.1877 8.84375C17.1877 9.51679 16.642 10.0624 15.969 10.0625C15.2959 10.0625 14.7502 9.51685 14.7502 8.84375C14.7502 8.17065 15.2959 7.625 15.969 7.625Z" fill="#7CBAFF"/>
<path d="M4.75 4.75C4.75 3.64543 5.64543 2.75 6.75 2.75H13.4216C13.952 2.75 14.4607 2.96071 14.8358 3.33579L18.6642 7.16421C19.0393 7.53929 19.25 8.04799 19.25 8.57843V19.2459C19.25 20.3505 18.3546 21.2459 17.25 21.2459H6.75C5.64543 21.2459 4.75 20.3505 4.75 19.2459V4.75Z" stroke="url(#paint1_linear_360_496)" stroke-width="1.5"/>
</g>
<defs>
<linearGradient id="paint0_linear_360_496" x1="20" y1="2" x2="4" y2="22" gradientUnits="userSpaceOnUse">
<stop offset="0.2" stop-color="#803C35"/>
<stop offset="0.9" stop-color="#530F06"/>
</linearGradient>
<linearGradient id="paint1_linear_360_496" x1="12" y1="2.75" x2="12" y2="21.2459" gradientUnits="userSpaceOnUse">
<stop stop-color="#BE7C75"/>
<stop offset="1" stop-color="#94392E"/>
</linearGradient>
<clipPath id="clip0_360_496">
<rect width="24" height="24" fill="white"/>
</clipPath>
</defs>
</svg>
