<svg width="24" height="24" viewBox="0 0 24 24" fill="none" xmlns="http://www.w3.org/2000/svg">
<g clip-path="url(#clip0_213_391)">
<path d="M4 5C4 3.34315 5.34315 2 7 2H13.2574C14.053 2 14.8161 2.31607 15.3787 2.87868L19.1213 6.62132C19.6839 7.18393 20 7.94699 20 8.74264V19C20 20.6569 18.6569 22 17 22H7C5.34315 22 4 20.6569 4 19V5Z" fill="url(#paint0_linear_213_391)"/>
<path d="M10.4493 7.89655C10.739 6.73793 11.962 5.96552 12.8631 5C11.8222 7.17957 12.2838 9.34483 13.6355 9.53793C14.9872 9.73103 14.3237 8.57329 14.4079 7.51034C14.4079 7.51034 15.3735 8.18621 15.5666 9.15172C15.7597 10.1172 14.9872 10.6 14.8907 11.2759C14.7941 11.9517 14.6976 13.0138 15.6631 13.1103C16.6286 13.2069 16.7252 11.1793 16.7252 11.1793C16.7252 11.1793 17.8667 13.4 17.401 15.1379C16.9354 16.8759 15.47 19 11.9941 19C8.51828 19 7.07001 16.4897 7.07001 13.5931C7.07001 10.6966 8.80794 8.95862 8.80794 8.95862C8.80794 8.95862 8.32518 12.2414 9.58035 12.1448C10.8355 12.0483 10.1597 9.05517 10.4493 7.89655Z" fill="#2495CF"/>
<path d="M10.1971 7.64655C10.4867 6.48793 11.7097 5.71552 12.6109 4.75C11.5699 6.92957 12.0315 9.09483 13.3833 9.28793C14.735 9.48103 14.0715 8.32329 14.1557 7.26034C14.1557 7.26034 15.1212 7.93621 15.3143 8.90172C15.5074 9.86724 14.735 10.35 14.6384 11.0259C14.5419 11.7017 14.4453 12.7638 15.4109 12.8603C16.3764 12.9569 16.4729 10.9293 16.4729 10.9293C16.4729 10.9293 17.6145 13.15 17.1488 14.8879C16.6831 16.6259 15.2177 18.75 11.7419 18.75C8.26603 18.75 6.81775 16.2397 6.81775 13.3431C6.81775 10.4466 8.55568 8.70862 8.55568 8.70862C8.55568 8.70862 8.07292 11.9914 9.32809 11.8948C10.5833 11.7983 9.9074 8.80517 10.1971 7.64655Z" fill="#2495CF" stroke="#C5E0ED" stroke-width="0.5" stroke-linecap="round" stroke-linejoin="round"/>
<path d="M9.18965 15.5207C9.0931 14.0724 10.6379 12.1414 10.6379 12.1414C10.6379 12.1414 10.213 14.2655 11.2172 14.2655C12.2215 14.2655 11.6034 10.5 11.6034 10.5C11.9698 11.0233 12.3759 11.9483 12.6655 11.9483C12.9552 11.9483 13.1478 11.3711 13.3414 10.7897C13.3414 10.7897 13.1483 12.9138 13.5345 13.4931C13.9207 14.0724 14.5965 15.0379 14.5 15.8103C14.4035 16.5828 12.9551 17.3552 11.8931 17.3552C10.831 17.3552 9.2862 16.969 9.18965 15.5207Z" fill="url(#paint1_linear_213_391)"/>
<path d="M4.75 4.75C4.75 3.64543 5.64543 2.75 6.75 2.75H13.4216C13.952 2.75 14.4607 2.96071 14.8358 3.33579L18.6642 7.16421C19.0393 7.53929 19.25 8.04799 19.25 8.57843V19.2459C19.25 20.3505 18.3546 21.2459 17.25 21.2459H6.75C5.64543 21.2459 4.75 20.3505 4.75 19.2459V4.75Z" stroke="url(#paint2_linear_213_391)" stroke-width="1.5"/>
<path d="M15.3662 2.80567L19.1944 6.6338C19.5715 7.01096 19.8279 7.48646 19.9385 8.00001H16C14.8954 8.00001 14 7.10458 14 6.00001L14 2.06155C14.5136 2.17211 14.9891 2.42851 15.3662 2.80567Z" fill="white"/>
</g>
<defs>
<linearGradient id="paint0_linear_213_391" x1="20" y1="2" x2="4" y2="22" gradientUnits="userSpaceOnUse">
<stop stop-color="#F6EFE7"/>
<stop offset="1" stop-color="#E1C6A4"/>
</linearGradient>
<linearGradient id="paint1_linear_213_391" x1="11.662" y1="10" x2="11.662" y2="16.8552" gradientUnits="userSpaceOnUse">
<stop stop-color="#F6921E" stop-opacity="0"/>
<stop offset="0.668775" stop-color="#F6921E"/>
</linearGradient>
<linearGradient id="paint2_linear_213_391" x1="12" y1="2.75" x2="12" y2="21.2459" gradientUnits="userSpaceOnUse">
<stop stop-color="#FCFBF9"/>
<stop offset="1" stop-color="#F3E9DD"/>
</linearGradient>
<clipPath id="clip0_213_391">
<rect width="24" height="24" fill="white"/>
</clipPath>
</defs>
</svg>
