<svg width="24" height="24" viewBox="0 0 24 24" fill="none" xmlns="http://www.w3.org/2000/svg">
<g clip-path="url(#clip0_228_186)">
<path d="M4 5C4 3.34315 5.34315 2 7 2H13.2574C14.053 2 14.8161 2.31607 15.3787 2.87868L19.1213 6.62132C19.6839 7.18393 20 7.94699 20 8.74264V19C20 20.6569 18.6569 22 17 22H7C5.34315 22 4 20.6569 4 19V5Z" fill="url(#paint0_linear_228_186)"/>
<path d="M11.7029 6.80762C12.0997 6.39642 12.675 5.84705 13.5642 6.04102C14.2523 6.24027 14.5463 6.82411 14.7117 7.27539C14.8767 7.74883 14.937 8.21391 14.9597 8.6748C14.9643 8.78314 14.9654 8.89137 14.9656 8.99902C15.0735 8.99917 15.1822 9.00226 15.2908 9.00684C15.7517 9.02958 16.2177 9.08881 16.6912 9.25391C17.1424 9.41934 17.7263 9.71346 17.9255 10.4014C18.1194 11.2904 17.5691 11.8659 17.158 12.2627C16.8067 12.581 16.4234 12.8282 16.031 13.042C16.0959 13.1528 16.1595 13.2651 16.2195 13.3799C16.4304 13.7906 16.612 14.224 16.7058 14.7168C16.7881 15.1902 16.8258 15.843 16.3298 16.3594C15.6567 16.972 14.882 16.7827 14.3328 16.625C13.8818 16.4799 13.4766 16.2718 13.0955 16.0391C13.032 16.1507 12.9666 16.2618 12.8972 16.3711C12.647 16.7591 12.362 17.1333 11.9822 17.4609C11.6133 17.7689 11.0669 18.1273 10.3718 17.9561C9.5048 17.6795 9.28137 16.9149 9.14331 16.3604C9.0386 15.8751 9.01904 15.3986 9.03394 14.9316C8.56689 14.9466 8.09057 14.927 7.60522 14.8223C7.0507 14.6842 6.28711 14.4608 6.0105 13.5938C5.83914 12.8984 6.19754 12.3523 6.50562 11.9834C6.8332 11.6036 7.20657 11.3186 7.59448 11.0684C7.70346 10.9992 7.81332 10.9325 7.92456 10.8691C7.69211 10.4883 7.48544 10.0825 7.34058 9.63184C7.18289 9.08259 6.99467 8.3097 7.60718 7.63672C8.12373 7.14065 8.77628 7.17836 9.24976 7.26074C9.74232 7.35457 10.1751 7.5353 10.5857 7.74609C10.7001 7.80588 10.8121 7.86891 10.9226 7.93359C11.1364 7.54128 11.3846 7.15886 11.7029 6.80762ZM11.2595 14.6367C10.763 14.7424 10.2606 14.8292 9.74878 14.8828C9.83242 15.8213 10.1479 16.9196 10.6199 17.0293C10.9936 17.1628 11.7289 16.5128 12.1775 15.8779C12.252 15.7767 12.3236 15.6728 12.3943 15.5674C11.9968 15.2755 11.6212 14.9626 11.2595 14.6367ZM15.2722 13.4121C14.8475 13.5987 14.4164 13.7589 13.9812 13.9023C13.9806 13.9045 13.9809 13.907 13.9802 13.9092C13.8315 14.412 13.6504 14.9098 13.4265 15.3936C14.2707 15.7729 15.3292 16.025 15.6511 15.6807C15.9533 15.4235 15.7588 14.4616 15.4333 13.7559C15.3828 13.6405 15.3283 13.5263 15.2722 13.4121ZM12.5886 14.3154C12.35 14.3788 12.1104 14.4397 11.8699 14.498C12.1472 14.693 12.4335 14.8729 12.7263 15.0371C12.8952 14.7481 13.051 14.4479 13.199 14.1426C12.9957 14.2014 12.7924 14.2604 12.5886 14.3154ZM9.75366 13.1631C9.72123 13.5261 9.70725 13.8895 9.7146 14.25C10.0755 14.2574 10.4391 14.2434 10.8025 14.2109C10.6236 14.0404 10.446 13.8683 10.2712 13.6943C10.097 13.5194 9.92451 13.3423 9.75366 13.1631ZM8.39722 11.5703C8.29182 11.641 8.1879 11.7136 8.08667 11.7881C7.45199 12.2366 6.80304 12.972 6.93628 13.3457C7.04583 13.8175 8.14349 14.132 9.08179 14.2158C9.13539 13.704 9.22216 13.2015 9.32788 12.7051C9.00198 12.3434 8.689 11.9678 8.39722 11.5703ZM12.5232 9.92285C12.1669 9.96397 11.81 10.0146 11.4539 10.0781C11.085 10.2116 10.7218 10.3574 10.366 10.5137C10.2442 10.8313 10.1371 11.1555 10.0486 11.4844C9.95311 11.8425 9.87867 12.2063 9.82397 12.5723C10.0546 12.8622 10.3012 13.1407 10.5632 13.4033C10.8253 13.6648 11.1031 13.9105 11.3923 14.1406C11.7589 14.0859 12.1235 14.0126 12.4822 13.917C12.8107 13.8285 13.1337 13.7203 13.4509 13.5986C13.6071 13.2431 13.7541 12.8813 13.8875 12.5127C13.951 12.1561 14.0006 11.7983 14.0417 11.4414C13.8281 11.1536 13.6067 10.8693 13.3738 10.5928C13.0967 10.3594 12.8117 10.137 12.5232 9.92285ZM14.4724 12.0498C14.4138 12.2412 14.3523 12.4314 14.2849 12.6191C14.2434 12.8485 14.1947 13.0771 14.1404 13.3047C14.4279 13.169 14.7085 13.0213 14.9792 12.8604C14.8225 12.5855 14.6514 12.3157 14.4724 12.0498ZM11.9705 10.9697C12.5002 10.9699 12.9294 11.3999 12.9294 11.9297C12.9293 12.4594 12.5002 12.8885 11.9705 12.8887C11.4406 12.8887 11.0106 12.4595 11.0105 11.9297C11.0105 11.3998 11.4406 10.9697 11.9705 10.9697ZM14.9226 9.84766C14.8758 10.3301 14.7931 10.8045 14.6843 11.2695C15.0248 11.6325 15.3463 12.0184 15.6375 12.4316C16.388 11.8902 17.136 11.1004 16.9988 10.6494C16.9273 10.2592 15.9973 9.94704 15.2234 9.87598C15.1238 9.86491 15.0233 9.85528 14.9226 9.84766ZM9.82202 10.7656C9.51675 10.9135 9.21651 11.0694 8.92749 11.2383C9.0917 11.5313 9.27248 11.8172 9.46753 12.0947C9.52579 11.8546 9.58686 11.6151 9.65015 11.377C9.7053 11.1728 9.76311 10.9692 9.82202 10.7656ZM14.1453 9.82129C13.8536 9.82171 13.5597 9.83326 13.2654 9.85352C13.4019 10.0001 13.5349 10.1494 13.6638 10.3018C13.8159 10.4305 13.9648 10.564 14.1111 10.7002C14.1313 10.4062 14.1448 10.1126 14.1453 9.82129ZM10.2097 8.53223C9.50398 8.20674 8.54205 8.01228 8.28491 8.31445C7.9406 8.63634 8.19185 9.69493 8.57104 10.5391C9.05481 10.3151 9.55249 10.1342 10.0554 9.98535C10.0577 9.98469 10.06 9.98308 10.0623 9.98242C10.2056 9.54759 10.3661 9.11672 10.5525 8.69238C10.4387 8.63652 10.3247 8.58259 10.2097 8.53223ZM11.1042 8.98535C10.9433 9.25608 10.7956 9.53668 10.6599 9.82422C10.888 9.76976 11.1176 9.72222 11.3474 9.68066C11.5353 9.61321 11.7253 9.55086 11.9167 9.49219C11.6504 9.31293 11.3796 9.14235 11.1042 8.98535ZM13.3162 6.9668C12.8652 6.82956 12.0744 7.57667 11.533 8.32715C11.9462 8.61824 12.332 8.93976 12.6951 9.28027C13.16 9.17148 13.6346 9.08883 14.1169 9.04199C14.1093 8.94161 14.1006 8.84147 14.0896 8.74219C14.0186 7.96816 13.7065 7.03809 13.3162 6.9668Z" fill="#D26800"/>
<path d="M4.75 4.75C4.75 3.64543 5.64543 2.75 6.75 2.75H13.4216C13.952 2.75 14.4607 2.96071 14.8358 3.33579L18.6642 7.16421C19.0393 7.53929 19.25 8.04799 19.25 8.57843V19.2459C19.25 20.3505 18.3546 21.2459 17.25 21.2459H6.75C5.64543 21.2459 4.75 20.3505 4.75 19.2459V4.75Z" stroke="url(#paint1_linear_228_186)" stroke-width="1.5"/>
<path d="M15.3662 2.80567L19.1944 6.6338C19.5715 7.01096 19.8279 7.48646 19.9385 8.00001H16C14.8954 8.00001 14 7.10458 14 6.00001L14 2.06155C14.5136 2.17211 14.9891 2.42851 15.3662 2.80567Z" fill="#FAFBFC"/>
</g>
<defs>
<linearGradient id="paint0_linear_228_186" x1="20" y1="2" x2="4" y2="22" gradientUnits="userSpaceOnUse">
<stop stop-color="#D7EBF2"/>
<stop offset="1" stop-color="#7AB1C3"/>
</linearGradient>
<linearGradient id="paint1_linear_228_186" x1="12" y1="2.75" x2="12" y2="21.2459" gradientUnits="userSpaceOnUse">
<stop stop-color="#F4F9FA"/>
<stop offset="1" stop-color="#B1DCE8"/>
</linearGradient>
<clipPath id="clip0_228_186">
<rect width="24" height="24" fill="white"/>
</clipPath>
</defs>
</svg>
