<svg width="24" height="24" viewBox="0 0 24 24" fill="none" xmlns="http://www.w3.org/2000/svg">
<g clip-path="url(#clip0_289_407)">
<path d="M4 5C4 3.34315 5.34315 2 7 2H13.2574C14.053 2 14.8161 2.31607 15.3787 2.87868L19.1213 6.62132C19.6839 7.18393 20 7.94699 20 8.74264V19C20 20.6569 18.6569 22 17 22H7C5.34315 22 4 20.6569 4 19V5Z" fill="url(#paint0_linear_289_407)"/>
<path d="M11.7367 7.30665C12.1336 6.89544 12.7098 6.34605 13.599 6.54004C14.2868 6.7394 14.5801 7.32324 14.7455 7.77442C14.9106 8.24788 14.9708 8.71292 14.9936 9.17383C14.9982 9.28244 14.9993 9.3911 14.9994 9.49903C15.1075 9.49917 15.2159 9.50128 15.3246 9.50586C15.7857 9.52859 16.2523 9.58777 16.726 9.75293C17.1772 9.91839 17.7612 10.2127 17.9604 10.9004C18.1543 11.7895 17.603 12.3649 17.1918 12.7617C16.8404 13.0801 16.4573 13.3271 16.0649 13.541C16.1299 13.652 16.1943 13.764 16.2543 13.8789C16.4652 14.2896 16.6469 14.7231 16.7406 15.2158C16.823 15.6893 16.8598 16.342 16.3637 16.8584C15.6906 17.471 14.9169 17.2817 14.3676 17.124C13.9165 16.979 13.5106 16.7719 13.1293 16.5391C13.0659 16.6504 13.0003 16.761 12.9311 16.8701C12.6809 17.258 12.3968 17.6324 12.017 17.96C11.6481 18.268 11.101 18.6265 10.4057 18.4551C9.53882 18.1784 9.31521 17.4139 9.17717 16.8594C9.07248 16.3741 9.05289 15.8977 9.06779 15.4307C8.6009 15.4455 8.12427 15.427 7.63908 15.3223C7.08458 15.1842 6.32092 14.9597 6.04436 14.0928C5.87317 13.3977 6.23147 12.8512 6.53947 12.4824C6.86698 12.1027 7.24053 11.8185 7.62834 11.5684C7.73746 11.4991 7.848 11.4326 7.9594 11.3691C7.7268 10.9881 7.51939 10.5826 7.37443 10.1318C7.21673 9.58258 7.02842 8.80884 7.64104 8.13575C8.15755 7.63957 8.8101 7.6774 9.28361 7.75977C9.77631 7.85358 10.2099 8.03428 10.6205 8.24512C10.735 8.30492 10.847 8.36793 10.9574 8.43262C11.1712 8.04046 11.4186 7.65777 11.7367 7.30665ZM11.2944 15.1357C10.7978 15.2415 10.2954 15.3282 9.78361 15.3818C9.86724 16.3204 10.1827 17.4187 10.6547 17.5283C11.0285 17.6612 11.7639 17.0125 12.2123 16.3779C12.2869 16.2766 12.3584 16.1719 12.4291 16.0664C12.0316 15.7746 11.656 15.4617 11.2944 15.1357ZM15.3071 13.9121C14.8828 14.0985 14.4517 14.2581 14.017 14.4014C14.0163 14.4039 14.0158 14.4067 14.0151 14.4092C13.8663 14.9119 13.6842 15.4089 13.4604 15.8926C14.3046 16.272 15.363 16.5241 15.685 16.1797C15.9874 15.9228 15.7928 14.9608 15.4672 14.2549C15.4168 14.1399 15.3629 14.0259 15.3071 13.9121ZM12.6235 14.8145C12.3849 14.8778 12.1452 14.9387 11.9047 14.9971C12.1818 15.1919 12.4676 15.3721 12.7602 15.5361C12.9291 15.2471 13.0849 14.9469 13.2328 14.6416C13.0298 14.7004 12.8271 14.7594 12.6235 14.8145ZM9.7885 13.6621C9.75606 14.0252 9.74209 14.3885 9.74943 14.749C10.11 14.7564 10.4732 14.7424 10.8363 14.71C10.6576 14.5395 10.4807 14.3673 10.3061 14.1934C10.1318 14.0184 9.95935 13.8413 9.7885 13.6621ZM8.43107 12.0693C8.32578 12.14 8.22263 12.2127 8.1215 12.2871C7.48669 12.7356 6.83781 13.471 6.97111 13.8447C7.08064 14.3164 8.17746 14.631 9.11565 14.7148C9.16929 14.2027 9.25688 13.6999 9.36272 13.2031C9.03684 12.8415 8.72282 12.4668 8.43107 12.0693ZM12.5571 10.4219C12.2008 10.463 11.8438 10.5137 11.4877 10.5772C11.1187 10.7107 10.7558 10.8573 10.3998 11.0137C10.2782 11.3311 10.1709 11.6548 10.0824 11.9834C9.98706 12.3412 9.91252 12.7047 9.85783 13.0703C10.0886 13.3605 10.3349 13.6395 10.5971 13.9023C10.8593 14.1639 11.1378 14.4094 11.4272 14.6397C11.7936 14.5849 12.1585 14.5116 12.517 14.416C12.8451 14.3277 13.1679 14.2201 13.4848 14.0986C13.6411 13.7429 13.7888 13.3806 13.9223 13.0117C13.9859 12.6551 14.0354 12.2973 14.0766 11.9404C13.8629 11.6525 13.6407 11.3684 13.4076 11.0918C13.1305 10.8583 12.8456 10.636 12.5571 10.4219ZM14.5072 12.5488C14.4486 12.7403 14.3862 12.9303 14.3188 13.1182C14.2773 13.3476 14.2285 13.5762 14.1742 13.8037C14.4618 13.6681 14.7423 13.5203 15.0131 13.3594C14.8564 13.0847 14.6861 12.8146 14.5072 12.5488ZM12.0043 11.4688C12.5342 11.4688 12.9643 11.8988 12.9643 12.4287C12.9643 12.9586 12.5342 13.3877 12.0043 13.3877C11.4746 13.3876 11.0454 12.9585 11.0453 12.4287C11.0453 11.8989 11.4745 11.4689 12.0043 11.4688ZM14.9574 10.3467C14.9106 10.8292 14.827 11.3034 14.7182 11.7686C15.059 12.1319 15.3809 12.518 15.6723 12.9316C16.4228 12.3902 17.1699 11.5994 17.0326 11.1484C16.9608 10.7583 16.0311 10.446 15.2572 10.375C15.1579 10.364 15.0579 10.3543 14.9574 10.3467ZM9.85686 11.2647C9.55157 11.4126 9.25136 11.5684 8.96232 11.7373C9.12667 12.0305 9.30712 12.317 9.50236 12.5947C9.56065 12.3545 9.62165 12.1153 9.68498 11.877C9.74019 11.6726 9.79788 11.4684 9.85686 11.2647ZM14.1791 10.3203C13.8875 10.3207 13.5935 10.3323 13.2992 10.3525C13.4359 10.4992 13.5696 10.6483 13.6987 10.8008C13.8508 10.9296 13.9996 11.063 14.1459 11.1992C14.1662 10.9052 14.1787 10.6117 14.1791 10.3203ZM10.2436 9.03126C9.53773 8.70576 8.5757 8.51112 8.31877 8.81348C7.97459 9.13529 8.22688 10.1931 8.60588 11.0371C9.08948 10.8133 9.5875 10.6331 10.0903 10.4844C10.0926 10.4837 10.0947 10.4821 10.0971 10.4815C10.2405 10.0465 10.3998 9.61493 10.5863 9.19043C10.4728 9.13468 10.3584 9.08153 10.2436 9.03126ZM11.1391 9.48438C10.9781 9.75523 10.8295 10.0356 10.6938 10.3232C10.9219 10.2688 11.1513 10.2213 11.3813 10.1797C11.5688 10.1124 11.7585 10.0498 11.9496 9.99122C11.6837 9.81229 11.4139 9.64112 11.1391 9.48438ZM13.35 7.46583C12.899 7.32924 12.1081 8.07592 11.5668 8.82618C11.9805 9.11753 12.3665 9.43942 12.7299 9.78028C13.1949 9.67148 13.6693 9.58784 14.1518 9.54102C14.1442 9.44067 14.1355 9.34046 14.1244 9.24122C14.0534 8.4672 13.7403 7.53709 13.35 7.46583Z" fill="#D26800"/>
<path d="M4.75 4.75C4.75 3.64543 5.64543 2.75 6.75 2.75H13.4216C13.952 2.75 14.4607 2.96071 14.8358 3.33579L18.6642 7.16421C19.0393 7.53929 19.25 8.04799 19.25 8.57843V19.2459C19.25 20.3505 18.3546 21.2459 17.25 21.2459H6.75C5.64543 21.2459 4.75 20.3505 4.75 19.2459V4.75Z" stroke="url(#paint1_linear_289_407)" stroke-width="1.5"/>
</g>
<defs>
<linearGradient id="paint0_linear_289_407" x1="20" y1="2" x2="4" y2="22" gradientUnits="userSpaceOnUse">
<stop offset="0.2" stop-color="#D7EBF2"/>
<stop offset="0.9" stop-color="#7AB1C3"/>
</linearGradient>
<linearGradient id="paint1_linear_289_407" x1="12" y1="2.75" x2="12" y2="21.2459" gradientUnits="userSpaceOnUse">
<stop stop-color="#52C0D6"/>
<stop offset="1" stop-color="#5C9FB1"/>
</linearGradient>
<clipPath id="clip0_289_407">
<rect width="24" height="24" fill="white"/>
</clipPath>
</defs>
</svg>
