<svg width="24" height="24" viewBox="0 0 24 24" fill="none" xmlns="http://www.w3.org/2000/svg">
<g clip-path="url(#clip0_273_382)">
<path d="M4 5C4 3.34315 5.34315 2 7 2H13.2574C14.053 2 14.8161 2.31607 15.3787 2.87868L19.1213 6.62132C19.6839 7.18393 20 7.94699 20 8.74264V19C20 20.6569 18.6569 22 17 22H7C5.34315 22 4 20.6569 4 19V5Z" fill="url(#paint0_linear_273_382)"/>
<path d="M16.0762 6.52323C16.345 6.44997 16.61 6.55846 16.7607 6.76151C16.7656 6.76598 16.7717 6.76953 16.7764 6.77421C16.8644 6.86233 16.915 6.98168 16.915 7.10624C16.9151 7.24357 16.915 7.38102 16.915 7.51835C16.9161 9.99091 16.9169 12.4638 16.918 14.9363C16.918 14.9613 16.918 14.9865 16.918 15.0115C16.9323 15.1154 16.9314 15.2217 16.918 15.3289C16.918 15.3354 16.918 15.3419 16.918 15.3484C16.918 15.4158 16.902 15.4814 16.875 15.5418C16.7546 15.9605 16.4381 16.3668 15.9746 16.6346C15.1563 17.107 14.1914 16.9696 13.8203 16.3269C13.4493 15.6843 13.8125 14.7799 14.6309 14.3074C15.0739 14.0517 15.5595 13.9759 15.9707 14.0613C15.9714 12.4679 15.972 10.8745 15.9727 9.28104L10.4834 10.7781C10.4842 12.6922 10.4855 14.6063 10.4863 16.5203C10.4863 16.5323 10.4863 16.5444 10.4863 16.5564C10.5116 16.7021 10.5081 16.8532 10.4785 17.0047C10.4752 17.026 10.47 17.0466 10.4639 17.0672C10.3571 17.5063 10.0341 17.9384 9.54883 18.2185C8.73056 18.691 7.7666 18.5535 7.39551 17.9109C7.02448 17.2683 7.38681 16.3639 8.20508 15.8914C8.64592 15.6369 9.1291 15.5611 9.53906 15.6443C9.53995 13.4637 9.54105 11.2829 9.54199 9.10233C9.54205 8.965 9.54193 8.82755 9.54199 8.69022C9.54208 8.56563 9.59257 8.44632 9.68066 8.35819C9.75058 8.28831 9.84037 8.24324 9.93652 8.22733C9.97093 8.19882 10.0115 8.17717 10.0566 8.16483L16.0762 6.52323Z" fill="black"/>
<path d="M4 4.77768C4 3.79589 4.7959 3 5.77768 3H12C16.4183 3 20 6.58172 20 11V19.2223C20 20.2041 19.2041 21 18.2223 21H5.77768C4.7959 21 4 20.2041 4 19.2223V4.77768Z" fill="#006CC4"/>
<path fill-rule="evenodd" clip-rule="evenodd" d="M17.3656 11.8793C16.6898 10.8835 15.2404 10.8332 14.4968 11.7795L10.8243 16.4528L10.8038 16.4366L7.5558 20.5325H18.2215C19.2032 20.5325 19.9999 19.7365 20 18.7548V15.761L17.3656 11.8793Z" fill="#42D3F8"/>
<path d="M4 18.7548C4.00013 19.7363 4.79617 20.5323 5.77768 20.5325H7.5558L10.8038 16.4366L8.23241 14.4017C7.85575 14.1036 7.31017 14.1584 7.00071 14.5259L4 18.089V18.7548Z" fill="#0DB0F6"/>
<circle cx="8.5" cy="7.49956" r="1.5" fill="white"/>
<path d="M4.75 4.75C4.75 3.64543 5.64543 2.75 6.75 2.75H13.4216C13.952 2.75 14.4607 2.96071 14.8358 3.33579L18.6642 7.16421C19.0393 7.53929 19.25 8.04799 19.25 8.57843V19.2459C19.25 20.3505 18.3546 21.2459 17.25 21.2459H6.75C5.64543 21.2459 4.75 20.3505 4.75 19.2459V4.75Z" stroke="url(#paint1_linear_273_382)" stroke-width="1.5"/>
</g>
<defs>
<linearGradient id="paint0_linear_273_382" x1="20" y1="2" x2="4" y2="22" gradientUnits="userSpaceOnUse">
<stop stop-color="#455373"/>
<stop offset="1" stop-color="#202A40"/>
</linearGradient>
<linearGradient id="paint1_linear_273_382" x1="12" y1="2.75" x2="12" y2="21.2459" gradientUnits="userSpaceOnUse">
<stop stop-color="#34A4FF"/>
<stop offset="1" stop-color="#3D5C9F"/>
</linearGradient>
<clipPath id="clip0_273_382">
<rect width="24" height="24" fill="white"/>
</clipPath>
</defs>
</svg>
