<svg width="24" height="24" viewBox="0 0 24 24" fill="none" xmlns="http://www.w3.org/2000/svg">
<g clip-path="url(#clip0_403_470)">
<path d="M4 5C4 3.34315 5.34315 2 7 2H13.2574C14.053 2 14.8161 2.31607 15.3787 2.87868L19.1213 6.62132C19.6839 7.18393 20 7.94699 20 8.74264V19C20 20.6569 18.6569 22 17 22H7C5.34315 22 4 20.6569 4 19V5Z" fill="url(#paint0_linear_403_470)"/>
<rect x="7" y="7.5" width="10" height="10" rx="5" fill="#232424" stroke="url(#paint1_linear_403_470)"/>
<path d="M12.9316 15.3506C12.6382 15.4464 12.3254 15.5 12 15.5C11.4256 15.5 10.8907 15.3356 10.4346 15.0557L12.9316 13.6143V15.3506ZM14.9346 13.1191C14.7516 13.9906 14.1914 14.7222 13.4316 15.1357V12.251L14.9346 13.1191ZM10.6943 13.3984L11.499 13.8633L9.99805 14.7295C9.38684 14.1803 9 13.3864 9 12.5C9 12.4735 9.00127 12.4472 9.00195 12.4209L10.6943 13.3984ZM10.5693 12.748L9.06445 11.8789C9.24789 11.0076 9.8093 10.2754 10.5693 9.8623V12.748ZM14 10.2686C14.6124 10.8178 15 11.6126 15 12.5C15 12.5258 14.9977 12.5515 14.9971 12.5771L13.4316 11.6738L13.3066 11.6016L12.499 11.1357L14 10.2686ZM12 9.5C12.5736 9.5 13.1078 9.66408 13.5635 9.94336L11.0693 11.3848V9.64844C11.3624 9.55284 11.675 9.5 12 9.5Z" fill="#B0B0B0"/>
<path d="M4.75 4.75C4.75 3.64543 5.64543 2.75 6.75 2.75H13.4216C13.952 2.75 14.4607 2.96071 14.8358 3.33579L18.6642 7.16421C19.0393 7.53929 19.25 8.04799 19.25 8.57843V19.2459C19.25 20.3505 18.3546 21.2459 17.25 21.2459H6.75C5.64543 21.2459 4.75 20.3505 4.75 19.2459V4.75Z" stroke="url(#paint2_linear_403_470)" stroke-width="1.5"/>
</g>
<defs>
<linearGradient id="paint0_linear_403_470" x1="20" y1="2" x2="4" y2="22" gradientUnits="userSpaceOnUse">
<stop offset="0.2" stop-color="#636769"/>
<stop offset="0.9" stop-color="#363838"/>
</linearGradient>
<linearGradient id="paint1_linear_403_470" x1="16" y1="16.5" x2="7" y2="7" gradientUnits="userSpaceOnUse">
<stop stop-color="#DF3935"/>
<stop offset="0.108865" stop-color="#EB3FD8"/>
<stop offset="0.25" stop-color="#8238DE"/>
<stop offset="0.378834" stop-color="#2B51D2"/>
<stop offset="0.5" stop-color="#2EDDD9"/>
<stop offset="0.613509" stop-color="#2BDD56"/>
<stop offset="0.75" stop-color="#96EC35"/>
<stop offset="0.876675" stop-color="#F7F144"/>
</linearGradient>
<linearGradient id="paint2_linear_403_470" x1="12" y1="2.75" x2="12" y2="21.2459" gradientUnits="userSpaceOnUse">
<stop stop-color="#7E8486"/>
<stop offset="1" stop-color="#4D5151"/>
</linearGradient>
<clipPath id="clip0_403_470">
<rect width="24" height="24" fill="white"/>
</clipPath>
</defs>
</svg>
