<svg width="24" height="24" viewBox="0 0 24 24" fill="none" xmlns="http://www.w3.org/2000/svg">
<g clip-path="url(#clip0_238_178)">
<path d="M4 5C4 3.34315 5.34315 2 7 2H13.2574C14.053 2 14.8161 2.31607 15.3787 2.87868L19.1213 6.62132C19.6839 7.18393 20 7.94699 20 8.74264V19C20 20.6569 18.6569 22 17 22H7C5.34315 22 4 20.6569 4 19V5Z" fill="#001E36"/>
<path d="M9.41162 12.8687V15H7.73291V8.45654H9.71045C10.5835 8.45654 11.2266 8.62646 11.6396 8.96631C12.0527 9.30322 12.2593 9.83057 12.2593 10.5483C12.2593 11.2515 12.0557 11.814 11.6484 12.2358C11.2441 12.6577 10.7212 12.8687 10.0796 12.8687H9.41162ZM9.37207 9.81006V11.5591H9.61816C9.99902 11.5591 10.2671 11.4858 10.4224 11.3394C10.5776 11.1929 10.6553 10.9541 10.6553 10.623C10.6553 10.0811 10.3579 9.81006 9.76318 9.81006H9.37207ZM12.7383 14.7583V13.4839H12.8525C13.0137 13.6479 13.2656 13.7842 13.6084 13.8926C13.9541 13.998 14.272 14.0508 14.562 14.0508C14.9458 14.0508 15.1377 13.9424 15.1377 13.7256C15.1377 13.6201 15.0923 13.5425 15.0015 13.4927C14.9136 13.4429 14.6777 13.3711 14.2939 13.2773C13.7344 13.1514 13.3345 12.9697 13.0942 12.7324C12.8569 12.4951 12.7383 12.1831 12.7383 11.7964C12.7383 11.3511 12.9199 10.9863 13.2832 10.7021C13.6494 10.415 14.1123 10.2715 14.6719 10.2715C15.293 10.2715 15.8408 10.377 16.3154 10.5879V11.8403H16.21C15.791 11.4829 15.3223 11.3042 14.8037 11.3042C14.3994 11.3042 14.1973 11.417 14.1973 11.6426C14.1973 11.7627 14.2412 11.8477 14.3291 11.8975C14.4199 11.9443 14.6851 12.0234 15.1245 12.1348C15.6196 12.2666 15.9756 12.4409 16.1924 12.6577C16.4092 12.8716 16.5176 13.1689 16.5176 13.5498C16.5176 14.0273 16.3418 14.4097 15.9902 14.6968C15.6387 14.981 15.1685 15.123 14.5796 15.123C13.8149 15.123 13.2012 15.0015 12.7383 14.7583Z" fill="#31A8FF"/>
<path d="M4.75 4.75C4.75 3.64543 5.64543 2.75 6.75 2.75H13.4216C13.952 2.75 14.4607 2.96071 14.8358 3.33579L18.6642 7.16421C19.0393 7.53929 19.25 8.04799 19.25 8.57843V19.2459C19.25 20.3505 18.3546 21.2459 17.25 21.2459H6.75C5.64543 21.2459 4.75 20.3505 4.75 19.2459V4.75Z" stroke="#31A8FF" stroke-width="1.5"/>
</g>
<defs>
<clipPath id="clip0_238_178">
<rect width="24" height="24" fill="white"/>
</clipPath>
</defs>
</svg>
