<svg width="24" height="24" viewBox="0 0 24 24" fill="none" xmlns="http://www.w3.org/2000/svg">
<g clip-path="url(#clip0_215_409)">
<path d="M4 5C4 3.34315 5.34315 2 7 2H13.2574C14.053 2 14.8161 2.31607 15.3787 2.87868L19.1213 6.62132C19.6839 7.18393 20 7.94699 20 8.74264V19C20 20.6569 18.6569 22 17 22H7C5.34315 22 4 20.6569 4 19V5Z" fill="url(#paint0_linear_215_409)"/>
<mask id="path-2-outside-1_215_409" maskUnits="userSpaceOnUse" x="5" y="6.99966" width="14" height="11" fill="black">
<rect fill="white" x="5" y="6.99966" width="14" height="11"/>
<path d="M10.9189 8.00064C11.1522 8.01771 11.3425 8.1951 11.377 8.42642L12.2207 14.152L12.9697 11.82L12.998 11.7497C13.0765 11.5923 13.2338 11.4851 13.4131 11.4733C13.6178 11.4599 13.8097 11.574 13.8975 11.7594L14.8164 13.7047H16.1357C16.3089 13.4066 16.6305 13.2057 17 13.2057C17.5523 13.2057 18 13.6534 18 14.2057C17.9999 14.7579 17.5522 15.2057 17 15.2057C16.6298 15.2057 16.3076 15.0037 16.1348 14.7047H14.5C14.3066 14.7047 14.1304 14.5935 14.0479 14.4186L13.5342 13.3317L12.5166 16.5075C12.4456 16.7289 12.2308 16.8722 11.999 16.8532C11.7674 16.834 11.5788 16.6574 11.5449 16.4274L10.7148 10.7975L9.65137 14.3483C9.58796 14.5598 9.39273 14.7047 9.17188 14.7047H6.5C6.2239 14.7047 6 14.4809 6 14.2047C6.00044 13.929 6.22418 13.7048 6.5 13.7047H8.7998L10.4033 8.35611L10.4355 8.27603C10.5248 8.09776 10.7146 7.98586 10.9189 8.00064Z"/>
</mask>
<path d="M10.9189 8.00064C11.1522 8.01771 11.3425 8.1951 11.377 8.42642L12.2207 14.152L12.9697 11.82L12.998 11.7497C13.0765 11.5923 13.2338 11.4851 13.4131 11.4733C13.6178 11.4599 13.8097 11.574 13.8975 11.7594L14.8164 13.7047H16.1357C16.3089 13.4066 16.6305 13.2057 17 13.2057C17.5523 13.2057 18 13.6534 18 14.2057C17.9999 14.7579 17.5522 15.2057 17 15.2057C16.6298 15.2057 16.3076 15.0037 16.1348 14.7047H14.5C14.3066 14.7047 14.1304 14.5935 14.0479 14.4186L13.5342 13.3317L12.5166 16.5075C12.4456 16.7289 12.2308 16.8722 11.999 16.8532C11.7674 16.834 11.5788 16.6574 11.5449 16.4274L10.7148 10.7975L9.65137 14.3483C9.58796 14.5598 9.39273 14.7047 9.17188 14.7047H6.5C6.2239 14.7047 6 14.4809 6 14.2047C6.00044 13.929 6.22418 13.7048 6.5 13.7047H8.7998L10.4033 8.35611L10.4355 8.27603C10.5248 8.09776 10.7146 7.98586 10.9189 8.00064Z" fill="url(#paint1_linear_215_409)"/>
<path d="M10.9189 8.00064L10.9554 7.50197L10.955 7.50194L10.9189 8.00064ZM11.377 8.42642L11.8716 8.35353L11.8715 8.3527L11.377 8.42642ZM12.2207 14.152L11.726 14.2249L12.6968 14.3049L12.2207 14.152ZM12.9697 11.82L12.5059 11.6332L12.4992 11.6499L12.4937 11.6671L12.9697 11.82ZM12.998 11.7497L12.5506 11.5266L12.5417 11.5444L12.5343 11.5629L12.998 11.7497ZM13.4131 11.4733L13.3805 10.9744L13.3803 10.9744L13.4131 11.4733ZM13.8975 11.7594L14.3496 11.5459L14.3494 11.5455L13.8975 11.7594ZM14.8164 13.7047L14.3643 13.9183L14.4996 14.2047H14.8164V13.7047ZM16.1357 13.7047V14.2047H16.4236L16.5681 13.9558L16.1357 13.7047ZM17 13.2057L17 12.7057H17V13.2057ZM18 14.2057L18.5 14.2058V14.2057H18ZM17 15.2057L17 15.7057L17 15.7057L17 15.2057ZM16.1348 14.7047L16.5676 14.4545L16.4232 14.2047H16.1348V14.7047ZM14.5 14.7047L14.4999 15.2047H14.5V14.7047ZM14.0479 14.4186L14.5 14.2051L14.4999 14.205L14.0479 14.4186ZM13.5342 13.3317L13.9862 13.1181L13.4447 11.9722L13.058 13.1791L13.5342 13.3317ZM12.5166 16.5075L12.9927 16.6602L12.9928 16.66L12.5166 16.5075ZM11.999 16.8532L11.9579 17.3515L11.9581 17.3515L11.999 16.8532ZM11.5449 16.4274L12.0396 16.3545L12.0396 16.3545L11.5449 16.4274ZM10.7148 10.7975L11.2095 10.7246L10.2359 10.6541L10.7148 10.7975ZM9.65137 14.3483L10.1303 14.4919L10.1303 14.4918L9.65137 14.3483ZM6.5 14.7047L6.49991 15.2047H6.5V14.7047ZM6 14.2047L5.5 14.2039V14.2047H6ZM6.5 13.7047L6.5 13.2047L6.49991 13.2047L6.5 13.7047ZM8.7998 13.7047V14.2047H9.17189L9.27874 13.8483L8.7998 13.7047ZM10.4033 8.35611L9.93947 8.16944L9.93094 8.19064L9.92438 8.21252L10.4033 8.35611ZM10.4355 8.27603L9.98847 8.05215L9.97933 8.07041L9.9717 8.08936L10.4355 8.27603ZM10.9189 8.00064L10.8825 8.49931L10.8824 8.50014L11.377 8.42642L11.8715 8.3527C11.8027 7.89128 11.4233 7.5362 10.9554 7.50197L10.9189 8.00064ZM11.377 8.42642L10.8823 8.49932L11.726 14.2249L12.2207 14.152L12.7154 14.0791L11.8716 8.35353L11.377 8.42642ZM12.2207 14.152L12.6968 14.3049L13.4458 11.9729L12.9697 11.82L12.4937 11.6671L11.7447 13.9991L12.2207 14.152ZM12.9697 11.82L13.4335 12.0068L13.4618 11.9365L12.998 11.7497L12.5343 11.5629L12.5059 11.6332L12.9697 11.82ZM12.998 11.7497L13.4455 11.9727L13.4458 11.9722L13.4131 11.4733L13.3803 10.9744C13.021 10.9979 12.7072 11.2124 12.5506 11.5266L12.998 11.7497ZM13.4131 11.4733L13.4457 11.9722C13.4436 11.9724 13.4446 11.9714 13.4455 11.9733L13.8975 11.7594L14.3494 11.5455C14.1748 11.1767 13.792 10.9474 13.3805 10.9744L13.4131 11.4733ZM13.8975 11.7594L13.4454 11.973L14.3643 13.9183L14.8164 13.7047L15.2685 13.4912L14.3496 11.5459L13.8975 11.7594ZM14.8164 13.7047V14.2047H16.1357V13.7047V13.2047H14.8164V13.7047ZM16.1357 13.7047L16.5681 13.9558C16.656 13.8045 16.8169 13.7057 17 13.7057V13.2057V12.7057C16.444 12.7057 15.9617 13.0088 15.7034 13.4536L16.1357 13.7047ZM17 13.2057L17 13.7057C17.2761 13.7057 17.5 13.9296 17.5 14.2057H18H18.5C18.5 13.3773 17.8284 12.7057 17 12.7057L17 13.2057ZM18 14.2057L17.5 14.2056C17.5 14.4818 17.276 14.7057 17 14.7057L17 15.2057L17 15.7057C17.8284 15.7057 18.4999 15.034 18.5 14.2058L18 14.2057ZM17 15.2057V14.7057C16.8169 14.7057 16.6555 14.6065 16.5676 14.4545L16.1348 14.7047L15.7019 14.955C15.9598 15.401 16.4427 15.7057 17 15.7057V15.2057ZM16.1348 14.7047V14.2047H14.5V14.7047V15.2047H16.1348V14.7047ZM14.5 14.7047L14.5001 14.2047L14.5 14.2051L14.0479 14.4186L13.5957 14.6321C13.7612 14.9826 14.1139 15.2047 14.4999 15.2047L14.5 14.7047ZM14.0479 14.4186L14.4999 14.205L13.9862 13.1181L13.5342 13.3317L13.0821 13.5453L13.5958 14.6323L14.0479 14.4186ZM13.5342 13.3317L13.058 13.1791L12.0404 16.3549L12.5166 16.5075L12.9928 16.66L14.0103 13.4843L13.5342 13.3317ZM12.5166 16.5075L12.0405 16.3548L12.04 16.3549L11.999 16.8532L11.9581 17.3515C12.4212 17.3896 12.8505 17.1034 12.9927 16.6602L12.5166 16.5075ZM11.999 16.8532L12.0402 16.3549L12.0396 16.3545L11.5449 16.4274L11.0503 16.5003C11.1181 16.9606 11.4948 17.3132 11.9579 17.3515L11.999 16.8532ZM11.5449 16.4274L12.0396 16.3545L11.2095 10.7246L10.7148 10.7975L10.2202 10.8704L11.0503 16.5003L11.5449 16.4274ZM10.7148 10.7975L10.2359 10.6541L9.17239 14.2048L9.65137 14.3483L10.1303 14.4918L11.1938 10.941L10.7148 10.7975ZM9.65137 14.3483L9.17242 14.2047L9.17188 14.2047V14.7047V15.2047C9.61293 15.2047 10.0033 14.9156 10.1303 14.4919L9.65137 14.3483ZM9.17188 14.7047V14.2047H6.5V14.7047V15.2047H9.17188V14.7047ZM6.5 14.7047L6.50009 14.2047L6.5 14.2047H6H5.5C5.5 14.7571 5.94783 15.2046 6.49991 15.2047L6.5 14.7047ZM6 14.2047L6.5 14.2055L6.50009 14.2047L6.5 13.7047L6.49991 13.2047C5.94731 13.2048 5.50089 13.6534 5.5 14.2039L6 14.2047ZM6.5 13.7047V14.2047H8.7998V13.7047V13.2047H6.5V13.7047ZM8.7998 13.7047L9.27874 13.8483L10.8823 8.4997L10.4033 8.35611L9.92438 8.21252L8.32087 13.5612L8.7998 13.7047ZM10.4033 8.35611L10.8672 8.54278L10.8994 8.4627L10.4355 8.27603L9.9717 8.08936L9.93947 8.16944L10.4033 8.35611ZM10.4355 8.27603L10.8826 8.49991L10.8829 8.49934L10.9189 8.00064L10.955 7.50194C10.5449 7.47228 10.1666 7.6965 9.98847 8.05215L10.4355 8.27603Z" fill="#CAE0ED" mask="url(#path-2-outside-1_215_409)"/>
<path d="M4.75 4.75C4.75 3.64543 5.64543 2.75 6.75 2.75H13.4216C13.952 2.75 14.4607 2.96071 14.8358 3.33579L18.6642 7.16421C19.0393 7.53929 19.25 8.04799 19.25 8.57843V19.2459C19.25 20.3505 18.3546 21.2459 17.25 21.2459H6.75C5.64543 21.2459 4.75 20.3505 4.75 19.2459V4.75Z" stroke="url(#paint2_linear_215_409)" stroke-width="1.5"/>
</g>
<defs>
<linearGradient id="paint0_linear_215_409" x1="20" y1="2" x2="4" y2="22" gradientUnits="userSpaceOnUse">
<stop offset="0.2" stop-color="#C49458"/>
<stop offset="0.9" stop-color="#82561B"/>
</linearGradient>
<linearGradient id="paint1_linear_215_409" x1="6.0549" y1="13.7583" x2="17.8902" y2="13.7583" gradientUnits="userSpaceOnUse">
<stop stop-color="#016399"/>
<stop offset="1" stop-color="#EB9024"/>
</linearGradient>
<linearGradient id="paint2_linear_215_409" x1="12" y1="2.75" x2="12" y2="21.2459" gradientUnits="userSpaceOnUse">
<stop stop-color="#DBBC98"/>
<stop offset="1" stop-color="#BB833C"/>
</linearGradient>
<clipPath id="clip0_215_409">
<rect width="24" height="24" fill="white"/>
</clipPath>
</defs>
</svg>
