<svg width="24" height="24" viewBox="0 0 24 24" fill="none" xmlns="http://www.w3.org/2000/svg">
<g clip-path="url(#clip0_215_409)">
<path d="M4 5C4 3.34315 5.34315 2 7 2H13.2574C14.053 2 14.8161 2.31607 15.3787 2.87868L19.1213 6.62132C19.6839 7.18393 20 7.94699 20 8.74264V19C20 20.6569 18.6569 22 17 22H7C5.34315 22 4 20.6569 4 19V5Z" fill="url(#paint0_linear_215_409)"/>
<mask id="path-2-outside-1_215_409" maskUnits="userSpaceOnUse" x="5" y="6.79379" width="14" height="11" fill="black">
<rect fill="white" x="5" y="6.79379" width="14" height="11"/>
<path d="M10.9189 7.79575C11.1524 7.81283 11.3427 7.98998 11.377 8.22153L12.2207 13.9471L12.9697 11.6151L12.998 11.5448C13.0764 11.3872 13.2337 11.2802 13.4131 11.2684C13.6179 11.255 13.8098 11.3689 13.8975 11.5545L14.8164 13.4998H16.1357C16.3088 13.2015 16.6303 12.9998 17 12.9998C17.5522 12.9999 17.9999 13.4476 18 13.9998C18 14.5521 17.5523 14.9998 17 14.9998C16.63 14.9998 16.3077 14.7986 16.1348 14.4998H14.5C14.3067 14.4998 14.1305 14.3885 14.0479 14.2137L13.5342 13.1268L12.5166 16.3026C12.4455 16.5239 12.2307 16.6673 11.999 16.6483C11.7674 16.6292 11.5789 16.4524 11.5449 16.2225L10.7148 10.5926L9.65137 14.1434C9.58789 14.3548 9.39265 14.4998 9.17188 14.4998H6.5C6.22397 14.4998 6.00011 14.2759 6 13.9998C6.0002 13.7239 6.22402 13.4999 6.5 13.4998H8.7998L10.4033 8.15121L10.4355 8.07114C10.5248 7.89266 10.7144 7.78093 10.9189 7.79575Z"/>
</mask>
<path d="M10.9189 7.79575C11.1524 7.81283 11.3427 7.98998 11.377 8.22153L12.2207 13.9471L12.9697 11.6151L12.998 11.5448C13.0764 11.3872 13.2337 11.2802 13.4131 11.2684C13.6179 11.255 13.8098 11.3689 13.8975 11.5545L14.8164 13.4998H16.1357C16.3088 13.2015 16.6303 12.9998 17 12.9998C17.5522 12.9999 17.9999 13.4476 18 13.9998C18 14.5521 17.5523 14.9998 17 14.9998C16.63 14.9998 16.3077 14.7986 16.1348 14.4998H14.5C14.3067 14.4998 14.1305 14.3885 14.0479 14.2137L13.5342 13.1268L12.5166 16.3026C12.4455 16.5239 12.2307 16.6673 11.999 16.6483C11.7674 16.6292 11.5789 16.4524 11.5449 16.2225L10.7148 10.5926L9.65137 14.1434C9.58789 14.3548 9.39265 14.4998 9.17188 14.4998H6.5C6.22397 14.4998 6.00011 14.2759 6 13.9998C6.0002 13.7239 6.22402 13.4999 6.5 13.4998H8.7998L10.4033 8.15121L10.4355 8.07114C10.5248 7.89266 10.7144 7.78093 10.9189 7.79575Z" fill="url(#paint1_linear_215_409)"/>
<path d="M10.9189 7.79575L10.9554 7.29708L10.9551 7.29705L10.9189 7.79575ZM11.377 8.22153L11.8716 8.14863L11.8716 8.14826L11.377 8.22153ZM12.2207 13.9471L11.726 14.02L12.6968 14.1L12.2207 13.9471ZM12.9697 11.6151L12.5059 11.4283L12.4992 11.445L12.4937 11.4622L12.9697 11.6151ZM12.998 11.5448L12.5504 11.322L12.5416 11.3397L12.5343 11.358L12.998 11.5448ZM13.4131 11.2684L13.3805 10.7695L13.3803 10.7695L13.4131 11.2684ZM13.8975 11.5545L13.4453 11.768L13.4454 11.7681L13.8975 11.5545ZM14.8164 13.4998L14.3643 13.7134L14.4996 13.9998H14.8164V13.4998ZM16.1357 13.4998V13.9998H16.4238L16.5683 13.7507L16.1357 13.4998ZM17 12.9998L17 12.4998H17V12.9998ZM18 13.9998H18.5V13.9998L18 13.9998ZM17 14.9998V15.4998H17L17 14.9998ZM16.1348 14.4998L16.5675 14.2493L16.423 13.9998H16.1348V14.4998ZM14.5 14.4998L14.4999 14.9998H14.5V14.4998ZM14.0479 14.2137L14.4999 14.0001L14.4999 14.0001L14.0479 14.2137ZM13.5342 13.1268L13.9862 12.9132L13.4447 11.7673L13.058 12.9742L13.5342 13.1268ZM12.5166 16.3026L12.9926 16.4555L12.9928 16.4552L12.5166 16.3026ZM11.999 16.6483L11.9579 17.1466L11.9581 17.1466L11.999 16.6483ZM11.5449 16.2225L11.0503 16.2954L11.0503 16.2956L11.5449 16.2225ZM10.7148 10.5926L11.2095 10.5197L10.2359 10.4492L10.7148 10.5926ZM9.65137 14.1434L10.1303 14.2872L10.1303 14.2869L9.65137 14.1434ZM6.5 14.4998L6.49991 14.9998H6.5V14.4998ZM6 13.9998L5.5 13.9995L5.5 14.0001L6 13.9998ZM6.5 13.4998V12.9998H6.49991L6.5 13.4998ZM8.7998 13.4998V13.9998H9.17189L9.27874 13.6434L8.7998 13.4998ZM10.4033 8.15121L9.93947 7.96454L9.93094 7.98574L9.92438 8.00763L10.4033 8.15121ZM10.4355 8.07114L9.98831 7.84758L9.97926 7.86569L9.9717 7.88447L10.4355 8.07114ZM10.9189 7.79575L10.8825 8.29441L10.8823 8.29479L11.377 8.22153L11.8716 8.14826C11.8031 7.68584 11.423 7.33129 10.9554 7.29708L10.9189 7.79575ZM11.377 8.22153L10.8823 8.29442L11.726 14.02L12.2207 13.9471L12.7154 13.8742L11.8716 8.14863L11.377 8.22153ZM12.2207 13.9471L12.6968 14.1L13.4458 11.768L12.9697 11.6151L12.4937 11.4622L11.7447 13.7942L12.2207 13.9471ZM12.9697 11.6151L13.4335 11.8019L13.4618 11.7316L12.998 11.5448L12.5343 11.358L12.5059 11.4283L12.9697 11.6151ZM12.998 11.5448L13.4457 11.7675L13.4459 11.7673L13.4131 11.2684L13.3803 10.7695C13.0212 10.7931 12.7071 11.0071 12.5504 11.322L12.998 11.5448ZM13.4131 11.2684L13.4457 11.7673L13.4453 11.768L13.8975 11.5545L14.3496 11.341C14.175 10.9712 13.7918 10.7426 13.3805 10.7695L13.4131 11.2684ZM13.8975 11.5545L13.4454 11.7681L14.3643 13.7134L14.8164 13.4998L15.2685 13.2863L14.3496 11.341L13.8975 11.5545ZM14.8164 13.4998V13.9998H16.1357V13.4998V12.9998H14.8164V13.4998ZM16.1357 13.4998L16.5683 13.7507C16.6564 13.5987 16.8174 13.4998 17 13.4998V12.9998V12.4998C16.4431 12.4998 15.9611 12.8043 15.7032 13.249L16.1357 13.4998ZM17 12.9998L17 13.4998C17.276 13.4999 17.5 13.7237 17.5 13.9999L18 13.9998L18.5 13.9998C18.4999 13.1715 17.8284 12.4999 17 12.4998L17 12.9998ZM18 13.9998H17.5C17.5 14.276 17.2761 14.4998 17 14.4998L17 14.9998L17 15.4998C17.8284 15.4998 18.5 14.8283 18.5 13.9998H18ZM17 14.9998V14.4998C16.8164 14.4998 16.6551 14.4007 16.5675 14.2493L16.1348 14.4998L15.7021 14.7504C15.9603 15.1965 16.4436 15.4998 17 15.4998V14.9998ZM16.1348 14.4998V13.9998H14.5V14.4998V14.9998H16.1348V14.4998ZM14.5 14.4998L14.5001 13.9998L14.4999 14.0001L14.0479 14.2137L13.5958 14.4274C13.7613 14.7775 14.1138 14.9998 14.4999 14.9998L14.5 14.4998ZM14.0479 14.2137L14.4999 14.0001L13.9862 12.9132L13.5342 13.1268L13.0821 13.3404L13.5958 14.4274L14.0479 14.2137ZM13.5342 13.1268L13.058 12.9742L12.0404 16.15L12.5166 16.3026L12.9928 16.4552L14.0103 13.2794L13.5342 13.1268ZM12.5166 16.3026L12.0406 16.1497L12.04 16.15L11.999 16.6483L11.9581 17.1466C12.4213 17.1847 12.8504 16.8982 12.9926 16.4555L12.5166 16.3026ZM11.999 16.6483L12.0401 16.15L12.0396 16.1494L11.5449 16.2225L11.0503 16.2956C11.1182 16.7554 11.4946 17.1084 11.9579 17.1466L11.999 16.6483ZM11.5449 16.2225L12.0396 16.1496L11.2095 10.5197L10.7148 10.5926L10.2202 10.6656L11.0503 16.2954L11.5449 16.2225ZM10.7148 10.5926L10.2359 10.4492L9.17239 13.9999L9.65137 14.1434L10.1303 14.2869L11.1938 10.7361L10.7148 10.5926ZM9.65137 14.1434L9.17248 13.9996L9.17188 13.9998V14.4998V14.9998C9.61305 14.9998 10.0032 14.7104 10.1303 14.2872L9.65137 14.1434ZM9.17188 14.4998V13.9998H6.5V14.4998V14.9998H9.17188V14.4998ZM6.5 14.4998L6.50009 13.9998L6.5 13.9996L6 13.9998L5.5 14.0001C5.50023 14.5519 5.9477 14.9997 6.49991 14.9998L6.5 14.4998ZM6 13.9998L6.5 14.0002L6.50009 13.9998L6.5 13.4998L6.49991 12.9998C5.9476 13 5.5004 13.4479 5.5 13.9995L6 13.9998ZM6.5 13.4998V13.9998H8.7998V13.4998V12.9998H6.5V13.4998ZM8.7998 13.4998L9.27874 13.6434L10.8823 8.2948L10.4033 8.15121L9.92438 8.00763L8.32087 13.3563L8.7998 13.4998ZM10.4033 8.15121L10.8672 8.33788L10.8994 8.25781L10.4355 8.07114L9.9717 7.88447L9.93947 7.96454L10.4033 8.15121ZM10.4355 8.07114L10.8828 8.29469L10.8828 8.29444L10.9189 7.79575L10.9551 7.29705C10.545 7.26736 10.1664 7.4912 9.98831 7.84758L10.4355 8.07114Z" fill="#CAE0ED" mask="url(#path-2-outside-1_215_409)"/>
<path d="M4.75 4.75C4.75 3.64543 5.64543 2.75 6.75 2.75H13.4216C13.952 2.75 14.4607 2.96071 14.8358 3.33579L18.6642 7.16421C19.0393 7.53929 19.25 8.04799 19.25 8.57843V19.2459C19.25 20.3505 18.3546 21.2459 17.25 21.2459H6.75C5.64543 21.2459 4.75 20.3505 4.75 19.2459V4.75Z" stroke="url(#paint2_linear_215_409)" stroke-width="1.5"/>
<path d="M15.3662 2.80567L19.1944 6.6338C19.5715 7.01096 19.8279 7.48646 19.9385 8.00001H16C14.8954 8.00001 14 7.10458 14 6.00001L14 2.06155C14.5136 2.17211 14.9891 2.42851 15.3662 2.80567Z" fill="#E7D3BC"/>
</g>
<defs>
<linearGradient id="paint0_linear_215_409" x1="20" y1="2" x2="4" y2="22" gradientUnits="userSpaceOnUse">
<stop stop-color="#C49458"/>
<stop offset="1" stop-color="#82561B"/>
</linearGradient>
<linearGradient id="paint1_linear_215_409" x1="6.0549" y1="13.5525" x2="17.8902" y2="13.5525" gradientUnits="userSpaceOnUse">
<stop stop-color="#016399"/>
<stop offset="1" stop-color="#EB9024"/>
</linearGradient>
<linearGradient id="paint2_linear_215_409" x1="12" y1="2.75" x2="12" y2="21.2459" gradientUnits="userSpaceOnUse">
<stop stop-color="#DBBC98"/>
<stop offset="1" stop-color="#BB833C"/>
</linearGradient>
<clipPath id="clip0_215_409">
<rect width="24" height="24" fill="white"/>
</clipPath>
</defs>
</svg>
