<svg width="24" height="24" viewBox="0 0 24 24" fill="none" xmlns="http://www.w3.org/2000/svg">
<g clip-path="url(#clip0_412_593)">
<path d="M4 5C4 3.34315 5.34315 2 7 2H13.2574C14.053 2 14.8161 2.31607 15.3787 2.87868L19.1213 6.62132C19.6839 7.18393 20 7.94699 20 8.74264V19C20 20.6569 18.6569 22 17 22H7C5.34315 22 4 20.6569 4 19V5Z" fill="url(#paint0_linear_412_593)"/>
<mask id="path-2-outside-1_412_593" maskUnits="userSpaceOnUse" x="4.375" y="6.87482" width="15" height="12" fill="black">
<rect fill="white" x="4.375" y="6.87482" width="15" height="12"/>
<path d="M10.5322 7.87579C10.8066 7.89004 11.0398 8.08194 11.1064 8.34845L12.6367 14.4725L13.9199 11.2674L13.9609 11.1824C14.072 10.9937 14.2764 10.8748 14.5 10.8748C14.7554 10.8748 14.9851 11.0303 15.0801 11.2674L15.9229 13.3748H18C18.3451 13.3748 18.6249 13.6547 18.625 13.9998C18.625 14.345 18.3452 14.6248 18 14.6248H15.5C15.2445 14.6248 15.0149 14.4694 14.9199 14.2322L14.5 13.1824L13.0801 16.7322C12.9794 16.9836 12.7282 17.142 12.458 17.1238C12.1875 17.1055 11.9593 16.9142 11.8936 16.6512L10.3887 10.6326L9.08691 14.2137C8.99702 14.4605 8.76271 14.6248 8.5 14.6248H6C5.65483 14.6248 5.375 14.345 5.375 13.9998C5.37507 13.6547 5.65487 13.3748 6 13.3748H8.0625L9.91309 8.28595L9.95508 8.19415C10.0698 7.98947 10.2922 7.8634 10.5322 7.87579Z"/>
</mask>
<path d="M10.5322 7.87579C10.8066 7.89004 11.0398 8.08194 11.1064 8.34845L12.6367 14.4725L13.9199 11.2674L13.9609 11.1824C14.072 10.9937 14.2764 10.8748 14.5 10.8748C14.7554 10.8748 14.9851 11.0303 15.0801 11.2674L15.9229 13.3748H18C18.3451 13.3748 18.6249 13.6547 18.625 13.9998C18.625 14.345 18.3452 14.6248 18 14.6248H15.5C15.2445 14.6248 15.0149 14.4694 14.9199 14.2322L14.5 13.1824L13.0801 16.7322C12.9794 16.9836 12.7282 17.142 12.458 17.1238C12.1875 17.1055 11.9593 16.9142 11.8936 16.6512L10.3887 10.6326L9.08691 14.2137C8.99702 14.4605 8.76271 14.6248 8.5 14.6248H6C5.65483 14.6248 5.375 14.345 5.375 13.9998C5.37507 13.6547 5.65487 13.3748 6 13.3748H8.0625L9.91309 8.28595L9.95508 8.19415C10.0698 7.98947 10.2922 7.8634 10.5322 7.87579Z" fill="url(#paint1_linear_412_593)"/>
<path d="M10.5322 7.87579L10.5711 7.1268L10.5709 7.12679L10.5322 7.87579ZM11.1064 8.34845L11.8341 8.16663L11.834 8.16645L11.1064 8.34845ZM12.6367 14.4725L11.9091 14.6543L12.4712 16.9038L13.333 14.7512L12.6367 14.4725ZM13.9199 11.2674L13.2445 10.9413L13.2333 10.9646L13.2237 10.9886L13.9199 11.2674ZM13.9609 11.1824L13.3146 10.802L13.2989 10.8286L13.2855 10.8564L13.9609 11.1824ZM14.5 10.8748L14.5 10.1248L14.5 10.1248L14.5 10.8748ZM15.0801 11.2674L15.7765 10.9889L15.7762 10.9884L15.0801 11.2674ZM15.9229 13.3748L15.2265 13.6533L15.415 14.1248H15.9229V13.3748ZM18 13.3748L18 12.6248H18V13.3748ZM18.625 13.9998L19.375 13.9998L19.375 13.9997L18.625 13.9998ZM18 14.6248L18 15.3748L18 15.3748L18 14.6248ZM15.5 14.6248L15.5 13.8748L15.5 13.8748L15.5 14.6248ZM14.9199 14.2322L14.2236 14.5108L14.2237 14.5111L14.9199 14.2322ZM14.5 13.1824L15.1964 12.9039L14.5 11.163L13.8036 12.9039L14.5 13.1824ZM13.0801 16.7322L13.7763 17.0112L13.7764 17.0108L13.0801 16.7322ZM12.458 17.1238L12.4072 17.8721L12.4076 17.8721L12.458 17.1238ZM11.8936 16.6512L12.6212 16.4693L12.6212 16.4693L11.8936 16.6512ZM10.3887 10.6326L11.1163 10.4507L10.5215 8.07196L9.6838 10.3764L10.3887 10.6326ZM9.08691 14.2137L9.79164 14.4703L9.79179 14.4699L9.08691 14.2137ZM8.5 14.6248L8.5 15.3748L8.50001 15.3748L8.5 14.6248ZM6 14.6248L5.99996 15.3748H6V14.6248ZM5.375 13.9998L4.625 13.9997L4.625 13.9998L5.375 13.9998ZM6 13.3748L6 14.1248H6V13.3748ZM8.0625 13.3748V14.1248H8.58781L8.76734 13.6311L8.0625 13.3748ZM9.91309 8.28595L9.23106 7.97396L9.21853 8.00134L9.20824 8.02963L9.91309 8.28595ZM9.95508 8.19415L9.30087 7.82739L9.28584 7.85421L9.27305 7.88216L9.95508 8.19415ZM10.5322 7.87579L10.4933 8.62478C10.4386 8.62194 10.3922 8.58393 10.3789 8.53045L11.1064 8.34845L11.834 8.16645C11.6873 7.57996 11.1745 7.15815 10.5711 7.1268L10.5322 7.87579ZM11.1064 8.34845L10.3788 8.53027L11.9091 14.6543L12.6367 14.4725L13.3643 14.2907L11.8341 8.16663L11.1064 8.34845ZM12.6367 14.4725L13.333 14.7512L14.6162 11.5462L13.9199 11.2674L13.2237 10.9886L11.9404 14.1937L12.6367 14.4725ZM13.9199 11.2674L14.5953 11.5935L14.6364 11.5085L13.9609 11.1824L13.2855 10.8564L13.2445 10.9413L13.9199 11.2674ZM13.9609 11.1824L14.6073 11.5629C14.5844 11.6017 14.5438 11.6248 14.5 11.6248L14.5 10.8748L14.5 10.1248C14.009 10.1248 13.5596 10.3858 13.3146 10.802L13.9609 11.1824ZM14.5 10.8748L14.5 11.6248C14.4486 11.6248 14.4028 11.5936 14.3839 11.5464L15.0801 11.2674L15.7762 10.9884C15.5673 10.4671 15.0622 10.1248 14.5 10.1248L14.5 10.8748ZM15.0801 11.2674L14.3837 11.5459L15.2265 13.6533L15.9229 13.3748L16.6192 13.0963L15.7765 10.9889L15.0801 11.2674ZM15.9229 13.3748V14.1248H18V13.3748V12.6248H15.9229V13.3748ZM18 13.3748L18 14.1248C17.9308 14.1248 17.875 14.0688 17.875 14L18.625 13.9998L19.375 13.9997C19.3749 13.2406 18.7595 12.6248 18 12.6248L18 13.3748ZM18.625 13.9998L17.875 13.9998C17.875 13.9307 17.931 13.8748 18 13.8748L18 14.6248L18 15.3748C18.7593 15.3748 19.375 14.7592 19.375 13.9998L18.625 13.9998ZM18 14.6248V13.8748H15.5V14.6248V15.3748H18V14.6248ZM15.5 14.6248L15.5 13.8748C15.5511 13.8748 15.5972 13.906 15.6162 13.9534L14.9199 14.2322L14.2237 14.5111C14.4326 15.0328 14.9379 15.3748 15.5 15.3748L15.5 14.6248ZM14.9199 14.2322L15.6163 13.9537L15.1964 12.9039L14.5 13.1824L13.8036 13.461L14.2236 14.5108L14.9199 14.2322ZM14.5 13.1824L13.8036 12.9039L12.3837 16.4537L13.0801 16.7322L13.7764 17.0108L15.1964 13.461L14.5 13.1824ZM13.0801 16.7322L12.3839 16.4533C12.4036 16.404 12.4533 16.3718 12.5084 16.3755L12.458 17.1238L12.4076 17.8721C13.0031 17.9122 13.5551 17.5633 13.7763 17.0112L13.0801 16.7322ZM12.458 17.1238L12.5088 16.3756C12.5635 16.3793 12.6082 16.4172 12.6212 16.4693L11.8936 16.6512L11.1659 16.8331C11.3105 17.4111 11.8116 17.8317 12.4072 17.8721L12.458 17.1238ZM11.8936 16.6512L12.6212 16.4693L11.1163 10.4507L10.3887 10.6326L9.66107 10.8146L11.166 16.8331L11.8936 16.6512ZM10.3887 10.6326L9.6838 10.3764L8.38204 13.9575L9.08691 14.2137L9.79179 14.4699L11.0935 10.8889L10.3887 10.6326ZM9.08691 14.2137L8.38219 13.957C8.4 13.9081 8.44695 13.8748 8.49999 13.8748L8.5 14.6248L8.50001 15.3748C9.07847 15.3748 9.59404 15.0129 9.79164 14.4703L9.08691 14.2137ZM8.5 14.6248V13.8748H6V14.6248V15.3748H8.5V14.6248ZM6 14.6248L6.00004 13.8748C6.06902 13.8748 6.125 13.9307 6.125 13.9998L5.375 13.9998L4.625 13.9998C4.625 14.7592 5.24064 15.3748 5.99996 15.3748L6 14.6248ZM5.375 13.9998L6.125 14C6.12499 14.0688 6.06922 14.1248 6 14.1248L6 13.3748L6 12.6248C5.24052 12.6248 4.62515 13.2406 4.625 13.9997L5.375 13.9998ZM6 13.3748V14.1248H8.0625V13.3748V12.6248H6V13.3748ZM8.0625 13.3748L8.76734 13.6311L10.6179 8.54227L9.91309 8.28595L9.20824 8.02963L7.35766 13.1185L8.0625 13.3748ZM9.91309 8.28595L10.5951 8.59794L10.6371 8.50614L9.95508 8.19415L9.27305 7.88216L9.23106 7.97396L9.91309 8.28595ZM9.95508 8.19415L10.6093 8.56092C10.5864 8.6017 10.5421 8.62731 10.4935 8.6248L10.5322 7.87579L10.5709 7.12679C10.0422 7.09949 9.55324 7.37724 9.30087 7.82739L9.95508 8.19415Z" fill="#CEE5F2" mask="url(#path-2-outside-1_412_593)"/>
<path d="M4.75 4.75C4.75 3.64543 5.64543 2.75 6.75 2.75H13.4216C13.952 2.75 14.4607 2.96071 14.8358 3.33579L18.6642 7.16421C19.0393 7.53929 19.25 8.04799 19.25 8.57843V19.2459C19.25 20.3505 18.3546 21.2459 17.25 21.2459H6.75C5.64543 21.2459 4.75 20.3505 4.75 19.2459V4.75Z" stroke="url(#paint2_linear_412_593)" stroke-width="1.5"/>
</g>
<defs>
<linearGradient id="paint0_linear_412_593" x1="20" y1="2" x2="4" y2="22" gradientUnits="userSpaceOnUse">
<stop offset="0.2" stop-color="#8C6A3F"/>
<stop offset="0.9" stop-color="#402A0D"/>
</linearGradient>
<linearGradient id="paint1_linear_412_593" x1="5.43562" y1="13.8902" x2="18.5038" y2="13.8902" gradientUnits="userSpaceOnUse">
<stop stop-color="#015AB3"/>
<stop offset="1" stop-color="#FF8A00"/>
</linearGradient>
<linearGradient id="paint2_linear_412_593" x1="12" y1="2.75" x2="12" y2="21.2459" gradientUnits="userSpaceOnUse">
<stop stop-color="#CCA77D"/>
<stop offset="1" stop-color="#C47B1F"/>
</linearGradient>
<clipPath id="clip0_412_593">
<rect width="24" height="24" fill="white"/>
</clipPath>
</defs>
</svg>
