<svg width="24" height="24" viewBox="0 0 24 24" fill="none" xmlns="http://www.w3.org/2000/svg">
<g clip-path="url(#clip0_286_1212)">
<path d="M4 5C4 3.34315 5.34315 2 7 2H13.2574C14.053 2 14.8161 2.31607 15.3787 2.87868L19.1213 6.62132C19.6839 7.18393 20 7.94699 20 8.74264V19C20 20.6569 18.6569 22 17 22H7C5.34315 22 4 20.6569 4 19V5Z" fill="url(#paint0_linear_286_1212)"/>
<path d="M4.75 4.75C4.75 3.64543 5.64543 2.75 6.75 2.75H13.4216C13.952 2.75 14.4607 2.96071 14.8358 3.33579L18.6642 7.16421C19.0393 7.53929 19.25 8.04799 19.25 8.57843V19.2459C19.25 20.3505 18.3546 21.2459 17.25 21.2459H6.75C5.64543 21.2459 4.75 20.3505 4.75 19.2459V4.75Z" stroke="url(#paint1_linear_286_1212)" stroke-width="1.5"/>
<path d="M10.125 6.5C10.6082 6.5 11 6.89175 11 7.375V9.125C11 9.60825 10.6082 10 10.125 10H9.5V11.75H14C14.6904 11.75 15.25 12.3096 15.25 13V14.25H15.875C16.3582 14.25 16.75 14.6418 16.75 15.125V16.875C16.75 17.3582 16.3582 17.75 15.875 17.75H14.125C13.6418 17.75 13.25 17.3582 13.25 16.875V15.125C13.25 14.6418 13.6418 14.25 14.125 14.25H14.75V13C14.75 12.5858 14.4142 12.25 14 12.25H9.5V14.25H10.125C10.6082 14.25 11 14.6418 11 15.125V16.875C11 17.3582 10.6082 17.75 10.125 17.75H8.375C7.89175 17.75 7.5 17.3582 7.5 16.875V15.125C7.5 14.6418 7.89175 14.25 8.375 14.25H9V10H8.375C7.89175 10 7.5 9.60825 7.5 9.125V7.375C7.5 6.89175 7.89175 6.5 8.375 6.5H10.125Z" fill="#13151A"/>
</g>
<defs>
<linearGradient id="paint0_linear_286_1212" x1="20" y1="2" x2="4" y2="22" gradientUnits="userSpaceOnUse">
<stop offset="0.2" stop-color="#F2FBFF"/>
<stop offset="0.9" stop-color="#CFDBE6"/>
</linearGradient>
<linearGradient id="paint1_linear_286_1212" x1="12" y1="2.75" x2="12" y2="21.2459" gradientUnits="userSpaceOnUse">
<stop stop-color="#C3CFD9"/>
<stop offset="1" stop-color="#879099"/>
</linearGradient>
<clipPath id="clip0_286_1212">
<rect width="24" height="24" fill="white"/>
</clipPath>
</defs>
</svg>
