<svg width="24" height="24" viewBox="0 0 24 24" fill="none" xmlns="http://www.w3.org/2000/svg">
<g clip-path="url(#clip0_234_99)">
<path d="M4 5C4 3.34315 5.34315 2 7 2H13.2574C14.053 2 14.8161 2.31607 15.3787 2.87868L19.1213 6.62132C19.6839 7.18393 20 7.94699 20 8.74264V19C20 20.6569 18.6569 22 17 22H7C5.34315 22 4 20.6569 4 19V5Z" fill="url(#paint0_linear_234_99)"/>
<path d="M10.7122 6.75C8.66226 6.75 7.0004 8.00482 7.00031 9.55273C7.00031 10.3187 7.40823 11.0117 8.06769 11.5176C7.90867 11.8317 7.684 12.2032 7.3548 12.5859C7.26318 12.6925 7.34389 12.8637 7.4837 12.8496C8.21149 12.7753 9.1094 12.6252 9.77081 12.2607C10.0717 12.3202 10.3867 12.3555 10.7122 12.3555C12.7622 12.3555 14.4241 11.1007 14.4241 9.55273C14.424 8.00481 12.7622 6.75 10.7122 6.75Z" fill="#419DCC"/>
<path d="M10.7122 6.75L10.7122 6.5H10.7122V6.75ZM7.00031 9.55273H6.75031V9.55272L7.00031 9.55273ZM8.06769 11.5176L8.21986 11.3192L8.3844 11.4455L8.29074 11.6305L8.06769 11.5176ZM7.3548 12.5859L7.1652 12.423L7.16526 12.4229L7.3548 12.5859ZM7.4837 12.8496L7.50908 13.0983L7.50885 13.0983L7.4837 12.8496ZM9.77081 12.2607L9.65016 12.0418L9.72992 11.9978L9.81927 12.0155L9.77081 12.2607ZM10.7122 12.3555V12.6055H10.7122L10.7122 12.3555ZM14.4241 9.55273L14.6741 9.55272V9.55273H14.4241ZM10.7122 6.75L10.7122 7C9.7365 7 8.86263 7.29893 8.23821 7.77041C7.61392 8.24179 7.25035 8.87439 7.25031 9.55275L7.00031 9.55273L6.75031 9.55272C6.75036 8.68316 7.21776 7.91439 7.93691 7.37139C8.65593 6.82848 9.63798 6.5 10.7122 6.5L10.7122 6.75ZM7.00031 9.55273H7.25031C7.25031 10.2238 7.60707 10.8491 8.21986 11.3192L8.06769 11.5176L7.91552 11.7159C7.2094 11.1742 6.75031 10.4136 6.75031 9.55273H7.00031ZM8.06769 11.5176L8.29074 11.6305C8.12456 11.9588 7.88924 12.348 7.54433 12.749L7.3548 12.5859L7.16526 12.4229C7.47876 12.0584 7.69277 11.7047 7.84463 11.4047L8.06769 11.5176ZM7.3548 12.5859L7.5444 12.7489C7.57076 12.7182 7.56948 12.679 7.55767 12.6545C7.5515 12.6417 7.5403 12.6272 7.52184 12.6159C7.50177 12.6037 7.47861 12.5989 7.45856 12.6009L7.4837 12.8496L7.50885 13.0983C7.3197 13.1175 7.1724 13.0067 7.10726 12.8716C7.04305 12.7384 7.04722 12.5603 7.1652 12.423L7.3548 12.5859ZM7.4837 12.8496L7.45833 12.6009C8.18255 12.527 9.03634 12.38 9.65016 12.0418L9.77081 12.2607L9.89147 12.4797C9.18247 12.8704 8.24043 13.0237 7.50908 13.0983L7.4837 12.8496ZM9.77081 12.2607L9.81927 12.0155C10.1061 12.0721 10.4048 12.1055 10.7122 12.1055L10.7122 12.3555L10.7122 12.6055C10.3686 12.6055 10.0373 12.5682 9.72236 12.506L9.77081 12.2607ZM10.7122 12.3555V12.1055C11.688 12.1055 12.5619 11.8066 13.1863 11.3351C13.8106 10.8637 14.1741 10.2311 14.1741 9.55273H14.4241H14.6741C14.6741 10.4223 14.2067 11.1911 13.4876 11.7341C12.7686 12.277 11.7865 12.6055 10.7122 12.6055V12.3555ZM14.4241 9.55273L14.1741 9.55275C14.1741 8.87439 13.8105 8.24179 13.1862 7.77041C12.5618 7.29893 11.6879 7 10.7122 7V6.75V6.5C11.7865 6.5 12.7685 6.82848 13.4875 7.37138C14.2067 7.91439 14.6741 8.68316 14.6741 9.55272L14.4241 9.55273Z" fill="black"/>
<path d="M13.2878 11.1437C15.3378 11.1437 16.9997 12.3985 16.9998 13.9464C16.9998 14.7124 16.5918 15.4053 15.9324 15.9113C16.0914 16.2254 16.3161 16.5969 16.6453 16.9796C16.7369 17.0862 16.6562 17.2574 16.5164 17.2433C15.7886 17.169 14.8907 17.0189 14.2292 16.6544C13.9284 16.7139 13.6134 16.7491 13.2878 16.7491C11.2378 16.7491 9.57593 15.4944 9.57593 13.9464C9.57602 12.3985 11.2379 11.1437 13.2878 11.1437Z" fill="#D58119"/>
<path d="M13.2878 11.1437L13.2878 10.8937H13.2878V11.1437ZM16.9998 13.9464H17.2498V13.9464L16.9998 13.9464ZM15.9324 15.9113L15.7802 15.7129L15.6157 15.8391L15.7093 16.0242L15.9324 15.9113ZM16.6453 16.9796L16.8349 16.8167L16.8348 16.8166L16.6453 16.9796ZM16.5164 17.2433L16.491 17.492L16.4912 17.492L16.5164 17.2433ZM14.2292 16.6544L14.3499 16.4355L14.2701 16.3915L14.1808 16.4092L14.2292 16.6544ZM13.2878 16.7491V16.9991H13.2878L13.2878 16.7491ZM9.57593 13.9464L9.32593 13.9464V13.9464H9.57593ZM13.2878 11.1437L13.2878 11.3937C14.2636 11.3937 15.1374 11.6926 15.7619 12.1641C16.3861 12.6355 16.7497 13.2681 16.7498 13.9464L16.9998 13.9464L17.2498 13.9464C17.2497 13.0768 16.7823 12.3081 16.0631 11.7651C15.3441 11.2222 14.3621 10.8937 13.2878 10.8937L13.2878 11.1437ZM16.9998 13.9464H16.7498C16.7498 14.6175 16.393 15.2428 15.7802 15.7129L15.9324 15.9113L16.0845 16.1096C16.7907 15.5679 17.2498 14.8072 17.2498 13.9464H16.9998ZM15.9324 15.9113L15.7093 16.0242C15.8755 16.3525 16.1108 16.7416 16.4557 17.1426L16.6453 16.9796L16.8348 16.8166C16.5213 16.4521 16.3073 16.0984 16.1554 15.7984L15.9324 15.9113ZM16.6453 16.9796L16.4557 17.1426C16.4293 17.1119 16.4306 17.0727 16.4424 17.0482C16.4486 17.0354 16.4598 17.0208 16.4782 17.0096C16.4983 16.9974 16.5215 16.9925 16.5415 16.9946L16.5164 17.2433L16.4912 17.492C16.6804 17.5111 16.8277 17.4004 16.8928 17.2653C16.957 17.1321 16.9528 16.9539 16.8349 16.8167L16.6453 16.9796ZM16.5164 17.2433L16.5417 16.9946C15.8175 16.9207 14.9637 16.7737 14.3499 16.4355L14.2292 16.6544L14.1086 16.8734C14.8176 17.2641 15.7596 17.4174 16.491 17.492L16.5164 17.2433ZM14.2292 16.6544L14.1808 16.4092C13.894 16.4658 13.5953 16.4991 13.2878 16.4991L13.2878 16.7491L13.2878 16.9991C13.6315 16.9991 13.9628 16.9619 14.2777 16.8997L14.2292 16.6544ZM13.2878 16.7491V16.4991C12.3121 16.4991 11.4382 16.2002 10.8138 15.7288C10.1895 15.2574 9.82593 14.6248 9.82593 13.9464H9.57593H9.32593C9.32593 14.816 9.79332 15.5848 10.5125 16.1278C11.2315 16.6707 12.2136 16.9991 13.2878 16.9991V16.7491ZM9.57593 13.9464L9.82593 13.9464C9.82597 13.2681 10.1895 12.6355 10.8138 12.1641C11.4382 11.6926 12.3121 11.3937 13.2878 11.3937V11.1437V10.8937C12.2136 10.8937 11.2316 11.2222 10.5125 11.7651C9.79338 12.3081 9.32598 13.0768 9.32593 13.9464L9.57593 13.9464Z" fill="black"/>
<path d="M4.75 4.75C4.75 3.64543 5.64543 2.75 6.75 2.75H13.4216C13.952 2.75 14.4607 2.96071 14.8358 3.33579L18.6642 7.16421C19.0393 7.53929 19.25 8.04799 19.25 8.57843V19.2459C19.25 20.3505 18.3546 21.2459 17.25 21.2459H6.75C5.64543 21.2459 4.75 20.3505 4.75 19.2459V4.75Z" stroke="url(#paint1_linear_234_99)" stroke-width="1.5"/>
<path d="M15.3662 2.80567L19.1944 6.6338C19.5715 7.01096 19.8279 7.48646 19.9385 8.00001H16C14.8954 8.00001 14 7.10458 14 6.00001L14 2.06155C14.5136 2.17211 14.9891 2.42851 15.3662 2.80567Z" fill="#D8C9C2"/>
</g>
<defs>
<linearGradient id="paint0_linear_234_99" x1="20" y1="2" x2="4" y2="22" gradientUnits="userSpaceOnUse">
<stop stop-color="#C3A99C"/>
<stop offset="1" stop-color="#4F4E4E"/>
</linearGradient>
<linearGradient id="paint1_linear_234_99" x1="12" y1="2.75" x2="12" y2="21.2459" gradientUnits="userSpaceOnUse">
<stop stop-color="#DBCBC3"/>
<stop offset="1" stop-color="#727171"/>
</linearGradient>
<clipPath id="clip0_234_99">
<rect width="24" height="24" fill="white"/>
</clipPath>
</defs>
</svg>
