<svg width="24" height="24" viewBox="0 0 24 24" fill="none" xmlns="http://www.w3.org/2000/svg">
<g clip-path="url(#clip0_234_99)">
<path d="M4 5C4 3.34315 5.34315 2 7 2H13.2574C14.053 2 14.8161 2.31607 15.3787 2.87868L19.1213 6.62132C19.6839 7.18393 20 7.94699 20 8.74264V19C20 20.6569 18.6569 22 17 22H7C5.34315 22 4 20.6569 4 19V5Z" fill="url(#paint0_linear_234_99)"/>
<path d="M10.7122 7.25C8.66219 7.25 7.00034 8.50482 7.00024 10.0527C7.00024 10.8187 7.40817 11.5117 8.06763 12.0176C7.9086 12.3317 7.68394 12.7032 7.35474 13.0859C7.26312 13.1925 7.34383 13.3637 7.48364 13.3496C8.21143 13.2753 9.10934 13.1252 9.77075 12.7607C10.0716 12.8202 10.3866 12.8555 10.7122 12.8555C12.7622 12.8555 14.4241 11.6007 14.4241 10.0527C14.424 8.50481 12.7621 7.25 10.7122 7.25Z" fill="#419DCC"/>
<path d="M10.7122 7.25L10.7122 7H10.7122V7.25ZM7.00024 10.0527H6.75024V10.0527L7.00024 10.0527ZM8.06763 12.0176L8.2198 11.8192L8.38434 11.9455L8.29068 12.1305L8.06763 12.0176ZM7.35474 13.0859L7.16514 12.923L7.1652 12.9229L7.35474 13.0859ZM7.48364 13.3496L7.50902 13.5983L7.50879 13.5983L7.48364 13.3496ZM9.77075 12.7607L9.6501 12.5418L9.72986 12.4978L9.81921 12.5155L9.77075 12.7607ZM10.7122 12.8555V13.1055H10.7122L10.7122 12.8555ZM14.4241 10.0527L14.6741 10.0527V10.0527H14.4241ZM10.7122 7.25L10.7122 7.5C9.73644 7.5 8.86257 7.79893 8.23815 8.27041C7.61386 8.74179 7.25029 9.37439 7.25024 10.0527L7.00024 10.0527L6.75024 10.0527C6.7503 9.18316 7.2177 8.41439 7.93685 7.87139C8.65587 7.32848 9.63792 7 10.7122 7L10.7122 7.25ZM7.00024 10.0527H7.25024C7.25024 10.7238 7.607 11.3491 8.2198 11.8192L8.06763 12.0176L7.91546 12.2159C7.20934 11.6742 6.75024 10.9136 6.75024 10.0527H7.00024ZM8.06763 12.0176L8.29068 12.1305C8.1245 12.4588 7.88918 12.848 7.54427 13.249L7.35474 13.0859L7.1652 12.9229C7.4787 12.5584 7.69271 12.2047 7.84457 11.9047L8.06763 12.0176ZM7.35474 13.0859L7.54434 13.2489C7.57069 13.2182 7.56941 13.179 7.55761 13.1545C7.55144 13.1417 7.54024 13.1272 7.52178 13.1159C7.50171 13.1037 7.47855 13.0989 7.4585 13.1009L7.48364 13.3496L7.50879 13.5983C7.31964 13.6175 7.17234 13.5067 7.1072 13.3716C7.04299 13.2384 7.04716 13.0603 7.16514 12.923L7.35474 13.0859ZM7.48364 13.3496L7.45826 13.1009C8.18249 13.027 9.03627 12.88 9.6501 12.5418L9.77075 12.7607L9.89141 12.9797C9.18241 13.3704 8.24036 13.5237 7.50902 13.5983L7.48364 13.3496ZM9.77075 12.7607L9.81921 12.5155C10.106 12.5721 10.4047 12.6055 10.7122 12.6055L10.7122 12.8555L10.7122 13.1055C10.3685 13.1055 10.0372 13.0682 9.7223 13.006L9.77075 12.7607ZM10.7122 12.8555V12.6055C11.6879 12.6055 12.5618 12.3066 13.1862 11.8351C13.8105 11.3637 14.1741 10.7311 14.1741 10.0527H14.4241H14.6741C14.6741 10.9223 14.2067 11.6911 13.4875 12.2341C12.7685 12.777 11.7864 13.1055 10.7122 13.1055V12.8555ZM14.4241 10.0527L14.1741 10.0527C14.174 9.37439 13.8105 8.74179 13.1862 8.27041C12.5618 7.79893 11.6879 7.5 10.7122 7.5V7.25V7C11.7864 7 12.7684 7.32848 13.4875 7.87138C14.2066 8.41439 14.674 9.18316 14.6741 10.0527L14.4241 10.0527Z" fill="black"/>
<path d="M13.2878 11.6437C15.3378 11.6437 16.9997 12.8985 16.9998 14.4464C16.9998 15.2124 16.5918 15.9053 15.9324 16.4113C16.0914 16.7254 16.3161 17.0969 16.6453 17.4796C16.7369 17.5862 16.6562 17.7574 16.5164 17.7433C15.7886 17.669 14.8907 17.5189 14.2292 17.1544C13.9284 17.2139 13.6134 17.2491 13.2878 17.2491C11.2378 17.2491 9.57593 15.9944 9.57593 14.4464C9.57602 12.8985 11.2379 11.6437 13.2878 11.6437Z" fill="#D58119"/>
<path d="M13.2878 11.6437L13.2878 11.3937H13.2878V11.6437ZM16.9998 14.4464H17.2498V14.4464L16.9998 14.4464ZM15.9324 16.4113L15.7802 16.2129L15.6157 16.3391L15.7093 16.5242L15.9324 16.4113ZM16.6453 17.4796L16.8349 17.3167L16.8348 17.3166L16.6453 17.4796ZM16.5164 17.7433L16.491 17.992L16.4912 17.992L16.5164 17.7433ZM14.2292 17.1544L14.3499 16.9355L14.2701 16.8915L14.1808 16.9092L14.2292 17.1544ZM13.2878 17.2491V17.4991H13.2878L13.2878 17.2491ZM9.57593 14.4464L9.32593 14.4464V14.4464H9.57593ZM13.2878 11.6437L13.2878 11.8937C14.2636 11.8937 15.1374 12.1926 15.7619 12.6641C16.3861 13.1355 16.7497 13.7681 16.7498 14.4464L16.9998 14.4464L17.2498 14.4464C17.2497 13.5768 16.7823 12.8081 16.0631 12.2651C15.3441 11.7222 14.3621 11.3937 13.2878 11.3937L13.2878 11.6437ZM16.9998 14.4464H16.7498C16.7498 15.1175 16.393 15.7428 15.7802 16.2129L15.9324 16.4113L16.0845 16.6096C16.7907 16.0679 17.2498 15.3072 17.2498 14.4464H16.9998ZM15.9324 16.4113L15.7093 16.5242C15.8755 16.8525 16.1108 17.2416 16.4557 17.6426L16.6453 17.4796L16.8348 17.3166C16.5213 16.9521 16.3073 16.5984 16.1554 16.2984L15.9324 16.4113ZM16.6453 17.4796L16.4557 17.6426C16.4293 17.6119 16.4306 17.5727 16.4424 17.5482C16.4486 17.5354 16.4598 17.5208 16.4782 17.5096C16.4983 17.4974 16.5215 17.4925 16.5415 17.4946L16.5164 17.7433L16.4912 17.992C16.6804 18.0111 16.8277 17.9004 16.8928 17.7653C16.957 17.6321 16.9528 17.4539 16.8349 17.3167L16.6453 17.4796ZM16.5164 17.7433L16.5417 17.4946C15.8175 17.4207 14.9637 17.2737 14.3499 16.9355L14.2292 17.1544L14.1086 17.3734C14.8176 17.7641 15.7596 17.9174 16.491 17.992L16.5164 17.7433ZM14.2292 17.1544L14.1808 16.9092C13.894 16.9658 13.5953 16.9991 13.2878 16.9991L13.2878 17.2491L13.2878 17.4991C13.6315 17.4991 13.9628 17.4619 14.2777 17.3997L14.2292 17.1544ZM13.2878 17.2491V16.9991C12.3121 16.9991 11.4382 16.7002 10.8138 16.2288C10.1895 15.7574 9.82593 15.1248 9.82593 14.4464H9.57593H9.32593C9.32593 15.316 9.79332 16.0848 10.5125 16.6278C11.2315 17.1707 12.2136 17.4991 13.2878 17.4991V17.2491ZM9.57593 14.4464L9.82593 14.4464C9.82597 13.7681 10.1895 13.1355 10.8138 12.6641C11.4382 12.1926 12.3121 11.8937 13.2878 11.8937V11.6437V11.3937C12.2136 11.3937 11.2316 11.7222 10.5125 12.2651C9.79338 12.8081 9.32598 13.5768 9.32593 14.4464L9.57593 14.4464Z" fill="black"/>
<path d="M4.75 4.75C4.75 3.64543 5.64543 2.75 6.75 2.75H13.4216C13.952 2.75 14.4607 2.96071 14.8358 3.33579L18.6642 7.16421C19.0393 7.53929 19.25 8.04799 19.25 8.57843V19.2459C19.25 20.3505 18.3546 21.2459 17.25 21.2459H6.75C5.64543 21.2459 4.75 20.3505 4.75 19.2459V4.75Z" stroke="url(#paint1_linear_234_99)" stroke-width="1.5"/>
</g>
<defs>
<linearGradient id="paint0_linear_234_99" x1="20" y1="2" x2="4" y2="22" gradientUnits="userSpaceOnUse">
<stop offset="0.2" stop-color="#C3A99C"/>
<stop offset="0.9" stop-color="#4F4E4E"/>
</linearGradient>
<linearGradient id="paint1_linear_234_99" x1="12" y1="2.75" x2="12" y2="21.2459" gradientUnits="userSpaceOnUse">
<stop stop-color="#DBCBC3"/>
<stop offset="1" stop-color="#727171"/>
</linearGradient>
<clipPath id="clip0_234_99">
<rect width="24" height="24" fill="white"/>
</clipPath>
</defs>
</svg>
