<svg width="24" height="24" viewBox="0 0 24 24" fill="none" xmlns="http://www.w3.org/2000/svg">
<g clip-path="url(#clip0_412_584)">
<path d="M4 5C4 3.34315 5.34315 2 7 2H13.2574C14.053 2 14.8161 2.31607 15.3787 2.87868L19.1213 6.62132C19.6839 7.18393 20 7.94699 20 8.74264V19C20 20.6569 18.6569 22 17 22H7C5.34315 22 4 20.6569 4 19V5Z" fill="url(#paint0_linear_412_584)"/>
<path d="M17.2924 14.9053C17.5391 15.0288 17.6394 15.3293 17.516 15.5762C17.3925 15.8231 17.092 15.9231 16.8451 15.7998L14.8744 14.8145L12.5004 15.6055V16.4922L14.7543 15.7412C15.0162 15.6541 15.2988 15.7957 15.3861 16.0576C15.4732 16.3193 15.3322 16.6019 15.0707 16.6895L12.5004 17.5459V18.4336L14.7543 17.6826C15.0162 17.5954 15.2988 17.7371 15.3861 17.999C15.473 18.2607 15.3322 18.5434 15.0707 18.6309L12.0004 19.6543L11.8422 19.6016L8.93103 18.6309C8.66921 18.5436 8.52761 18.2609 8.61462 17.999C8.70195 17.7371 8.98546 17.5953 9.24744 17.6826L11.5004 18.4336V17.5459L8.93103 16.6895C8.66913 16.6022 8.52744 16.3195 8.61462 16.0576C8.70195 15.7956 8.98546 15.6539 9.24744 15.7412L11.5004 16.4922V15.6055L9.12634 14.8135L7.15564 15.7998C6.90872 15.9233 6.6083 15.823 6.48474 15.5762C6.36144 15.3292 6.46147 15.0287 6.70837 14.9053L8.8656 13.8271L9.05017 13.7344L9.24646 13.7998L11.5004 14.5508V14.4902C11.5004 14.2141 11.7243 13.9903 12.0004 13.9902C12.2764 13.9903 12.5004 14.2142 12.5004 14.4902V14.5508L14.7543 13.7998L14.9506 13.7344L17.2924 14.9053ZM6.93201 16.1465C7.2079 16.1466 7.43176 16.3706 7.43201 16.6465V18.1562C7.43192 18.4323 7.208 18.6561 6.93201 18.6562C6.65592 18.6562 6.43209 18.4323 6.43201 18.1562V16.6465C6.43225 16.3705 6.65601 16.1465 6.93201 16.1465ZM17.0687 16.1465C17.3446 16.1466 17.5685 16.3706 17.5687 16.6465V18.1562C17.5686 18.4323 17.3447 18.6561 17.0687 18.6562C16.7928 18.6561 16.5688 18.4322 16.5687 18.1562V16.6465C16.569 16.3707 16.7929 16.1467 17.0687 16.1465ZM12.0004 5C14.0253 5.00003 15.6674 6.64201 15.6674 8.66699V10.2842C15.6674 11.0584 15.0393 11.6865 14.265 11.6865H13.726L13.2933 12.8115C13.2293 12.9781 13.0685 13.0879 12.89 13.0879H11.1107C10.9322 13.0879 10.7715 12.9781 10.7074 12.8115L10.2748 11.6865H9.73572C8.96145 11.6865 8.33337 11.0584 8.33337 10.2842V8.66699C8.33337 6.64199 9.97537 5 12.0004 5ZM12.1732 9.97461C12.087 9.85973 11.9138 9.85977 11.8275 9.97461L11.4398 10.4922C11.3838 10.5669 11.3529 10.6586 11.3529 10.752V11.0479C11.3529 11.1619 11.4459 11.2549 11.5599 11.2549C11.6325 11.2548 11.6994 11.2165 11.7367 11.1543L11.9076 10.8701C11.9495 10.8003 12.0513 10.8003 12.0931 10.8701L12.264 11.1543C12.3014 11.2165 12.3683 11.2549 12.4408 11.2549C12.5549 11.2549 12.6478 11.1619 12.6478 11.0479V10.752C12.6478 10.6586 12.6169 10.5669 12.5609 10.4922L12.1732 9.97461ZM9.73572 8.23535C9.3785 8.23535 9.08848 8.52468 9.08826 8.88184V9.20605C9.08841 9.6824 9.47516 10.0684 9.95154 10.0684H10.598C10.9552 10.0684 11.2453 9.77904 11.2455 9.42188C11.2455 8.76673 10.7141 8.23535 10.059 8.23535H9.73572ZM13.975 8.23535C13.32 8.2355 12.7894 8.76682 12.7894 9.42188C12.7897 9.77899 13.0788 10.0683 13.4359 10.0684H14.0834C14.5596 10.0682 14.9455 9.6823 14.9457 9.20605V8.88184C14.9455 8.52481 14.6562 8.23557 14.2992 8.23535H13.975Z" fill="black"/>
<path d="M4.75 4.75C4.75 3.64543 5.64543 2.75 6.75 2.75H13.4216C13.952 2.75 14.4607 2.96071 14.8358 3.33579L18.6642 7.16421C19.0393 7.53929 19.25 8.04799 19.25 8.57843V19.2459C19.25 20.3505 18.3546 21.2459 17.25 21.2459H6.75C5.64543 21.2459 4.75 20.3505 4.75 19.2459V4.75Z" stroke="url(#paint1_linear_412_584)" stroke-width="1.5"/>
</g>
<defs>
<linearGradient id="paint0_linear_412_584" x1="20" y1="2" x2="4" y2="22" gradientUnits="userSpaceOnUse">
<stop offset="0.2" stop-color="#E6E6E6"/>
<stop offset="0.9" stop-color="#8C8C8C"/>
</linearGradient>
<linearGradient id="paint1_linear_412_584" x1="12" y1="2.75" x2="12" y2="21.2459" gradientUnits="userSpaceOnUse">
<stop stop-color="#8E8E8E"/>
<stop offset="1" stop-color="#575757"/>
</linearGradient>
<clipPath id="clip0_412_584">
<rect width="24" height="24" fill="white"/>
</clipPath>
</defs>
</svg>
