<svg width="24" height="24" viewBox="0 0 24 24" fill="none" xmlns="http://www.w3.org/2000/svg">
<g clip-path="url(#clip0_215_423)">
<path d="M4 5C4 3.34315 5.34315 2 7 2H13.2574C14.053 2 14.8161 2.31607 15.3787 2.87868L19.1213 6.62132C19.6839 7.18393 20 7.94699 20 8.74264V19C20 20.6569 18.6569 22 17 22H7C5.34315 22 4 20.6569 4 19V5Z" fill="url(#paint0_linear_215_423)"/>
<path d="M17.2924 14.9053C17.5392 15.0288 17.6394 15.3293 17.5161 15.5762C17.3926 15.8231 17.0921 15.9231 16.8452 15.7998L14.8745 14.8145L12.5004 15.6055V16.4922L14.7543 15.7412C15.0162 15.6541 15.2989 15.7958 15.3862 16.0576C15.4733 16.3193 15.3322 16.6019 15.0707 16.6895L12.5004 17.5459V18.4336L14.7543 17.6826C15.0162 17.5955 15.2989 17.7371 15.3862 17.999C15.4731 18.2607 15.3322 18.5434 15.0707 18.6309L12.0004 19.6543L11.8422 19.6016L8.93109 18.6309C8.66926 18.5436 8.52766 18.2609 8.61469 17.999C8.70201 17.7371 8.98553 17.5953 9.2475 17.6826L11.5004 18.4336V17.5459L8.93109 16.6895C8.66918 16.6021 8.52749 16.3195 8.61469 16.0576C8.70201 15.7956 8.98553 15.6539 9.2475 15.7412L11.5004 16.4922V15.6055L9.1264 14.8135L7.1557 15.7998C6.90879 15.9233 6.60837 15.823 6.4848 15.5762C6.3615 15.3292 6.46153 15.0287 6.70844 14.9053L8.86566 13.8271L9.05023 13.7344L9.24652 13.7998L11.5004 14.5508V14.4902C11.5004 14.2141 11.7244 13.9903 12.0004 13.9902C12.2764 13.9904 12.5004 14.2142 12.5004 14.4902V14.5508L14.7543 13.7998L14.9506 13.7344L17.2924 14.9053ZM6.93207 16.1465C7.20794 16.1466 7.43182 16.3706 7.43207 16.6465V18.1562C7.43198 18.4322 7.20804 18.6561 6.93207 18.6562C6.65598 18.6562 6.43215 18.4323 6.43207 18.1562V16.6465C6.43231 16.3705 6.65608 16.1465 6.93207 16.1465ZM17.0688 16.1465C17.3447 16.1466 17.5685 16.3706 17.5688 16.6465V18.1562C17.5687 18.4322 17.3448 18.6561 17.0688 18.6562C16.7928 18.6561 16.5689 18.4322 16.5688 18.1562V16.6465C16.569 16.3707 16.7929 16.1467 17.0688 16.1465ZM12.0004 5C14.0254 5.00006 15.6664 6.64203 15.6664 8.66699V10.2842C15.6664 11.0584 15.0393 11.6865 14.2651 11.6865H13.726L13.2934 12.8115C13.2293 12.9781 13.0686 13.0879 12.8901 13.0879H11.1108C10.9323 13.0879 10.7715 12.9781 10.7075 12.8115L10.2748 11.6865H9.73578C8.96151 11.6865 8.33344 11.0584 8.33344 10.2842V8.66699C8.33344 6.64199 9.97543 5 12.0004 5ZM12.1733 9.97461C12.087 9.85971 11.9139 9.85979 11.8276 9.97461L11.4399 10.4922C11.3839 10.5669 11.353 10.6586 11.353 10.752V11.0479C11.353 11.1619 11.4459 11.2549 11.56 11.2549C11.6325 11.2548 11.6995 11.2165 11.7368 11.1543L11.9077 10.8701C11.9495 10.8003 12.0513 10.8003 12.0932 10.8701L12.2641 11.1543C12.3014 11.2165 12.3683 11.2549 12.4409 11.2549C12.5549 11.2548 12.6469 11.1619 12.6469 11.0479V10.752C12.6469 10.6586 12.617 10.5669 12.561 10.4922L12.1733 9.97461ZM9.73578 8.23535C9.37857 8.23535 9.08854 8.52468 9.08832 8.88184V9.20605C9.08847 9.6824 9.47522 10.0684 9.9516 10.0684H10.5981C10.9553 10.0684 11.2453 9.77904 11.2455 9.42188C11.2455 8.76673 10.7142 8.23535 10.059 8.23535H9.73578ZM13.975 8.23535C13.32 8.23547 12.7895 8.7668 12.7895 9.42188C12.7897 9.77901 13.0788 10.0683 13.436 10.0684H14.0834C14.5597 10.0682 14.9456 9.68229 14.9457 9.20605V8.88184C14.9455 8.52483 14.6563 8.23561 14.2993 8.23535H13.975Z" fill="black"/>
<path d="M4.75 4.75C4.75 3.64543 5.64543 2.75 6.75 2.75H13.4216C13.952 2.75 14.4607 2.96071 14.8358 3.33579L18.6642 7.16421C19.0393 7.53929 19.25 8.04799 19.25 8.57843V19.2459C19.25 20.3505 18.3546 21.2459 17.25 21.2459H6.75C5.64543 21.2459 4.75 20.3505 4.75 19.2459V4.75Z" stroke="url(#paint1_linear_215_423)" stroke-width="1.5"/>
<path d="M15.3662 2.80566L19.1944 6.63378C19.5715 7.01095 19.8279 7.48644 19.9385 8H16C14.8954 8 14 7.10456 14 5.99999L14 2.06154C14.5136 2.17209 14.9891 2.4285 15.3662 2.80566Z" fill="#D0D0D1"/>
</g>
<defs>
<linearGradient id="paint0_linear_215_423" x1="20" y1="2" x2="4" y2="22" gradientUnits="userSpaceOnUse">
<stop stop-color="#8B8B8B"/>
<stop offset="1" stop-color="#4E4E4E"/>
</linearGradient>
<linearGradient id="paint1_linear_215_423" x1="12" y1="2.75" x2="12" y2="21.2459" gradientUnits="userSpaceOnUse">
<stop stop-color="#B5B5B5"/>
<stop offset="1" stop-color="#767676"/>
</linearGradient>
<clipPath id="clip0_215_423">
<rect width="24" height="24" fill="white"/>
</clipPath>
</defs>
</svg>
