<svg width="24" height="24" viewBox="0 0 24 24" fill="none" xmlns="http://www.w3.org/2000/svg">
<g clip-path="url(#clip0_258_359)">
<path d="M4 5C4 3.34315 5.34315 2 7 2H13.2574C14.053 2 14.8161 2.31607 15.3787 2.87868L19.1213 6.62132C19.6839 7.18393 20 7.94699 20 8.74264V19C20 20.6569 18.6569 22 17 22H7C5.34315 22 4 20.6569 4 19V5Z" fill="url(#paint0_linear_258_359)"/>
<path d="M4.75 4.75C4.75 3.64543 5.64543 2.75 6.75 2.75H13.4216C13.952 2.75 14.4607 2.96071 14.8358 3.33579L18.6642 7.16421C19.0393 7.53929 19.25 8.04799 19.25 8.57843V19.2459C19.25 20.3505 18.3546 21.2459 17.25 21.2459H6.75C5.64543 21.2459 4.75 20.3505 4.75 19.2459V4.75Z" stroke="url(#paint1_linear_258_359)" stroke-width="1.5"/>
<path d="M15.3662 2.80567L19.1944 6.6338C19.5715 7.01096 19.8279 7.48646 19.9385 8.00001H16C14.8954 8.00001 14 7.10458 14 6.00001L14 2.06155C14.5136 2.17211 14.9891 2.42851 15.3662 2.80567Z" fill="white"/>
<path d="M11.467 6.18426C11.4849 5.42044 12.4957 5.23056 12.7473 5.95184C12.9732 6.31338 13.3461 6.70201 13.6281 7.07391C13.9653 7.51998 14.3371 7.93727 14.757 8.30731C15.9924 9.35945 16.6737 10.9388 16.5979 12.4889C16.5564 13.438 16.1476 14.3726 15.4768 15.0055C15.4471 15.0341 15.4168 15.0627 15.386 15.0905C15.1361 15.3139 14.8854 15.5366 14.635 15.7595C14.5951 15.7948 14.5413 15.8136 14.4865 15.8122C14.4316 15.8106 14.3798 15.7883 14.342 15.7507C14.3044 15.713 14.2823 15.6619 14.2805 15.6071C14.2789 15.5521 14.2977 15.4977 14.3332 15.4577C14.5561 15.2073 14.7798 14.9575 15.0031 14.7077C15.0267 14.6811 15.0491 14.6536 15.0715 14.6266C15.5777 14.0244 15.8069 13.2479 15.7424 12.4948C15.6393 11.2505 14.7988 10.1679 13.8186 9.55828C13.426 9.30015 13.0637 8.99666 12.7395 8.65887V17.1794C12.7394 17.291 12.7054 17.3978 12.6486 17.4919C12.4768 18.1046 12.0162 18.7009 11.3381 19.0925C10.1501 19.7783 8.74979 19.5782 8.21115 18.6452C7.67281 17.7124 8.19941 16.4004 9.38693 15.7145C10.0978 15.3041 10.8842 15.2127 11.5168 15.404V6.85809C11.5168 6.63373 11.4965 6.40861 11.467 6.18426Z" fill="black"/>
<path d="M11.0533 5.72327C11.0714 4.95982 12.0818 4.77008 12.3336 5.49084C12.5594 5.85239 12.9323 6.24099 13.2144 6.61292C13.5516 7.05902 13.9234 7.47624 14.3433 7.84631C15.5788 8.8984 16.2599 10.4778 16.1841 12.028C16.1428 12.9772 15.7339 13.9115 15.063 14.5446C15.0333 14.5732 15.0031 14.6017 14.9722 14.6295C14.7224 14.8529 14.4717 15.0756 14.2213 15.2985C14.1813 15.3339 14.1276 15.3526 14.0728 15.3512C14.0178 15.3495 13.9661 15.3274 13.9283 15.2897C13.8907 15.252 13.8685 15.2009 13.8668 15.1461C13.8653 15.0912 13.884 15.0367 13.9195 14.9967C14.1423 14.7463 14.366 14.4965 14.5894 14.2467C14.613 14.2201 14.6354 14.1926 14.6578 14.1656C15.164 13.5633 15.3933 12.787 15.3287 12.0338C15.2255 10.7895 14.3851 9.70678 13.4048 9.09729C13.0123 8.83912 12.65 8.53571 12.3257 8.19788V16.7184C12.3257 16.8302 12.2928 16.9377 12.2359 17.0319C12.064 17.6446 11.6026 18.2409 10.9244 18.6324C9.73657 19.318 8.33707 19.1179 7.7984 18.1852C7.25975 17.2522 7.78622 15.9394 8.97418 15.2535C9.68474 14.8433 10.4706 14.752 11.1031 14.943V6.39709C11.1031 6.17271 11.0828 5.94765 11.0533 5.72327Z" fill="url(#paint2_linear_258_359)"/>
</g>
<defs>
<linearGradient id="paint0_linear_258_359" x1="20" y1="2" x2="4" y2="22" gradientUnits="userSpaceOnUse">
<stop stop-color="#E1E1E1"/>
<stop offset="1" stop-color="#A1A9B0"/>
</linearGradient>
<linearGradient id="paint1_linear_258_359" x1="12" y1="2.75" x2="12" y2="21.2459" gradientUnits="userSpaceOnUse">
<stop stop-color="#EEEEEE"/>
<stop offset="1" stop-color="#E5E5E5"/>
</linearGradient>
<linearGradient id="paint2_linear_258_359" x1="12.0479" y1="5.23241" x2="12.0479" y2="18.7046" gradientUnits="userSpaceOnUse">
<stop stop-color="#55BBFF"/>
<stop offset="1" stop-color="#1676E3"/>
</linearGradient>
<clipPath id="clip0_258_359">
<rect width="24" height="24" fill="white"/>
</clipPath>
</defs>
</svg>
