<svg width="24" height="24" viewBox="0 0 24 24" fill="none" xmlns="http://www.w3.org/2000/svg">
<g clip-path="url(#clip0_287_1237)">
<path d="M4 5C4 3.34315 5.34315 2 7 2H13.2574C14.053 2 14.8161 2.31607 15.3787 2.87868L19.1213 6.62132C19.6839 7.18393 20 7.94699 20 8.74264V19C20 20.6569 18.6569 22 17 22H7C5.34315 22 4 20.6569 4 19V5Z" fill="url(#paint0_linear_287_1237)"/>
<path d="M4.75 4.75C4.75 3.64543 5.64543 2.75 6.75 2.75H13.4216C13.952 2.75 14.4607 2.96071 14.8358 3.33579L18.6642 7.16421C19.0393 7.53929 19.25 8.04799 19.25 8.57843V19.2459C19.25 20.3505 18.3546 21.2459 17.25 21.2459H6.75C5.64543 21.2459 4.75 20.3505 4.75 19.2459V4.75Z" stroke="url(#paint1_linear_287_1237)" stroke-width="1.5"/>
<path d="M11.6223 7.36096C11.6369 6.73942 12.4597 6.58541 12.6643 7.17249C12.8482 7.4666 13.1516 7.78206 13.3811 8.08459C13.6555 8.44759 13.9574 8.78738 14.2991 9.0885C15.3043 9.9446 15.8589 11.2295 15.7971 12.4908C15.7634 13.2632 15.4309 14.0236 14.885 14.5387C14.8609 14.5619 14.8359 14.5844 14.8108 14.6071C14.6075 14.7888 14.4041 14.9707 14.2004 15.152C14.168 15.1808 14.1239 15.1961 14.0793 15.1949C14.0346 15.1936 13.992 15.1759 13.9612 15.1451C13.9305 15.1145 13.9128 15.0726 13.9114 15.028C13.9101 14.9832 13.9254 14.9385 13.9543 14.9059C14.1357 14.7022 14.3175 14.4988 14.4993 14.2955C14.5185 14.2738 14.5377 14.2521 14.5559 14.2301C14.9677 13.7401 15.1543 13.1085 15.1018 12.4957C15.0179 11.4833 14.3339 10.6021 13.5364 10.1061C13.2166 9.89583 12.9215 9.64886 12.6575 9.37366V16.3073C12.6574 16.3979 12.63 16.4846 12.5842 16.5612C12.4445 17.0599 12.0697 17.5452 11.5178 17.8639C10.5512 18.422 9.41215 18.2587 8.97388 17.4996C8.53591 16.7405 8.96446 15.6728 9.93091 15.1149C10.5093 14.7811 11.1487 14.7072 11.6633 14.8629V7.90881C11.6633 7.72622 11.6463 7.54356 11.6223 7.36096Z" fill="black"/>
<path d="M11.2087 6.90005C11.2232 6.27844 12.046 6.12444 12.2507 6.71158C12.4345 7.00571 12.738 7.32113 12.9675 7.62369C13.2418 7.98665 13.5438 8.32648 13.8854 8.62759C14.8909 9.48384 15.4453 10.7693 15.3835 12.0309C15.3497 12.8032 15.0172 13.5627 14.4714 14.0778C14.4473 14.101 14.4222 14.1245 14.3972 14.1471C14.194 14.3288 13.9904 14.5108 13.7868 14.692C13.7543 14.7208 13.7103 14.7362 13.6657 14.735C13.621 14.7336 13.5783 14.7159 13.5475 14.6852C13.5169 14.6545 13.5001 14.6118 13.4987 14.567C13.4976 14.5226 13.512 14.4784 13.5407 14.446C13.722 14.2423 13.904 14.0388 14.0856 13.8356C14.1048 13.814 14.1241 13.7921 14.1423 13.7702C14.5542 13.28 14.7408 12.6478 14.6882 12.0348C14.6042 11.0222 13.9205 10.1412 13.1227 9.64517C12.803 9.43488 12.5079 9.188 12.2438 8.91275V15.8473C12.2438 15.9389 12.2173 16.0271 12.1706 16.1042C12.0302 16.602 11.6552 17.0858 11.1042 17.404C10.1376 17.962 8.9987 17.7996 8.56024 17.0407C8.12192 16.2815 8.55058 15.2131 9.51727 14.6549C10.0956 14.3211 10.735 14.2474 11.2497 14.403V7.44791C11.2497 7.26532 11.2327 7.08264 11.2087 6.90005Z" fill="url(#paint2_linear_287_1237)"/>
</g>
<defs>
<linearGradient id="paint0_linear_287_1237" x1="20" y1="2" x2="4" y2="22" gradientUnits="userSpaceOnUse">
<stop offset="0.2" stop-color="#F2FBFF"/>
<stop offset="0.9" stop-color="#CFDBE6"/>
</linearGradient>
<linearGradient id="paint1_linear_287_1237" x1="12" y1="2.75" x2="12" y2="21.2459" gradientUnits="userSpaceOnUse">
<stop stop-color="#C3CFD9"/>
<stop offset="1" stop-color="#879099"/>
</linearGradient>
<linearGradient id="paint2_linear_287_1237" x1="12.0178" y1="6.50026" x2="12.0178" y2="17.4635" gradientUnits="userSpaceOnUse">
<stop stop-color="#55BBFF"/>
<stop offset="1" stop-color="#1676E3"/>
</linearGradient>
<clipPath id="clip0_287_1237">
<rect width="24" height="24" fill="white"/>
</clipPath>
</defs>
</svg>
