<svg width="24" height="24" viewBox="0 0 24 24" fill="none" xmlns="http://www.w3.org/2000/svg">
<g clip-path="url(#clip0_238_156)">
<path d="M4 5C4 3.34315 5.34315 2 7 2H13.2574C14.053 2 14.8161 2.31607 15.3787 2.87868L19.1213 6.62132C19.6839 7.18393 20 7.94699 20 8.74264V19C20 20.6569 18.6569 22 17 22H7C5.34315 22 4 20.6569 4 19V5Z" fill="url(#paint0_linear_238_156)"/>
<path fill-rule="evenodd" clip-rule="evenodd" d="M15.875 7.02384C16.0976 6.96311 16.3179 7.02626 16.4736 7.16446C16.5173 7.18493 16.558 7.21179 16.5927 7.24649C16.6715 7.3252 16.7157 7.43206 16.7158 7.54337C16.7158 7.68138 16.7157 7.81942 16.7158 7.95743C16.7167 10.4438 16.7178 12.931 16.7187 15.4174C16.7187 15.4356 16.7187 15.4539 16.7187 15.4721C16.737 15.5894 16.7357 15.71 16.7187 15.8315C16.7187 15.8864 16.7068 15.9397 16.6865 15.9897C16.5735 16.4234 16.252 16.8485 15.7724 17.1254C14.9496 17.6004 13.9805 17.4611 13.6074 16.8149C13.2344 16.1686 13.599 15.2596 14.4218 14.7846C14.9053 14.5056 15.4391 14.4397 15.873 14.5629C15.8736 13.0187 15.8744 11.4743 15.875 9.93009L10.2549 11.4633C10.2556 13.3123 10.2571 15.1614 10.2578 17.0102C10.2578 17.0284 10.2578 17.0466 10.2578 17.0649C10.2761 17.1822 10.2748 17.3027 10.2578 17.4242C10.2578 17.4792 10.2458 17.5325 10.2256 17.5824C10.1126 18.0162 9.79108 18.4413 9.31149 18.7182C8.48863 19.1932 7.51955 19.0538 7.14645 18.4076C6.77353 17.7614 7.13725 16.8524 7.95993 16.3774C8.44355 16.0981 8.97799 16.0324 9.41208 16.1557C9.41293 13.954 9.41416 11.7518 9.41501 9.5502C9.41506 9.41221 9.41495 9.27413 9.41501 9.13614C9.41507 9.02488 9.45936 8.91796 9.53805 8.83927C9.5829 8.79446 9.63757 8.7623 9.69626 8.74161C9.7319 8.71083 9.77455 8.68723 9.82223 8.67423L15.875 7.02384Z" fill="black"/>
<path d="M15.375 6.5231C15.5967 6.46269 15.8161 6.52574 15.9717 6.66275C16.0162 6.68333 16.0574 6.71138 16.0928 6.74673C16.1715 6.82545 16.2158 6.93231 16.2158 7.04361C16.2159 7.18153 16.2158 7.31975 16.2158 7.45767C16.2168 9.94397 16.2178 12.4313 16.2188 14.9176C16.2188 14.9355 16.2187 14.9534 16.2188 14.9713C16.2372 15.089 16.2358 15.2099 16.2188 15.3317L16.2109 15.4147C16.206 15.4394 16.1967 15.4627 16.1875 15.486C16.0754 15.9209 15.7533 16.347 15.2725 16.6247C14.4496 17.0997 13.4806 16.9612 13.1074 16.3151C12.7344 15.6689 13.0983 14.76 13.9209 14.2848C14.4046 14.0056 14.9389 13.9399 15.373 14.0631C15.3736 12.5187 15.3744 10.9739 15.375 9.42935L9.75488 10.9626C9.75561 12.8118 9.7571 14.6614 9.75781 16.5104C9.75782 16.5283 9.75781 16.5462 9.75781 16.5641C9.77626 16.6817 9.7749 16.8026 9.75781 16.9245L9.75 17.0075C9.74503 17.0321 9.73579 17.0555 9.72656 17.0788C9.6145 17.5137 9.29234 17.9398 8.81152 18.2174C7.98868 18.6925 7.01964 18.554 6.64648 17.9079C6.27342 17.2617 6.63729 16.3527 7.45996 15.8776C7.94363 15.5983 8.478 15.5326 8.91211 15.6559C8.91297 13.4542 8.9142 11.252 8.91504 9.05045C8.91509 8.91251 8.91499 8.77432 8.91504 8.63638C8.91508 8.52516 8.95947 8.4182 9.03809 8.33951C9.08247 8.29516 9.13635 8.2626 9.19434 8.24185C9.23023 8.21053 9.27402 8.18763 9.32227 8.17447L15.375 6.5231Z" fill="url(#paint1_linear_238_156)"/>
<path d="M4.75 4.75C4.75 3.64543 5.64543 2.75 6.75 2.75H13.4216C13.952 2.75 14.4607 2.96071 14.8358 3.33579L18.6642 7.16421C19.0393 7.53929 19.25 8.04799 19.25 8.57843V19.2459C19.25 20.3505 18.3546 21.2459 17.25 21.2459H6.75C5.64543 21.2459 4.75 20.3505 4.75 19.2459V4.75Z" stroke="url(#paint2_linear_238_156)" stroke-width="1.5"/>
<path d="M15.3662 2.80567L19.1944 6.6338C19.5715 7.01096 19.8279 7.48646 19.9385 8.00001H16C14.8954 8.00001 14 7.10458 14 6.00001L14 2.06155C14.5136 2.17211 14.9891 2.42851 15.3662 2.80567Z" fill="white"/>
</g>
<defs>
<linearGradient id="paint0_linear_238_156" x1="20" y1="2" x2="4" y2="22" gradientUnits="userSpaceOnUse">
<stop stop-color="#E1E1E1"/>
<stop offset="1" stop-color="#A1A9B0"/>
</linearGradient>
<linearGradient id="paint1_linear_238_156" x1="11.3592" y1="6.62089" x2="11.3592" y2="18.409" gradientUnits="userSpaceOnUse">
<stop stop-color="#999999"/>
<stop offset="1" stop-color="#737373"/>
</linearGradient>
<linearGradient id="paint2_linear_238_156" x1="12" y1="2.75" x2="12" y2="21.2459" gradientUnits="userSpaceOnUse">
<stop stop-color="#EEEEEE"/>
<stop offset="1" stop-color="#E5E5E5"/>
</linearGradient>
<clipPath id="clip0_238_156">
<rect width="24" height="24" fill="white"/>
</clipPath>
</defs>
</svg>
