<svg width="24" height="24" viewBox="0 0 24 24" fill="none" xmlns="http://www.w3.org/2000/svg">
<g clip-path="url(#clip0_287_1265)">
<path d="M4 5C4 3.34315 5.34315 2 7 2H13.2574C14.053 2 14.8161 2.31607 15.3787 2.87868L19.1213 6.62132C19.6839 7.18393 20 7.94699 20 8.74264V19C20 20.6569 18.6569 22 17 22H7C5.34315 22 4 20.6569 4 19V5Z" fill="url(#paint0_linear_287_1265)"/>
<path d="M15.3576 7.27103C15.5608 7.21565 15.7608 7.27364 15.9045 7.39799C15.9476 7.41706 15.9876 7.44405 16.0217 7.47806C16.0943 7.55083 16.1359 7.64966 16.1359 7.75248C16.136 7.87996 16.1359 8.00781 16.1359 8.13529C16.1368 10.4345 16.138 12.7345 16.1389 15.0337C16.1389 15.0519 16.1389 15.0702 16.1389 15.0884C16.1549 15.194 16.1537 15.3024 16.1389 15.4117C16.1389 15.4135 16.1389 15.4157 16.1389 15.4175C16.1388 15.4693 16.1282 15.52 16.1086 15.5669C16.0033 15.9668 15.705 16.3575 15.2629 16.6128C14.5019 17.0522 13.605 16.9243 13.26 16.3267C12.915 15.7291 13.2521 14.8882 14.0129 14.4488C14.4601 14.1906 14.9542 14.1298 15.3557 14.2437C15.3562 12.8157 15.357 11.3876 15.3576 9.95951L10.1603 11.3765C10.1611 13.0865 10.1626 14.7965 10.1633 16.5064C10.1633 16.523 10.1633 16.5396 10.1633 16.5562C10.1803 16.6645 10.1788 16.776 10.1633 16.8882V16.8902C10.1632 16.9419 10.1535 16.9927 10.134 17.0396C10.0288 17.4396 9.73055 17.8311 9.28828 18.0865C8.52729 18.5258 7.6304 18.397 7.28535 17.7994C6.94046 17.2018 7.27753 16.3618 8.03828 15.9224C8.48523 15.6643 8.97878 15.6027 9.38008 15.7163C9.38091 13.6803 9.38223 11.6439 9.38301 9.60795C9.38305 9.48035 9.38296 9.35273 9.38301 9.22513C9.38305 9.12229 9.42456 9.02349 9.49726 8.95072C9.53828 8.90974 9.58824 8.87992 9.64179 8.86088C9.67504 8.8318 9.71524 8.8096 9.75996 8.7974L15.3576 7.27103Z" fill="black"/>
<path d="M15.0729 6.97318C15.2756 6.91789 15.4752 6.97548 15.6188 7.09915C15.6624 7.11821 15.7026 7.14495 15.7369 7.17923C15.8097 7.25199 15.8511 7.35076 15.8512 7.45364C15.8512 7.5812 15.8511 7.7089 15.8512 7.83646C15.8521 10.1357 15.8532 12.4356 15.8541 14.7349C15.8541 14.7514 15.8541 14.7681 15.8541 14.7847C15.871 14.8921 15.8693 15.0025 15.8541 15.1138C15.8541 15.1154 15.8541 15.1171 15.8541 15.1187C15.8541 15.1719 15.8426 15.2239 15.8219 15.272C15.7158 15.6705 15.4198 16.0605 14.9791 16.315C14.2181 16.7543 13.3212 16.6255 12.9762 16.0279C12.6314 15.4303 12.9683 14.5902 13.7291 14.1509C14.1761 13.8929 14.6696 13.8312 15.0709 13.9449C15.0715 12.5169 15.0723 11.0887 15.0729 9.66068L9.87659 11.0786C9.87732 12.7884 9.87886 14.4988 9.87952 16.2085C9.87952 16.2267 9.87951 16.245 9.87952 16.2632C9.89558 16.3688 9.89436 16.4772 9.87952 16.5865C9.87952 16.5882 9.87952 16.5905 9.87952 16.5923C9.87941 16.6445 9.86825 16.6955 9.84827 16.7427C9.74267 17.1421 9.44527 17.5326 9.00354 17.7876C8.24256 18.227 7.34565 18.0991 7.00061 17.5015C6.65559 16.9039 6.99354 16.0629 7.75452 15.6236C8.20159 15.3655 8.69501 15.3046 9.09631 15.4185C9.09714 13.3824 9.09846 11.3461 9.09924 9.31009C9.09929 9.18265 9.09919 9.05472 9.09924 8.92728C9.09928 8.82445 9.14081 8.72563 9.2135 8.65286C9.25488 8.61152 9.30491 8.58105 9.35901 8.56204C9.39204 8.53343 9.43194 8.51161 9.4762 8.49954L15.0729 6.97318Z" fill="url(#paint1_linear_287_1265)"/>
<path d="M4.75 4.75C4.75 3.64543 5.64543 2.75 6.75 2.75H13.4216C13.952 2.75 14.4607 2.96071 14.8358 3.33579L18.6642 7.16421C19.0393 7.53929 19.25 8.04799 19.25 8.57843V19.2459C19.25 20.3505 18.3546 21.2459 17.25 21.2459H6.75C5.64543 21.2459 4.75 20.3505 4.75 19.2459V4.75Z" stroke="url(#paint2_linear_287_1265)" stroke-width="1.5"/>
</g>
<defs>
<linearGradient id="paint0_linear_287_1265" x1="20" y1="2" x2="4" y2="22" gradientUnits="userSpaceOnUse">
<stop offset="0.2" stop-color="#F2FBFF"/>
<stop offset="0.9" stop-color="#CFDBE6"/>
</linearGradient>
<linearGradient id="paint1_linear_287_1265" x1="11.3597" y1="7.06289" x2="11.3597" y2="17.9646" gradientUnits="userSpaceOnUse">
<stop stop-color="#999999"/>
<stop offset="1" stop-color="#737373"/>
</linearGradient>
<linearGradient id="paint2_linear_287_1265" x1="12" y1="2.75" x2="12" y2="21.2459" gradientUnits="userSpaceOnUse">
<stop stop-color="#C3CFD9"/>
<stop offset="1" stop-color="#879099"/>
</linearGradient>
<clipPath id="clip0_287_1265">
<rect width="24" height="24" fill="white"/>
</clipPath>
</defs>
</svg>
