<svg width="24" height="24" viewBox="0 0 24 24" fill="none" xmlns="http://www.w3.org/2000/svg">
<g clip-path="url(#clip0_280_906)">
<path d="M4 5C4 3.34315 5.34315 2 7 2H13.2574C14.053 2 14.8161 2.31607 15.3787 2.87868L19.1213 6.62132C19.6839 7.18393 20 7.94699 20 8.74264V19C20 20.6569 18.6569 22 17 22H7C5.34315 22 4 20.6569 4 19V5Z" fill="url(#paint0_linear_280_906)"/>
<path d="M4.75 4.75C4.75 3.64543 5.64543 2.75 6.75 2.75H13.4216C13.952 2.75 14.4607 2.96071 14.8358 3.33579L18.6642 7.16421C19.0393 7.53929 19.25 8.04799 19.25 8.57843V19.2459C19.25 20.3505 18.3546 21.2459 17.25 21.2459H6.75C5.64543 21.2459 4.75 20.3505 4.75 19.2459V4.75Z" stroke="url(#paint1_linear_280_906)" stroke-width="1.5"/>
<path d="M8.00423 7.71845C8.14091 7.58177 8.36197 7.58177 8.49865 7.71845L8.9696 8.18939C10.7794 7.06535 13.1128 7.12221 14.8702 8.35857L15.114 8.11482C15.2311 7.99773 15.4208 7.99786 15.538 8.11482L16.4218 8.9987C16.539 9.11586 16.539 9.30553 16.4218 9.42269L15.538 10.3066C15.4208 10.4237 15.2311 10.4237 15.114 10.3066L14.2301 9.42269C14.1131 9.30552 14.113 9.11579 14.2301 8.9987L14.3668 8.86197C12.8976 7.88574 10.9975 7.83172 9.48059 8.70039L9.73609 8.95589C9.87277 9.09257 9.87277 9.31363 9.73609 9.45031L8.49865 10.6877C8.36196 10.8243 8.14087 10.8244 8.00423 10.6877L7.74942 10.4329C6.88144 11.9495 6.93561 13.8482 7.9117 15.3171L8.0429 15.1859C8.16 15.0688 8.34972 15.0689 8.46689 15.1859L9.35077 16.0698C9.46793 16.1869 9.46793 16.3766 9.35077 16.4938L8.46689 17.3776C8.34973 17.4948 8.16006 17.4948 8.0429 17.3776L7.15902 16.4938C7.04204 16.3766 7.04192 16.1869 7.15902 16.0698L7.4083 15.8205C6.17209 14.0634 6.11427 11.7308 7.23774 9.92125L6.76679 9.45031C6.63015 9.31367 6.63025 9.09258 6.76679 8.95589L8.00423 7.71845ZM8.25489 16.7417L8.71479 16.2818L8.25489 15.8219L7.795 16.2818L8.25489 16.7417ZM15.326 9.67059L15.7859 9.21069L15.326 8.7508L14.8661 9.21069L15.326 9.67059ZM8.25144 9.94611L8.99445 9.2031L8.25144 8.46008L7.50843 9.2031L8.25144 9.94611Z" fill="#2D3E59"/>
<path d="M15.7718 14.8428C15.8694 14.7451 16.0277 14.7451 16.1253 14.8428L17.1425 15.8599C17.2401 15.9575 17.2401 16.1158 17.1425 16.2135L15.2629 18.0931C15.1653 18.1907 15.007 18.1907 14.9093 18.0931L13.8922 17.0759C13.7945 16.9783 13.7945 16.82 13.8922 16.7224L14.2008 16.4137C13.0427 15.6769 12.3834 15.6321 11.2025 15.7563L9.44581 10.5428L11.9248 13.0218C11.7488 13.2661 11.7693 13.6079 11.9891 13.8277C12.2331 14.0715 12.6289 14.0717 12.8729 13.8277C13.1169 13.5837 13.1168 13.1879 12.8729 12.9438C12.6527 12.7235 12.3101 12.7037 12.0657 12.8809L9.58668 10.4019L14.8009 12.158C14.6766 13.3391 14.7207 13.9986 15.4576 15.1569L15.7718 14.8428Z" fill="url(#paint2_linear_280_906)"/>
</g>
<defs>
<linearGradient id="paint0_linear_280_906" x1="20" y1="2" x2="4" y2="22" gradientUnits="userSpaceOnUse">
<stop offset="0.2" stop-color="white"/>
<stop offset="0.9" stop-color="#B8D0E6"/>
</linearGradient>
<linearGradient id="paint1_linear_280_906" x1="19.25" y1="2.75" x2="4.39024" y2="20.9522" gradientUnits="userSpaceOnUse">
<stop stop-color="#C3DAE6"/>
<stop offset="1" stop-color="#638099"/>
</linearGradient>
<linearGradient id="paint2_linear_280_906" x1="9.51659" y1="10.472" x2="16.2003" y2="17.1557" gradientUnits="userSpaceOnUse">
<stop stop-color="#0E1014"/>
<stop offset="1" stop-color="#39404D"/>
</linearGradient>
<clipPath id="clip0_280_906">
<rect width="24" height="24" fill="white"/>
</clipPath>
</defs>
</svg>
