<svg width="24" height="24" viewBox="0 0 24 24" fill="none" xmlns="http://www.w3.org/2000/svg">
<g clip-path="url(#clip0_155_442)">
<path d="M4 5C4 3.34315 5.34315 2 7 2H13.2574C14.053 2 14.8161 2.31607 15.3787 2.87868L19.1213 6.62132C19.6839 7.18393 20 7.94699 20 8.74264V19C20 20.6569 18.6569 22 17 22H7C5.34315 22 4 20.6569 4 19V5Z" fill="#C1DFF7"/>
<path d="M8 21H5.5V18.5H8V21ZM13 21H10.5V18.5H13V21ZM18 21H15.5V18.5H18V21ZM10.5 18.5H8V16H10.5V18.5ZM15.5 18.5H13V16H15.5V18.5ZM19.5 18.5H18V16H19.5V18.5ZM8 16H5.5V13.5H8V16ZM13 16H10.5V13.5H13V16ZM18 16H15.5V13.5H18V16ZM10.5 13.5H8V11H10.5V13.5ZM15.5 13.5H13V11H15.5V13.5ZM19.5 13.5H18V11H19.5V13.5ZM8 11H5.5V8.5H8V11ZM13 11H10.5V8.5H13V11ZM18 11H15.5V8.5H18V11ZM10.5 8.5H8V6H10.5V8.5ZM15.5 8.5H13V6H15.5V8.5ZM19.5 8.5H18V7.5H19.5V8.5ZM8 6H5.5V3.5H8V6ZM13 6H10.5V3.5H13V6Z" fill="#F47900"/>
<path d="M4.75 4.75C4.75 3.64543 5.64543 2.75 6.75 2.75H13.4216C13.952 2.75 14.4607 2.96071 14.8358 3.33579L18.6642 7.16421C19.0393 7.53929 19.25 8.04799 19.25 8.57843V19.2459C19.25 20.3505 18.3546 21.2459 17.25 21.2459H6.75C5.64543 21.2459 4.75 20.3505 4.75 19.2459V4.75Z" stroke="#D6EBF9" stroke-width="1.5"/>
<path d="M15.3662 2.80567L19.1944 6.6338C19.5715 7.01096 19.8279 7.48646 19.9385 8.00001H16C14.8954 8.00001 14 7.10458 14 6.00001L14 2.06155C14.5136 2.17211 14.9891 2.42851 15.3662 2.80567Z" fill="#E7F2FC"/>
<rect x="4" y="11" width="16" height="11" rx="2" fill="url(#paint0_linear_155_442)"/>
</g>
<defs>
<linearGradient id="paint0_linear_155_442" x1="12" y1="11" x2="12" y2="21.45" gradientUnits="userSpaceOnUse">
<stop stop-color="#A5D1F2" stop-opacity="0"/>
<stop offset="0.742958" stop-color="#A5D1F2"/>
</linearGradient>
<clipPath id="clip0_155_442">
<rect width="24" height="24" fill="white"/>
</clipPath>
</defs>
</svg>
