<svg width="24" height="24" viewBox="0 0 24 24" fill="none" xmlns="http://www.w3.org/2000/svg">
<g clip-path="url(#clip0_289_310)">
<path d="M4 5C4 3.34315 5.34315 2 7 2H13.2574C14.053 2 14.8161 2.31607 15.3787 2.87868L19.1213 6.62132C19.6839 7.18393 20 7.94699 20 8.74264V19C20 20.6569 18.6569 22 17 22H7C5.34315 22 4 20.6569 4 19V5Z" fill="#C1DFF7"/>
<path d="M8.09961 21.7002H5.5V19.0996H8.09961V21.7002ZM13.2998 21.7002H10.7002V19.0996H13.2998V21.7002ZM18.5 21.7002H15.9004V19.0996H18.5V21.7002ZM10.7002 19.0996H8.09961V16.5H10.7002V19.0996ZM15.9004 19.0996H13.2998V16.5H15.9004V19.0996ZM8.09961 16.5H5.5V13.9004H8.09961V16.5ZM13.2998 16.5H10.7002V13.9004H13.2998V16.5ZM18.5 16.5H15.9004V13.9004H18.5V16.5ZM10.7002 13.9004H8.09961V11.2998H10.7002V13.9004ZM15.9004 13.9004H13.2998V11.2998H15.9004V13.9004ZM8.09961 11.2998H5.5V8.7002H8.09961V11.2998ZM13.2998 11.2998H10.7002V8.7002H13.2998V11.2998ZM18.5 11.2998H15.9004V8.7002H18.5V11.2998ZM10.7002 8.7002H8.09961V6.09961H10.7002V8.7002ZM15.9004 8.7002H13.2998V6.09961H15.9004V8.7002ZM8.09961 6.09961H5.5V3.5H8.09961V6.09961ZM13.2998 6.09961H10.7002V3.5H13.2998V6.09961Z" fill="#F47900"/>
<path d="M4.75 4.75C4.75 3.64543 5.64543 2.75 6.75 2.75H13.4216C13.952 2.75 14.4607 2.96071 14.8358 3.33579L18.6642 7.16421C19.0393 7.53929 19.25 8.04799 19.25 8.57843V19.2459C19.25 20.3505 18.3546 21.2459 17.25 21.2459H6.75C5.64543 21.2459 4.75 20.3505 4.75 19.2459V4.75Z" stroke="#88C2E7" stroke-width="1.5"/>
<rect x="4" y="11" width="16" height="11" rx="2" fill="url(#paint0_linear_289_310)"/>
</g>
<defs>
<linearGradient id="paint0_linear_289_310" x1="12" y1="11" x2="12" y2="21.45" gradientUnits="userSpaceOnUse">
<stop stop-color="#A5D1F2" stop-opacity="0"/>
<stop offset="0.742958" stop-color="#A5D1F2"/>
</linearGradient>
<clipPath id="clip0_289_310">
<rect width="24" height="24" fill="white"/>
</clipPath>
</defs>
</svg>
