<svg width="24" height="24" viewBox="0 0 24 24" fill="none" xmlns="http://www.w3.org/2000/svg">
<g clip-path="url(#clip0_203_201)">
<path d="M4 5C4 3.34315 5.34315 2 7 2H13.2574C14.053 2 14.8161 2.31607 15.3787 2.87868L19.1213 6.62132C19.6839 7.18393 20 7.94699 20 8.74264V19C20 20.6569 18.6569 22 17 22H7C5.34315 22 4 20.6569 4 19V5Z" fill="url(#paint0_linear_203_201)"/>
<path d="M11.9673 10.895H10.378V15H9.06547V10.895H7.47611V9.91064H11.9673V10.895ZM16.4111 13.4004C16.4111 13.9017 16.198 14.3096 15.7719 14.624C15.3481 14.9362 14.7716 15.0923 14.0424 15.0923C13.6209 15.0923 13.2529 15.0558 12.9384 14.9829C12.6263 14.9077 12.3335 14.8132 12.06 14.6992V13.479H12.2036C12.4747 13.6955 12.7778 13.8618 13.1128 13.978C13.45 14.0942 13.7736 14.1523 14.0835 14.1523C14.1632 14.1523 14.268 14.1455 14.3979 14.1318C14.5278 14.1182 14.6337 14.0954 14.7158 14.0635C14.816 14.0225 14.8981 13.9712 14.9619 13.9097C15.028 13.8481 15.061 13.757 15.061 13.6362C15.061 13.5246 15.0131 13.4289 14.9174 13.3491C14.824 13.2671 14.6862 13.2044 14.5039 13.1611C14.3125 13.1156 14.1097 13.0734 13.8955 13.0347C13.6836 12.9937 13.4842 12.9424 13.2973 12.8809C12.8689 12.7419 12.5602 12.5539 12.3711 12.3169C12.1842 12.0776 12.0908 11.7814 12.0908 11.4282C12.0908 10.9543 12.3027 10.568 12.7265 10.2695C13.1526 9.96875 13.6995 9.81836 14.3671 9.81836C14.7021 9.81836 15.0325 9.8514 15.3584 9.91748C15.6865 9.98128 15.9702 10.0622 16.2094 10.1602V11.3325H16.0693C15.8642 11.1685 15.6124 11.0317 15.3139 10.9224C15.0177 10.8107 14.7146 10.7549 14.4047 10.7549C14.2954 10.7549 14.186 10.7629 14.0766 10.7788C13.9695 10.7925 13.8658 10.8198 13.7656 10.8608C13.6767 10.895 13.6004 10.9474 13.5366 11.0181C13.4728 11.0864 13.4409 11.165 13.4409 11.2539C13.4409 11.3883 13.4921 11.492 13.5947 11.5649C13.6972 11.6356 13.8909 11.7005 14.1757 11.7598C14.3626 11.7985 14.5415 11.8361 14.7124 11.8726C14.8855 11.909 15.0712 11.9591 15.2695 12.0229C15.6591 12.1506 15.9462 12.3249 16.1308 12.5459C16.3177 12.7646 16.4111 13.0495 16.4111 13.4004Z" fill="white"/>
<path d="M4.75 4.75C4.75 3.64543 5.64543 2.75 6.75 2.75H13.4216C13.952 2.75 14.4607 2.96071 14.8358 3.33579L18.6642 7.16421C19.0393 7.53929 19.25 8.04799 19.25 8.57843V19.2459C19.25 20.3505 18.3546 21.2459 17.25 21.2459H6.75C5.64543 21.2459 4.75 20.3505 4.75 19.2459V4.75Z" stroke="url(#paint1_linear_203_201)" stroke-width="1.5"/>
</g>
<defs>
<linearGradient id="paint0_linear_203_201" x1="20" y1="2" x2="4" y2="22" gradientUnits="userSpaceOnUse">
<stop offset="0.2" stop-color="#0082D9"/>
<stop offset="0.9" stop-color="#00558D"/>
</linearGradient>
<linearGradient id="paint1_linear_203_201" x1="12" y1="2.75" x2="12" y2="21.2459" gradientUnits="userSpaceOnUse">
<stop stop-color="#3399FF"/>
<stop offset="1" stop-color="#297ACC"/>
</linearGradient>
<clipPath id="clip0_203_201">
<rect width="24" height="24" fill="white"/>
</clipPath>
</defs>
</svg>
