<svg width="24" height="24" viewBox="0 0 24 24" fill="none" xmlns="http://www.w3.org/2000/svg">
<g clip-path="url(#clip0_297_383)">
<path d="M4 5C4 3.34315 5.34315 2 7 2H13.2574C14.053 2 14.8161 2.31607 15.3787 2.87868L19.1213 6.62132C19.6839 7.18393 20 7.94699 20 8.74264V19C20 20.6569 18.6569 22 17 22H7C5.34315 22 4 20.6569 4 19V5Z" fill="#F5F5F5"/>
<path d="M4.75 4.75C4.75 3.64543 5.64543 2.75 6.75 2.75H13.4216C13.952 2.75 14.4607 2.96071 14.8358 3.33579L18.6642 7.16421C19.0393 7.53929 19.25 8.04799 19.25 8.57843V19.2459C19.25 20.3505 18.3546 21.2459 17.25 21.2459H6.75C5.64543 21.2459 4.75 20.3505 4.75 19.2459V4.75Z" stroke="#B3B3B3" stroke-width="1.5"/>
<path d="M13.5869 16.1177L12.2856 9.57324L8.79443 15.8574C8.77751 15.8913 8.75846 15.9357 8.7373 15.9907C8.71615 16.0457 8.70557 16.0923 8.70557 16.1304C8.70557 16.2319 8.79655 16.3039 8.97852 16.3462C9.16471 16.3885 9.38477 16.4224 9.63867 16.4478C9.74023 16.4562 9.80371 16.4795 9.8291 16.5176C9.85872 16.5557 9.87354 16.6064 9.87354 16.6699C9.87354 16.7334 9.85661 16.8053 9.82275 16.8857C9.7889 16.9619 9.73177 17 9.65137 17H6.69971C6.63623 17 6.5918 16.964 6.56641 16.8921C6.54102 16.8201 6.52832 16.7588 6.52832 16.708C6.52832 16.6022 6.55371 16.5345 6.60449 16.5049C6.65104 16.471 6.70394 16.4499 6.76318 16.4414C6.92822 16.4118 7.08268 16.38 7.22656 16.3462C7.36621 16.3123 7.49316 16.2594 7.60742 16.1875C7.72591 16.1113 7.82324 16.0013 7.89941 15.8574L12.5015 7.80859H13.7139L15.5864 15.8701C15.6245 16.0055 15.6838 16.1156 15.7642 16.2002C15.8488 16.2806 15.9461 16.3398 16.0562 16.3779C16.1704 16.416 16.291 16.4372 16.418 16.4414C16.5153 16.4456 16.583 16.4626 16.6211 16.4922C16.6634 16.5218 16.6846 16.5811 16.6846 16.6699C16.6803 16.7376 16.6549 16.8096 16.6084 16.8857C16.5661 16.9619 16.509 17 16.437 17H12.7427C12.6707 17 12.62 16.9619 12.5903 16.8857C12.5649 16.8053 12.5522 16.7397 12.5522 16.689C12.548 16.5366 12.6221 16.4541 12.7744 16.4414C13.0537 16.4202 13.2611 16.4076 13.3965 16.4033C13.5361 16.3949 13.606 16.3356 13.606 16.2256C13.606 16.2087 13.5996 16.1727 13.5869 16.1177ZM9.34668 14.2705L9.56885 13.6992H13.4854L13.5996 14.2705H9.34668Z" fill="url(#paint0_linear_297_383)"/>
</g>
<defs>
<linearGradient id="paint0_linear_297_383" x1="7" y1="11" x2="17.5159" y2="15.8908" gradientUnits="userSpaceOnUse">
<stop stop-color="#8CAAFF"/>
<stop offset="1" stop-color="#002FB3"/>
</linearGradient>
<clipPath id="clip0_297_383">
<rect width="24" height="24" fill="white"/>
</clipPath>
</defs>
</svg>
