<svg width="24" height="24" viewBox="0 0 24 24" fill="none" xmlns="http://www.w3.org/2000/svg">
<g clip-path="url(#clip0_224_140)">
<path d="M4 5C4 3.34315 5.34315 2 7 2H13.2574C14.053 2 14.8161 2.31607 15.3787 2.87868L19.1213 6.62132C19.6839 7.18393 20 7.94699 20 8.74264V19C20 20.6569 18.6569 22 17 22H7C5.34315 22 4 20.6569 4 19V5Z" fill="url(#paint0_linear_224_140)"/>
<path d="M7.30292 10.3332H16.9999V16.6969C16.9999 17.0316 16.7285 17.3029 16.3938 17.3029H7.90898C7.57426 17.3029 7.30292 17.0316 7.30292 16.6969V10.3332Z" fill="url(#paint1_linear_224_140)"/>
<path d="M10.7878 10.3332H9.57564L8.66655 11.5453H9.87867L10.7878 10.3332Z" fill="white"/>
<path d="M11.9999 10.3332H10.7878L9.87867 11.5453H11.0908L11.9999 10.3332Z" fill="black"/>
<path d="M13.212 10.3332H11.9999L11.0908 11.5453H12.3029L13.212 10.3332Z" fill="white"/>
<path d="M14.4241 10.3332H13.212L12.3029 11.5453H13.515L14.4241 10.3332Z" fill="black"/>
<path d="M15.6362 10.3332H14.4241L13.515 11.5453H14.7272L15.6362 10.3332Z" fill="white"/>
<path d="M16.8484 10.3332H15.6362L14.7272 11.5453H15.9393L16.8484 10.3332Z" fill="black"/>
<path d="M16.9999 10.3332H16.8484L15.9393 11.5453H16.9999V10.3332Z" fill="white"/>
<path d="M9.57564 10.3332H8.36352L7.45443 11.5453H8.66655L9.57564 10.3332Z" fill="black"/>
<path d="M7.45443 11.5453L8.36352 10.3332H7.30292V11.5453H7.45443Z" fill="white"/>
<path d="M10.3661 8.60773L9.19528 8.92145L8.63088 10.3276L9.8017 10.0138L10.3661 8.60773Z" fill="white"/>
<path d="M11.5369 8.29401L10.3661 8.60773L9.8017 10.0138L10.9725 9.70012L11.5369 8.29401Z" fill="black"/>
<path d="M12.7077 7.98029L11.5369 8.29401L10.9725 9.70012L12.1433 9.3864L12.7077 7.98029Z" fill="white"/>
<path d="M13.8786 7.66657L12.7077 7.98029L12.1433 9.3864L13.3142 9.07268L13.8786 7.66657Z" fill="black"/>
<path d="M15.0494 7.35285L13.8786 7.66657L13.3142 9.07268L14.485 8.75896L15.0494 7.35285Z" fill="white"/>
<path d="M16.2202 7.03913L15.0494 7.35285L14.485 8.75896L15.6558 8.44524L16.2202 7.03913Z" fill="black"/>
<path d="M16.3665 6.99992L16.2202 7.03913L15.6558 8.44524L16.6803 8.17074L16.3665 6.99992Z" fill="white"/>
<path d="M9.19528 8.92145L8.02447 9.23517L7.46007 10.6413L8.63088 10.3276L9.19528 8.92145Z" fill="black"/>
<path d="M7.46007 10.6413L8.02447 9.23517L7 9.50967L7.31372 10.6805L7.46007 10.6413Z" fill="white"/>
<rect x="7.90894" y="12.4545" width="2.12121" height="1.51515" rx="0.30303" fill="#AC6F38"/>
<rect x="10.9393" y="12.4545" width="2.12121" height="1.51515" rx="0.30303" fill="#AC6F38"/>
<rect x="13.9697" y="12.4545" width="2.12121" height="1.51515" rx="0.30303" fill="#AC6F38"/>
<path d="M8.21204 15.0302H15.9393" stroke="#927859" stroke-width="0.30303" stroke-linecap="round" stroke-linejoin="round"/>
<path d="M8.21204 15.9393H15.9393" stroke="#927859" stroke-width="0.30303" stroke-linecap="round" stroke-linejoin="round"/>
<path d="M4.75 4.75C4.75 3.64543 5.64543 2.75 6.75 2.75H13.4216C13.952 2.75 14.4607 2.96071 14.8358 3.33579L18.6642 7.16421C19.0393 7.53929 19.25 8.04799 19.25 8.57843V19.2459C19.25 20.3505 18.3546 21.2459 17.25 21.2459H6.75C5.64543 21.2459 4.75 20.3505 4.75 19.2459V4.75Z" stroke="url(#paint2_linear_224_140)" stroke-width="1.5"/>
<path d="M15.3662 2.80567L19.1944 6.6338C19.5715 7.01096 19.8279 7.48646 19.9385 8.00001H16C14.8954 8.00001 14 7.10458 14 6.00001L14 2.06155C14.5136 2.17211 14.9891 2.42851 15.3662 2.80567Z" fill="#8A9091"/>
</g>
<defs>
<linearGradient id="paint0_linear_224_140" x1="20" y1="2" x2="4" y2="22" gradientUnits="userSpaceOnUse">
<stop stop-color="#E9F2CA"/>
<stop offset="1" stop-color="#CDE480"/>
</linearGradient>
<linearGradient id="paint1_linear_224_140" x1="12.1514" y1="10.3332" x2="12.1514" y2="17.3029" gradientUnits="userSpaceOnUse">
<stop stop-color="#1178B8"/>
<stop offset="1" stop-color="#0F475F"/>
</linearGradient>
<linearGradient id="paint2_linear_224_140" x1="12" y1="2.75" x2="12" y2="21.2459" gradientUnits="userSpaceOnUse">
<stop stop-color="#F6FAEA"/>
<stop offset="1" stop-color="#DEEDAC"/>
</linearGradient>
<clipPath id="clip0_224_140">
<rect width="24" height="24" fill="white"/>
</clipPath>
</defs>
</svg>
