<svg width="24" height="24" viewBox="0 0 24 24" fill="none" xmlns="http://www.w3.org/2000/svg">
<g clip-path="url(#clip0_224_53)">
<path d="M4 5C4 3.34315 5.34315 2 7 2H13.2574C14.053 2 14.8161 2.31607 15.3787 2.87868L19.1213 6.62132C19.6839 7.18393 20 7.94699 20 8.74264V19C20 20.6569 18.6569 22 17 22H7C5.34315 22 4 20.6569 4 19V5Z" fill="url(#paint0_linear_224_53)"/>
<path d="M5.68176 8.49994H11.4999V12.3181C11.4999 12.519 11.3371 12.6818 11.1363 12.6818H6.0454C5.84457 12.6818 5.68176 12.519 5.68176 12.3181V8.49994Z" fill="url(#paint1_linear_224_53)"/>
<path d="M7.77267 8.49994H7.04539L6.49994 9.22721H7.22721L7.77267 8.49994Z" fill="white"/>
<path d="M8.49994 8.49994H7.77267L7.22721 9.22721H7.95448L8.49994 8.49994Z" fill="black"/>
<path d="M9.22721 8.49994H8.49994L7.95448 9.22721H8.68176L9.22721 8.49994Z" fill="white"/>
<path d="M9.95448 8.49994H9.22721L8.68176 9.22721H9.40903L9.95448 8.49994Z" fill="black"/>
<path d="M10.6818 8.49994H9.95448L9.40903 9.22721H10.1363L10.6818 8.49994Z" fill="white"/>
<path d="M11.409 8.49994H10.6818L10.1363 9.22721H10.8636L11.409 8.49994Z" fill="black"/>
<path d="M11.4999 8.49994H11.409L10.8636 9.22721H11.4999V8.49994Z" fill="white"/>
<path d="M7.04539 8.49994H6.31813L5.77267 9.22721H6.49994L7.04539 8.49994Z" fill="black"/>
<path d="M5.77267 9.22721L6.31813 8.49994H5.68176V9.22721H5.77267Z" fill="white"/>
<path d="M7.51966 7.46463L6.81717 7.65286L6.47853 8.49653L7.18102 8.3083L7.51966 7.46463Z" fill="white"/>
<path d="M8.22215 7.2764L7.51966 7.46463L7.18102 8.3083L7.88351 8.12007L8.22215 7.2764Z" fill="black"/>
<path d="M8.92464 7.08817L8.22215 7.2764L7.88351 8.12007L8.586 7.93183L8.92464 7.08817Z" fill="white"/>
<path d="M9.62713 6.89994L8.92464 7.08817L8.586 7.93183L9.2885 7.7436L9.62713 6.89994Z" fill="black"/>
<path d="M10.3296 6.7117L9.62713 6.89994L9.2885 7.7436L9.99099 7.55537L10.3296 6.7117Z" fill="white"/>
<path d="M11.0321 6.52347L10.3296 6.7117L9.99099 7.55537L10.6935 7.36714L11.0321 6.52347Z" fill="black"/>
<path d="M11.1199 6.49994L11.0321 6.52347L10.6935 7.36714L11.3082 7.20243L11.1199 6.49994Z" fill="white"/>
<path d="M6.81717 7.65286L6.11468 7.8411L5.77604 8.68476L6.47853 8.49653L6.81717 7.65286Z" fill="black"/>
<path d="M5.77604 8.68476L6.11468 7.8411L5.5 8.0058L5.68823 8.70829L5.77604 8.68476Z" fill="white"/>
<rect x="6.04535" y="9.77271" width="1.27273" height="0.909091" rx="0.181818" fill="#AC6F38"/>
<rect x="7.86359" y="9.77271" width="1.27273" height="0.909091" rx="0.181818" fill="#AC6F38"/>
<rect x="9.68182" y="9.77271" width="1.27273" height="0.909091" rx="0.181818" fill="#AC6F38"/>
<path d="M6.22723 11.3181H10.8636" stroke="#927859" stroke-width="0.181818" stroke-linecap="round" stroke-linejoin="round"/>
<path d="M6.22723 11.8636H10.8636" stroke="#927859" stroke-width="0.181818" stroke-linecap="round" stroke-linejoin="round"/>
<path d="M5.68176 15.4999H11.4999V19.3181C11.4999 19.519 11.3371 19.6818 11.1363 19.6818H6.0454C5.84457 19.6818 5.68176 19.519 5.68176 19.3181V15.4999Z" fill="url(#paint2_linear_224_53)"/>
<path d="M7.77267 15.4999H7.04539L6.49994 16.2272H7.22721L7.77267 15.4999Z" fill="white"/>
<path d="M8.49994 15.4999H7.77267L7.22721 16.2272H7.95448L8.49994 15.4999Z" fill="black"/>
<path d="M9.22721 15.4999H8.49994L7.95448 16.2272H8.68176L9.22721 15.4999Z" fill="white"/>
<path d="M9.95448 15.4999H9.22721L8.68176 16.2272H9.40903L9.95448 15.4999Z" fill="black"/>
<path d="M10.6818 15.4999H9.95448L9.40903 16.2272H10.1363L10.6818 15.4999Z" fill="white"/>
<path d="M11.409 15.4999H10.6818L10.1363 16.2272H10.8636L11.409 15.4999Z" fill="black"/>
<path d="M11.4999 15.4999H11.409L10.8636 16.2272H11.4999V15.4999Z" fill="white"/>
<path d="M7.04539 15.4999H6.31813L5.77267 16.2272H6.49994L7.04539 15.4999Z" fill="black"/>
<path d="M5.77267 16.2272L6.31813 15.4999H5.68176V16.2272H5.77267Z" fill="white"/>
<path d="M7.51966 14.4646L6.81717 14.6529L6.47853 15.4965L7.18102 15.3083L7.51966 14.4646Z" fill="white"/>
<path d="M8.22215 14.2764L7.51966 14.4646L7.18102 15.3083L7.88351 15.1201L8.22215 14.2764Z" fill="black"/>
<path d="M8.92464 14.0882L8.22215 14.2764L7.88351 15.1201L8.586 14.9318L8.92464 14.0882Z" fill="white"/>
<path d="M9.62713 13.8999L8.92464 14.0882L8.586 14.9318L9.2885 14.7436L9.62713 13.8999Z" fill="black"/>
<path d="M10.3296 13.7117L9.62713 13.8999L9.2885 14.7436L9.99099 14.5554L10.3296 13.7117Z" fill="white"/>
<path d="M11.0321 13.5235L10.3296 13.7117L9.99099 14.5554L10.6935 14.3671L11.0321 13.5235Z" fill="black"/>
<path d="M11.1199 13.4999L11.0321 13.5235L10.6935 14.3671L11.3082 14.2024L11.1199 13.4999Z" fill="white"/>
<path d="M6.81717 14.6529L6.11468 14.8411L5.77604 15.6848L6.47853 15.4965L6.81717 14.6529Z" fill="black"/>
<path d="M5.77604 15.6848L6.11468 14.8411L5.5 15.0058L5.68823 15.7083L5.77604 15.6848Z" fill="white"/>
<rect x="6.04535" y="16.7727" width="1.27273" height="0.909091" rx="0.181818" fill="#AC6F38"/>
<rect x="7.86359" y="16.7727" width="1.27273" height="0.909091" rx="0.181818" fill="#AC6F38"/>
<rect x="9.68182" y="16.7727" width="1.27273" height="0.909091" rx="0.181818" fill="#AC6F38"/>
<path d="M6.22723 18.3181H10.8636" stroke="#927859" stroke-width="0.181818" stroke-linecap="round" stroke-linejoin="round"/>
<path d="M6.22723 18.8636H10.8636" stroke="#927859" stroke-width="0.181818" stroke-linecap="round" stroke-linejoin="round"/>
<path d="M12.6818 8.49994H18.4999V12.3181C18.4999 12.519 18.3371 12.6818 18.1363 12.6818H13.0454C12.8446 12.6818 12.6818 12.519 12.6818 12.3181V8.49994Z" fill="url(#paint3_linear_224_53)"/>
<path d="M14.7727 8.49994H14.0454L13.4999 9.22721H14.2272L14.7727 8.49994Z" fill="white"/>
<path d="M15.4999 8.49994H14.7727L14.2272 9.22721H14.9545L15.4999 8.49994Z" fill="black"/>
<path d="M16.2272 8.49994H15.4999L14.9545 9.22721H15.6818L16.2272 8.49994Z" fill="white"/>
<path d="M16.9545 8.49994H16.2272L15.6818 9.22721H16.409L16.9545 8.49994Z" fill="black"/>
<path d="M17.6818 8.49994H16.9545L16.409 9.22721H17.1363L17.6818 8.49994Z" fill="white"/>
<path d="M18.409 8.49994H17.6818L17.1363 9.22721H17.8636L18.409 8.49994Z" fill="black"/>
<path d="M18.4999 8.49994H18.409L17.8636 9.22721H18.4999V8.49994Z" fill="white"/>
<path d="M14.0454 8.49994H13.3181L12.7727 9.22721H13.4999L14.0454 8.49994Z" fill="black"/>
<path d="M12.7727 9.22721L13.3181 8.49994H12.6818V9.22721H12.7727Z" fill="white"/>
<path d="M14.5197 7.46463L13.8172 7.65286L13.4785 8.49653L14.181 8.3083L14.5197 7.46463Z" fill="white"/>
<path d="M15.2221 7.2764L14.5197 7.46463L14.181 8.3083L14.8835 8.12007L15.2221 7.2764Z" fill="black"/>
<path d="M15.9246 7.08817L15.2221 7.2764L14.8835 8.12007L15.586 7.93183L15.9246 7.08817Z" fill="white"/>
<path d="M16.6271 6.89994L15.9246 7.08817L15.586 7.93183L16.2885 7.7436L16.6271 6.89994Z" fill="black"/>
<path d="M17.3296 6.7117L16.6271 6.89994L16.2885 7.7436L16.991 7.55537L17.3296 6.7117Z" fill="white"/>
<path d="M18.0321 6.52347L17.3296 6.7117L16.991 7.55537L17.6935 7.36714L18.0321 6.52347Z" fill="black"/>
<path d="M18.1199 6.49994L18.0321 6.52347L17.6935 7.36714L18.3082 7.20243L18.1199 6.49994Z" fill="white"/>
<path d="M13.8172 7.65286L13.1147 7.8411L12.776 8.68476L13.4785 8.49653L13.8172 7.65286Z" fill="black"/>
<path d="M12.776 8.68476L13.1147 7.8411L12.5 8.0058L12.6882 8.70829L12.776 8.68476Z" fill="white"/>
<rect x="13.0453" y="9.77271" width="1.27273" height="0.909091" rx="0.181818" fill="#AC6F38"/>
<rect x="14.8636" y="9.77271" width="1.27273" height="0.909091" rx="0.181818" fill="#AC6F38"/>
<rect x="16.6818" y="9.77271" width="1.27273" height="0.909091" rx="0.181818" fill="#AC6F38"/>
<path d="M13.2272 11.3181H17.8636" stroke="#927859" stroke-width="0.181818" stroke-linecap="round" stroke-linejoin="round"/>
<path d="M13.2272 11.8636H17.8636" stroke="#927859" stroke-width="0.181818" stroke-linecap="round" stroke-linejoin="round"/>
<path d="M12.6818 15.4999H18.4999V19.3181C18.4999 19.519 18.3371 19.6818 18.1363 19.6818H13.0454C12.8446 19.6818 12.6818 19.519 12.6818 19.3181V15.4999Z" fill="url(#paint4_linear_224_53)"/>
<path d="M14.7727 15.4999H14.0454L13.4999 16.2272H14.2272L14.7727 15.4999Z" fill="white"/>
<path d="M15.4999 15.4999H14.7727L14.2272 16.2272H14.9545L15.4999 15.4999Z" fill="black"/>
<path d="M16.2272 15.4999H15.4999L14.9545 16.2272H15.6818L16.2272 15.4999Z" fill="white"/>
<path d="M16.9545 15.4999H16.2272L15.6818 16.2272H16.409L16.9545 15.4999Z" fill="black"/>
<path d="M17.6818 15.4999H16.9545L16.409 16.2272H17.1363L17.6818 15.4999Z" fill="white"/>
<path d="M18.409 15.4999H17.6818L17.1363 16.2272H17.8636L18.409 15.4999Z" fill="black"/>
<path d="M18.4999 15.4999H18.409L17.8636 16.2272H18.4999V15.4999Z" fill="white"/>
<path d="M14.0454 15.4999H13.3181L12.7727 16.2272H13.4999L14.0454 15.4999Z" fill="black"/>
<path d="M12.7727 16.2272L13.3181 15.4999H12.6818V16.2272H12.7727Z" fill="white"/>
<path d="M14.5197 14.4646L13.8172 14.6529L13.4785 15.4965L14.181 15.3083L14.5197 14.4646Z" fill="white"/>
<path d="M15.2221 14.2764L14.5197 14.4646L14.181 15.3083L14.8835 15.1201L15.2221 14.2764Z" fill="black"/>
<path d="M15.9246 14.0882L15.2221 14.2764L14.8835 15.1201L15.586 14.9318L15.9246 14.0882Z" fill="white"/>
<path d="M16.6271 13.8999L15.9246 14.0882L15.586 14.9318L16.2885 14.7436L16.6271 13.8999Z" fill="black"/>
<path d="M17.3296 13.7117L16.6271 13.8999L16.2885 14.7436L16.991 14.5554L17.3296 13.7117Z" fill="white"/>
<path d="M18.0321 13.5235L17.3296 13.7117L16.991 14.5554L17.6935 14.3671L18.0321 13.5235Z" fill="black"/>
<path d="M18.1199 13.4999L18.0321 13.5235L17.6935 14.3671L18.3082 14.2024L18.1199 13.4999Z" fill="white"/>
<path d="M13.8172 14.6529L13.1147 14.8411L12.776 15.6848L13.4785 15.4965L13.8172 14.6529Z" fill="black"/>
<path d="M12.776 15.6848L13.1147 14.8411L12.5 15.0058L12.6882 15.7083L12.776 15.6848Z" fill="white"/>
<rect x="13.0453" y="16.7727" width="1.27273" height="0.909091" rx="0.181818" fill="#AC6F38"/>
<rect x="14.8636" y="16.7727" width="1.27273" height="0.909091" rx="0.181818" fill="#AC6F38"/>
<rect x="16.6818" y="16.7727" width="1.27273" height="0.909091" rx="0.181818" fill="#AC6F38"/>
<path d="M13.2272 18.3181H17.8636" stroke="#927859" stroke-width="0.181818" stroke-linecap="round" stroke-linejoin="round"/>
<path d="M13.2272 18.8636H17.8636" stroke="#927859" stroke-width="0.181818" stroke-linecap="round" stroke-linejoin="round"/>
<path d="M4.75 4.75C4.75 3.64543 5.64543 2.75 6.75 2.75H13.4216C13.952 2.75 14.4607 2.96071 14.8358 3.33579L18.6642 7.16421C19.0393 7.53929 19.25 8.04799 19.25 8.57843V19.2459C19.25 20.3505 18.3546 21.2459 17.25 21.2459H6.75C5.64543 21.2459 4.75 20.3505 4.75 19.2459V4.75Z" stroke="url(#paint5_linear_224_53)" stroke-width="1.5"/>
<path d="M15.3662 2.80567L19.1944 6.6338C19.5715 7.01096 19.8279 7.48646 19.9385 8.00001H16C14.8954 8.00001 14 7.10458 14 6.00001L14 2.06155C14.5136 2.17211 14.9891 2.42851 15.3662 2.80567Z" fill="#8A9091"/>
</g>
<defs>
<linearGradient id="paint0_linear_224_53" x1="20" y1="2" x2="4" y2="22" gradientUnits="userSpaceOnUse">
<stop stop-color="#E9F2CA"/>
<stop offset="1" stop-color="#CDE480"/>
</linearGradient>
<linearGradient id="paint1_linear_224_53" x1="8.59085" y1="8.49994" x2="8.59085" y2="12.6818" gradientUnits="userSpaceOnUse">
<stop stop-color="#1178B8"/>
<stop offset="1" stop-color="#0F475F"/>
</linearGradient>
<linearGradient id="paint2_linear_224_53" x1="8.59085" y1="15.4999" x2="8.59085" y2="19.6818" gradientUnits="userSpaceOnUse">
<stop stop-color="#1178B8"/>
<stop offset="1" stop-color="#0F475F"/>
</linearGradient>
<linearGradient id="paint3_linear_224_53" x1="15.5909" y1="8.49994" x2="15.5909" y2="12.6818" gradientUnits="userSpaceOnUse">
<stop stop-color="#1178B8"/>
<stop offset="1" stop-color="#0F475F"/>
</linearGradient>
<linearGradient id="paint4_linear_224_53" x1="15.5909" y1="15.4999" x2="15.5909" y2="19.6818" gradientUnits="userSpaceOnUse">
<stop stop-color="#1178B8"/>
<stop offset="1" stop-color="#0F475F"/>
</linearGradient>
<linearGradient id="paint5_linear_224_53" x1="12" y1="2.75" x2="12" y2="21.2459" gradientUnits="userSpaceOnUse">
<stop stop-color="#F6FAEA"/>
<stop offset="1" stop-color="#DEEDAC"/>
</linearGradient>
<clipPath id="clip0_224_53">
<rect width="24" height="24" fill="white"/>
</clipPath>
</defs>
</svg>
