<svg width="24" height="24" viewBox="0 0 24 24" fill="none" xmlns="http://www.w3.org/2000/svg">
<g clip-path="url(#clip0_383_630)">
<path d="M4 5C4 3.34315 5.34315 2 7 2H13.2574C14.053 2 14.8161 2.31607 15.3787 2.87868L19.1213 6.62132C19.6839 7.18393 20 7.94699 20 8.74264V19C20 20.6569 18.6569 22 17 22H7C5.34315 22 4 20.6569 4 19V5Z" fill="url(#paint0_linear_383_630)"/>
<path d="M4.75 4.75C4.75 3.64543 5.64543 2.75 6.75 2.75H13.4216C13.952 2.75 14.4607 2.96071 14.8358 3.33579L18.6642 7.16421C19.0393 7.53929 19.25 8.04799 19.25 8.57843V19.2459C19.25 20.3505 18.3546 21.2459 17.25 21.2459H6.75C5.64543 21.2459 4.75 20.3505 4.75 19.2459V4.75Z" stroke="url(#paint1_linear_383_630)" stroke-width="1.5"/>
<path d="M10.4222 16.5299C11.4035 17.1973 12.5523 17.4298 13.6033 17.067C14.8055 16.6508 15.6008 15.5439 15.838 14.1906C15.0474 14.7766 14.0242 15.3439 12.8685 15.802C12.0105 16.1439 11.178 16.3857 10.4222 16.5299Z" fill="url(#paint2_linear_383_630)"/>
<path d="M13.3243 8.57249C12.3918 8.01208 11.3315 7.83303 10.3571 8.17021C9.20841 8.56784 8.43407 9.59333 8.15735 10.863C8.94797 10.277 9.97113 9.70959 11.1292 9.24917C11.8942 8.94455 12.6383 8.71899 13.3243 8.57249Z" fill="url(#paint3_linear_383_630)"/>
<path d="M16.9123 9.15383C16.6728 8.35624 15.2148 8.16556 13.3266 8.57249C12.6406 8.71899 11.8965 8.94455 11.1315 9.24917C9.97578 9.70959 8.95029 10.277 8.15967 10.863C6.99234 11.728 6.33891 12.6326 6.53424 13.2813C6.69469 13.8162 7.43416 14.0789 8.47127 14.0417C9.50373 14.0069 10.8338 13.6743 12.1849 13.0256C10.5594 13.386 9.327 13.3325 9.35723 12.8628C9.40141 12.1745 11.0547 10.8653 13.5243 9.94446C13.8824 9.81191 14.2172 9.69564 14.5312 9.59798C15.5892 9.26545 16.3961 9.1236 16.9216 9.17476C16.9147 9.16779 16.9147 9.16081 16.9123 9.15383Z" fill="#FF6633"/>
<path d="M17.4658 11.7699C17.2984 11.2141 16.5124 10.9537 15.4148 11.0141C14.3987 11.0699 13.1197 11.4001 11.8175 12.0257C13.4429 11.6652 14.6754 11.7187 14.6451 12.1884C14.601 12.8767 12.9476 14.1859 10.4781 15.1068C10.0619 15.2626 9.67585 15.3928 9.31774 15.5021C8.33644 15.802 7.5807 15.9253 7.08307 15.8764C7.08539 15.8834 7.08539 15.8904 7.08772 15.8974C7.31793 16.6601 8.65501 16.8671 10.4223 16.5299C11.178 16.3857 12.0105 16.1439 12.8686 15.802C14.0243 15.3416 15.0474 14.7742 15.838 14.1906C17.0077 13.3232 17.6611 12.4186 17.4658 11.7699Z" fill="#1FBEC9"/>
<path d="M9.35493 12.8628C9.39911 12.1745 11.0524 10.8653 13.522 9.94446C13.8801 9.81191 14.2149 9.69564 14.5289 9.59798C14.1707 9.18174 13.7615 8.83526 13.3266 8.57249C12.6407 8.71899 11.8965 8.94455 11.1315 9.24917C9.9758 9.7096 8.95032 10.277 8.15969 10.863C7.95971 11.7815 8.0225 12.8279 8.39921 13.858C8.42246 13.9208 8.44571 13.9813 8.47129 14.0417C9.50375 14.0069 10.8339 13.6743 12.1849 13.0256C10.5571 13.386 9.3247 13.3348 9.35493 12.8628Z" fill="url(#paint4_linear_383_630)"/>
<path d="M15.5613 11.3792C15.5148 11.256 15.4659 11.135 15.4125 11.0141C14.3963 11.0699 13.1173 11.4001 11.8151 12.0257C13.4406 11.6652 14.673 11.7187 14.6428 12.1884C14.5986 12.8767 12.9453 14.1859 10.4757 15.1068C10.0595 15.2626 9.67347 15.3928 9.31537 15.5021C9.64324 15.9113 10.0176 16.2578 10.4199 16.5322C11.1757 16.388 12.0081 16.1462 12.8662 15.8044C14.0219 15.3439 15.0451 14.7766 15.8357 14.1929C15.9915 13.3162 15.9124 12.3419 15.5613 11.3792Z" fill="url(#paint5_linear_383_630)"/>
</g>
<defs>
<linearGradient id="paint0_linear_383_630" x1="20" y1="2" x2="4" y2="22" gradientUnits="userSpaceOnUse">
<stop stop-color="#424A59"/>
<stop offset="1" stop-color="#262D3B"/>
</linearGradient>
<linearGradient id="paint1_linear_383_630" x1="12" y1="2.75" x2="12" y2="21.2459" gradientUnits="userSpaceOnUse">
<stop stop-color="#8C93AB"/>
<stop offset="1" stop-color="#4F5C78"/>
</linearGradient>
<linearGradient id="paint2_linear_383_630" x1="13.1939" y1="15.4432" x2="14.14" y2="16.6743" gradientUnits="userSpaceOnUse">
<stop stop-color="#15768C"/>
<stop offset="0.1694" stop-color="#188B9D"/>
<stop offset="0.3807" stop-color="#1A9EAC"/>
<stop offset="0.5982" stop-color="#1CA9B5"/>
<stop offset="0.8297" stop-color="#1CADB8"/>
</linearGradient>
<linearGradient id="paint3_linear_383_630" x1="8.34625" y1="10.1825" x2="12.0511" y2="8.24187" gradientUnits="userSpaceOnUse">
<stop offset="0.0661076" stop-color="#FF6633"/>
<stop offset="0.2371" stop-color="#FF7133"/>
<stop offset="0.6373" stop-color="#FF8733"/>
<stop offset="0.8966" stop-color="#FF8F33"/>
</linearGradient>
<linearGradient id="paint4_linear_383_630" x1="8.2851" y1="12.719" x2="13.7189" y2="10.1433" gradientUnits="userSpaceOnUse">
<stop stop-color="#ED5F2F"/>
<stop offset="1" stop-color="#FF6633"/>
</linearGradient>
<linearGradient id="paint5_linear_383_630" x1="9.43431" y1="15.0005" x2="14.6211" y2="13.0246" gradientUnits="userSpaceOnUse">
<stop stop-color="#1BACB5"/>
<stop offset="0.9115" stop-color="#1FBEC9"/>
</linearGradient>
<clipPath id="clip0_383_630">
<rect width="24" height="24" fill="white"/>
</clipPath>
</defs>
</svg>
