<svg width="24" height="24" viewBox="0 0 24 24" fill="none" xmlns="http://www.w3.org/2000/svg">
<g clip-path="url(#clip0_258_340)">
<path d="M4 5C4 3.34315 5.34315 2 7 2H13.2574C14.053 2 14.8161 2.31607 15.3787 2.87868L19.1213 6.62132C19.6839 7.18393 20 7.94699 20 8.74264V19C20 20.6569 18.6569 22 17 22H7C5.34315 22 4 20.6569 4 19V5Z" fill="url(#paint0_linear_258_340)"/>
<path d="M4.75 4.75C4.75 3.64543 5.64543 2.75 6.75 2.75H13.4216C13.952 2.75 14.4607 2.96071 14.8358 3.33579L18.6642 7.16421C19.0393 7.53929 19.25 8.04799 19.25 8.57843V19.2459C19.25 20.3505 18.3546 21.2459 17.25 21.2459H6.75C5.64543 21.2459 4.75 20.3505 4.75 19.2459V4.75Z" stroke="url(#paint1_linear_258_340)" stroke-width="1.5"/>
<path d="M15.3662 2.80567L19.1944 6.6338C19.5715 7.01096 19.8279 7.48646 19.9385 8.00001H16C14.8954 8.00001 14 7.10458 14 6.00001L14 2.06155C14.5136 2.17211 14.9891 2.42851 15.3662 2.80567Z" fill="#F4CCAD"/>
<ellipse cx="12" cy="12.5" rx="5" ry="2.5" fill="#FBFBFB"/>
<ellipse cx="12" cy="12.5" rx="5" ry="2.5" fill="url(#paint2_radial_258_340)"/>
<circle cx="12" cy="11.875" r="2.5" fill="url(#paint3_linear_258_340)"/>
<circle cx="12" cy="11.875" r="0.625" fill="#0E1219"/>
<path d="M12 8.75C14.7614 8.75 17 10.4289 17 12.5C17 14.5711 14.7614 16.25 12 16.25C9.23858 16.25 7 14.5711 7 12.5C7 10.4289 9.23858 8.75 12 8.75ZM12 10C9.23858 10 7 11.1193 7 12.5C7 13.8807 9.23858 15 12 15C14.7614 15 17 13.8807 17 12.5C17 11.1193 14.7614 10 12 10Z" fill="url(#paint4_linear_258_340)"/>
<path d="M11.9997 10C14.5194 10 16.6024 10.9324 16.9479 12.1445C15.8372 11.5188 14.0347 11.1113 11.9997 11.1113C9.9641 11.1114 8.16102 11.5184 7.05048 12.1445C7.39569 10.9323 9.47982 10.0001 11.9997 10Z" fill="url(#paint5_radial_258_340)"/>
</g>
<defs>
<linearGradient id="paint0_linear_258_340" x1="20" y1="2" x2="4" y2="22" gradientUnits="userSpaceOnUse">
<stop stop-color="#B39073"/>
<stop offset="1" stop-color="#694831"/>
</linearGradient>
<linearGradient id="paint1_linear_258_340" x1="12" y1="2.75" x2="12" y2="21.2459" gradientUnits="userSpaceOnUse">
<stop stop-color="#EEAF77"/>
<stop offset="1" stop-color="#97704D"/>
</linearGradient>
<radialGradient id="paint2_radial_258_340" cx="0" cy="0" r="1" gradientUnits="userSpaceOnUse" gradientTransform="translate(12 13.0556) rotate(-90) scale(3.05556 6.11111)">
<stop offset="0.642934" stop-opacity="0"/>
<stop offset="1" stop-opacity="0.5"/>
</radialGradient>
<linearGradient id="paint3_linear_258_340" x1="10.125" y1="10" x2="13.875" y2="13.75" gradientUnits="userSpaceOnUse">
<stop stop-color="#A9C4EF"/>
<stop offset="1" stop-color="#6896E1"/>
</linearGradient>
<linearGradient id="paint4_linear_258_340" x1="7" y1="10" x2="17" y2="15" gradientUnits="userSpaceOnUse">
<stop stop-color="#DEC9B0"/>
<stop offset="1" stop-color="#E29666"/>
</linearGradient>
<radialGradient id="paint5_radial_258_340" cx="0" cy="0" r="1" gradientUnits="userSpaceOnUse" gradientTransform="translate(11.9995 11.9439) rotate(-90) scale(1.94385 7.1159)">
<stop offset="0.626807" stop-opacity="0"/>
<stop offset="1" stop-opacity="0.7"/>
</radialGradient>
<clipPath id="clip0_258_340">
<rect width="24" height="24" fill="white"/>
</clipPath>
</defs>
</svg>
