<svg width="24" height="24" viewBox="0 0 24 24" fill="none" xmlns="http://www.w3.org/2000/svg">
<g clip-path="url(#clip0_234_62)">
<path d="M4 5C4 3.34315 5.34315 2 7 2H13.2574C14.053 2 14.8161 2.31607 15.3787 2.87868L19.1213 6.62132C19.6839 7.18393 20 7.94699 20 8.74264V19C20 20.6569 18.6569 22 17 22H7C5.34315 22 4 20.6569 4 19V5Z" fill="url(#paint0_linear_234_62)"/>
<ellipse cx="12" cy="12.5" rx="7" ry="7.5" fill="url(#paint1_radial_234_62)" fill-opacity="0.2"/>
<path d="M13.7915 7.19156C13.8732 7.21347 13.9307 7.28657 13.9327 7.37112L13.9646 8.68453C13.9663 8.75334 14.0051 8.8156 14.065 8.84956C14.4056 9.04283 14.7163 9.28281 14.9889 9.56017C15.0372 9.60925 15.1074 9.63062 15.1743 9.61444L16.4537 9.305C16.5359 9.28513 16.6214 9.32174 16.6637 9.39495L17.0209 10.0131C17.0632 10.0864 17.0522 10.1788 16.9938 10.2401L16.0873 11.1908C16.0397 11.2406 16.0231 11.3122 16.0415 11.3786C16.1405 11.7355 16.1939 12.1116 16.1939 12.5C16.1939 12.512 16.1937 12.5241 16.1934 12.5361C16.1916 12.6049 16.2254 12.6696 16.2842 12.7055L17.408 13.3906C17.4803 13.4346 17.5149 13.5209 17.493 13.6027L17.3089 14.2917C17.287 14.3735 17.2139 14.4311 17.1293 14.4332L15.814 14.4651C15.7453 14.4667 15.683 14.5055 15.649 14.5654C15.4559 14.906 15.2166 15.2167 14.9394 15.4893C14.8903 15.5376 14.869 15.6078 14.8851 15.6747L15.1946 16.9541C15.2144 17.0363 15.1778 17.1218 15.1046 17.1641L14.4874 17.5205C14.4141 17.5628 14.3218 17.5518 14.2605 17.4935L13.3078 16.5866C13.258 16.5391 13.1865 16.5225 13.1202 16.5409C12.7635 16.6399 12.3877 16.6943 11.9996 16.6943C11.9875 16.6943 11.9755 16.6941 11.9635 16.6938C11.8947 16.692 11.8299 16.7258 11.7941 16.7846L11.109 17.9085C11.065 17.9807 10.9786 18.0153 10.8969 17.9934L10.2078 17.8093C10.126 17.7875 10.0684 17.7144 10.0663 17.6298L10.0336 16.3144C10.0319 16.2456 9.99313 16.1834 9.93332 16.1495C9.59245 15.9561 9.28115 15.7165 9.00836 15.439C8.96005 15.3899 8.88976 15.3685 8.82278 15.3847L7.54562 15.6948C7.46334 15.7148 7.37773 15.6781 7.33543 15.6048L6.979 14.9868C6.93677 14.9135 6.94778 14.8212 7.00607 14.76L7.91202 13.8082C7.95948 13.7584 7.97605 13.6869 7.9577 13.6206C7.85902 13.2639 7.80623 12.8881 7.80621 12.5C7.80621 12.488 7.80629 12.4759 7.80642 12.4639C7.8072 12.3951 7.77279 12.3304 7.71402 12.2945L6.59116 11.6095C6.51892 11.5654 6.48436 11.479 6.50628 11.3973L6.69116 10.708C6.71306 10.6264 6.78609 10.5689 6.8706 10.5668L8.18421 10.534C8.25296 10.5323 8.31516 10.4935 8.3491 10.4337C8.54242 10.0931 8.78236 9.7823 9.05976 9.50963C9.10883 9.4614 9.13021 9.39125 9.11407 9.32436L8.80549 8.04583C8.78565 7.96364 8.82229 7.87821 8.89551 7.83593L9.51277 7.47953C9.58601 7.43724 9.67835 7.44824 9.73961 7.50655L10.6913 8.41245C10.7412 8.4599 10.8127 8.47647 10.879 8.45812C11.2357 8.35942 11.6115 8.30667 11.9996 8.30664C12.0116 8.30664 12.0236 8.30672 12.0357 8.30685C12.1045 8.30764 12.1692 8.27322 12.2051 8.21445L12.8901 7.09158C12.9341 7.01934 13.0206 6.98478 13.1023 7.00671L13.7915 7.19156ZM12.0953 10.4023C10.9367 10.4023 9.99762 11.3414 9.99762 12.5C9.99767 13.6585 10.9367 14.5977 12.0953 14.5977C13.2537 14.5975 14.1929 13.6584 14.1929 12.5C14.1929 11.3415 13.2537 10.4025 12.0953 10.4023Z" fill="#E6A032"/>
<path d="M16.1939 12.5L16.4439 12.5V12.5L16.1939 12.5ZM11.9996 16.6943L11.9996 16.9443H11.9996L11.9996 16.6943ZM7.80621 12.5L7.55621 12.5V12.5L7.80621 12.5ZM11.9996 8.30664L11.9996 8.05664H11.9996L11.9996 8.30664ZM12.0953 10.4023L12.0953 10.1523H12.0953V10.4023ZM9.99762 12.5H9.74762V12.5L9.99762 12.5ZM12.0953 14.5977V14.8477H12.0953L12.0953 14.5977ZM14.1929 12.5L14.4429 12.5V12.5H14.1929ZM12.8901 7.09158L12.6767 6.96138L12.8901 7.09158ZM13.1023 7.00671L13.0375 7.24817L13.1023 7.00671ZM12.0357 8.30685L12.0328 8.55684L12.0357 8.30685ZM12.2051 8.21445L12.4185 8.34465L12.2051 8.21445ZM10.6913 8.41245L10.8637 8.23136L10.6913 8.41245ZM10.879 8.45812L10.9457 8.69906L10.879 8.45812ZM9.51277 7.47953L9.63777 7.69603L9.51277 7.47953ZM8.80549 8.04583L9.04851 7.98717L8.80549 8.04583ZM9.05976 9.50963L9.23501 9.68792L9.05976 9.50963ZM9.11407 9.32436L9.35709 9.26571L9.11407 9.32436ZM8.18421 10.534L8.19044 10.7839L8.18421 10.534ZM8.3491 10.4337L8.13167 10.3103L8.3491 10.4337ZM6.8706 10.5668L6.86437 10.3168L6.8706 10.5668ZM6.59116 11.6095L6.46096 11.8229L6.59116 11.6095ZM6.979 14.9868L6.76244 15.1117L6.979 14.9868ZM7.00607 14.76L7.18715 14.9324L7.00607 14.76ZM7.54562 15.6948L7.48664 15.4519L7.54562 15.6948ZM7.33543 15.6048L7.55199 15.4799L7.33543 15.6048ZM9.00836 15.439L9.18666 15.2638L9.00836 15.439ZM8.82278 15.3847L8.88177 15.6277L8.82278 15.3847ZM10.0336 16.3144L10.2835 16.3081L10.0336 16.3144ZM10.2078 17.8093L10.1432 18.0508L10.2078 17.8093ZM10.0663 17.6298L9.81641 17.636L10.0663 17.6298ZM11.109 17.9085L11.3224 18.0386L11.109 17.9085ZM10.8969 17.9934L10.9615 17.7519L10.8969 17.9934ZM11.9635 16.6938L11.97 16.4439L11.9635 16.6938ZM11.7941 16.7846L11.5806 16.6545L11.7941 16.7846ZM13.3078 16.5866L13.4802 16.4055L13.3078 16.5866ZM13.1202 16.5409L13.187 16.7818L13.1202 16.5409ZM14.4874 17.5205L14.3624 17.304L14.4874 17.5205ZM14.2605 17.4935L14.4329 17.3124L14.2605 17.4935ZM15.1946 16.9541L15.4376 16.8954L15.1946 16.9541ZM15.814 14.4651L15.8201 14.715L15.814 14.4651ZM15.649 14.5654L15.4316 14.442L15.649 14.5654ZM17.3089 14.2917L17.5504 14.3563L17.3089 14.2917ZM17.1293 14.4332L17.1353 14.6831L17.1293 14.4332ZM17.493 13.6027L17.2515 13.5381L17.493 13.6027ZM16.1934 12.5361L16.4433 12.5426L16.1934 12.5361ZM16.2842 12.7055L16.1541 12.9189L16.2842 12.7055ZM16.0873 11.1908L16.2682 11.3633L16.0873 11.1908ZM16.0415 11.3786L15.8006 11.4453L16.0415 11.3786ZM16.9938 10.2401L17.1747 10.4126L16.9938 10.2401ZM16.4537 9.305L16.395 9.06201L16.4537 9.305ZM16.6637 9.39495L16.4472 9.52003L16.6637 9.39495ZM7.71402 12.2945L7.84422 12.0811L7.71402 12.2945ZM14.9889 9.56017L15.1672 9.38491L14.9889 9.56017ZM15.1743 9.61444L15.1155 9.37144L15.1743 9.61444ZM13.9646 8.68453L13.7147 8.69061L13.9646 8.68453ZM14.065 8.84956L14.1883 8.63212L14.065 8.84956ZM14.9394 15.4893L14.7641 15.3111L14.9394 15.4893ZM14.8851 15.6747L14.6421 15.7335L14.8851 15.6747ZM7.91202 13.8082L7.73094 13.6359L7.91202 13.8082ZM7.9577 13.6206L7.71675 13.6872L7.9577 13.6206ZM13.9327 7.37112L14.1827 7.36505L13.9327 7.37112ZM13.9327 7.37112L13.6828 7.3772L13.7147 8.69061L13.9646 8.68453L14.2146 8.67846L14.1827 7.36505L13.9327 7.37112ZM14.065 8.84956L13.9416 9.067C14.2618 9.24864 14.554 9.47433 14.8107 9.73544L14.9889 9.56017L15.1672 9.38491C14.8785 9.09129 14.5495 8.83703 14.1883 8.63212L14.065 8.84956ZM15.1743 9.61444L15.233 9.85743L16.5125 9.548L16.4537 9.305L16.395 9.06201L15.1155 9.37144L15.1743 9.61444ZM16.6637 9.39495L16.4472 9.52003L16.8044 10.1381L17.0209 10.0131L17.2373 9.88797L16.8801 9.26986L16.6637 9.39495ZM16.9938 10.2401L16.8129 10.0676L15.9064 11.0182L16.0873 11.1908L16.2682 11.3633L17.1747 10.4126L16.9938 10.2401ZM16.0415 11.3786L15.8006 11.4453C15.8936 11.781 15.9439 12.1346 15.9439 12.5L16.1939 12.5L16.4439 12.5C16.4439 12.0886 16.3873 11.69 16.2824 11.3118L16.0415 11.3786ZM16.1939 12.5L15.9439 12.5C15.9439 12.5094 15.9438 12.5192 15.9435 12.5296L16.1934 12.5361L16.4433 12.5426C16.4437 12.5289 16.4439 12.5147 16.4439 12.5L16.1939 12.5ZM16.2842 12.7055L16.1541 12.9189L17.2779 13.6041L17.408 13.3906L17.5382 13.1771L16.4143 12.492L16.2842 12.7055ZM17.493 13.6027L17.2515 13.5381L17.0674 14.2272L17.3089 14.2917L17.5504 14.3563L17.7345 13.6672L17.493 13.6027ZM17.1293 14.4332L17.1232 14.1832L15.808 14.2151L15.814 14.4651L15.8201 14.715L17.1353 14.6831L17.1293 14.4332ZM15.649 14.5654L15.4316 14.442C15.2499 14.7623 15.0249 15.0546 14.7641 15.3111L14.9394 15.4893L15.1147 15.6676C15.4083 15.3788 15.6618 15.0496 15.8665 14.6887L15.649 14.5654ZM14.8851 15.6747L14.6421 15.7335L14.9516 17.0129L15.1946 16.9541L15.4376 16.8954L15.1281 15.6159L14.8851 15.6747ZM15.1046 17.1641L14.9795 16.9476L14.3624 17.304L14.4874 17.5205L14.6124 17.737L15.2296 17.3806L15.1046 17.1641ZM14.2605 17.4935L14.4329 17.3124L13.4802 16.4055L13.3078 16.5866L13.1354 16.7677L14.0881 17.6745L14.2605 17.4935ZM13.1202 16.5409L13.0533 16.3001C12.7175 16.3932 12.3642 16.4443 11.9996 16.4443L11.9996 16.6943L11.9996 16.9443C12.4111 16.9443 12.8094 16.8866 13.187 16.7818L13.1202 16.5409ZM11.9996 16.6943L11.9996 16.4443C11.9902 16.4443 11.9803 16.4442 11.97 16.4439L11.9635 16.6938L11.957 16.9438C11.9707 16.9441 11.9849 16.9443 11.9996 16.9443L11.9996 16.6943ZM11.7941 16.7846L11.5806 16.6545L10.8955 17.7783L11.109 17.9085L11.3224 18.0386L12.0075 16.9148L11.7941 16.7846ZM10.8969 17.9934L10.9615 17.7519L10.2723 17.5678L10.2078 17.8093L10.1432 18.0508L10.8324 18.235L10.8969 17.9934ZM10.0663 17.6298L10.3163 17.6236L10.2835 16.3081L10.0336 16.3144L9.78367 16.3206L9.81641 17.636L10.0663 17.6298ZM9.93332 16.1495L10.0567 15.9321C9.73605 15.7502 9.44323 15.5248 9.18666 15.2638L9.00836 15.439L8.83007 15.6143C9.11907 15.9083 9.44884 16.1621 9.80996 16.367L9.93332 16.1495ZM8.82278 15.3847L8.7638 15.1418L7.48664 15.4519L7.54562 15.6948L7.60461 15.9378L8.88177 15.6277L8.82278 15.3847ZM7.33543 15.6048L7.55199 15.4799L7.19557 14.8619L6.979 14.9868L6.76244 15.1117L7.11886 15.7297L7.33543 15.6048ZM7.00607 14.76L7.18715 14.9324L8.09311 13.9806L7.91202 13.8082L7.73094 13.6359L6.82499 14.5877L7.00607 14.76ZM7.9577 13.6206L8.19865 13.5539C8.10592 13.2187 8.05623 12.8653 8.05621 12.5L7.80621 12.5L7.55621 12.5C7.55623 12.9108 7.61213 13.3091 7.71675 13.6872L7.9577 13.6206ZM7.80621 12.5L8.05621 12.5C8.05621 12.489 8.05628 12.4779 8.05641 12.4668L7.80642 12.4639L7.55644 12.4611C7.55629 12.474 7.55621 12.4869 7.55621 12.5L7.80621 12.5ZM7.71402 12.2945L7.84422 12.0811L6.72135 11.3961L6.59116 11.6095L6.46096 11.8229L7.58382 12.5079L7.71402 12.2945ZM6.50628 11.3973L6.74774 11.4621L6.93262 10.7728L6.69116 10.708L6.44969 10.6432L6.26481 11.3325L6.50628 11.3973ZM6.8706 10.5668L6.87683 10.8167L8.19044 10.7839L8.18421 10.534L8.17799 10.2841L6.86437 10.3168L6.8706 10.5668ZM8.3491 10.4337L8.56653 10.5571C8.74824 10.2369 8.97391 9.94456 9.23501 9.68792L9.05976 9.50963L8.88452 9.33134C8.5908 9.62003 8.33659 9.94922 8.13167 10.3103L8.3491 10.4337ZM9.11407 9.32436L9.35709 9.26571L9.04851 7.98717L8.80549 8.04583L8.56246 8.10448L8.87105 9.38302L9.11407 9.32436ZM8.89551 7.83593L9.02052 8.05243L9.63777 7.69603L9.51277 7.47953L9.38776 7.26303L8.7705 7.61943L8.89551 7.83593ZM9.73961 7.50655L9.56725 7.68763L10.519 8.59353L10.6913 8.41245L10.8637 8.23136L9.91197 7.32546L9.73961 7.50655ZM10.879 8.45812L10.9457 8.69906C11.2809 8.60632 11.6342 8.55666 11.9996 8.55664L11.9996 8.30664L11.9996 8.05664C11.5887 8.05667 11.1905 8.11253 10.8123 8.21717L10.879 8.45812ZM11.9996 8.30664L11.9996 8.55664C12.0106 8.55664 12.0216 8.55671 12.0328 8.55684L12.0357 8.30685L12.0385 8.05687C12.0256 8.05672 12.0126 8.05664 11.9996 8.05664L11.9996 8.30664ZM12.2051 8.21445L12.4185 8.34465L13.1035 7.22178L12.8901 7.09158L12.6767 6.96138L11.9916 8.08426L12.2051 8.21445ZM13.1023 7.00671L13.0375 7.24817L13.7267 7.43303L13.7915 7.19156L13.8562 6.9501L13.1671 6.76524L13.1023 7.00671ZM12.0953 10.4023V10.1523C10.7986 10.1523 9.74762 11.2034 9.74762 12.5H9.99762H10.2476C10.2476 11.4795 11.0748 10.6523 12.0953 10.6523V10.4023ZM9.99762 12.5L9.74762 12.5C9.74767 13.7966 10.7987 14.8477 12.0953 14.8477V14.5977V14.3477C11.0748 14.3477 10.2477 13.5205 10.2476 12.5L9.99762 12.5ZM12.0953 14.5977L12.0953 14.8477C13.3918 14.8475 14.4429 13.7965 14.4429 12.5L14.1929 12.5L13.9429 12.5C13.9429 13.5203 13.1156 14.3475 12.0952 14.3477L12.0953 14.5977ZM14.1929 12.5H14.4429C14.4429 11.2034 13.3918 10.1525 12.0953 10.1523L12.0953 10.4023L12.0952 10.6523C13.1157 10.6525 13.9429 11.4796 13.9429 12.5H14.1929ZM12.8901 7.09158L13.1035 7.22178C13.0898 7.24424 13.0629 7.25499 13.0375 7.24817L13.1023 7.00671L13.1671 6.76524C12.9782 6.71458 12.7785 6.79444 12.6767 6.96138L12.8901 7.09158ZM12.0357 8.30685L12.0328 8.55684C12.1862 8.55858 12.3348 8.48175 12.4185 8.34465L12.2051 8.21445L11.9916 8.08426C12.0036 8.06469 12.0228 8.05669 12.0385 8.05687L12.0357 8.30685ZM10.6913 8.41245L10.519 8.59353C10.6351 8.70408 10.7983 8.73984 10.9457 8.69906L10.879 8.45812L10.8123 8.21717C10.827 8.2131 10.8473 8.21572 10.8637 8.23136L10.6913 8.41245ZM9.51277 7.47953L9.63777 7.69603C9.615 7.70918 9.58629 7.70576 9.56725 7.68763L9.73961 7.50655L9.91197 7.32546C9.77041 7.19072 9.55701 7.1653 9.38776 7.26303L9.51277 7.47953ZM8.80549 8.04583L9.04851 7.98717C9.05468 8.01273 9.04328 8.03929 9.02052 8.05243L8.89551 7.83593L8.7705 7.61943C8.6013 7.71712 8.51662 7.91456 8.56246 8.10448L8.80549 8.04583ZM9.05976 9.50963L9.23501 9.68792C9.34412 9.58067 9.39469 9.4215 9.35709 9.26571L9.11407 9.32436L8.87105 9.38302C8.86573 9.361 8.87354 9.34212 8.88452 9.33134L9.05976 9.50963ZM8.18421 10.534L8.19044 10.7839C8.3506 10.78 8.49113 10.69 8.56653 10.5571L8.3491 10.4337L8.13167 10.3103C8.13919 10.2971 8.15532 10.2847 8.17799 10.2841L8.18421 10.534ZM6.69116 10.708L6.93262 10.7728C6.92581 10.7982 6.90311 10.816 6.87683 10.8167L6.8706 10.5668L6.86437 10.3168C6.66908 10.3217 6.5003 10.4546 6.44969 10.6432L6.69116 10.708ZM6.59116 11.6095L6.72135 11.3961C6.74381 11.4098 6.75456 11.4366 6.74774 11.4621L6.50628 11.3973L6.26481 11.3325C6.21415 11.5214 6.29402 11.7211 6.46096 11.8229L6.59116 11.6095ZM6.979 14.9868L7.19557 14.8619C7.2087 14.8846 7.20527 14.9133 7.18715 14.9324L7.00607 14.76L6.82499 14.5877C6.69029 14.7292 6.66484 14.9425 6.76244 15.1117L6.979 14.9868ZM7.54562 15.6948L7.48664 15.4519C7.51222 15.4457 7.53884 15.4571 7.55199 15.4799L7.33543 15.6048L7.11886 15.7297C7.21663 15.8992 7.41445 15.9839 7.60461 15.9378L7.54562 15.6948ZM9.00836 15.439L9.18666 15.2638C9.07928 15.1545 8.91982 15.1039 8.7638 15.1418L8.82278 15.3847L8.88177 15.6277C8.8597 15.633 8.84082 15.6252 8.83007 15.6143L9.00836 15.439ZM10.0336 16.3144L10.2835 16.3081C10.2795 16.148 10.1896 16.0075 10.0567 15.9321L9.93332 16.1495L9.80996 16.367C9.79665 16.3594 9.78423 16.3432 9.78367 16.3206L10.0336 16.3144ZM10.2078 17.8093L10.2723 17.5678C10.2977 17.5746 10.3156 17.5973 10.3163 17.6236L10.0663 17.6298L9.81641 17.636C9.82128 17.8315 9.95433 18.0004 10.1432 18.0508L10.2078 17.8093ZM11.109 17.9085L10.8955 17.7783C10.9092 17.7559 10.936 17.7451 10.9615 17.7519L10.8969 17.9934L10.8324 18.235C11.0212 18.2854 11.2207 18.2055 11.3224 18.0386L11.109 17.9085ZM11.9635 16.6938L11.97 16.4439C11.8154 16.4399 11.665 16.5161 11.5806 16.6545L11.7941 16.7846L12.0075 16.9148C11.9949 16.9356 11.9739 16.9442 11.957 16.9438L11.9635 16.6938ZM13.3078 16.5866L13.4802 16.4055C13.3641 16.295 13.2008 16.2591 13.0533 16.3001L13.1202 16.5409L13.187 16.7818C13.1721 16.786 13.1518 16.7833 13.1354 16.7677L13.3078 16.5866ZM14.4874 17.5205L14.3624 17.304C14.3851 17.2908 14.4138 17.2942 14.4329 17.3124L14.2605 17.4935L14.0881 17.6745C14.2297 17.8093 14.4431 17.8347 14.6124 17.737L14.4874 17.5205ZM15.1946 16.9541L14.9516 17.0129C14.9454 16.9873 14.9568 16.9608 14.9795 16.9476L15.1046 17.1641L15.2296 17.3806C15.3988 17.2829 15.4835 17.0853 15.4376 16.8954L15.1946 16.9541ZM15.814 14.4651L15.808 14.2151C15.6477 14.219 15.507 14.309 15.4316 14.442L15.649 14.5654L15.8665 14.6887C15.859 14.702 15.8428 14.7144 15.8201 14.715L15.814 14.4651ZM17.3089 14.2917L17.0674 14.2272C17.0742 14.2018 17.0969 14.1839 17.1232 14.1832L17.1293 14.4332L17.1353 14.6831C17.3309 14.6783 17.4999 14.5453 17.5504 14.3563L17.3089 14.2917ZM17.408 13.3906L17.2779 13.6041C17.2555 13.5904 17.2447 13.5635 17.2515 13.5381L17.493 13.6027L17.7345 13.6672C17.785 13.4784 17.7051 13.2789 17.5382 13.1771L17.408 13.3906ZM16.1934 12.5361L15.9435 12.5296C15.9395 12.6842 16.0157 12.8346 16.1541 12.9189L16.2842 12.7055L16.4143 12.492C16.4351 12.5047 16.4438 12.5257 16.4433 12.5426L16.1934 12.5361ZM16.0873 11.1908L15.9064 11.0182C15.7956 11.1344 15.7597 11.2977 15.8006 11.4453L16.0415 11.3786L16.2824 11.3118C16.2865 11.3266 16.2839 11.3469 16.2682 11.3633L16.0873 11.1908ZM17.0209 10.0131L16.8044 10.1381C16.7913 10.1154 16.7947 10.0866 16.8129 10.0676L16.9938 10.2401L17.1747 10.4126C17.3097 10.271 17.3352 10.0574 17.2373 9.88797L17.0209 10.0131ZM16.4537 9.305L16.5125 9.548C16.487 9.55418 16.4604 9.5428 16.4472 9.52003L16.6637 9.39495L16.8801 9.26986C16.7824 9.10068 16.5849 9.01608 16.395 9.06201L16.4537 9.305ZM7.80642 12.4639L8.05641 12.4668C8.05814 12.3134 7.98133 12.1647 7.84422 12.0811L7.71402 12.2945L7.58382 12.5079C7.56425 12.496 7.55626 12.4768 7.55644 12.4611L7.80642 12.4639ZM14.9889 9.56017L14.8107 9.73544C14.918 9.84459 15.0772 9.89512 15.233 9.85743L15.1743 9.61444L15.1155 9.37144C15.1375 9.36612 15.1564 9.37392 15.1672 9.38491L14.9889 9.56017ZM13.9646 8.68453L13.7147 8.69061C13.7186 8.8509 13.8086 8.99156 13.9416 9.067L14.065 8.84956L14.1883 8.63212C14.2016 8.63964 14.214 8.65577 14.2146 8.67846L13.9646 8.68453ZM14.9394 15.4893L14.7641 15.3111C14.655 15.4184 14.6045 15.5776 14.6421 15.7335L14.8851 15.6747L15.1281 15.6159C15.1335 15.638 15.1256 15.6568 15.1147 15.6676L14.9394 15.4893ZM7.91202 13.8082L8.09311 13.9806C8.20365 13.8645 8.23942 13.7013 8.19865 13.5539L7.9577 13.6206L7.71675 13.6872C7.71267 13.6725 7.7153 13.6523 7.73094 13.6359L7.91202 13.8082ZM13.9327 7.37112L14.1827 7.36505C14.1779 7.16966 14.045 7.00073 13.8562 6.9501L13.7915 7.19156L13.7267 7.43303C13.7013 7.42621 13.6834 7.40349 13.6828 7.3772L13.9327 7.37112Z" fill="black"/>
<path d="M4.75 4.75C4.75 3.64543 5.64543 2.75 6.75 2.75H13.4216C13.952 2.75 14.4607 2.96071 14.8358 3.33579L18.6642 7.16421C19.0393 7.53929 19.25 8.04799 19.25 8.57843V19.2459C19.25 20.3505 18.3546 21.2459 17.25 21.2459H6.75C5.64543 21.2459 4.75 20.3505 4.75 19.2459V4.75Z" stroke="url(#paint2_linear_234_62)" stroke-width="1.5"/>
<path d="M15.3662 2.80567L19.1944 6.6338C19.5715 7.01096 19.8279 7.48646 19.9385 8.00001H16C14.8954 8.00001 14 7.10458 14 6.00001L14 2.06155C14.5136 2.17211 14.9891 2.42851 15.3662 2.80567Z" fill="#FCFDFD"/>
</g>
<defs>
<linearGradient id="paint0_linear_234_62" x1="20" y1="2" x2="4" y2="22" gradientUnits="userSpaceOnUse">
<stop stop-color="#ECF0F3"/>
<stop offset="1" stop-color="#B9CCD6"/>
</linearGradient>
<radialGradient id="paint1_radial_234_62" cx="0" cy="0" r="1" gradientUnits="userSpaceOnUse" gradientTransform="translate(12 12.5) rotate(90) scale(7.5 7)">
<stop/>
<stop offset="1" stop-opacity="0"/>
</radialGradient>
<linearGradient id="paint2_linear_234_62" x1="12" y1="2.75" x2="12" y2="21.2459" gradientUnits="userSpaceOnUse">
<stop stop-color="#FAFAFB"/>
<stop offset="1" stop-color="#DDE6EB"/>
</linearGradient>
<clipPath id="clip0_234_62">
<rect width="24" height="24" fill="white"/>
</clipPath>
</defs>
</svg>
