<svg width="24" height="24" viewBox="0 0 24 24" fill="none" xmlns="http://www.w3.org/2000/svg">
<g clip-path="url(#clip0_289_415)">
<path d="M4 5C4 3.34315 5.34315 2 7 2H13.2574C14.053 2 14.8161 2.31607 15.3787 2.87868L19.1213 6.62132C19.6839 7.18393 20 7.94699 20 8.74264V19C20 20.6569 18.6569 22 17 22H7C5.34315 22 4 20.6569 4 19V5Z" fill="url(#paint0_linear_289_415)"/>
<path d="M13.7914 7.19156C13.8731 7.21347 13.9306 7.28657 13.9327 7.37112L13.9646 8.68453C13.9663 8.75334 14.005 8.8156 14.0649 8.84956C14.4056 9.04283 14.7162 9.28281 14.9889 9.56017C15.0371 9.60925 15.1073 9.63062 15.1742 9.61444L16.4537 9.305C16.5359 9.28513 16.6213 9.32174 16.6636 9.39495L17.0208 10.0131C17.0632 10.0864 17.0521 10.1788 16.9937 10.2401L16.0872 11.1908C16.0397 11.2406 16.0231 11.3122 16.0415 11.3786C16.1404 11.7355 16.1938 12.1116 16.1938 12.5C16.1938 12.512 16.1937 12.5241 16.1933 12.5361C16.1916 12.6049 16.2253 12.6696 16.2841 12.7055L17.408 13.3906C17.4802 13.4346 17.5148 13.5209 17.493 13.6027L17.3088 14.2917C17.287 14.3735 17.2138 14.4311 17.1292 14.4332L15.814 14.4651C15.7452 14.4667 15.6829 14.5055 15.649 14.5654C15.4558 14.906 15.2165 15.2167 14.9393 15.4893C14.8903 15.5376 14.8689 15.6078 14.8851 15.6747L15.1945 16.9541C15.2144 17.0363 15.1777 17.1218 15.1045 17.1641L14.4873 17.5205C14.4141 17.5628 14.3217 17.5518 14.2605 17.4935L13.3077 16.5866C13.2579 16.5391 13.1864 16.5225 13.1201 16.5409C12.7634 16.6399 12.3876 16.6943 11.9995 16.6943C11.9875 16.6943 11.9755 16.6941 11.9634 16.6938C11.8946 16.692 11.8299 16.7258 11.794 16.7846L11.1089 17.9085C11.0649 17.9807 10.9786 18.0153 10.8969 17.9934L10.2077 17.8093C10.126 17.7875 10.0684 17.7144 10.0663 17.6298L10.0335 16.3144C10.0318 16.2456 9.99307 16.1834 9.93326 16.1495C9.59239 15.9561 9.28109 15.7165 9.0083 15.439C8.95999 15.3899 8.8897 15.3685 8.82272 15.3847L7.54556 15.6948C7.46328 15.7148 7.37767 15.6781 7.33537 15.6048L6.97894 14.9868C6.93671 14.9135 6.94772 14.8212 7.00601 14.76L7.91196 13.8082C7.95942 13.7584 7.97599 13.6869 7.95764 13.6206C7.85896 13.2639 7.80616 12.8881 7.80615 12.5C7.80615 12.488 7.80623 12.4759 7.80636 12.4639C7.80714 12.3951 7.77273 12.3304 7.71396 12.2945L6.59109 11.6095C6.51885 11.5654 6.48429 11.479 6.50622 11.3973L6.6911 10.708C6.713 10.6264 6.78603 10.5689 6.87054 10.5668L8.18415 10.534C8.2529 10.5323 8.3151 10.4935 8.34904 10.4337C8.54236 10.0931 8.7823 9.7823 9.0597 9.50963C9.10877 9.4614 9.13015 9.39125 9.11401 9.32436L8.80543 8.04583C8.78559 7.96364 8.82223 7.87821 8.89545 7.83593L9.5127 7.47953C9.58594 7.43724 9.67829 7.44824 9.73955 7.50655L10.6913 8.41245C10.7411 8.4599 10.8126 8.47647 10.8789 8.45812C11.2356 8.35942 11.6114 8.30667 11.9995 8.30664C12.0115 8.30664 12.0236 8.30672 12.0356 8.30685C12.1044 8.30764 12.1691 8.27322 12.205 8.21445L12.89 7.09158C12.9341 7.01934 13.0205 6.98478 13.1022 7.00671L13.7914 7.19156ZM12.0952 10.4023C10.9366 10.4023 9.99756 11.3414 9.99756 12.5C9.99761 13.6585 10.9367 14.5977 12.0952 14.5977C13.2536 14.5975 14.1928 13.6584 14.1929 12.5C14.1929 11.3415 13.2537 10.4025 12.0952 10.4023Z" fill="#E6A032"/>
<path d="M16.1938 12.5L16.4438 12.5V12.5L16.1938 12.5ZM11.9995 16.6943L11.9995 16.9443H11.9995L11.9995 16.6943ZM7.80615 12.5L7.55615 12.5V12.5L7.80615 12.5ZM11.9995 8.30664L11.9995 8.05664H11.9995L11.9995 8.30664ZM12.0952 10.4023L12.0952 10.1523H12.0952V10.4023ZM9.99756 12.5H9.74756V12.5L9.99756 12.5ZM12.0952 14.5977V14.8477H12.0952L12.0952 14.5977ZM14.1929 12.5L14.4429 12.5V12.5H14.1929ZM12.89 7.09158L12.6766 6.96138L12.89 7.09158ZM13.1022 7.00671L13.0375 7.24817L13.1022 7.00671ZM12.0356 8.30685L12.0384 8.05687L12.0356 8.30685ZM12.205 8.21445L12.4184 8.34465L12.205 8.21445ZM10.6913 8.41245L10.8636 8.23136L10.6913 8.41245ZM10.8789 8.45812L10.9456 8.69906L10.8789 8.45812ZM9.5127 7.47953L9.63771 7.69603L9.5127 7.47953ZM8.80543 8.04583L9.04845 7.98717L8.80543 8.04583ZM9.0597 9.50963L9.23495 9.68792L9.0597 9.50963ZM9.11401 9.32436L9.35703 9.26571L9.11401 9.32436ZM8.18415 10.534L8.19038 10.7839L8.18415 10.534ZM8.34904 10.4337L8.56647 10.5571L8.34904 10.4337ZM6.87054 10.5668L6.86431 10.3168L6.87054 10.5668ZM6.59109 11.6095L6.4609 11.8229L6.59109 11.6095ZM6.97894 14.9868L6.76238 15.1117L6.97894 14.9868ZM7.00601 14.76L7.18709 14.9324L7.00601 14.76ZM7.54556 15.6948L7.48658 15.4519L7.54556 15.6948ZM7.33537 15.6048L7.55193 15.4799L7.33537 15.6048ZM9.0083 15.439L9.1866 15.2638L9.0083 15.439ZM8.82272 15.3847L8.8817 15.6277L8.82272 15.3847ZM10.0335 16.3144L10.2835 16.3081L10.0335 16.3144ZM9.93326 16.1495L9.8099 16.367L9.93326 16.1495ZM10.2077 17.8093L10.1432 18.0508L10.2077 17.8093ZM10.0663 17.6298L9.81635 17.636L10.0663 17.6298ZM11.1089 17.9085L11.3224 18.0386L11.1089 17.9085ZM10.8969 17.9934L10.9614 17.7519L10.8969 17.9934ZM11.9634 16.6938L11.9699 16.4439L11.9634 16.6938ZM11.794 16.7846L11.5806 16.6545L11.794 16.7846ZM13.3077 16.5866L13.4801 16.4055L13.3077 16.5866ZM13.1201 16.5409L13.1869 16.7818L13.1201 16.5409ZM14.4873 17.5205L14.3623 17.304L14.4873 17.5205ZM14.2605 17.4935L14.4328 17.3124L14.2605 17.4935ZM15.1945 16.9541L15.4375 16.8954L15.1945 16.9541ZM15.814 14.4651L15.82 14.715L15.814 14.4651ZM15.649 14.5654L15.8664 14.6887L15.649 14.5654ZM17.3088 14.2917L17.5504 14.3563L17.3088 14.2917ZM17.1292 14.4332L17.1353 14.6831L17.1292 14.4332ZM17.493 13.6027L17.2514 13.5381L17.493 13.6027ZM16.1933 12.5361L16.4433 12.5426L16.1933 12.5361ZM16.2841 12.7055L16.154 12.9189L16.2841 12.7055ZM16.0872 11.1908L16.2682 11.3633L16.0872 11.1908ZM16.0415 11.3786L16.2824 11.3118L16.0415 11.3786ZM16.9937 10.2401L17.1747 10.4126L16.9937 10.2401ZM16.4537 9.305L16.3949 9.06201L16.4537 9.305ZM16.6636 9.39495L16.4472 9.52003L16.6636 9.39495ZM7.80636 12.4639L7.55638 12.4611L7.80636 12.4639ZM7.71396 12.2945L7.84416 12.0811L7.71396 12.2945ZM14.9889 9.56017L15.1671 9.38491L14.9889 9.56017ZM15.1742 9.61444L15.1154 9.37144L15.1742 9.61444ZM13.9646 8.68453L13.7147 8.69061L13.9646 8.68453ZM14.9393 15.4893L15.1146 15.6676L14.9393 15.4893ZM14.8851 15.6747L14.6421 15.7335L14.8851 15.6747ZM7.91196 13.8082L7.73088 13.6359L7.91196 13.8082ZM13.9327 7.37112L14.1826 7.36505L13.9327 7.37112ZM13.9327 7.37112L13.6827 7.3772L13.7147 8.69061L13.9646 8.68453L14.2145 8.67846L14.1826 7.36505L13.9327 7.37112ZM14.0649 8.84956L13.9415 9.067C14.2617 9.24864 14.5539 9.47433 14.8106 9.73544L14.9889 9.56017L15.1671 9.38491C14.8785 9.09129 14.5495 8.83703 14.1883 8.63212L14.0649 8.84956ZM15.1742 9.61444L15.233 9.85743L16.5125 9.548L16.4537 9.305L16.3949 9.06201L15.1154 9.37144L15.1742 9.61444ZM16.6636 9.39495L16.4472 9.52003L16.8044 10.1381L17.0208 10.0131L17.2373 9.88797L16.8801 9.26986L16.6636 9.39495ZM16.9937 10.2401L16.8128 10.0676L15.9063 11.0182L16.0872 11.1908L16.2682 11.3633L17.1747 10.4126L16.9937 10.2401ZM16.0415 11.3786L15.8005 11.4453C15.8936 11.781 15.9438 12.1346 15.9438 12.5L16.1938 12.5L16.4438 12.5C16.4438 12.0886 16.3872 11.69 16.2824 11.3118L16.0415 11.3786ZM16.1938 12.5L15.9438 12.5C15.9438 12.5094 15.9437 12.5192 15.9434 12.5296L16.1933 12.5361L16.4433 12.5426C16.4436 12.5289 16.4438 12.5147 16.4438 12.5L16.1938 12.5ZM16.2841 12.7055L16.154 12.9189L17.2779 13.6041L17.408 13.3906L17.5381 13.1771L16.4143 12.492L16.2841 12.7055ZM17.493 13.6027L17.2514 13.5381L17.0673 14.2272L17.3088 14.2917L17.5504 14.3563L17.7345 13.6672L17.493 13.6027ZM17.1292 14.4332L17.1232 14.1832L15.8079 14.2151L15.814 14.4651L15.82 14.715L17.1353 14.6831L17.1292 14.4332ZM15.649 14.5654L15.4315 14.442C15.2499 14.7623 15.0248 15.0546 14.764 15.3111L14.9393 15.4893L15.1146 15.6676C15.4083 15.3788 15.6618 15.0496 15.8664 14.6887L15.649 14.5654ZM14.8851 15.6747L14.6421 15.7335L14.9515 17.0129L15.1945 16.9541L15.4375 16.8954L15.1281 15.6159L14.8851 15.6747ZM15.1045 17.1641L14.9795 16.9476L14.3623 17.304L14.4873 17.5205L14.6123 17.737L15.2295 17.3806L15.1045 17.1641ZM14.2605 17.4935L14.4328 17.3124L13.4801 16.4055L13.3077 16.5866L13.1354 16.7677L14.0881 17.6745L14.2605 17.4935ZM13.1201 16.5409L13.0533 16.3001C12.7175 16.3932 12.3642 16.4443 11.9995 16.4443L11.9995 16.6943L11.9995 16.9443C12.4111 16.9443 12.8093 16.8866 13.1869 16.7818L13.1201 16.5409ZM11.9995 16.6943L11.9995 16.4443C11.9901 16.4443 11.9803 16.4442 11.9699 16.4439L11.9634 16.6938L11.957 16.9438C11.9706 16.9441 11.9849 16.9443 11.9995 16.9443L11.9995 16.6943ZM11.794 16.7846L11.5806 16.6545L10.8955 17.7783L11.1089 17.9085L11.3224 18.0386L12.0075 16.9148L11.794 16.7846ZM10.8969 17.9934L10.9614 17.7519L10.2722 17.5678L10.2077 17.8093L10.1432 18.0508L10.8323 18.235L10.8969 17.9934ZM10.0663 17.6298L10.3162 17.6236L10.2835 16.3081L10.0335 16.3144L9.78361 16.3206L9.81635 17.636L10.0663 17.6298ZM9.93326 16.1495L10.0566 15.9321C9.73599 15.7502 9.44317 15.5248 9.1866 15.2638L9.0083 15.439L8.83001 15.6143C9.11901 15.9083 9.44878 16.1621 9.8099 16.367L9.93326 16.1495ZM8.82272 15.3847L8.76374 15.1418L7.48658 15.4519L7.54556 15.6948L7.60455 15.9378L8.8817 15.6277L8.82272 15.3847ZM7.33537 15.6048L7.55193 15.4799L7.1955 14.8619L6.97894 14.9868L6.76238 15.1117L7.1188 15.7297L7.33537 15.6048ZM7.00601 14.76L7.18709 14.9324L8.09305 13.9806L7.91196 13.8082L7.73088 13.6359L6.82492 14.5877L7.00601 14.76ZM7.95764 13.6206L8.19859 13.5539C8.10585 13.2187 8.05616 12.8653 8.05615 12.5L7.80615 12.5L7.55615 12.5C7.55617 12.9108 7.61207 13.3091 7.71669 13.6872L7.95764 13.6206ZM7.80615 12.5L8.05615 12.5C8.05615 12.489 8.05622 12.4779 8.05635 12.4668L7.80636 12.4639L7.55638 12.4611C7.55623 12.474 7.55615 12.4869 7.55615 12.5L7.80615 12.5ZM7.71396 12.2945L7.84416 12.0811L6.72129 11.3961L6.59109 11.6095L6.4609 11.8229L7.58376 12.5079L7.71396 12.2945ZM6.50622 11.3973L6.74768 11.4621L6.93256 10.7728L6.6911 10.708L6.44963 10.6432L6.26475 11.3325L6.50622 11.3973ZM6.87054 10.5668L6.87677 10.8167L8.19038 10.7839L8.18415 10.534L8.17792 10.2841L6.86431 10.3168L6.87054 10.5668ZM8.34904 10.4337L8.56647 10.5571C8.74818 10.2369 8.97385 9.94456 9.23495 9.68792L9.0597 9.50963L8.88446 9.33134C8.59074 9.62003 8.33653 9.94922 8.13161 10.3103L8.34904 10.4337ZM9.11401 9.32436L9.35703 9.26571L9.04845 7.98717L8.80543 8.04583L8.5624 8.10448L8.87099 9.38302L9.11401 9.32436ZM8.89545 7.83593L9.02046 8.05243L9.63771 7.69603L9.5127 7.47953L9.3877 7.26303L8.77044 7.61943L8.89545 7.83593ZM9.73955 7.50655L9.56718 7.68763L10.5189 8.59353L10.6913 8.41245L10.8636 8.23136L9.91191 7.32546L9.73955 7.50655ZM10.8789 8.45812L10.9456 8.69906C11.2808 8.60632 11.6342 8.55666 11.9995 8.55664L11.9995 8.30664L11.9995 8.05664C11.5887 8.05667 11.1905 8.11253 10.8123 8.21717L10.8789 8.45812ZM11.9995 8.30664L11.9995 8.55664C12.0105 8.55664 12.0216 8.55671 12.0327 8.55684L12.0356 8.30685L12.0384 8.05687C12.0255 8.05672 12.0126 8.05664 11.9995 8.05664L11.9995 8.30664ZM12.205 8.21445L12.4184 8.34465L13.1034 7.22178L12.89 7.09158L12.6766 6.96138L11.9916 8.08426L12.205 8.21445ZM13.1022 7.00671L13.0375 7.24817L13.7267 7.43303L13.7914 7.19156L13.8562 6.9501L13.167 6.76524L13.1022 7.00671ZM12.0952 10.4023V10.1523C10.7986 10.1523 9.74756 11.2034 9.74756 12.5H9.99756H10.2476C10.2476 11.4795 11.0747 10.6523 12.0952 10.6523V10.4023ZM9.99756 12.5L9.74756 12.5C9.74761 13.7966 10.7986 14.8477 12.0952 14.8477V14.5977V14.3477C11.0748 14.3477 10.2476 13.5205 10.2476 12.5L9.99756 12.5ZM12.0952 14.5977L12.0952 14.8477C13.3917 14.8475 14.4428 13.7965 14.4429 12.5L14.1929 12.5L13.9429 12.5C13.9428 13.5203 13.1156 14.3475 12.0952 14.3477L12.0952 14.5977ZM14.1929 12.5H14.4429C14.4429 11.2034 13.3917 10.1525 12.0952 10.1523L12.0952 10.4023L12.0952 10.6523C13.1156 10.6525 13.9429 11.4796 13.9429 12.5H14.1929ZM12.89 7.09158L13.1034 7.22178C13.0897 7.24424 13.0629 7.25499 13.0375 7.24817L13.1022 7.00671L13.167 6.76524C12.9781 6.71458 12.7784 6.79444 12.6766 6.96138L12.89 7.09158ZM12.0356 8.30685L12.0327 8.55684C12.1861 8.55858 12.3348 8.48175 12.4184 8.34465L12.205 8.21445L11.9916 8.08426C12.0035 8.06469 12.0227 8.05669 12.0384 8.05687L12.0356 8.30685ZM10.6913 8.41245L10.5189 8.59353C10.6351 8.70408 10.7982 8.73984 10.9456 8.69906L10.8789 8.45812L10.8123 8.21717C10.827 8.2131 10.8472 8.21572 10.8636 8.23136L10.6913 8.41245ZM9.5127 7.47953L9.63771 7.69603C9.61494 7.70918 9.58623 7.70576 9.56718 7.68763L9.73955 7.50655L9.91191 7.32546C9.77035 7.19072 9.55695 7.1653 9.3877 7.26303L9.5127 7.47953ZM8.80543 8.04583L9.04845 7.98717C9.05461 8.01273 9.04322 8.03929 9.02046 8.05243L8.89545 7.83593L8.77044 7.61943C8.60124 7.71712 8.51656 7.91456 8.5624 8.10448L8.80543 8.04583ZM9.0597 9.50963L9.23495 9.68792C9.34406 9.58067 9.39463 9.4215 9.35703 9.26571L9.11401 9.32436L8.87099 9.38302C8.86567 9.361 8.87348 9.34212 8.88446 9.33134L9.0597 9.50963ZM8.18415 10.534L8.19038 10.7839C8.35054 10.78 8.49107 10.69 8.56647 10.5571L8.34904 10.4337L8.13161 10.3103C8.13913 10.2971 8.15526 10.2847 8.17792 10.2841L8.18415 10.534ZM6.6911 10.708L6.93256 10.7728C6.92575 10.7982 6.90304 10.816 6.87677 10.8167L6.87054 10.5668L6.86431 10.3168C6.66902 10.3217 6.50024 10.4546 6.44963 10.6432L6.6911 10.708ZM6.59109 11.6095L6.72129 11.3961C6.74375 11.4098 6.7545 11.4366 6.74768 11.4621L6.50622 11.3973L6.26475 11.3325C6.21409 11.5214 6.29396 11.7211 6.4609 11.8229L6.59109 11.6095ZM6.97894 14.9868L7.1955 14.8619C7.20864 14.8846 7.20521 14.9133 7.18709 14.9324L7.00601 14.76L6.82492 14.5877C6.69023 14.7292 6.66478 14.9425 6.76238 15.1117L6.97894 14.9868ZM7.54556 15.6948L7.48658 15.4519C7.51216 15.4457 7.53878 15.4571 7.55193 15.4799L7.33537 15.6048L7.1188 15.7297C7.21657 15.8992 7.41439 15.9839 7.60455 15.9378L7.54556 15.6948ZM9.0083 15.439L9.1866 15.2638C9.07922 15.1545 8.91976 15.1039 8.76374 15.1418L8.82272 15.3847L8.8817 15.6277C8.85964 15.633 8.84076 15.6252 8.83001 15.6143L9.0083 15.439ZM10.0335 16.3144L10.2835 16.3081C10.2795 16.148 10.1895 16.0075 10.0566 15.9321L9.93326 16.1495L9.8099 16.367C9.79659 16.3594 9.78417 16.3432 9.78361 16.3206L10.0335 16.3144ZM10.2077 17.8093L10.2722 17.5678C10.2976 17.5746 10.3155 17.5973 10.3162 17.6236L10.0663 17.6298L9.81635 17.636C9.82122 17.8315 9.95427 18.0004 10.1432 18.0508L10.2077 17.8093ZM11.1089 17.9085L10.8955 17.7783C10.9091 17.7559 10.936 17.7451 10.9614 17.7519L10.8969 17.9934L10.8323 18.235C11.0211 18.2854 11.2206 18.2055 11.3224 18.0386L11.1089 17.9085ZM11.9634 16.6938L11.9699 16.4439C11.8154 16.4399 11.6649 16.5161 11.5806 16.6545L11.794 16.7846L12.0075 16.9148C11.9948 16.9356 11.9738 16.9442 11.957 16.9438L11.9634 16.6938ZM13.3077 16.5866L13.4801 16.4055C13.364 16.295 13.2008 16.2591 13.0533 16.3001L13.1201 16.5409L13.1869 16.7818C13.1721 16.786 13.1518 16.7833 13.1354 16.7677L13.3077 16.5866ZM14.4873 17.5205L14.3623 17.304C14.3851 17.2908 14.4138 17.2942 14.4328 17.3124L14.2605 17.4935L14.0881 17.6745C14.2296 17.8093 14.4431 17.8347 14.6123 17.737L14.4873 17.5205ZM15.1945 16.9541L14.9515 17.0129C14.9453 16.9873 14.9567 16.9608 14.9795 16.9476L15.1045 17.1641L15.2295 17.3806C15.3988 17.2829 15.4834 17.0853 15.4375 16.8954L15.1945 16.9541ZM15.814 14.4651L15.8079 14.2151C15.6477 14.219 15.507 14.309 15.4315 14.442L15.649 14.5654L15.8664 14.6887C15.8589 14.702 15.8427 14.7144 15.82 14.715L15.814 14.4651ZM17.3088 14.2917L17.0673 14.2272C17.0741 14.2018 17.0968 14.1839 17.1232 14.1832L17.1292 14.4332L17.1353 14.6831C17.3308 14.6783 17.4999 14.5453 17.5504 14.3563L17.3088 14.2917ZM17.408 13.3906L17.2779 13.6041C17.2554 13.5904 17.2446 13.5635 17.2514 13.5381L17.493 13.6027L17.7345 13.6672C17.7849 13.4784 17.705 13.2789 17.5381 13.1771L17.408 13.3906ZM16.1933 12.5361L15.9434 12.5296C15.9394 12.6842 16.0156 12.8346 16.154 12.9189L16.2841 12.7055L16.4143 12.492C16.435 12.5047 16.4437 12.5257 16.4433 12.5426L16.1933 12.5361ZM16.0872 11.1908L15.9063 11.0182C15.7955 11.1344 15.7596 11.2977 15.8005 11.4453L16.0415 11.3786L16.2824 11.3118C16.2865 11.3266 16.2838 11.3469 16.2682 11.3633L16.0872 11.1908ZM17.0208 10.0131L16.8044 10.1381C16.7912 10.1154 16.7946 10.0866 16.8128 10.0676L16.9937 10.2401L17.1747 10.4126C17.3097 10.271 17.3352 10.0574 17.2373 9.88797L17.0208 10.0131ZM16.4537 9.305L16.5125 9.548C16.4869 9.55418 16.4603 9.5428 16.4472 9.52003L16.6636 9.39495L16.8801 9.26986C16.7823 9.10068 16.5848 9.01608 16.3949 9.06201L16.4537 9.305ZM7.80636 12.4639L8.05635 12.4668C8.05808 12.3134 7.98127 12.1647 7.84416 12.0811L7.71396 12.2945L7.58376 12.5079C7.56418 12.496 7.5562 12.4768 7.55638 12.4611L7.80636 12.4639ZM14.9889 9.56017L14.8106 9.73544C14.9179 9.84459 15.0771 9.89512 15.233 9.85743L15.1742 9.61444L15.1154 9.37144C15.1375 9.36612 15.1563 9.37392 15.1671 9.38491L14.9889 9.56017ZM13.9646 8.68453L13.7147 8.69061C13.7185 8.8509 13.8086 8.99156 13.9415 9.067L14.0649 8.84956L14.1883 8.63212C14.2015 8.63964 14.214 8.65577 14.2145 8.67846L13.9646 8.68453ZM14.9393 15.4893L14.764 15.3111C14.655 15.4184 14.6044 15.5776 14.6421 15.7335L14.8851 15.6747L15.1281 15.6159C15.1334 15.638 15.1256 15.6568 15.1146 15.6676L14.9393 15.4893ZM7.91196 13.8082L8.09305 13.9806C8.20359 13.8645 8.23936 13.7013 8.19859 13.5539L7.95764 13.6206L7.71669 13.6872C7.71261 13.6725 7.71524 13.6523 7.73088 13.6359L7.91196 13.8082ZM13.9327 7.37112L14.1826 7.36505C14.1778 7.16966 14.045 7.00073 13.8562 6.9501L13.7914 7.19156L13.7267 7.43303C13.7013 7.42621 13.6834 7.40349 13.6827 7.3772L13.9327 7.37112Z" fill="black"/>
<path d="M4.75 4.75C4.75 3.64543 5.64543 2.75 6.75 2.75H13.4216C13.952 2.75 14.4607 2.96071 14.8358 3.33579L18.6642 7.16421C19.0393 7.53929 19.25 8.04799 19.25 8.57843V19.2459C19.25 20.3505 18.3546 21.2459 17.25 21.2459H6.75C5.64543 21.2459 4.75 20.3505 4.75 19.2459V4.75Z" stroke="url(#paint1_linear_289_415)" stroke-width="1.5"/>
</g>
<defs>
<linearGradient id="paint0_linear_289_415" x1="20" y1="2" x2="4" y2="22" gradientUnits="userSpaceOnUse">
<stop offset="0.2" stop-color="#ECF0F3"/>
<stop offset="0.9" stop-color="#B9CCD6"/>
</linearGradient>
<linearGradient id="paint1_linear_289_415" x1="12" y1="2.75" x2="12" y2="21.2459" gradientUnits="userSpaceOnUse">
<stop stop-color="#AFCBD9"/>
<stop offset="1" stop-color="#8DA8B7"/>
</linearGradient>
<clipPath id="clip0_289_415">
<rect width="24" height="24" fill="white"/>
</clipPath>
</defs>
</svg>
