<svg width="24" height="24" viewBox="0 0 24 24" fill="none" xmlns="http://www.w3.org/2000/svg">
<g clip-path="url(#clip0_234_13)">
<path d="M4 5C4 3.34315 5.34315 2 7 2H13.2574C14.053 2 14.8161 2.31607 15.3787 2.87868L19.1213 6.62132C19.6839 7.18393 20 7.94699 20 8.74264V19C20 20.6569 18.6569 22 17 22H7C5.34315 22 4 20.6569 4 19V5Z" fill="url(#paint0_linear_234_13)"/>
<path d="M7.95538 8.28726C7.15135 8.28726 6.49933 8.93928 6.49933 9.74332V12.008C6.49946 12.8119 7.15143 13.464 7.95538 13.464H8.42511L8.14972 15.4777L10.9915 13.464H11.3519C12.1558 13.464 12.8078 12.8119 12.8079 12.008V9.74332C12.8079 8.93928 12.1559 8.28726 11.3519 8.28726H7.95538Z" fill="white"/>
<path d="M6.49933 12.008L6.24933 12.008V12.008H6.49933ZM8.42511 13.464V13.214C8.49732 13.214 8.56601 13.2452 8.61348 13.2997C8.66096 13.3541 8.68259 13.4263 8.6728 13.4979L8.42511 13.464ZM8.14972 15.4777L8.29426 15.6817C8.21298 15.7393 8.10527 15.7431 8.02009 15.6915C7.93491 15.6398 7.88853 15.5425 7.90202 15.4438L8.14972 15.4777ZM10.9915 13.464L10.847 13.26C10.8892 13.2301 10.9397 13.214 10.9915 13.214V13.464ZM12.8079 12.008H13.0579V12.008L12.8079 12.008ZM7.95538 8.28726V8.53726C7.28942 8.53726 6.74933 9.07735 6.74933 9.74332H6.49933H6.24933C6.24933 8.80121 7.01328 8.03726 7.95538 8.03726V8.28726ZM6.49933 9.74332H6.74933V12.008H6.49933H6.24933V9.74332H6.49933ZM6.49933 12.008L6.74933 12.0079C6.74944 12.6738 7.28954 13.214 7.95538 13.214V13.464V13.714C7.01332 13.714 6.24948 12.9499 6.24933 12.008L6.49933 12.008ZM7.95538 13.464V13.214H8.42511V13.464V13.714H7.95538V13.464ZM8.42511 13.464L8.6728 13.4979L8.39741 15.5116L8.14972 15.4777L7.90202 15.4438L8.17742 13.4301L8.42511 13.464ZM8.14972 15.4777L8.00518 15.2737L10.847 13.26L10.9915 13.464L11.1361 13.668L8.29426 15.6817L8.14972 15.4777ZM10.9915 13.464V13.214H11.3519V13.464V13.714H10.9915V13.464ZM11.3519 13.464V13.214C12.0177 13.214 12.5578 12.6738 12.5579 12.0079L12.8079 12.008L13.0579 12.008C13.0578 12.9499 12.2939 13.714 11.3519 13.714V13.464ZM12.8079 12.008H12.5579V9.74332H12.8079H13.0579V12.008H12.8079ZM12.8079 9.74332H12.5579C12.5579 9.07735 12.0178 8.53726 11.3519 8.53726V8.28726V8.03726C12.294 8.03726 13.0579 8.80121 13.0579 9.74332H12.8079ZM11.3519 8.28726V8.53726H7.95538V8.28726V8.03726H11.3519V8.28726Z" fill="black"/>
<path d="M16.0443 11.272C16.8483 11.272 17.5004 11.9241 17.5004 12.7281V14.9927C17.5002 15.7967 16.8483 16.4488 16.0443 16.4488H15.5746L15.85 18.4625L13.0082 16.4488H12.6478C11.8439 16.4488 11.1919 15.7967 11.1918 14.9927V12.7281C11.1918 11.9241 11.8438 11.272 12.6478 11.272H16.0443Z" fill="white"/>
<path d="M17.5004 14.9927L17.7504 14.9928V14.9927H17.5004ZM15.5746 16.4488V16.1988C15.5024 16.1988 15.4337 16.23 15.3862 16.2844C15.3387 16.3388 15.3171 16.4111 15.3269 16.4827L15.5746 16.4488ZM15.85 18.4625L15.7054 18.6664C15.7867 18.724 15.8944 18.7279 15.9796 18.6762C16.0648 18.6246 16.1112 18.5273 16.0977 18.4286L15.85 18.4625ZM13.0082 16.4488L13.1527 16.2448C13.1105 16.2149 13.06 16.1988 13.0082 16.1988V16.4488ZM11.1918 14.9927H10.9418V14.9928L11.1918 14.9927ZM16.0443 11.272V11.522C16.7103 11.522 17.2504 12.0621 17.2504 12.7281H17.5004H17.7504C17.7504 11.786 16.9864 11.022 16.0443 11.022V11.272ZM17.5004 12.7281H17.2504V14.9927H17.5004H17.7504V12.7281H17.5004ZM17.5004 14.9927L17.2504 14.9927C17.2503 15.6586 16.7102 16.1988 16.0443 16.1988V16.4488V16.6988C16.9864 16.6988 17.7502 15.9347 17.7504 14.9928L17.5004 14.9927ZM16.0443 16.4488V16.1988H15.5746V16.4488V16.6988H16.0443V16.4488ZM15.5746 16.4488L15.3269 16.4827L15.6023 18.4963L15.85 18.4625L16.0977 18.4286L15.8223 16.4149L15.5746 16.4488ZM15.85 18.4625L15.9945 18.2585L13.1527 16.2448L13.0082 16.4488L12.8636 16.6528L15.7054 18.6664L15.85 18.4625ZM13.0082 16.4488V16.1988H12.6478V16.4488V16.6988H13.0082V16.4488ZM12.6478 16.4488V16.1988C11.982 16.1988 11.4419 15.6586 11.4418 14.9927L11.1918 14.9927L10.9418 14.9928C10.9419 15.9347 11.7058 16.6988 12.6478 16.6988V16.4488ZM11.1918 14.9927H11.4418V12.7281H11.1918H10.9418V14.9927H11.1918ZM11.1918 12.7281H11.4418C11.4418 12.0621 11.9819 11.522 12.6478 11.522V11.272V11.022C11.7057 11.022 10.9418 11.786 10.9418 12.7281H11.1918ZM12.6478 11.272V11.522H16.0443V11.272V11.022H12.6478V11.272Z" fill="black"/>
<path d="M8.5 10H11M13 13H15.5" stroke="black" stroke-width="0.5" stroke-linecap="round"/>
<path d="M7.5 11.5H8.5M9.5 11.5H10.5" stroke="black" stroke-width="0.5" stroke-linecap="round"/>
<path d="M12.5 14.5H13.5M14.5 14.5H15.5" stroke="black" stroke-width="0.5" stroke-linecap="round"/>
<path d="M4.75 4.75C4.75 3.64543 5.64543 2.75 6.75 2.75H13.4216C13.952 2.75 14.4607 2.96071 14.8358 3.33579L18.6642 7.16421C19.0393 7.53929 19.25 8.04799 19.25 8.57843V19.2459C19.25 20.3505 18.3546 21.2459 17.25 21.2459H6.75C5.64543 21.2459 4.75 20.3505 4.75 19.2459V4.75Z" stroke="url(#paint1_linear_234_13)" stroke-width="1.5"/>
<path d="M15.3662 2.80567L19.1944 6.6338C19.5715 7.01096 19.8279 7.48646 19.9385 8.00001H16C14.8954 8.00001 14 7.10458 14 6.00001L14 2.06155C14.5136 2.17211 14.9891 2.42851 15.3662 2.80567Z" fill="#D0D0D1"/>
</g>
<defs>
<linearGradient id="paint0_linear_234_13" x1="20" y1="2" x2="4" y2="22" gradientUnits="userSpaceOnUse">
<stop stop-color="#8B8B8B"/>
<stop offset="1" stop-color="#4E4E4E"/>
</linearGradient>
<linearGradient id="paint1_linear_234_13" x1="12" y1="2.75" x2="12" y2="21.2459" gradientUnits="userSpaceOnUse">
<stop stop-color="#B5B5B5"/>
<stop offset="1" stop-color="#767676"/>
</linearGradient>
<clipPath id="clip0_234_13">
<rect width="24" height="24" fill="white"/>
</clipPath>
</defs>
</svg>
