<svg width="24" height="24" viewBox="0 0 24 24" fill="none" xmlns="http://www.w3.org/2000/svg">
<g clip-path="url(#clip0_234_13)">
<path d="M4 5C4 3.34315 5.34315 2 7 2H13.2574C14.053 2 14.8161 2.31607 15.3787 2.87868L19.1213 6.62132C19.6839 7.18393 20 7.94699 20 8.74264V19C20 20.6569 18.6569 22 17 22H7C5.34315 22 4 20.6569 4 19V5Z" fill="url(#paint0_linear_234_13)"/>
<path d="M7.95538 7.5C7.15135 7.5 6.49933 8.15202 6.49933 8.95605V11.2207C6.49946 12.0246 7.15143 12.6768 7.95538 12.6768H8.42511L8.14972 14.6904L10.9915 12.6768H11.3519C12.1558 12.6768 12.8078 12.0246 12.8079 11.2207V8.95605C12.8079 8.15202 12.1559 7.5 11.3519 7.5H7.95538Z" fill="white"/>
<path d="M6.49933 11.2207L6.24933 11.2207V11.2207H6.49933ZM8.42511 12.6768V12.4268C8.49732 12.4268 8.56601 12.458 8.61348 12.5124C8.66096 12.5668 8.68259 12.6391 8.6728 12.7106L8.42511 12.6768ZM8.14972 14.6904L8.29426 14.8944C8.21298 14.952 8.10527 14.9558 8.02009 14.9042C7.93491 14.8525 7.88853 14.7553 7.90202 14.6566L8.14972 14.6904ZM10.9915 12.6768L10.847 12.4728C10.8892 12.4428 10.9397 12.4268 10.9915 12.4268V12.6768ZM12.8079 11.2207H13.0579V11.2207L12.8079 11.2207ZM7.95538 7.5V7.75C7.28942 7.75 6.74933 8.29009 6.74933 8.95605H6.49933H6.24933C6.24933 8.01395 7.01328 7.25 7.95538 7.25V7.5ZM6.49933 8.95605H6.74933V11.2207H6.49933H6.24933V8.95605H6.49933ZM6.49933 11.2207L6.74933 11.2207C6.74944 11.8866 7.28954 12.4268 7.95538 12.4268V12.6768V12.9268C7.01332 12.9268 6.24948 12.1627 6.24933 11.2207L6.49933 11.2207ZM7.95538 12.6768V12.4268H8.42511V12.6768V12.9268H7.95538V12.6768ZM8.42511 12.6768L8.6728 12.7106L8.39741 14.7243L8.14972 14.6904L7.90202 14.6566L8.17742 12.6429L8.42511 12.6768ZM8.14972 14.6904L8.00518 14.4864L10.847 12.4728L10.9915 12.6768L11.1361 12.8807L8.29426 14.8944L8.14972 14.6904ZM10.9915 12.6768V12.4268H11.3519V12.6768V12.9268H10.9915V12.6768ZM11.3519 12.6768V12.4268C12.0177 12.4268 12.5578 11.8866 12.5579 11.2207L12.8079 11.2207L13.0579 11.2207C13.0578 12.1627 12.2939 12.9268 11.3519 12.9268V12.6768ZM12.8079 11.2207H12.5579V8.95605H12.8079H13.0579V11.2207H12.8079ZM12.8079 8.95605H12.5579C12.5579 8.29009 12.0178 7.75 11.3519 7.75V7.5V7.25C12.294 7.25 13.0579 8.01395 13.0579 8.95605H12.8079ZM11.3519 7.5V7.75H7.95538V7.5V7.25H11.3519V7.5Z" fill="black"/>
<path d="M16.0443 10.4848C16.8483 10.4848 17.5004 11.1368 17.5004 11.9408V14.2055C17.5002 15.0094 16.8483 15.6615 16.0443 15.6615H15.5746L15.85 17.6752L13.0082 15.6615H12.6478C11.8439 15.6615 11.1919 15.0094 11.1918 14.2055V11.9408C11.1918 11.1368 11.8438 10.4848 12.6478 10.4848H16.0443Z" fill="white"/>
<path d="M17.5004 14.2055L17.7504 14.2055V14.2055H17.5004ZM15.5746 15.6615V15.4115C15.5024 15.4115 15.4337 15.4428 15.3862 15.4972C15.3387 15.5516 15.3171 15.6239 15.3269 15.6954L15.5746 15.6615ZM15.85 17.6752L15.7054 17.8792C15.7867 17.9368 15.8944 17.9406 15.9796 17.889C16.0648 17.8373 16.1112 17.74 16.0977 17.6413L15.85 17.6752ZM13.0082 15.6615L13.1527 15.4575C13.1105 15.4276 13.06 15.4115 13.0082 15.4115V15.6615ZM11.1918 14.2055H10.9418V14.2055L11.1918 14.2055ZM16.0443 10.4848V10.7348C16.7103 10.7348 17.2504 11.2749 17.2504 11.9408H17.5004H17.7504C17.7504 10.9987 16.9864 10.2348 16.0443 10.2348V10.4848ZM17.5004 11.9408H17.2504V14.2055H17.5004H17.7504V11.9408H17.5004ZM17.5004 14.2055L17.2504 14.2054C17.2503 14.8714 16.7102 15.4115 16.0443 15.4115V15.6615V15.9115C16.9864 15.9115 17.7502 15.1474 17.7504 14.2055L17.5004 14.2055ZM16.0443 15.6615V15.4115H15.5746V15.6615V15.9115H16.0443V15.6615ZM15.5746 15.6615L15.3269 15.6954L15.6023 17.7091L15.85 17.6752L16.0977 17.6413L15.8223 15.6277L15.5746 15.6615ZM15.85 17.6752L15.9945 17.4712L13.1527 15.4575L13.0082 15.6615L12.8636 15.8655L15.7054 17.8792L15.85 17.6752ZM13.0082 15.6615V15.4115H12.6478V15.6615V15.9115H13.0082V15.6615ZM12.6478 15.6615V15.4115C11.982 15.4115 11.4419 14.8714 11.4418 14.2054L11.1918 14.2055L10.9418 14.2055C10.9419 15.1474 11.7058 15.9115 12.6478 15.9115V15.6615ZM11.1918 14.2055H11.4418V11.9408H11.1918H10.9418V14.2055H11.1918ZM11.1918 11.9408H11.4418C11.4418 11.2749 11.9819 10.7348 12.6478 10.7348V10.4848V10.2348C11.7057 10.2348 10.9418 10.9987 10.9418 11.9408H11.1918ZM12.6478 10.4848V10.7348H16.0443V10.4848V10.2348H12.6478V10.4848Z" fill="black"/>
<path d="M8.5 9.21274H11M13 12.2127H15.5" stroke="black" stroke-width="0.5" stroke-linecap="round"/>
<path d="M7.5 10.7127H8.5M9.5 10.7127H10.5" stroke="black" stroke-width="0.5" stroke-linecap="round"/>
<path d="M12.5 13.7127H13.5M14.5 13.7127H15.5" stroke="black" stroke-width="0.5" stroke-linecap="round"/>
<path d="M4.75 4.75C4.75 3.64543 5.64543 2.75 6.75 2.75H13.4216C13.952 2.75 14.4607 2.96071 14.8358 3.33579L18.6642 7.16421C19.0393 7.53929 19.25 8.04799 19.25 8.57843V19.2459C19.25 20.3505 18.3546 21.2459 17.25 21.2459H6.75C5.64543 21.2459 4.75 20.3505 4.75 19.2459V4.75Z" stroke="url(#paint1_linear_234_13)" stroke-width="1.5"/>
</g>
<defs>
<linearGradient id="paint0_linear_234_13" x1="20" y1="2" x2="4" y2="22" gradientUnits="userSpaceOnUse">
<stop offset="0.2" stop-color="#8B8B8B"/>
<stop offset="0.9" stop-color="#4E4E4E"/>
</linearGradient>
<linearGradient id="paint1_linear_234_13" x1="12" y1="2.75" x2="12" y2="21.2459" gradientUnits="userSpaceOnUse">
<stop stop-color="#B5B5B5"/>
<stop offset="1" stop-color="#767676"/>
</linearGradient>
<clipPath id="clip0_234_13">
<rect width="24" height="24" fill="white"/>
</clipPath>
</defs>
</svg>
