<svg width="24" height="24" viewBox="0 0 24 24" fill="none" xmlns="http://www.w3.org/2000/svg">
<rect x="2" y="7" width="20" height="12" rx="2" fill="#313F59"/>
<path d="M2 7C2 5.89543 2.89543 5 4 5H10.2268C10.7243 5 11.204 5.18544 11.5721 5.52012L18.1721 11.5201C19.5248 12.7498 18.6549 15 16.8268 15H4C2.89543 15 2 14.1046 2 13V7Z" fill="#458FFF"/>
<rect x="2" y="8" width="20" height="11" rx="2" fill="url(#paint0_linear_475_2070)"/>
<path d="M7.07246 16.2103L6.99888 16.4302H5.95401L5.88043 16.2103L4 10.5698H5.32448L6.47644 14.0249L7.62841 10.5698H8.95289L7.07246 16.2103Z" fill="white"/>
<path d="M17.5048 13.3659L20 16.4302H18.3804L16.6716 14.3315L16.1042 14.9888V16.4302H14.8484V10.5698H16.1042V13.0675L16.2113 12.944L18.2618 10.5698H19.9207L17.5048 13.3659Z" fill="white"/>
<path fill-rule="evenodd" clip-rule="evenodd" d="M11.9182 10.5698C13.0742 10.5698 14.0112 11.5069 14.0112 12.6628C14.0112 13.8187 13.0742 14.7558 11.9182 14.7558H11.081V16.4302H9.82524V10.5698H11.9182ZM11.081 13.5H11.9182C12.3806 13.5 12.7554 13.1252 12.7554 12.6628C12.7554 12.2004 12.3806 11.8256 11.9182 11.8256H11.081V13.5Z" fill="white"/>
<defs>
<linearGradient id="paint0_linear_475_2070" x1="5" y1="8" x2="19" y2="19" gradientUnits="userSpaceOnUse">
<stop stop-color="#4D6599"/>
<stop offset="1" stop-color="#334466"/>
</linearGradient>
</defs>
</svg>
