<svg width="24" height="24" viewBox="0 0 24 24" fill="none" xmlns="http://www.w3.org/2000/svg">
<g clip-path="url(#clip0_230_216)">
<path d="M4 5C4 3.34315 5.34315 2 7 2H13.2574C14.053 2 14.8161 2.31607 15.3787 2.87868L19.1213 6.62132C19.6839 7.18393 20 7.94699 20 8.74264V19C20 20.6569 18.6569 22 17 22H7C5.34315 22 4 20.6569 4 19V5Z" fill="url(#paint0_linear_230_216)"/>
<path d="M11.1712 15.3295V15.1818C11.175 14.4962 11.2393 13.9508 11.3643 13.5455C11.4931 13.1402 11.675 12.8144 11.9098 12.5682C12.1446 12.3182 12.4306 12.089 12.7678 11.8807C12.9988 11.7367 13.2053 11.5795 13.3871 11.4091C13.5727 11.2348 13.7185 11.0417 13.8246 10.8295C13.9306 10.6136 13.9837 10.3731 13.9837 10.108C13.9837 9.80871 13.9136 9.54924 13.7734 9.32955C13.6333 9.10985 13.4439 8.93939 13.2053 8.81818C12.9704 8.69697 12.7071 8.63636 12.4155 8.63636C12.1465 8.63636 11.8909 8.69508 11.6484 8.8125C11.4098 8.92614 11.2109 9.10038 11.0518 9.33523C10.8965 9.56629 10.8094 9.85985 10.7905 10.2159H8.76776C8.7867 9.49621 8.96094 8.89394 9.29048 8.40909C9.62382 7.92424 10.0632 7.56061 10.6087 7.31818C11.1579 7.07576 11.764 6.95455 12.4268 6.95455C13.1503 6.95455 13.7867 7.08144 14.3359 7.33523C14.889 7.58902 15.3189 7.95076 15.6257 8.42045C15.9363 8.88636 16.0916 9.43939 16.0916 10.0795C16.0916 10.5114 16.0215 10.8977 15.8814 11.2386C15.745 11.5795 15.55 11.8826 15.2962 12.1477C15.0424 12.4129 14.7412 12.6496 14.3928 12.858C14.0859 13.0473 13.834 13.2443 13.6371 13.4489C13.4439 13.6534 13.3 13.8939 13.2053 14.1705C13.1143 14.4432 13.067 14.7803 13.0632 15.1818V15.3295H11.1712ZM12.1598 18.875C11.8189 18.875 11.5253 18.7538 11.2791 18.5114C11.0329 18.2689 10.9098 17.9735 10.9098 17.625C10.9098 17.2841 11.0329 16.9924 11.2791 16.75C11.5253 16.5076 11.8189 16.3864 12.1598 16.3864C12.4969 16.3864 12.7886 16.5076 13.0348 16.75C13.2848 16.9924 13.4098 17.2841 13.4098 17.625C13.4098 17.8561 13.3511 18.0663 13.2337 18.2557C13.12 18.4451 12.9685 18.5966 12.7791 18.7102C12.5935 18.8201 12.3871 18.875 12.1598 18.875Z" fill="black"/>
<path d="M10.6712 14.8295V14.6818C10.675 13.9962 10.7393 13.4508 10.8643 13.0455C10.9931 12.6402 11.175 12.3144 11.4098 12.0682C11.6446 11.8182 11.9306 11.589 12.2678 11.3807C12.4988 11.2367 12.7053 11.0795 12.8871 10.9091C13.0727 10.7348 13.2185 10.5417 13.3246 10.3295C13.4306 10.1136 13.4837 9.87311 13.4837 9.60795C13.4837 9.30871 13.4136 9.04924 13.2734 8.82955C13.1333 8.60985 12.9439 8.43939 12.7053 8.31818C12.4704 8.19697 12.2071 8.13636 11.9155 8.13636C11.6465 8.13636 11.3909 8.19508 11.1484 8.3125C10.9098 8.42614 10.7109 8.60038 10.5518 8.83523C10.3965 9.06629 10.3094 9.35985 10.2905 9.71591H8.26776C8.2867 8.99621 8.46094 8.39394 8.79048 7.90909C9.12382 7.42424 9.56321 7.06061 10.1087 6.81818C10.6579 6.57576 11.264 6.45455 11.9268 6.45455C12.6503 6.45455 13.2867 6.58144 13.8359 6.83523C14.389 7.08902 14.8189 7.45076 15.1257 7.92045C15.4363 8.38636 15.5916 8.93939 15.5916 9.57955C15.5916 10.0114 15.5215 10.3977 15.3814 10.7386C15.245 11.0795 15.05 11.3826 14.7962 11.6477C14.5424 11.9129 14.2412 12.1496 13.8928 12.358C13.5859 12.5473 13.334 12.7443 13.1371 12.9489C12.9439 13.1534 12.8 13.3939 12.7053 13.6705C12.6143 13.9432 12.567 14.2803 12.5632 14.6818V14.8295H10.6712ZM11.6598 18.375C11.3189 18.375 11.0253 18.2538 10.7791 18.0114C10.5329 17.7689 10.4098 17.4735 10.4098 17.125C10.4098 16.7841 10.5329 16.4924 10.7791 16.25C11.0253 16.0076 11.3189 15.8864 11.6598 15.8864C11.9969 15.8864 12.2886 16.0076 12.5348 16.25C12.7848 16.4924 12.9098 16.7841 12.9098 17.125C12.9098 17.3561 12.8511 17.5663 12.7337 17.7557C12.62 17.9451 12.4685 18.0966 12.2791 18.2102C12.0935 18.3201 11.8871 18.375 11.6598 18.375Z" fill="#BE7E2D"/>
<path d="M4.75 4.75C4.75 3.64543 5.64543 2.75 6.75 2.75H13.4216C13.952 2.75 14.4607 2.96071 14.8358 3.33579L18.6642 7.16421C19.0393 7.53929 19.25 8.04799 19.25 8.57843V19.2459C19.25 20.3505 18.3546 21.2459 17.25 21.2459H6.75C5.64543 21.2459 4.75 20.3505 4.75 19.2459V4.75Z" stroke="url(#paint1_linear_230_216)" stroke-width="1.5"/>
</g>
<defs>
<linearGradient id="paint0_linear_230_216" x1="20" y1="2" x2="4" y2="22" gradientUnits="userSpaceOnUse">
<stop offset="0.2" stop-color="#75A1C2"/>
<stop offset="0.9" stop-color="#2F6B97"/>
</linearGradient>
<linearGradient id="paint1_linear_230_216" x1="12" y1="2.75" x2="12" y2="21.2459" gradientUnits="userSpaceOnUse">
<stop stop-color="#ADC7DA"/>
<stop offset="1" stop-color="#538AB3"/>
</linearGradient>
<clipPath id="clip0_230_216">
<rect width="24" height="24" fill="white"/>
</clipPath>
</defs>
</svg>
