<svg width="24" height="24" viewBox="0 0 24 24" fill="none" xmlns="http://www.w3.org/2000/svg">
<g clip-path="url(#clip0_230_216)">
<path d="M4 5C4 3.34315 5.34315 2 7 2H13.2574C14.053 2 14.8161 2.31607 15.3787 2.87868L19.1213 6.62132C19.6839 7.18393 20 7.94699 20 8.74264V19C20 20.6569 18.6569 22 17 22H7C5.34315 22 4 20.6569 4 19V5Z" fill="url(#paint0_linear_230_216)"/>
<path d="M11.1712 15.0795V14.9318C11.175 14.2462 11.2393 13.7008 11.3643 13.2955C11.4931 12.8902 11.675 12.5644 11.9098 12.3182C12.1446 12.0682 12.4306 11.839 12.7678 11.6307C12.9988 11.4867 13.2053 11.3295 13.3871 11.1591C13.5727 10.9848 13.7185 10.7917 13.8246 10.5795C13.9306 10.3636 13.9837 10.1231 13.9837 9.85795C13.9837 9.55871 13.9136 9.29924 13.7734 9.07955C13.6333 8.85985 13.4439 8.68939 13.2053 8.56818C12.9704 8.44697 12.7071 8.38636 12.4155 8.38636C12.1465 8.38636 11.8909 8.44508 11.6484 8.5625C11.4098 8.67614 11.2109 8.85038 11.0518 9.08523C10.8965 9.31629 10.8094 9.60985 10.7905 9.96591H8.76776C8.7867 9.24621 8.96094 8.64394 9.29048 8.15909C9.62382 7.67424 10.0632 7.31061 10.6087 7.06818C11.1579 6.82576 11.764 6.70455 12.4268 6.70455C13.1503 6.70455 13.7867 6.83144 14.3359 7.08523C14.889 7.33902 15.3189 7.70076 15.6257 8.17045C15.9363 8.63636 16.0916 9.18939 16.0916 9.82955C16.0916 10.2614 16.0215 10.6477 15.8814 10.9886C15.745 11.3295 15.55 11.6326 15.2962 11.8977C15.0424 12.1629 14.7412 12.3996 14.3928 12.608C14.0859 12.7973 13.834 12.9943 13.6371 13.1989C13.4439 13.4034 13.3 13.6439 13.2053 13.9205C13.1143 14.1932 13.067 14.5303 13.0632 14.9318V15.0795H11.1712ZM12.1598 18.625C11.8189 18.625 11.5253 18.5038 11.2791 18.2614C11.0329 18.0189 10.9098 17.7235 10.9098 17.375C10.9098 17.0341 11.0329 16.7424 11.2791 16.5C11.5253 16.2576 11.8189 16.1364 12.1598 16.1364C12.4969 16.1364 12.7886 16.2576 13.0348 16.5C13.2848 16.7424 13.4098 17.0341 13.4098 17.375C13.4098 17.6061 13.3511 17.8163 13.2337 18.0057C13.12 18.1951 12.9685 18.3466 12.7791 18.4602C12.5935 18.5701 12.3871 18.625 12.1598 18.625Z" fill="black"/>
<path d="M10.6712 14.5795V14.4318C10.675 13.7462 10.7393 13.2008 10.8643 12.7955C10.9931 12.3902 11.175 12.0644 11.4098 11.8182C11.6446 11.5682 11.9306 11.339 12.2678 11.1307C12.4988 10.9867 12.7053 10.8295 12.8871 10.6591C13.0727 10.4848 13.2185 10.2917 13.3246 10.0795C13.4306 9.86364 13.4837 9.62311 13.4837 9.35795C13.4837 9.05871 13.4136 8.79924 13.2734 8.57955C13.1333 8.35985 12.9439 8.18939 12.7053 8.06818C12.4704 7.94697 12.2071 7.88636 11.9155 7.88636C11.6465 7.88636 11.3909 7.94508 11.1484 8.0625C10.9098 8.17614 10.7109 8.35038 10.5518 8.58523C10.3965 8.81629 10.3094 9.10985 10.2905 9.46591H8.26776C8.2867 8.74621 8.46094 8.14394 8.79048 7.65909C9.12382 7.17424 9.56321 6.81061 10.1087 6.56818C10.6579 6.32576 11.264 6.20455 11.9268 6.20455C12.6503 6.20455 13.2867 6.33144 13.8359 6.58523C14.389 6.83902 14.8189 7.20076 15.1257 7.67045C15.4363 8.13636 15.5916 8.68939 15.5916 9.32955C15.5916 9.76136 15.5215 10.1477 15.3814 10.4886C15.245 10.8295 15.05 11.1326 14.7962 11.3977C14.5424 11.6629 14.2412 11.8996 13.8928 12.108C13.5859 12.2973 13.334 12.4943 13.1371 12.6989C12.9439 12.9034 12.8 13.1439 12.7053 13.4205C12.6143 13.6932 12.567 14.0303 12.5632 14.4318V14.5795H10.6712ZM11.6598 18.125C11.3189 18.125 11.0253 18.0038 10.7791 17.7614C10.5329 17.5189 10.4098 17.2235 10.4098 16.875C10.4098 16.5341 10.5329 16.2424 10.7791 16C11.0253 15.7576 11.3189 15.6364 11.6598 15.6364C11.9969 15.6364 12.2886 15.7576 12.5348 16C12.7848 16.2424 12.9098 16.5341 12.9098 16.875C12.9098 17.1061 12.8511 17.3163 12.7337 17.5057C12.62 17.6951 12.4685 17.8466 12.2791 17.9602C12.0935 18.0701 11.8871 18.125 11.6598 18.125Z" fill="#BE7E2D"/>
<path d="M4.75 4.75C4.75 3.64543 5.64543 2.75 6.75 2.75H13.4216C13.952 2.75 14.4607 2.96071 14.8358 3.33579L18.6642 7.16421C19.0393 7.53929 19.25 8.04799 19.25 8.57843V19.2459C19.25 20.3505 18.3546 21.2459 17.25 21.2459H6.75C5.64543 21.2459 4.75 20.3505 4.75 19.2459V4.75Z" stroke="url(#paint1_linear_230_216)" stroke-width="1.5"/>
<path d="M15.3662 2.80567L19.1944 6.6338C19.5715 7.01096 19.8279 7.48646 19.9385 8.00001H16C14.8954 8.00001 14 7.10458 14 6.00001L14 2.06155C14.5136 2.17211 14.9891 2.42851 15.3662 2.80567Z" fill="#C8D9E7"/>
</g>
<defs>
<linearGradient id="paint0_linear_230_216" x1="20" y1="2" x2="4" y2="22" gradientUnits="userSpaceOnUse">
<stop stop-color="#75A1C2"/>
<stop offset="1" stop-color="#2F6B97"/>
</linearGradient>
<linearGradient id="paint1_linear_230_216" x1="12" y1="2.75" x2="12" y2="21.2459" gradientUnits="userSpaceOnUse">
<stop stop-color="#ADC7DA"/>
<stop offset="1" stop-color="#538AB3"/>
</linearGradient>
<clipPath id="clip0_230_216">
<rect width="24" height="24" fill="white"/>
</clipPath>
</defs>
</svg>
