<svg width="24" height="24" viewBox="0 0 24 24" fill="none" xmlns="http://www.w3.org/2000/svg">
<g clip-path="url(#clip0_270_241)">
<path d="M4 5C4 3.34315 5.34315 2 7 2H13.2574C14.053 2 14.8161 2.31607 15.3787 2.87868L19.1213 6.62132C19.6839 7.18393 20 7.94699 20 8.74264V19C20 20.6569 18.6569 22 17 22H7C5.34315 22 4 20.6569 4 19V5Z" fill="url(#paint0_linear_270_241)"/>
<path d="M15.3576 7.27086C15.5604 7.21557 15.7598 7.27388 15.9034 7.39781C15.9469 7.41691 15.9873 7.44363 16.0216 7.47789C16.0943 7.55066 16.1358 7.64944 16.1359 7.7523C16.1359 7.87984 16.1358 8.00758 16.1359 8.13512C16.1368 10.4344 16.1379 12.7343 16.1388 15.0336C16.1388 15.0518 16.1388 15.07 16.1388 15.0882C16.1549 15.1938 16.1536 15.3022 16.1388 15.4115C16.1388 15.4134 16.1388 15.4155 16.1388 15.4173C16.1387 15.4691 16.1282 15.5198 16.1085 15.5668C16.0033 15.9667 15.7051 16.3583 15.2628 16.6136C14.5019 17.0528 13.6049 16.9241 13.2599 16.3265C12.915 15.7289 13.2529 14.8879 14.0138 14.4486C14.4608 14.1907 14.9543 14.1297 15.3556 14.2435C15.3562 12.8155 15.3569 11.3874 15.3576 9.95933L10.1603 11.3763C10.161 13.0863 10.1626 14.7964 10.1632 16.5062C10.1632 16.5228 10.1632 16.5395 10.1632 16.556C10.1804 16.665 10.179 16.7771 10.1632 16.89C10.1632 16.9417 10.1534 16.9925 10.1339 17.0394C10.0288 17.4394 9.73052 17.8309 9.28821 18.0863C8.52723 18.5256 7.63033 18.3968 7.28528 17.7992C6.94053 17.2016 7.2775 16.3616 8.03821 15.9222C8.48514 15.6642 8.97873 15.6025 9.38001 15.7162C9.38084 13.6801 9.38216 11.6437 9.38294 9.60777C9.38299 9.48021 9.38289 9.35252 9.38294 9.22496C9.38302 9.12214 9.42449 9.02329 9.4972 8.95055C9.53875 8.90904 9.58933 8.87871 9.64368 8.85973C9.67657 8.83139 9.71595 8.8102 9.75989 8.7982L15.3576 7.27086Z" fill="black"/>
<path d="M15.0734 6.97255C15.2763 6.91726 15.4757 6.97557 15.6193 7.0995C15.6628 7.1186 15.7031 7.14532 15.7374 7.17958C15.8102 7.25235 15.8517 7.35113 15.8517 7.45399C15.8517 7.58153 15.8516 7.70927 15.8517 7.83681C15.8526 10.1361 15.8537 12.436 15.8546 14.7352C15.8546 14.7535 15.8546 14.7717 15.8546 14.7899C15.8707 14.8955 15.8694 15.0039 15.8546 15.1132C15.8546 15.1151 15.8546 15.1171 15.8546 15.119C15.8546 15.1708 15.844 15.2215 15.8243 15.2684C15.7191 15.6684 15.4209 16.06 14.9786 16.3153C14.2177 16.7545 13.3207 16.6258 12.9757 16.0282C12.6308 15.4306 12.9687 14.5896 13.7296 14.1503C14.1767 13.8924 14.6702 13.8313 15.0714 13.9452C15.072 12.5172 15.0728 11.0891 15.0734 9.66103L9.8761 11.078C9.87684 12.788 9.87838 14.4981 9.87903 16.2079C9.87904 16.2244 9.87903 16.2411 9.87903 16.2577C9.8962 16.3667 9.89486 16.4788 9.87903 16.5917C9.87899 16.6434 9.86927 16.6942 9.84974 16.7411C9.7446 17.1411 9.44634 17.5325 9.00403 17.788C8.24305 18.2273 7.34615 18.0985 7.0011 17.5009C6.65635 16.9033 6.99332 16.0632 7.75403 15.6239C8.20096 15.3659 8.69455 15.3042 9.09583 15.4179C9.09666 13.3818 9.09798 11.3454 9.09876 9.30946C9.09881 9.18191 9.09871 9.05421 9.09876 8.92665C9.09884 8.82383 9.14031 8.72498 9.21302 8.65224C9.25457 8.61073 9.30515 8.5804 9.3595 8.56142C9.39239 8.53308 9.43177 8.51189 9.47571 8.49989L15.0734 6.97255Z" fill="url(#paint1_linear_270_241)"/>
<path d="M4.75 4.75C4.75 3.64543 5.64543 2.75 6.75 2.75H13.4216C13.952 2.75 14.4607 2.96071 14.8358 3.33579L18.6642 7.16421C19.0393 7.53929 19.25 8.04799 19.25 8.57843V19.2459C19.25 20.3505 18.3546 21.2459 17.25 21.2459H6.75C5.64543 21.2459 4.75 20.3505 4.75 19.2459V4.75Z" stroke="url(#paint2_linear_270_241)" stroke-width="1.5"/>
</g>
<defs>
<linearGradient id="paint0_linear_270_241" x1="20" y1="2" x2="4" y2="22" gradientUnits="userSpaceOnUse">
<stop offset="0.2" stop-color="#455373"/>
<stop offset="0.9" stop-color="#202A40"/>
</linearGradient>
<linearGradient id="paint1_linear_270_241" x1="11.3598" y1="7.06299" x2="11.3598" y2="17.9646" gradientUnits="userSpaceOnUse">
<stop stop-color="#55BBFF"/>
<stop offset="1" stop-color="#1676E3"/>
</linearGradient>
<linearGradient id="paint2_linear_270_241" x1="12" y1="2.75" x2="12" y2="21.2459" gradientUnits="userSpaceOnUse">
<stop stop-color="#5C6F99"/>
<stop offset="1" stop-color="#405480"/>
</linearGradient>
<clipPath id="clip0_270_241">
<rect width="24" height="24" fill="white"/>
</clipPath>
</defs>
</svg>
