<svg width="24" height="24" viewBox="0 0 24 24" fill="none" xmlns="http://www.w3.org/2000/svg">
<g clip-path="url(#clip0_274_472)">
<path d="M4 5C4 3.34315 5.34315 2 7 2H13.2574C14.053 2 14.8161 2.31607 15.3787 2.87868L19.1213 6.62132C19.6839 7.18393 20 7.94699 20 8.74264V19C20 20.6569 18.6569 22 17 22H7C5.34315 22 4 20.6569 4 19V5Z" fill="url(#paint0_linear_274_472)"/>
<path d="M15.3576 7.27094C15.5607 7.21555 15.7608 7.27359 15.9044 7.39789C15.9476 7.41697 15.9876 7.44393 16.0216 7.47797C16.0943 7.55074 16.1358 7.64953 16.1359 7.75238C16.1359 7.87989 16.1358 8.00768 16.1359 8.13519C16.1368 10.4344 16.1379 12.7344 16.1388 15.0336C16.1388 15.0519 16.1388 15.0701 16.1388 15.0883C16.1549 15.1939 16.1536 15.3023 16.1388 15.4116C16.1388 15.4134 16.1388 15.4156 16.1388 15.4174C16.1387 15.4692 16.1282 15.5199 16.1085 15.5668C16.0033 15.9667 15.705 16.3574 15.2628 16.6127C14.5019 17.0521 13.605 16.9242 13.2599 16.3266C12.915 15.729 13.2529 14.888 14.0138 14.4487C14.4609 14.1907 14.9544 14.1297 15.3556 14.2436C15.3562 12.8156 15.357 11.3875 15.3576 9.95941L10.1603 11.3764C10.161 13.0864 10.1626 14.7964 10.1632 16.5063C10.1632 16.5229 10.1632 16.5395 10.1632 16.5561C10.1804 16.6651 10.1791 16.7772 10.1632 16.8901C10.1632 16.9418 10.1535 16.9926 10.1339 17.0395C10.0288 17.4395 9.73053 17.831 9.28823 18.0864C8.52724 18.5257 7.63035 18.3969 7.2853 17.7993C6.94051 17.2017 7.27753 16.3617 8.03823 15.9223C8.48516 15.6643 8.97875 15.6026 9.38003 15.7162C9.38086 13.6802 9.38218 11.6438 9.38296 9.60785C9.38301 9.48027 9.38291 9.35262 9.38296 9.22504C9.38301 9.12221 9.42452 9.02338 9.49722 8.95062C9.53845 8.90943 9.58884 8.8798 9.64272 8.86078C9.67586 8.83195 9.71544 8.80943 9.75991 8.7973L15.3576 7.27094Z" fill="black"/>
<path d="M15.0734 6.97263C15.2766 6.91724 15.4766 6.97528 15.6203 7.09958C15.6634 7.11866 15.7034 7.14562 15.7374 7.17966C15.8102 7.25243 15.8517 7.35122 15.8517 7.45407C15.8518 7.58158 15.8517 7.70938 15.8517 7.83688C15.8526 10.1361 15.8538 12.4361 15.8546 14.7353C15.8546 14.7535 15.8546 14.7718 15.8546 14.79C15.8707 14.8956 15.8695 15.004 15.8546 15.1133C15.8546 15.1151 15.8546 15.1173 15.8546 15.1191C15.8546 15.1709 15.844 15.2216 15.8244 15.2685C15.7191 15.6684 15.4208 16.0591 14.9787 16.3144C14.2177 16.7538 13.3208 16.6259 12.9757 16.0283C12.6308 15.4307 12.9687 14.5897 13.7296 14.1504C14.1767 13.8924 14.6702 13.8314 15.0714 13.9453C15.072 12.5173 15.0728 11.0892 15.0734 9.6611L9.87612 11.0781C9.87686 12.7881 9.8784 14.4981 9.87905 16.208C9.87906 16.2246 9.87905 16.2412 9.87905 16.2578C9.89621 16.3668 9.89488 16.4789 9.87905 16.5918C9.87901 16.6435 9.86931 16.6943 9.84975 16.7412C9.74459 17.1412 9.44635 17.5326 9.00405 17.7881C8.24306 18.2274 7.34617 18.0986 7.00112 17.5009C6.65633 16.9034 6.99335 16.0633 7.75405 15.624C8.20098 15.366 8.69457 15.3043 9.09585 15.4179C9.09668 13.3819 9.098 11.3455 9.09878 9.30954C9.09883 9.18196 9.09873 9.05431 9.09878 8.92673C9.09883 8.8239 9.14034 8.72507 9.21304 8.65231C9.25427 8.61112 9.30466 8.58149 9.35854 8.56247C9.39168 8.53364 9.43126 8.51112 9.47573 8.49899L15.0734 6.97263Z" fill="url(#paint1_linear_274_472)"/>
<path d="M4.75 4.75C4.75 3.64543 5.64543 2.75 6.75 2.75H13.4216C13.952 2.75 14.4607 2.96071 14.8358 3.33579L18.6642 7.16421C19.0393 7.53929 19.25 8.04799 19.25 8.57843V19.2459C19.25 20.3505 18.3546 21.2459 17.25 21.2459H6.75C5.64543 21.2459 4.75 20.3505 4.75 19.2459V4.75Z" stroke="url(#paint2_linear_274_472)" stroke-width="1.5"/>
</g>
<defs>
<linearGradient id="paint0_linear_274_472" x1="20" y1="2" x2="4" y2="22" gradientUnits="userSpaceOnUse">
<stop offset="0.2" stop-color="#F2FBFF"/>
<stop offset="0.9" stop-color="#CFDBE6"/>
</linearGradient>
<linearGradient id="paint1_linear_274_472" x1="11.3598" y1="7.06298" x2="11.3598" y2="17.9646" gradientUnits="userSpaceOnUse">
<stop stop-color="#55BBFF"/>
<stop offset="1" stop-color="#1676E3"/>
</linearGradient>
<linearGradient id="paint2_linear_274_472" x1="12" y1="2.75" x2="12" y2="21.2459" gradientUnits="userSpaceOnUse">
<stop stop-color="#C3CFD9"/>
<stop offset="1" stop-color="#879099"/>
</linearGradient>
<clipPath id="clip0_274_472">
<rect width="24" height="24" fill="white"/>
</clipPath>
</defs>
</svg>
