<svg width="24" height="24" viewBox="0 0 24 24" fill="none" xmlns="http://www.w3.org/2000/svg">
<path d="M7.13657 19.9677C6.56153 17.4995 6.0504 15.6482 5.32847 13.8387C4.71187 12.2932 3.94149 10.7782 2.84619 8.93549C5.57153 8.34041 6.72118 7.77916 8.53741 6.8779C10.3537 5.97664 11.383 4.60141 13.8784 4.03229C15.4564 5.41848 16.7281 6.55229 17.8404 7.70969C19.3464 9.27678 20.5601 10.8871 21.8462 13.2258C19.12 13.6705 16.9866 15.0785 14.9626 16.4935C12.4855 18.2253 10.1722 19.9677 7.13657 19.9677Z" fill="url(#paint0_linear_251_1099)"/>
<path d="M5.32847 13.8387C6.0504 15.6482 6.56153 17.4995 7.13657 19.9677C10.1722 19.9677 12.4855 18.2253 14.9626 16.4935M5.32847 13.8387C4.71187 12.2932 3.94149 10.7782 2.84619 8.93549C5.57153 8.34041 6.72118 7.77916 8.53741 6.8779M5.32847 13.8387C10.2501 11.912 13.0132 10.879 17.8404 7.70969M17.8404 7.70969C19.3464 9.27678 20.5601 10.8871 21.8462 13.2258C19.12 13.6705 16.9866 15.0785 14.9626 16.4935M17.8404 7.70969C16.7281 6.55229 15.4564 5.41848 13.8784 4.03229C11.383 4.60141 10.3536 5.97664 8.53741 6.8779M8.53741 6.8779C11.251 10.537 13.3488 12.542 14.9626 16.4935" stroke="#CEB47B" stroke-width="1.13824" stroke-linejoin="round"/>
<defs>
<linearGradient id="paint0_linear_251_1099" x1="12.3462" y1="4.03229" x2="12.3462" y2="19.9677" gradientUnits="userSpaceOnUse">
<stop stop-color="#5C88A0"/>
<stop offset="1" stop-color="#273C48"/>
</linearGradient>
</defs>
</svg>
