<svg width="24" height="24" viewBox="0 0 24 24" fill="none" xmlns="http://www.w3.org/2000/svg">
<g clip-path="url(#clip0_327_347)">
<path d="M4 5C4 3.34315 5.34315 2 7 2H13.2574C14.053 2 14.8161 2.31607 15.3787 2.87868L19.1213 6.62132C19.6839 7.18393 20 7.94699 20 8.74264V19C20 20.6569 18.6569 22 17 22H7C5.34315 22 4 20.6569 4 19V5Z" fill="url(#paint0_linear_327_347)"/>
<path d="M8.9839 17.2258C8.65099 15.7968 8.35507 14.725 7.93711 13.6774C7.58013 12.7826 7.13412 11.9055 6.5 10.8387C8.07783 10.4942 8.74341 10.1692 9.79492 9.64746C10.8464 9.12568 11.4424 8.32949 12.8871 8C13.8006 8.80253 14.5369 9.45895 15.1808 10.129C16.0527 11.0363 16.7554 11.9686 17.5 13.3226C15.9217 13.58 14.6865 14.3952 13.5148 15.2144C12.0806 16.217 10.7414 17.2258 8.9839 17.2258Z" fill="url(#paint1_linear_327_347)"/>
<path d="M7.93711 13.6774C8.35507 14.725 8.65099 15.7968 8.9839 17.2258C10.7414 17.2258 12.0806 16.217 13.5148 15.2144M7.93711 13.6774C7.58013 12.7826 7.13412 11.9055 6.5 10.8387C8.07783 10.4942 8.74341 10.1692 9.79492 9.64746M7.93711 13.6774C10.7865 12.562 12.3861 11.9639 15.1808 10.129M15.1808 10.129C16.0527 11.0363 16.7554 11.9686 17.5 13.3226C15.9217 13.58 14.6865 14.3952 13.5148 15.2144M15.1808 10.129C14.5369 9.45895 13.8006 8.80253 12.8871 8C11.4424 8.32949 10.8464 9.12568 9.79492 9.64746M9.79492 9.64746C11.3659 11.7659 12.5804 12.9267 13.5148 15.2144" stroke="#E6C273" stroke-width="0.75" stroke-linejoin="round"/>
<path d="M4.75 4.75C4.75 3.64543 5.64543 2.75 6.75 2.75H13.4216C13.952 2.75 14.4607 2.96071 14.8358 3.33579L18.6642 7.16421C19.0393 7.53929 19.25 8.04799 19.25 8.57843V19.2459C19.25 20.3505 18.3546 21.2459 17.25 21.2459H6.75C5.64543 21.2459 4.75 20.3505 4.75 19.2459V4.75Z" stroke="url(#paint2_linear_327_347)" stroke-width="1.5"/>
</g>
<defs>
<linearGradient id="paint0_linear_327_347" x1="20" y1="2" x2="4" y2="22" gradientUnits="userSpaceOnUse">
<stop offset="0.2" stop-color="#4B7084"/>
<stop offset="0.9" stop-color="#192931"/>
</linearGradient>
<linearGradient id="paint1_linear_327_347" x1="12" y1="8" x2="12" y2="17.2258" gradientUnits="userSpaceOnUse">
<stop stop-color="#5C88A0"/>
<stop offset="1" stop-color="#273C48"/>
</linearGradient>
<linearGradient id="paint2_linear_327_347" x1="12" y1="2.9375" x2="12" y2="21.0625" gradientUnits="userSpaceOnUse">
<stop stop-color="#6093B0"/>
<stop offset="1" stop-color="#265E7D"/>
</linearGradient>
<clipPath id="clip0_327_347">
<rect width="24" height="24" fill="white"/>
</clipPath>
</defs>
</svg>
