<svg width="24" height="24" viewBox="0 0 24 24" fill="none" xmlns="http://www.w3.org/2000/svg">
<g clip-path="url(#clip0_301_968)">
<path d="M4 5C4 3.34315 5.34315 2 7 2H13.2574C14.053 2 14.8161 2.31607 15.3787 2.87868L19.1213 6.62132C19.6839 7.18393 20 7.94699 20 8.74264V19C20 20.6569 18.6569 22 17 22H7C5.34315 22 4 20.6569 4 19V5Z" fill="url(#paint0_linear_301_968)"/>
<path d="M4.75 4.75C4.75 3.64543 5.64543 2.75 6.75 2.75H13.4216C13.952 2.75 14.4607 2.96071 14.8358 3.33579L18.6642 7.16421C19.0393 7.53929 19.25 8.04799 19.25 8.57843V19.2459C19.25 20.3505 18.3546 21.2459 17.25 21.2459H6.75C5.64543 21.2459 4.75 20.3505 4.75 19.2459V4.75Z" stroke="url(#paint1_linear_301_968)" stroke-width="1.5"/>
<rect x="6.5" y="7.5" width="11" height="11" rx="2.2" fill="url(#paint2_linear_301_968)"/>
<path d="M9.8916 14.4677C10.4526 14.4679 10.9072 14.9233 10.9072 15.4843C10.9072 16.0453 10.4526 16.5006 9.8916 16.5009C9.33041 16.5009 8.875 16.0455 8.875 15.4843C8.87501 14.9231 9.33041 14.4677 9.8916 14.4677ZM8.875 9.50089C12.7407 9.50107 15.8748 12.6352 15.875 16.5009H14.5205C14.5203 13.4807 12.1477 11.0143 9.16504 10.8632L8.875 10.8564V9.50089ZM9.10156 11.9833C11.4705 11.9837 13.3912 13.9054 13.3916 16.2743C13.3916 16.3498 13.3896 16.4254 13.3857 16.4999H12.0273C12.033 16.4257 12.0371 16.35 12.0371 16.2743C12.0368 14.6537 10.7222 13.3392 9.10156 13.3388C9.02543 13.3388 8.94967 13.3429 8.875 13.3485V11.9892C8.9499 11.9853 9.02569 11.9833 9.10156 11.9833Z" fill="white"/>
</g>
<defs>
<linearGradient id="paint0_linear_301_968" x1="20" y1="2" x2="4" y2="22" gradientUnits="userSpaceOnUse">
<stop offset="0.2" stop-color="#F2FBFF"/>
<stop offset="0.9" stop-color="#CFDBE6"/>
</linearGradient>
<linearGradient id="paint1_linear_301_968" x1="12" y1="2.75" x2="12" y2="21.2459" gradientUnits="userSpaceOnUse">
<stop stop-color="#C3CFD9"/>
<stop offset="1" stop-color="#879099"/>
</linearGradient>
<linearGradient id="paint2_linear_301_968" x1="17.5" y1="7.5" x2="16.8226" y2="19.1027" gradientUnits="userSpaceOnUse">
<stop offset="0.2" stop-color="#FFA162"/>
<stop offset="0.9" stop-color="#D56115"/>
</linearGradient>
<clipPath id="clip0_301_968">
<rect width="24" height="24" fill="white"/>
</clipPath>
</defs>
</svg>
