<svg width="24" height="24" viewBox="0 0 24 24" fill="none" xmlns="http://www.w3.org/2000/svg">
<g clip-path="url(#clip0_339_594)">
<path d="M4 5C4 3.34315 5.34315 2 7 2H13.2574C14.053 2 14.8161 2.31607 15.3787 2.87868L19.1213 6.62132C19.6839 7.18393 20 7.94699 20 8.74264V19C20 20.6569 18.6569 22 17 22H7C5.34315 22 4 20.6569 4 19V5Z" fill="url(#paint0_linear_339_594)"/>
<path d="M4.75 4.75C4.75 3.64543 5.64543 2.75 6.75 2.75H13.4216C13.952 2.75 14.4607 2.96071 14.8358 3.33579L18.6642 7.16421C19.0393 7.53929 19.25 8.04799 19.25 8.57843V19.2459C19.25 20.3505 18.3546 21.2459 17.25 21.2459H6.75C5.64543 21.2459 4.75 20.3505 4.75 19.2459V4.75Z" stroke="url(#paint1_linear_339_594)" stroke-width="1.5"/>
<rect x="6.5" y="7.5" width="11" height="11" rx="2.2" fill="url(#paint2_linear_339_594)"/>
<path d="M10.5 11L8 13L10.5 15M13.5 11L16 13L13.5 15" stroke="white" stroke-linecap="round" stroke-linejoin="round"/>
</g>
<defs>
<linearGradient id="paint0_linear_339_594" x1="20" y1="2" x2="4" y2="22" gradientUnits="userSpaceOnUse">
<stop offset="0.2" stop-color="#455373"/>
<stop offset="0.9" stop-color="#202A40"/>
</linearGradient>
<linearGradient id="paint1_linear_339_594" x1="12" y1="2.75" x2="12" y2="21.2459" gradientUnits="userSpaceOnUse">
<stop stop-color="#5C6F99"/>
<stop offset="1" stop-color="#405480"/>
</linearGradient>
<linearGradient id="paint2_linear_339_594" x1="6.5" y1="7.5" x2="19.4071" y2="12.5834" gradientUnits="userSpaceOnUse">
<stop stop-color="#FF8533"/>
<stop offset="1" stop-color="#C74F00"/>
</linearGradient>
<clipPath id="clip0_339_594">
<rect width="24" height="24" fill="white"/>
</clipPath>
</defs>
</svg>
